<svg width="220" height="398" viewBox="0 0 220 398" fill="none" xmlns="http://www.w3.org/2000/svg">
<path d="M80.2206 197.193L80.1614 197.146L80.2206 197.193ZM80.2206 197.193L80.1917 197.262M80.2206 197.193L80.1917 197.262M80.1917 197.262C78.4908 201.379 76.7341 205.377 74.9938 209.33L74.8309 209.7C73.1461 213.526 71.4788 217.313 69.8937 221.13C69.383 222.528 68.7582 223.424 67.8988 223.783C67.0375 224.143 65.9761 223.949 64.631 223.259L64.5524 223.219M80.1917 197.262L64.5524 223.219M64.5524 223.219L64.5826 223.136M64.5524 223.219L64.5826 223.136M64.5826 223.136L64.602 223.083M64.5826 223.136L64.602 223.083M74.4223 196.261L74.3846 196.278L74.3703 196.317L74.4223 196.261ZM74.4223 196.261L74.4642 196.352L74.4223 196.261ZM64.602 223.083L64.6214 223.03M64.602 223.083L64.6214 223.03M64.6214 223.03L64.6407 222.977M64.6214 223.03L64.6407 222.977M64.6407 222.977L64.6601 222.924M64.6407 222.977L64.6601 222.924M64.6601 222.924L64.6794 222.871M64.6601 222.924L64.6794 222.871M64.6794 222.871L64.6988 222.818M64.6794 222.871L64.6988 222.818M64.6988 222.818L64.7181 222.765M64.6988 222.818L64.7181 222.765M64.7181 222.765L64.7375 222.712M64.7181 222.765L64.7375 222.712M64.7375 222.712L64.7568 222.659M64.7375 222.712L64.7568 222.659M64.7568 222.659L64.7761 222.606M64.7568 222.659L64.7761 222.606M64.7761 222.606L64.7955 222.553M64.7761 222.606L64.7955 222.553M64.7955 222.553L64.8148 222.5M64.7955 222.553L64.8148 222.5M64.8148 222.5L64.8341 222.447M64.8148 222.5L64.8341 222.447M64.8341 222.447L64.8535 222.394M64.8341 222.447L64.8535 222.394M64.8535 222.394L64.8728 222.341M64.8535 222.394L64.8728 222.341M64.8728 222.341L64.8921 222.288M64.8728 222.341L64.8921 222.288M64.8921 222.288L64.9114 222.235M64.8921 222.288L64.9114 222.235M64.9114 222.235L64.9307 222.182M64.9114 222.235L64.9307 222.182M64.9307 222.182L64.9501 222.129M64.9307 222.182L64.9501 222.129M64.9501 222.129L64.9694 222.076M64.9501 222.129L64.9694 222.076M64.9694 222.076L64.9887 222.024M64.9694 222.076L64.9887 222.024M64.9887 222.024L65.008 221.971M64.9887 222.024L65.008 221.971M65.008 221.971L65.0273 221.918M65.008 221.971L65.0273 221.918M65.0273 221.918L65.0466 221.865M65.0273 221.918L65.0466 221.865M65.0466 221.865L65.0659 221.812M65.0466 221.865L65.0659 221.812M65.0659 221.812L65.0852 221.759M65.0659 221.812L65.0852 221.759M65.0852 221.759L65.1045 221.706M65.0852 221.759L65.1045 221.706M65.1045 221.706L65.1237 221.653M65.1045 221.706L65.1237 221.653M65.1237 221.653L65.143 221.601M65.1237 221.653L65.143 221.601M65.143 221.601L65.1623 221.548M65.143 221.601L65.1623 221.548M65.1623 221.548L65.1816 221.495M65.1623 221.548L65.1816 221.495M65.1816 221.495L65.2009 221.442M65.1816 221.495L65.2009 221.442M65.2009 221.442L65.2202 221.389M65.2009 221.442L65.2202 221.389M65.2202 221.389L65.2394 221.336M65.2202 221.389L65.2394 221.336M65.2394 221.336L65.2587 221.284M65.2394 221.336L65.2587 221.284M65.2587 221.284L65.278 221.231M65.2587 221.284L65.278 221.231M65.278 221.231L65.2972 221.178M65.278 221.231L65.2972 221.178M65.2972 221.178L65.3165 221.125M65.2972 221.178L65.3165 221.125M65.3165 221.125L65.3358 221.072M65.3165 221.125L65.3358 221.072M65.3358 221.072L65.355 221.02M65.3358 221.072L65.355 221.02M65.355 221.02L65.3743 220.967M65.355 221.02L65.3743 220.967M65.3743 220.967L65.3935 220.914M65.3743 220.967L65.3935 220.914M65.3935 220.914L65.4128 220.861M65.3935 220.914L65.4128 220.861M65.4128 220.861L65.432 220.809M65.4128 220.861L65.432 220.809M65.432 220.809L65.4513 220.756M65.432 220.809L65.4513 220.756M65.4513 220.756L65.4705 220.703M65.4513 220.756L65.4705 220.703M65.4705 220.703L65.4898 220.651M65.4705 220.703L65.4898 220.651M65.4898 220.651L65.509 220.598M65.4898 220.651L65.509 220.598M65.509 220.598L65.5282 220.545M65.509 220.598L65.5282 220.545M65.5282 220.545L65.5475 220.492M65.5282 220.545L65.5475 220.492M65.5475 220.492L65.5667 220.44M65.5475 220.492L65.5667 220.44M65.5667 220.44L65.5859 220.387M65.5667 220.44L65.5859 220.387M65.5859 220.387L65.6052 220.334M65.5859 220.387L65.6052 220.334M65.6052 220.334L65.6244 220.282M65.6052 220.334L65.6244 220.282M65.6244 220.282L65.6436 220.229M65.6244 220.282L65.6436 220.229M65.6436 220.229L65.6628 220.176M65.6436 220.229L65.6628 220.176M65.6628 220.176L65.6821 220.124M65.6628 220.176L65.6821 220.124M65.6821 220.124L65.7013 220.071M65.6821 220.124L65.7013 220.071M65.7013 220.071L65.7205 220.018M65.7013 220.071L65.7205 220.018M65.7205 220.018L65.7397 219.966M65.7205 220.018L65.7397 219.966M65.7397 219.966L65.7589 219.913M65.7397 219.966L65.7589 219.913M65.7589 219.913L65.7781 219.86M65.7589 219.913L65.7781 219.86M65.7781 219.86L65.7973 219.808M65.7781 219.86L65.7973 219.808M65.7973 219.808L65.8165 219.755M65.7973 219.808L65.8165 219.755M65.8165 219.755L65.8357 219.703M65.8165 219.755L65.8357 219.703M65.8357 219.703L65.8549 219.65M65.8357 219.703L65.8549 219.65M65.8549 219.65L65.8741 219.597M65.8549 219.65L65.8741 219.597M65.8741 219.597L65.8933 219.545M65.8741 219.597L65.8933 219.545M65.8933 219.545L65.9125 219.492M65.8933 219.545L65.9125 219.492M65.9125 219.492L65.9317 219.44M65.9125 219.492L65.9317 219.44M65.9317 219.44L65.9509 219.387M65.9317 219.44L65.9509 219.387M65.9509 219.387L65.9701 219.334M65.9509 219.387L65.9701 219.334M65.9701 219.334L65.9893 219.282M65.9701 219.334L65.9893 219.282M65.9893 219.282L66.0084 219.229M65.9893 219.282L66.0084 219.229M66.0084 219.229L66.0276 219.177M66.0084 219.229L66.0276 219.177M66.0276 219.177L66.0468 219.124M66.0276 219.177L66.0468 219.124M66.0468 219.124L66.066 219.072M66.0468 219.124L66.066 219.072M66.066 219.072L66.0851 219.019M66.066 219.072L66.0851 219.019M66.0851 219.019L66.1043 218.967M66.0851 219.019L66.1043 218.967M66.1043 218.967L66.1235 218.914M66.1043 218.967L66.1235 218.914M66.1235 218.914L66.1426 218.862M66.1235 218.914L66.1426 218.862M66.1426 218.862L66.1618 218.809M66.1426 218.862L66.1618 218.809M66.1618 218.809L66.181 218.757M66.1618 218.809L66.181 218.757M66.181 218.757L66.2001 218.704M66.181 218.757L66.2001 218.704M66.2001 218.704L66.2193 218.652M66.2001 218.704L66.2193 218.652M66.2193 218.652L66.2385 218.599M66.2193 218.652L66.2385 218.599M66.2385 218.599L66.2576 218.547M66.2385 218.599L66.2576 218.547M66.2576 218.547L66.2768 218.494M66.2576 218.547L66.2768 218.494M66.2768 218.494L66.2959 218.442M66.2768 218.494L66.2959 218.442M66.2959 218.442L66.3151 218.389M66.2959 218.442L66.3151 218.389M66.3151 218.389L66.3342 218.337M66.3151 218.389L66.3342 218.337M66.3342 218.337L66.3534 218.284M66.3342 218.337L66.3534 218.284M66.3534 218.284L66.3725 218.232M66.3534 218.284L66.3725 218.232M66.3725 218.232L66.3916 218.179M66.3725 218.232L66.3916 218.179M66.3916 218.179L66.4108 218.127M66.3916 218.179L66.4108 218.127M66.4108 218.127L66.4299 218.074M66.4108 218.127L66.4299 218.074M66.4299 218.074L66.4491 218.022M66.4299 218.074L66.4491 218.022M66.4491 218.022L66.4682 217.97M66.4491 218.022L66.4682 217.97M66.4682 217.97L66.4873 217.917M66.4682 217.97L66.4873 217.917M66.4873 217.917L66.5065 217.865M66.4873 217.917L66.5065 217.865M66.5065 217.865L66.5256 217.812M66.5065 217.865L66.5256 217.812M66.5256 217.812L66.5447 217.76M66.5256 217.812L66.5447 217.76M66.5447 217.76L66.5638 217.707M66.5447 217.76L66.5638 217.707M66.5638 217.707L66.583 217.655M66.5638 217.707L66.583 217.655M66.583 217.655L66.6021 217.603M66.583 217.655L66.6021 217.603M66.6021 217.603L66.6212 217.55M66.6021 217.603L66.6212 217.55M66.6212 217.55L66.6403 217.498M66.6212 217.55L66.6403 217.498M66.6403 217.498L66.6595 217.445M66.6403 217.498L66.6595 217.445M66.6595 217.445L66.6786 217.393M66.6595 217.445L66.6786 217.393M66.6786 217.393L66.6977 217.341M66.6786 217.393L66.6977 217.341M66.6977 217.341L66.7168 217.288M66.6977 217.341L66.7168 217.288M66.7168 217.288L66.7359 217.236M66.7168 217.288L66.7359 217.236M66.7359 217.236L66.755 217.184M66.7359 217.236L66.755 217.184M66.755 217.184L66.7741 217.131M66.755 217.184L66.7741 217.131M66.7741 217.131L66.7932 217.079M66.7741 217.131L66.7932 217.079M66.7932 217.079L66.8123 217.027M66.7932 217.079L66.8123 217.027M66.8123 217.027L66.8314 216.974M66.8123 217.027L66.8314 216.974M66.8314 216.974L66.8505 216.922M66.8314 216.974L66.8505 216.922M66.8505 216.922L66.8696 216.87M66.8505 216.922L66.8696 216.87M66.8696 216.87L66.8887 216.817M66.8696 216.87L66.8887 216.817M66.8887 216.817L66.9078 216.765M66.8887 216.817L66.9078 216.765M66.9078 216.765L66.9269 216.713M66.9078 216.765L66.9269 216.713M66.9269 216.713L66.946 216.66M66.9269 216.713L66.946 216.66M66.946 216.66L66.9651 216.608M66.946 216.66L66.9651 216.608M66.9651 216.608L66.9842 216.556M66.9651 216.608L66.9842 216.556M66.9842 216.556L67.0033 216.503M66.9842 216.556L67.0033 216.503M67.0033 216.503L67.0224 216.451M67.0033 216.503L67.0224 216.451M67.0224 216.451L67.0415 216.399M67.0224 216.451L67.0415 216.399M67.0415 216.399L67.0606 216.346M67.0415 216.399L67.0606 216.346M67.0606 216.346L67.0796 216.294M67.0606 216.346L67.0796 216.294M67.0796 216.294L67.0987 216.242M67.0796 216.294L67.0987 216.242M67.0987 216.242L67.1178 216.19M67.0987 216.242L67.1178 216.19M67.1178 216.19L67.1369 216.137M67.1178 216.19L67.1369 216.137M67.1369 216.137L67.156 216.085M67.1369 216.137L67.156 216.085M67.156 216.085L67.175 216.033M67.156 216.085L67.175 216.033M67.175 216.033L67.1941 215.981M67.175 216.033L67.1941 215.981M67.1941 215.981L67.2132 215.928M67.1941 215.981L67.2132 215.928M67.2132 215.928L67.2322 215.876M67.2132 215.928L67.2322 215.876M67.2322 215.876L67.2513 215.824M67.2322 215.876L67.2513 215.824M67.2513 215.824L67.2704 215.771M67.2513 215.824L67.2704 215.771M67.2704 215.771L67.2895 215.719M67.2704 215.771L67.2895 215.719M67.2895 215.719L67.3085 215.667M67.2895 215.719L67.3085 215.667M67.3085 215.667L67.3276 215.615M67.3085 215.667L67.3276 215.615M67.3276 215.615L67.3467 215.563M67.3276 215.615L67.3467 215.563M67.3467 215.563L67.3657 215.51M67.3467 215.563L67.3657 215.51M67.3657 215.51L67.3848 215.458M67.3657 215.51L67.3848 215.458M67.3848 215.458L67.4038 215.406M67.3848 215.458L67.4038 215.406M67.4038 215.406L67.4229 215.354M67.4038 215.406L67.4229 215.354M67.4229 215.354L67.442 215.301M67.4229 215.354L67.442 215.301M67.442 215.301L67.461 215.249M67.442 215.301L67.461 215.249M67.461 215.249L67.4801 215.197M67.461 215.249L67.4801 215.197M67.4801 215.197L67.4991 215.145M67.4801 215.197L67.4991 215.145M67.4991 215.145L67.5182 215.093M67.4991 215.145L67.5182 215.093M67.5182 215.093L67.5372 215.04M67.5182 215.093L67.5372 215.04M67.5372 215.04L67.5563 214.988M67.5372 215.04L67.5563 214.988M67.5563 214.988L67.5753 214.936M67.5563 214.988L67.5753 214.936M67.5753 214.936L67.5944 214.884M67.5753 214.936L67.5944 214.884M67.5944 214.884L67.6134 214.832M67.5944 214.884L67.6134 214.832M67.6134 214.832L67.6325 214.779M67.6134 214.832L67.6325 214.779M67.6325 214.779L67.6515 214.727M67.6325 214.779L67.6515 214.727M67.6515 214.727L67.6706 214.675M67.6515 214.727L67.6706 214.675M67.6706 214.675L67.6896 214.623M67.6706 214.675L67.6896 214.623M67.6896 214.623L67.7087 214.571M67.6896 214.623L67.7087 214.571M67.7087 214.571L67.7277 214.518M67.7087 214.571L67.7277 214.518M67.7277 214.518L67.7467 214.466M67.7277 214.518L67.7467 214.466M67.7467 214.466L67.7658 214.414M67.7467 214.466L67.7658 214.414M67.7658 214.414L67.7848 214.362M67.7658 214.414L67.7848 214.362M67.7848 214.362L67.8038 214.31M67.7848 214.362L67.8038 214.31M67.8038 214.31L67.8229 214.258M67.8038 214.31L67.8229 214.258M67.8229 214.258L67.8419 214.205M67.8229 214.258L67.8419 214.205M67.8419 214.205L67.8609 214.153M67.8419 214.205L67.8609 214.153M67.8609 214.153L67.88 214.101M67.8609 214.153L67.88 214.101M67.88 214.101L67.899 214.049M67.88 214.101L67.899 214.049M67.899 214.049L67.918 213.997M67.899 214.049L67.918 213.997M67.918 213.997L67.9371 213.945M67.918 213.997L67.9371 213.945M67.9371 213.945L67.9561 213.893M67.9371 213.945L67.9561 213.893M67.9561 213.893L67.9751 213.84M67.9561 213.893L67.9751 213.84M67.9751 213.84L67.9942 213.788M67.9751 213.84L67.9942 213.788M67.9942 213.788L68.0132 213.736M67.9942 213.788L68.0132 213.736M68.0132 213.736L68.0322 213.684M68.0132 213.736L68.0322 213.684M68.0322 213.684L68.0512 213.632M68.0322 213.684L68.0512 213.632M68.0512 213.632L68.0703 213.58M68.0512 213.632L68.0703 213.58M68.0703 213.58L68.0893 213.528M68.0703 213.58L68.0893 213.528M68.0893 213.528L68.1083 213.476M68.0893 213.528L68.1083 213.476M68.1083 213.476L68.1273 213.423M68.1083 213.476L68.1273 213.423M68.1273 213.423L68.1464 213.371M68.1273 213.423L68.1464 213.371M68.1464 213.371L68.1654 213.319M68.1464 213.371L68.1654 213.319M68.1654 213.319L68.1844 213.267M68.1654 213.319L68.1844 213.267M68.1844 213.267L68.2034 213.215M68.1844 213.267L68.2034 213.215M68.2034 213.215L68.2224 213.163M68.2034 213.215L68.2224 213.163M68.2224 213.163L68.2414 213.111M68.2224 213.163L68.2414 213.111M68.2414 213.111L68.2605 213.059M68.2414 213.111L68.2605 213.059M68.2605 213.059L68.2795 213.007M68.2605 213.059L68.2795 213.007M68.2795 213.007L68.2985 212.954M68.2795 213.007L68.2985 212.954M68.2985 212.954L68.3175 212.902M68.2985 212.954L68.3175 212.902M68.3175 212.902L68.3365 212.85M68.3175 212.902L68.3365 212.85M68.3365 212.85L68.3555 212.798M68.3365 212.85L68.3555 212.798M68.3555 212.798L68.3745 212.746M68.3555 212.798L68.3745 212.746M68.3745 212.746L68.3935 212.694M68.3745 212.746L68.3935 212.694M68.3935 212.694L68.4126 212.642M68.3935 212.694L68.4126 212.642M68.4126 212.642L68.4316 212.59M68.4126 212.642L68.4316 212.59M68.4316 212.59L68.4506 212.538M68.4316 212.59L68.4506 212.538M68.4506 212.538L68.4696 212.486M68.4506 212.538L68.4696 212.486M68.4696 212.486L68.4886 212.434M68.4696 212.486L68.4886 212.434M68.4886 212.434L68.5076 212.381M68.4886 212.434L68.5076 212.381M68.5076 212.381L68.5266 212.329M68.5076 212.381L68.5266 212.329M68.5266 212.329L68.5456 212.277M68.5266 212.329L68.5456 212.277M68.5456 212.277L68.5646 212.225M68.5456 212.277L68.5646 212.225M68.5646 212.225L68.5836 212.173M68.5646 212.225L68.5836 212.173M68.5836 212.173L68.6026 212.121M68.5836 212.173L68.6026 212.121M68.6026 212.121L68.6216 212.069M68.6026 212.121L68.6216 212.069M68.6216 212.069L68.6406 212.017M68.6216 212.069L68.6406 212.017M68.6406 212.017L68.6596 211.965M68.6406 212.017L68.6596 211.965M68.6596 211.965L68.6786 211.913M68.6596 211.965L68.6786 211.913M68.6786 211.913L68.6976 211.861M68.6786 211.913L68.6976 211.861M68.6976 211.861L68.7166 211.809M68.6976 211.861L68.7166 211.809M68.7166 211.809L68.7357 211.757M68.7166 211.809L68.7357 211.757M68.7357 211.757L68.7547 211.704M68.7357 211.757L68.7547 211.704M68.7547 211.704L68.7737 211.652M68.7547 211.704L68.7737 211.652M68.7737 211.652L68.7927 211.6M68.7737 211.652L68.7927 211.6M68.7927 211.6L68.8117 211.548M68.7927 211.6L68.8117 211.548M68.8117 211.548L68.8307 211.496M68.8117 211.548L68.8307 211.496M68.8307 211.496L68.8496 211.444M68.8307 211.496L68.8496 211.444M68.8496 211.444L68.8686 211.392M68.8496 211.444L68.8686 211.392M68.8686 211.392L68.8876 211.34M68.8686 211.392L68.8876 211.34M68.8876 211.34L68.9066 211.288M68.8876 211.34L68.9066 211.288M68.9066 211.288L68.9256 211.236M68.9066 211.288L68.9256 211.236M68.9256 211.236L68.9446 211.184M68.9256 211.236L68.9446 211.184M68.9446 211.184L68.9636 211.132M68.9446 211.184L68.9636 211.132M68.9636 211.132L68.9826 211.08M68.9636 211.132L68.9826 211.08M68.9826 211.08L69.0016 211.028M68.9826 211.08L69.0016 211.028M69.0016 211.028L69.0206 210.976M69.0016 211.028L69.0206 210.976M69.0206 210.976L69.0396 210.924M69.0206 210.976L69.0396 210.924M69.0396 210.924L69.0586 210.872M69.0396 210.924L69.0586 210.872M69.0586 210.872L69.0776 210.82M69.0586 210.872L69.0776 210.82M69.0776 210.82L69.0966 210.768M69.0776 210.82L69.0966 210.768M69.0966 210.768L69.1156 210.715M69.0966 210.768L69.1156 210.715M69.1156 210.715L69.1346 210.663M69.1156 210.715L69.1346 210.663M69.1346 210.663L69.1536 210.611M69.1346 210.663L69.1536 210.611M69.1536 210.611L69.1726 210.559M69.1536 210.611L69.1726 210.559M69.1726 210.559L69.1916 210.507M69.1726 210.559L69.1916 210.507M69.1916 210.507L69.2106 210.455M69.1916 210.507L69.2106 210.455M69.2106 210.455L69.2296 210.403M69.2106 210.455L69.2296 210.403M69.2296 210.403L69.2486 210.351M69.2296 210.403L69.2486 210.351M69.2486 210.351L69.2675 210.299M69.2486 210.351L69.2675 210.299M69.2675 210.299L69.2865 210.247M69.2675 210.299L69.2865 210.247M69.2865 210.247L69.3055 210.195M69.2865 210.247L69.3055 210.195M69.3055 210.195L69.3245 210.143M69.3055 210.195L69.3245 210.143M69.3245 210.143L69.3435 210.091M69.3245 210.143L69.3435 210.091M69.3435 210.091L69.3625 210.039M69.3435 210.091L69.3625 210.039M69.3625 210.039L69.3815 209.987M69.3625 210.039L69.3815 209.987M69.3815 209.987L69.4005 209.935M69.3815 209.987L69.4005 209.935M69.4005 209.935L69.4195 209.883M69.4005 209.935L69.4195 209.883M69.4195 209.883L69.4385 209.831M69.4195 209.883L69.4385 209.831M69.4385 209.831L69.4575 209.779M69.4385 209.831L69.4575 209.779M69.4575 209.779L69.4765 209.727M69.4575 209.779L69.4765 209.727M69.4765 209.727L69.4955 209.675M69.4765 209.727L69.4955 209.675M69.4955 209.675L69.5145 209.623M69.4955 209.675L69.5145 209.623M69.5145 209.623L69.5334 209.571M69.5145 209.623L69.5334 209.571M69.5334 209.571L69.5524 209.519M69.5334 209.571L69.5524 209.519M69.5524 209.519L69.5714 209.466M69.5524 209.519L69.5714 209.466M69.5714 209.466L69.5904 209.414M69.5714 209.466L69.5904 209.414M69.5904 209.414L69.6094 209.362M69.5904 209.414L69.6094 209.362M69.6094 209.362L69.6284 209.31M69.6094 209.362L69.6284 209.31M69.6284 209.31L69.6474 209.258M69.6284 209.31L69.6474 209.258M69.6474 209.258L69.6664 209.206M69.6474 209.258L69.6664 209.206M69.6664 209.206L69.6854 209.154M69.6664 209.206L69.6854 209.154M69.6854 209.154L69.7044 209.102M69.6854 209.154L69.7044 209.102M69.7044 209.102L69.7234 209.05M69.7044 209.102L69.7234 209.05M69.7234 209.05L69.7424 208.998M69.7234 209.05L69.7424 208.998M69.7424 208.998L69.7614 208.946M69.7424 208.998L69.7614 208.946M69.7614 208.946L69.7804 208.894M69.7614 208.946L69.7804 208.894M69.7804 208.894L69.7993 208.842M69.7804 208.894L69.7993 208.842M69.7993 208.842L69.8183 208.79M69.7993 208.842L69.8183 208.79M69.8183 208.79L69.8373 208.738M69.8183 208.79L69.8373 208.738M69.8373 208.738L69.8563 208.686M69.8373 208.738L69.8563 208.686M69.8563 208.686L69.8753 208.634M69.8563 208.686L69.8753 208.634M69.8753 208.634L69.8943 208.582M69.8753 208.634L69.8943 208.582M69.8943 208.582L69.9133 208.53M69.8943 208.582L69.9133 208.53M69.9133 208.53L69.9323 208.478M69.9133 208.53L69.9323 208.478M69.9323 208.478L69.9513 208.426M69.9323 208.478L69.9513 208.426M69.9513 208.426L69.9703 208.374M69.9513 208.426L69.9703 208.374M69.9703 208.374L69.9893 208.321M69.9703 208.374L69.9893 208.321M69.9893 208.321L70.0083 208.269M69.9893 208.321L70.0083 208.269M70.0083 208.269L70.0273 208.217M70.0083 208.269L70.0273 208.217M70.0273 208.217L70.0463 208.165M70.0273 208.217L70.0463 208.165M70.0463 208.165L70.0653 208.113M70.0463 208.165L70.0653 208.113M70.0653 208.113L70.0843 208.061M70.0653 208.113L70.0843 208.061M70.0843 208.061L70.1033 208.009M70.0843 208.061L70.1033 208.009M70.1033 208.009L70.1223 207.957M70.1033 208.009L70.1223 207.957M70.1223 207.957L70.1413 207.905M70.1223 207.957L70.1413 207.905M70.1413 207.905L70.1603 207.853M70.1413 207.905L70.1603 207.853M70.1603 207.853L70.1793 207.801M70.1603 207.853L70.1793 207.801M70.1793 207.801L70.1983 207.749M70.1793 207.801L70.1983 207.749M70.1983 207.749L70.2173 207.697M70.1983 207.749L70.2173 207.697M70.2173 207.697L70.2363 207.645M70.2173 207.697L70.2363 207.645M70.2363 207.645L70.2553 207.593M70.2363 207.645L70.2553 207.593M70.2553 207.593L70.2743 207.541M70.2553 207.593L70.2743 207.541M70.2743 207.541L70.2933 207.489M70.2743 207.541L70.2933 207.489M70.2933 207.489L70.3123 207.436M70.2933 207.489L70.3123 207.436M70.3123 207.436L70.3313 207.384M70.3123 207.436L70.3313 207.384M70.3313 207.384L70.3503 207.332M70.3313 207.384L70.3503 207.332M70.3503 207.332L70.3693 207.28M70.3503 207.332L70.3693 207.28M70.3693 207.28L70.3883 207.228M70.3693 207.28L70.3883 207.228M70.3883 207.228L70.4073 207.176M70.3883 207.228L70.4073 207.176M70.4073 207.176L70.4263 207.124M70.4073 207.176L70.4263 207.124M70.4263 207.124L70.4453 207.072M70.4263 207.124L70.4453 207.072M70.4453 207.072L70.4643 207.02M70.4453 207.072L70.4643 207.02M70.4643 207.02L70.4833 206.968M70.4643 207.02L70.4833 206.968M70.4833 206.968L70.5024 206.916M70.4833 206.968L70.5024 206.916M70.5024 206.916L70.5214 206.864M70.5024 206.916L70.5214 206.864M70.5214 206.864L70.5404 206.812M70.5214 206.864L70.5404 206.812M70.5404 206.812L70.5594 206.759M70.5404 206.812L70.5594 206.759M70.5594 206.759L70.5784 206.707M70.5594 206.759L70.5784 206.707M70.5784 206.707L70.5974 206.655M70.5784 206.707L70.5974 206.655M70.5974 206.655L70.6164 206.603M70.5974 206.655L70.6164 206.603M70.6164 206.603L70.6354 206.551M70.6164 206.603L70.6354 206.551M70.6354 206.551L70.6544 206.499M70.6354 206.551L70.6544 206.499M70.6544 206.499L70.6735 206.447M70.6544 206.499L70.6735 206.447M70.6735 206.447L70.6925 206.395M70.6735 206.447L70.6925 206.395M70.6925 206.395L70.7115 206.343M70.6925 206.395L70.7115 206.343M70.7115 206.343L70.7305 206.291M70.7115 206.343L70.7305 206.291M70.7305 206.291L70.7495 206.238M70.7305 206.291L70.7495 206.238M70.7495 206.238L70.7685 206.186M70.7495 206.238L70.7685 206.186M70.7685 206.186L70.7876 206.134M70.7685 206.186L70.7876 206.134M70.7876 206.134L70.8066 206.082M70.7876 206.134L70.8066 206.082M70.8066 206.082L70.8256 206.03M70.8066 206.082L70.8256 206.03M70.8256 206.03L70.8446 205.978M70.8256 206.03L70.8446 205.978M70.8446 205.978L70.8637 205.926M70.8446 205.978L70.8637 205.926M70.8637 205.926L70.8827 205.874M70.8637 205.926L70.8827 205.874M70.8827 205.874L70.9017 205.821M70.8827 205.874L70.9017 205.821M70.9017 205.821L70.9207 205.769M70.9017 205.821L70.9207 205.769M70.9207 205.769L70.9398 205.717M70.9207 205.769L70.9398 205.717M70.9398 205.717L70.9588 205.665M70.9398 205.717L70.9588 205.665M70.9588 205.665L70.9778 205.613M70.9588 205.665L70.9778 205.613M70.9778 205.613L70.9968 205.561M70.9778 205.613L70.9968 205.561M70.9968 205.561L71.0159 205.509M70.9968 205.561L71.0159 205.509M71.0159 205.509L71.0349 205.456M71.0159 205.509L71.0349 205.456M71.0349 205.456L71.0539 205.404M71.0349 205.456L71.0539 205.404M71.0539 205.404L71.073 205.352M71.0539 205.404L71.073 205.352M71.073 205.352L71.092 205.3M71.073 205.352L71.092 205.3M71.092 205.3L71.111 205.248M71.092 205.3L71.111 205.248M71.111 205.248L71.1301 205.196M71.111 205.248L71.1301 205.196M71.1301 205.196L71.1491 205.144M71.1301 205.196L71.1491 205.144M71.1491 205.144L71.1681 205.091M71.1491 205.144L71.1681 205.091M71.1681 205.091L71.1872 205.039M71.1681 205.091L71.1872 205.039M71.1872 205.039L71.2062 204.987M71.1872 205.039L71.2062 204.987M71.2062 204.987L71.2252 204.935M71.2062 204.987L71.2252 204.935M71.2252 204.935L71.2443 204.883M71.2252 204.935L71.2443 204.883M71.2443 204.883L71.2633 204.831M71.2443 204.883L71.2633 204.831M71.2633 204.831L71.2824 204.778M71.2633 204.831L71.2824 204.778M71.2824 204.778L71.3014 204.726M71.2824 204.778L71.3014 204.726M71.3014 204.726L71.3205 204.674M71.3014 204.726L71.3205 204.674M71.3205 204.674L71.3395 204.622M71.3205 204.674L71.3395 204.622M71.3395 204.622L71.3586 204.57M71.3395 204.622L71.3586 204.57M71.3586 204.57L71.3776 204.517M71.3586 204.57L71.3776 204.517M71.3776 204.517L71.3967 204.465M71.3776 204.517L71.3967 204.465M71.3967 204.465L71.4157 204.413M71.3967 204.465L71.4157 204.413M71.4157 204.413L71.4348 204.361M71.4157 204.413L71.4348 204.361M71.4348 204.361L71.4538 204.309M71.4348 204.361L71.4538 204.309M71.4538 204.309L71.4729 204.256M71.4538 204.309L71.4729 204.256M71.4729 204.256L71.4919 204.204M71.4729 204.256L71.4919 204.204M71.4919 204.204L71.511 204.152M71.4919 204.204L71.511 204.152M71.511 204.152L71.53 204.1M71.511 204.152L71.53 204.1M71.53 204.1L71.5491 204.048M71.53 204.1L71.5491 204.048M71.5491 204.048L71.5682 203.995M71.5491 204.048L71.5682 203.995M71.5682 203.995L71.5872 203.943M71.5682 203.995L71.5872 203.943M71.5872 203.943L71.6063 203.891M71.5872 203.943L71.6063 203.891M71.6063 203.891L71.6253 203.839M71.6063 203.891L71.6253 203.839M71.6253 203.839L71.6444 203.786M71.6253 203.839L71.6444 203.786M71.6444 203.786L71.6635 203.734M71.6444 203.786L71.6635 203.734M71.6635 203.734L71.6825 203.682M71.6635 203.734L71.6825 203.682M71.6825 203.682L71.7016 203.63M71.6825 203.682L71.7016 203.63M71.7016 203.63L71.7207 203.577M71.7016 203.63L71.7207 203.577M71.7207 203.577L71.7398 203.525M71.7207 203.577L71.7398 203.525M71.7398 203.525L71.7588 203.473M71.7398 203.525L71.7588 203.473M71.7588 203.473L71.7779 203.421M71.7588 203.473L71.7779 203.421M71.7779 203.421L71.797 203.368M71.7779 203.421L71.797 203.368M71.797 203.368L71.8161 203.316M71.797 203.368L71.8161 203.316M71.8161 203.316L71.8351 203.264M71.8161 203.316L71.8351 203.264M71.8351 203.264L71.8542 203.211M71.8351 203.264L71.8542 203.211M71.8542 203.211L71.8733 203.159M71.8542 203.211L71.8733 203.159M71.8733 203.159L71.8924 203.107M71.8733 203.159L71.8924 203.107M71.8924 203.107L71.9115 203.055M71.8924 203.107L71.9115 203.055M71.9115 203.055L71.9306 203.002M71.9115 203.055L71.9306 203.002M71.9306 203.002L71.9496 202.95M71.9306 203.002L71.9496 202.95M71.9496 202.95L71.9687 202.898M71.9496 202.95L71.9687 202.898M71.9687 202.898L71.9878 202.845M71.9687 202.898L71.9878 202.845M71.9878 202.845L72.0069 202.793M71.9878 202.845L72.0069 202.793M72.0069 202.793L72.026 202.741M72.0069 202.793L72.026 202.741M72.026 202.741L72.0451 202.688M72.026 202.741L72.0451 202.688M72.0451 202.688L72.0642 202.636M72.0451 202.688L72.0642 202.636M72.0642 202.636L72.0833 202.584M72.0642 202.636L72.0833 202.584M72.0833 202.584L72.1024 202.531M72.0833 202.584L72.1024 202.531M72.1024 202.531L72.1215 202.479M72.1024 202.531L72.1215 202.479M72.1215 202.479L72.1406 202.427L72.1215 202.479ZM147.049 163.594L147.049 163.593C156.958 153.813 162.705 141.328 166.004 127.942L166.004 127.942C173.521 97.5674 166.701 70.6397 144.586 47.5871C135.067 37.8021 124.224 29.513 110.657 26.5311L110.655 26.5308C86.8979 21.0145 64.5486 24.6842 43.9516 37.6682C28.9845 47.1836 18.9771 60.4811 11.8311 76.8018C4.43283 93.8146 2.56972 110.869 8.33432 128.736C11.7118 139.037 16.6435 148.319 25.1591 155.365C27.0198 156.839 28.0542 158.414 28.4713 160.168C28.8875 161.919 28.686 163.838 28.0971 165.997C27.5378 168.868 26.9808 171.731 26.425 174.589C22.9138 192.642 19.4485 210.459 15.7221 228.181C15.4547 229.452 15.4898 230.428 15.8535 231.279C16.2177 232.132 16.9175 232.873 18.0094 233.664C24.0154 237.825 30.6579 240.25 37.0863 242.202C43.5105 244.152 50.189 245.407 57.1218 245.966C59.0537 246.082 60.5997 245.864 61.8772 245.168C63.1535 244.472 64.1746 243.29 65.0428 241.452C65.175 241.147 65.3068 240.843 65.4382 240.54C67.8039 235.085 70.0496 229.907 72.0952 224.302C74.2262 217.375 77.2889 210.888 80.5082 204.514C81.2413 203.063 81.9824 201.617 82.7225 200.174C85.2335 195.277 87.7328 190.402 89.8672 185.393C90.0933 184.775 90.3698 184.362 90.6888 184.1C91.0098 183.836 91.3658 183.731 91.7366 183.711C92.1045 183.691 92.4895 183.756 92.8711 183.834C92.9529 183.851 93.0346 183.868 93.1159 183.885C93.4173 183.948 93.7155 184.011 94.0109 184.043C114.927 185.37 132.657 178.049 147.049 163.594ZM105.267 32.3027L105.351 32.2257L105.416 32.32C107.005 34.626 107.602 37.1713 108.149 39.4989C108.231 39.8513 108.313 40.1988 108.397 40.5396L108.397 40.5396L108.398 40.544C113.285 65.224 115.819 89.8453 109.972 114.573C104.379 138.608 91.0063 157.829 71.0375 172.269L71.0273 172.276C69.9527 173.06 68.8431 173.87 67.2766 173.703L67.2766 173.703L67.2702 173.702C63.1649 172.993 60.648 172.181 59.1051 170.464C57.5621 168.747 57.0116 166.145 56.7703 161.913L56.7702 161.911C56.1542 145.098 58.5967 128.612 63.2685 112.546L63.2689 112.545C69.4653 92.3029 77.4144 72.697 88.8688 54.3684L88.8691 54.3679C89.5419 53.3069 90.2131 52.2283 90.8903 51.1399C94.9144 44.6727 99.1557 37.8564 105.267 32.3027ZM72.1564 175.487L71.9818 175.423L72.1312 175.312C94.958 158.404 109.317 136.439 114.166 109.03C118.349 84.5266 115.821 59.9366 109.855 36.0598L109.854 36.06L109.853 36.0471C109.775 35.3788 109.477 34.7645 109.168 34.1253C109.105 33.996 109.042 33.8657 108.981 33.7337C108.616 32.957 108.302 32.1324 108.449 31.1666L108.463 31.0791L108.551 31.0817C110.935 31.1529 112.929 32.2814 114.553 33.2686C122.119 37.6126 127.737 44.0146 132.14 51.55C149.433 80.3843 148.302 109.611 133.25 138.881C123.413 158.212 107.96 171.149 86.6716 177.212L86.6719 177.212L86.6589 177.214C82.0251 177.901 77.4239 177.409 72.1564 175.487ZM53.8545 168.267L53.8576 168.404L53.7265 168.366C51.029 167.579 48.6254 166.505 46.7667 164.881C44.9057 163.256 43.5958 161.084 43.0807 158.112C42.8264 156.645 42.4216 155.318 41.9716 153.971C41.8648 153.652 41.7555 153.331 41.645 153.007C41.2902 151.966 40.9237 150.891 40.5945 149.715L40.5938 149.712C33.3434 120.601 36.3202 92.8484 51.0559 66.6226L51.0562 66.622C59.8449 51.253 73.5758 40.8543 88.2147 31.1971C92.4445 28.3687 98.1446 28.0678 102.374 29.6113L102.505 29.6592L102.418 29.768C69.7638 70.3226 52.644 116.147 53.8545 168.267ZM41.7495 162.245L41.8088 162.438L41.6196 162.369L41.6195 162.369L41.6194 162.369L41.6192 162.369L41.6191 162.369L41.6189 162.369L41.6187 162.368L41.6186 162.368L41.6185 162.368L41.6184 162.368L41.6182 162.368L41.6181 162.368L41.6179 162.368L41.6177 162.368L41.6176 162.368L41.6174 162.368L41.6172 162.368L41.617 162.368L41.6168 162.368L41.6166 162.368L41.6163 162.368L41.6161 162.368L41.6159 162.367L41.6156 162.367L41.6154 162.367L41.6151 162.367L41.6148 162.367L41.6146 162.367L41.6143 162.367L41.614 162.367L41.6137 162.367L41.6134 162.367L41.6131 162.366L41.6128 162.366L41.6124 162.366L41.6121 162.366L41.6118 162.366L41.6114 162.366L41.6111 162.366L41.6107 162.366L41.6103 162.365L41.6099 162.365L41.6096 162.365L41.6092 162.365L41.6088 162.365L41.6084 162.365L41.608 162.365L41.6075 162.364L41.6071 162.364L41.6067 162.364L41.6062 162.364L41.6058 162.364L41.6053 162.364L41.6049 162.363L41.6044 162.363L41.6039 162.363L41.6034 162.363L41.6029 162.363L41.6024 162.363L41.6019 162.362L41.6014 162.362L41.6009 162.362L41.6004 162.362L41.5998 162.362L41.5993 162.361L41.5988 162.361L41.5982 162.361L41.5976 162.361L41.5971 162.361L41.5965 162.36L41.5959 162.36L41.5953 162.36L41.5947 162.36L41.5941 162.359L41.5935 162.359L41.5929 162.359L41.5923 162.359L41.5917 162.359L41.591 162.358L41.5904 162.358L41.5897 162.358L41.5891 162.358L41.5884 162.357L41.5877 162.357L41.5871 162.357L41.5864 162.357L41.5857 162.356L41.585 162.356L41.5843 162.356L41.5836 162.356L41.5829 162.355L41.5822 162.355L41.5814 162.355L41.5807 162.355L41.58 162.354L41.5792 162.354L41.5785 162.354L41.5777 162.353L41.5769 162.353L41.5762 162.353L41.5754 162.353L41.5746 162.352L41.5738 162.352L41.573 162.352L41.5722 162.351L41.5714 162.351L41.5706 162.351L41.5698 162.351L41.5689 162.35L41.5681 162.35L41.5673 162.35L41.5664 162.349L41.5656 162.349L41.5647 162.349L41.5638 162.348L41.563 162.348L41.5621 162.348L41.5612 162.347L41.5603 162.347L41.5594 162.347L41.5585 162.346L41.5576 162.346L41.5567 162.346L41.5558 162.345L41.5549 162.345L41.5539 162.345L41.553 162.344L41.5521 162.344L41.5511 162.344L41.5502 162.343L41.5492 162.343L41.5482 162.343L41.5473 162.342L41.5463 162.342L41.5453 162.342L41.5443 162.341L41.5433 162.341L41.5423 162.341L41.5413 162.34L41.5403 162.34L41.5393 162.339L41.5383 162.339L41.5372 162.339L41.5362 162.338L41.5352 162.338L41.5341 162.338L41.5331 162.337L41.532 162.337L41.5309 162.336L41.5299 162.336L41.5288 162.336L41.5277 162.335L41.5266 162.335L41.5255 162.334L41.5244 162.334L41.5233 162.334L41.5222 162.333L41.5211 162.333L41.52 162.332L41.5189 162.332L41.5178 162.332L41.5166 162.331L41.5155 162.331L41.5143 162.33L41.5132 162.33L41.512 162.33L41.5109 162.329L41.5097 162.329L41.5085 162.328L41.5074 162.328L41.5062 162.327L41.505 162.327L41.5038 162.327L41.5026 162.326L41.5014 162.326L41.5002 162.325L41.499 162.325L41.4978 162.324L41.4965 162.324L41.4953 162.323L41.4941 162.323L41.4928 162.323L41.4916 162.322L41.4903 162.322L41.4891 162.321L41.4878 162.321L41.4866 162.32L41.4853 162.32L41.484 162.319L41.4827 162.319L41.4815 162.318L41.4802 162.318L41.4789 162.317L41.4776 162.317L41.4763 162.316L41.475 162.316L41.4737 162.316L41.4723 162.315L41.471 162.315L41.4697 162.314L41.4684 162.314L41.467 162.313L41.4657 162.313L41.4643 162.312L41.463 162.312L41.4616 162.311L41.4603 162.311L41.4589 162.31L41.4575 162.31L41.4562 162.309L41.4548 162.309L41.4534 162.308L41.452 162.308L41.4506 162.307L41.4492 162.307L41.4478 162.306L41.4464 162.306L41.445 162.305L41.4436 162.305L41.4422 162.304L41.4408 162.304L41.4393 162.303L41.4379 162.302L41.4365 162.302L41.435 162.301L41.4336 162.301L41.4321 162.3L41.4307 162.3L41.4292 162.299L41.4278 162.299L41.4263 162.298L41.4248 162.298L41.4233 162.297L41.4219 162.297L41.4204 162.296L41.4189 162.296L41.4174 162.295L41.4159 162.294L41.4144 162.294L41.4129 162.293L41.4114 162.293L41.4099 162.292L41.4084 162.292L41.4068 162.291L41.4053 162.291L41.4038 162.29L41.4023 162.289L41.4007 162.289L41.3992 162.288L41.3976 162.288L41.3961 162.287L41.3945 162.287L41.393 162.286L41.3914 162.286L41.3898 162.285L41.3883 162.284L41.3867 162.284L41.3851 162.283L41.3835 162.283L41.382 162.282L41.3804 162.281L41.3788 162.281L41.3772 162.28L41.3756 162.28L41.374 162.279L41.3724 162.279L41.3708 162.278L41.3692 162.277L41.3675 162.277L41.3659 162.276L41.3643 162.276L41.3627 162.275L41.361 162.274L41.3594 162.274L41.3577 162.273L41.3561 162.273L41.3545 162.272L41.3528 162.271L41.3511 162.271L41.3495 162.27L41.3478 162.27L41.3462 162.269L41.3445 162.268L41.3428 162.268L41.3411 162.267L41.3395 162.267L41.3378 162.266L41.3361 162.265L41.3344 162.265L41.3327 162.264L41.331 162.263L41.3293 162.263L41.3276 162.262L41.3259 162.262L41.3242 162.261L41.3225 162.26L41.3208 162.26L41.3191 162.259L41.3173 162.258L41.3156 162.258L41.3139 162.257L41.3122 162.257L41.3104 162.256L41.3087 162.255L41.3069 162.255L41.3052 162.254L41.3035 162.253L41.3017 162.253L41.3 162.252L41.2982 162.251L41.2964 162.251L41.2947 162.25L41.2929 162.25L41.2911 162.249L41.2894 162.248L41.2876 162.248L41.2858 162.247L41.284 162.246L41.2823 162.246L41.2805 162.245L41.2787 162.244L41.2769 162.244L41.2751 162.243L41.2733 162.242L41.2715 162.242L41.2697 162.241L41.2679 162.24L41.2661 162.24L41.2643 162.239L41.2625 162.238L41.2606 162.238L41.2588 162.237L41.257 162.236L41.2552 162.236L41.2533 162.235L41.2515 162.234L41.2497 162.234L41.2478 162.233L41.246 162.232L41.2442 162.232L41.2423 162.231L41.2405 162.23L41.2386 162.23L41.2368 162.229L41.2349 162.228L41.2331 162.228L41.2312 162.227L41.2294 162.226L41.2275 162.226L41.2256 162.225L41.2238 162.224L41.2219 162.224L41.22 162.223L41.2181 162.222L41.2163 162.222L41.2144 162.221L41.2125 162.22L41.2106 162.22L41.2087 162.219L41.2068 162.218L41.2049 162.217L41.2031 162.217L41.2012 162.216L41.1993 162.215L41.1974 162.215L41.1955 162.214L41.1936 162.213L41.1916 162.213L41.1897 162.212L41.1878 162.211L41.1859 162.211L41.184 162.21L41.1821 162.209L41.1802 162.208L41.1782 162.208L41.1763 162.207L41.1744 162.206L41.1725 162.206L41.1705 162.205L41.1686 162.204L41.1667 162.203L41.1647 162.203L41.1628 162.202L41.1609 162.201L41.1589 162.201L41.157 162.2L41.155 162.199L41.1531 162.199L41.1511 162.198L41.1492 162.197L41.1472 162.196L41.1453 162.196L41.1433 162.195L41.1414 162.194L41.1394 162.194L41.1375 162.193L41.1355 162.192L41.1335 162.191L41.1316 162.191L41.1296 162.19L41.1276 162.189L41.1257 162.189L41.1237 162.188L41.1217 162.187L41.1197 162.186L41.1178 162.186L41.1158 162.185L41.1138 162.184L41.1118 162.183L41.1098 162.183L41.1079 162.182L41.1059 162.181L41.1039 162.181L41.1019 162.18L41.0999 162.179L41.0979 162.178L41.0959 162.178L41.0939 162.177L41.0919 162.176L41.0899 162.175L41.0879 162.175L41.0859 162.174L41.0839 162.173L41.0819 162.173L41.0799 162.172L41.0779 162.171L41.0759 162.17L41.0739 162.17L41.0719 162.169L41.0699 162.168L41.0679 162.167L41.0659 162.167L41.0639 162.166L41.0619 162.165L41.0599 162.164L41.0578 162.164L41.0558 162.163L41.0538 162.162L41.0518 162.162L41.0498 162.161L41.0477 162.16L41.0457 162.159L41.0437 162.159L41.0417 162.158L41.0396 162.157L41.0376 162.156L41.0356 162.156L41.0336 162.155L41.0315 162.154L41.0295 162.153L41.0275 162.153L41.0254 162.152L41.0234 162.151L41.0214 162.15L41.0193 162.15L41.0173 162.149L41.0153 162.148L41.0133 162.147L41.0112 162.147L41.0092 162.146L41.0071 162.145L41.0051 162.145L41.0031 162.144L41.001 162.143L40.999 162.142L40.9969 162.142L40.9949 162.141L40.9929 162.14L40.9908 162.139L40.9888 162.139L40.9867 162.138L40.9847 162.137L40.9826 162.136L40.9806 162.136L40.9785 162.135L40.9765 162.134L40.9745 162.133L40.9724 162.133L40.9704 162.132L40.9683 162.131L40.9663 162.13L40.9642 162.13L40.9622 162.129L40.9601 162.128L40.9581 162.127L40.956 162.127L40.954 162.126L40.9519 162.125L40.9499 162.124L40.9478 162.124L40.9458 162.123L40.9437 162.122L40.9417 162.121L40.9396 162.121L40.9376 162.12L40.9355 162.119L40.9335 162.118L40.9314 162.118L40.9294 162.117L40.9273 162.116L40.9253 162.115L40.9232 162.115L40.9211 162.114L40.9191 162.113C40.5932 161.994 40.2944 161.803 39.9778 161.6C39.9417 161.577 39.9053 161.553 39.8687 161.53C39.5078 161.3 39.1093 161.058 38.5945 160.87L38.5814 160.865L38.5701 160.857C18.7635 146.514 10.0789 126.74 10.8285 102.907C11.0439 90.3326 15.5973 78.95 21.5465 68.0895L21.5474 68.088C34.7899 44.8673 54.258 31.8149 81.1212 28.9732C81.1985 28.9547 81.2778 28.9352 81.3588 28.9154C81.9541 28.7696 82.6403 28.6015 83.3117 28.5823C84.0806 28.5602 84.8451 28.7327 85.4447 29.3644L85.5279 29.4519L85.4264 29.5173C60.0181 45.8825 44.927 65.5117 38.2722 87.8199C31.6168 110.13 33.3955 135.131 41.7495 162.245ZM127.924 39.9214L128.069 39.7849L135.743 45.843L135.808 45.7667C135.808 45.7667 135.808 45.7667 135.808 45.7668C150.986 58.6155 159.324 73.6134 162.315 89.3797C165.306 105.145 162.949 121.671 156.746 137.579L156.746 137.579C147.641 160.348 129.346 173.435 105.481 178.949C100.244 180.205 95.1673 179.935 88.7027 179.154L88.6835 178.96C118.851 169.077 136.006 148.141 144.066 119.538C151.902 90.4628 146.131 63.9151 127.924 39.9214ZM40.52 183.58L40.5469 183.472L40.6513 183.51L40.7149 183.533L40.7785 183.557L40.8421 183.58L40.9056 183.603L40.9692 183.626L41.0327 183.649L41.0962 183.673L41.1597 183.696L41.2232 183.719L41.2867 183.742L41.3501 183.765L41.4136 183.788L41.477 183.812L41.5404 183.835L41.6038 183.858L41.6672 183.881L41.7305 183.904L41.7939 183.927L41.8572 183.95L41.9205 183.973L41.9838 183.997L42.0471 184.02L42.1104 184.043L42.1736 184.066L42.2369 184.089L42.3001 184.112L42.3633 184.135L42.4265 184.158L42.4897 184.181L42.5528 184.204L42.616 184.227L42.6791 184.25L42.7422 184.273L42.8053 184.296L42.8684 184.319L42.9315 184.342L42.9945 184.365L43.0576 184.388L43.1206 184.411L43.1836 184.434L43.2466 184.457L43.3096 184.48L43.3725 184.503L43.4355 184.526L43.4984 184.549L43.5613 184.572L43.6243 184.595L43.6871 184.618L43.75 184.641L43.8129 184.664L43.8757 184.687L43.9386 184.71L44.0014 184.733L44.0642 184.756L44.127 184.779L44.1898 184.802L44.2525 184.825L44.3153 184.847L44.378 184.87L44.4407 184.893L44.5035 184.916L44.5661 184.939L44.6288 184.962L44.6915 184.985L44.7541 185.008L44.8168 185.03L44.8794 185.053L44.942 185.076L45.0046 185.099L45.0672 185.122L45.1298 185.145L45.1923 185.168L45.2548 185.19L45.3174 185.213L45.3799 185.236L45.4424 185.259L45.5049 185.282L45.5673 185.304L45.6298 185.327L45.6922 185.35L45.7547 185.373L45.8171 185.396L45.8795 185.418L45.9419 185.441L46.0043 185.464L46.0666 185.487L46.129 185.509L46.1913 185.532L46.2536 185.555L46.3159 185.578L46.3782 185.6L46.4405 185.623L46.5028 185.646L46.5651 185.668L46.6273 185.691L46.6895 185.714L46.7517 185.737L46.814 185.759L46.8761 185.782L46.9383 185.805L47.0005 185.827L47.0626 185.85L47.1248 185.873L47.1869 185.895L47.249 185.918L47.3111 185.941L47.3732 185.963L47.4353 185.986L47.4974 186.009L47.5594 186.031L47.6215 186.054L47.6835 186.077L47.7455 186.099L47.8075 186.122L47.8695 186.145L47.9315 186.167L47.9934 186.19L48.0554 186.212L48.1173 186.235L48.1792 186.258L48.2412 186.28L48.3031 186.303L48.365 186.325L48.4268 186.348L48.4887 186.371L48.5506 186.393L48.6124 186.416L48.6742 186.438L48.736 186.461L48.7978 186.483L48.8596 186.506L48.9214 186.528L48.9832 186.551L49.045 186.574L49.1067 186.596L49.1684 186.619L49.2302 186.641L49.2919 186.664L49.3536 186.686L49.4153 186.709L49.4769 186.731L49.5386 186.754L49.6003 186.776L49.6619 186.799L49.7235 186.821L49.7851 186.844L49.8467 186.866L49.9083 186.889L49.9699 186.911L50.0315 186.934L50.0931 186.956L50.1546 186.979L50.2161 187.001L50.2777 187.023L50.3392 187.046L50.4007 187.068L50.4622 187.091L50.5237 187.113L50.5851 187.136L50.6466 187.158L50.7081 187.18L50.7695 187.203L50.8309 187.225L50.8923 187.248L50.9537 187.27L51.0151 187.293L51.0765 187.315L51.1379 187.337L51.1993 187.36L51.2606 187.382L51.322 187.405L51.3833 187.427L51.4446 187.449L51.5059 187.472L51.5672 187.494L51.6285 187.516L51.6898 187.539L51.7511 187.561L51.8123 187.584L51.8736 187.606L51.9348 187.628L51.996 187.651L52.0572 187.673L52.1184 187.695L52.1796 187.718L52.2408 187.74L52.302 187.762L52.3632 187.785L52.4243 187.807L52.4854 187.829L52.5466 187.851L52.6077 187.874L52.6688 187.896L52.7299 187.918L52.791 187.941L52.8521 187.963L52.9132 187.985L52.9742 188.008L53.0353 188.03L53.0963 188.052L53.1574 188.074L53.2184 188.097L53.2794 188.119L53.3404 188.141L53.4014 188.163L53.4624 188.186L53.5234 188.208L53.5843 188.23L53.6453 188.252L53.7062 188.275L53.7672 188.297L53.8281 188.319L53.889 188.341L53.9499 188.364L54.0108 188.386L54.0717 188.408L54.1326 188.43L54.1935 188.453L54.2544 188.475L54.3152 188.497L54.3761 188.519L54.4369 188.541L54.4977 188.564L54.5585 188.586L54.6193 188.608L54.6801 188.63L54.7409 188.652L54.8017 188.675L54.8625 188.697L54.9233 188.719L54.984 188.741L55.0448 188.763L55.1055 188.785L55.1662 188.808L55.227 188.83L55.2877 188.852L55.3484 188.874L55.4091 188.896L55.4698 188.918L55.5304 188.94L55.5911 188.963L55.6518 188.985L55.7124 189.007L55.7731 189.029L55.8337 189.051L55.8943 189.073L55.9549 189.095L56.0155 189.117L56.0762 189.14L56.1367 189.162L56.1973 189.184L56.2579 189.206L56.3185 189.228L56.379 189.25L56.4396 189.272L56.5001 189.294L56.5607 189.316L56.6212 189.339L56.6817 189.361L56.7422 189.383L56.8027 189.405L56.8632 189.427L56.9237 189.449L56.9842 189.471L57.0447 189.493L57.1052 189.515L57.1656 189.537L57.2261 189.559L57.2865 189.581L57.3469 189.603L57.4074 189.625L57.4678 189.647L57.5282 189.67L57.5886 189.692L57.649 189.714L57.7094 189.736L57.7698 189.758L57.8302 189.78L57.8905 189.802L57.9509 189.824L58.0112 189.846L58.0716 189.868L58.1319 189.89L58.1923 189.912L58.2526 189.934L58.3129 189.956L58.3732 189.978L58.4335 190L58.4938 190.022L58.5541 190.044L58.6144 190.066L58.6747 190.088L58.7349 190.11L58.7952 190.132L58.8555 190.154L58.9157 190.176L58.976 190.198L59.0362 190.22L59.0964 190.242L59.1566 190.264L59.2169 190.286L59.2771 190.308L59.3373 190.33L59.3975 190.352L59.4577 190.374L59.5178 190.396L59.578 190.418L59.6382 190.44L59.6983 190.462L59.7585 190.484L59.8187 190.505L59.8788 190.527L59.9389 190.549L59.9991 190.571L60.0592 190.593L60.1193 190.615L60.1794 190.637L60.2395 190.659L60.2996 190.681L60.3597 190.703L60.4198 190.725L60.4799 190.747L60.54 190.769L60.6001 190.791L60.6601 190.813L60.7202 190.834L60.7802 190.856L60.8403 190.878L60.9003 190.9L60.9604 190.922L61.0204 190.944L61.0804 190.966L61.1404 190.988L61.2005 191.01L61.2605 191.032L61.3205 191.054L61.3805 191.075L61.4405 191.097L61.5004 191.119L61.5604 191.141L61.6204 191.163L61.6804 191.185L61.7403 191.207L61.8003 191.229L61.8602 191.251L61.9202 191.272L61.9801 191.294L62.0401 191.316L62.1 191.338L62.1599 191.36L62.2199 191.382L62.2798 191.404L62.3397 191.426L62.3996 191.447L62.4595 191.469L62.5194 191.491L62.5793 191.513L62.6392 191.535L62.6991 191.557L62.759 191.579L62.8188 191.6L62.8787 191.622L62.9386 191.644L62.9984 191.666L63.0583 191.688L63.1181 191.71L63.178 191.731L63.2378 191.753L63.2977 191.775L63.3575 191.797L63.4173 191.819L63.4771 191.841L63.537 191.862L63.5968 191.884L63.6566 191.906L63.7164 191.928L63.7762 191.95L63.836 191.972L63.8958 191.993L63.9556 192.015L64.0154 192.037L64.0752 192.059L64.1349 192.081L64.1947 192.103L64.2545 192.124L64.3142 192.146L64.374 192.168L64.4338 192.19L64.4935 192.212L64.5533 192.233L64.613 192.255L64.6728 192.277L64.7325 192.299L64.7922 192.321L64.852 192.342L64.9117 192.364L64.9714 192.386L65.0311 192.408L65.0909 192.43L65.1506 192.451L65.2103 192.473L65.27 192.495L65.3297 192.517L65.3894 192.539L65.4491 192.56L65.5088 192.582L65.5685 192.604L65.6281 192.626L65.6878 192.647L65.7475 192.669L65.8072 192.691L65.8669 192.713L65.9265 192.735L65.9862 192.756L66.0459 192.778L66.1055 192.8L66.1652 192.822L66.2248 192.843L66.2845 192.865L66.3441 192.887L66.4038 192.909L66.4634 192.93L66.5231 192.952L66.5827 192.974L66.6423 192.996L66.702 193.018L66.7616 193.039L66.8212 193.061L66.8809 193.083L66.9405 193.105L67.0001 193.126L67.0597 193.148L67.1193 193.17L67.1789 193.192L67.2385 193.213L67.2982 193.235L67.3578 193.257L67.4174 193.279L67.477 193.3L67.5366 193.322L67.5962 193.344L67.6557 193.366L67.7153 193.387L67.7749 193.409L67.8345 193.431L67.8941 193.453L67.9537 193.474L68.0133 193.496L68.0728 193.518L68.1324 193.54L68.192 193.561L68.2516 193.583L68.3111 193.605L68.3707 193.627L68.4303 193.648L68.4898 193.67L68.5494 193.692L68.609 193.714L68.6685 193.735L68.7281 193.757L68.7876 193.779L68.8472 193.8L68.9067 193.822L68.9663 193.844L69.0258 193.866L69.0854 193.887L69.1449 193.909L69.2045 193.931L69.264 193.953L69.3236 193.974L69.3831 193.996L69.4427 194.018L69.5022 194.04L69.5617 194.061L69.6213 194.083L69.6808 194.105L69.7403 194.126L69.7999 194.148L69.8594 194.17L69.9189 194.192L69.9785 194.213L70.038 194.235L70.0975 194.257L70.1571 194.279L70.2166 194.3L70.2761 194.322L70.3356 194.344L70.3952 194.365L70.4547 194.387L70.5142 194.409L70.5737 194.431L70.6333 194.452L70.6928 194.474L70.7523 194.496L70.8118 194.517L70.8713 194.539L70.9309 194.561L70.9904 194.583L71.0499 194.604L71.1094 194.626L71.1689 194.648L71.2284 194.67L71.288 194.691L71.3475 194.713L71.407 194.735L71.4665 194.756L71.526 194.778L71.5855 194.8L71.6451 194.822L71.7046 194.843L71.7641 194.865L71.8236 194.887L71.9175 194.921L71.8833 195.015L71.8654 195.064L71.8475 195.113L71.8296 195.162L71.8118 195.211L71.7939 195.26L71.776 195.309L71.7581 195.358L71.7403 195.407L71.7224 195.456L71.7045 195.505L71.6866 195.554L71.6688 195.603L71.6509 195.652L71.633 195.701L71.6151 195.75L71.5973 195.799L71.5794 195.848L71.5615 195.897L71.5436 195.946L71.5258 195.995L71.5079 196.043L71.49 196.092L71.4721 196.141L71.4543 196.19L71.4364 196.239L71.4185 196.288L71.4006 196.337L71.3828 196.386L71.3649 196.435L71.347 196.484L71.3292 196.533L71.3113 196.582L71.2934 196.631L71.2755 196.68L71.2577 196.729L71.2398 196.778L71.2219 196.827L71.2041 196.876L71.1862 196.925L71.1683 196.974L71.1504 197.023L71.1326 197.072L71.1147 197.121L71.0968 197.17L71.079 197.219L71.0611 197.268L71.0432 197.317L71.0254 197.366L71.0075 197.415L70.9896 197.464L70.9717 197.513L70.9539 197.561L70.936 197.61L70.9181 197.659L70.9003 197.708L70.8824 197.757L70.8646 197.806L70.8467 197.855L70.8288 197.904L70.811 197.953L70.7931 198.002L70.7752 198.051L70.7574 198.1L70.7395 198.149L70.7216 198.198L70.7038 198.247L70.6859 198.296L70.668 198.345L70.6502 198.394L70.6323 198.443L70.6145 198.492L70.5966 198.54L70.5787 198.589L70.5609 198.638L70.543 198.687L70.5252 198.736L70.5073 198.785L70.4894 198.834L70.4716 198.883L70.4537 198.932L70.4359 198.981L70.418 199.03L70.4002 199.079L70.3823 199.128L70.3645 199.177L70.3466 199.225L70.3287 199.274L70.3109 199.323L70.293 199.372L70.2752 199.421L70.2573 199.47L70.2395 199.519L70.2216 199.568L70.2038 199.617L70.1859 199.666L70.1681 199.715L70.1502 199.764L70.1324 199.812L70.1145 199.861L70.0967 199.91L70.0788 199.959L70.061 200.008L70.0432 200.057L70.0253 200.106L70.0075 200.155L69.9896 200.204L69.9718 200.253L69.9539 200.301L69.9361 200.35L69.9183 200.399L69.9004 200.448L69.8826 200.497L69.8647 200.546L69.8469 200.595L69.8291 200.644L69.8112 200.692L69.7934 200.741L69.7755 200.79L69.7577 200.839L69.7399 200.888L69.722 200.937L69.7042 200.986L69.6864 201.035L69.6685 201.083L69.6507 201.132L69.6329 201.181L69.6151 201.23L69.5972 201.279L69.5794 201.328L69.5616 201.377L69.5437 201.425L69.5259 201.474L69.5081 201.523L69.4903 201.572L69.4724 201.621L69.4546 201.67L69.4368 201.718L69.419 201.767L69.4012 201.816L69.3833 201.865L69.3655 201.914L69.3477 201.963L69.3299 202.011L69.3121 202.06L69.2942 202.109L69.2764 202.158L69.2586 202.207L69.2408 202.255L69.223 202.304L69.2052 202.353L69.1874 202.402L69.1696 202.451L69.1517 202.499L69.1339 202.548L69.1161 202.597L69.0983 202.646L69.0805 202.695L69.0627 202.743L69.0449 202.792L69.0271 202.841L69.0093 202.89L68.9915 202.939L68.9737 202.987L68.9559 203.036L68.9381 203.085L68.9203 203.134L68.9025 203.182L68.8847 203.231L68.8669 203.28L68.8491 203.329L68.8313 203.377L68.8136 203.426L68.7958 203.475L68.778 203.524L68.7602 203.572L68.7424 203.621L68.7246 203.67L68.7068 203.719L68.689 203.767L68.6713 203.816L68.6535 203.865L68.6357 203.913L68.6179 203.962L68.6001 204.011L68.5824 204.06L68.5646 204.108L68.5468 204.157L68.529 204.206L68.5112 204.254L68.4935 204.303L68.4757 204.352L68.4579 204.401L68.4402 204.449L68.4224 204.498L68.4046 204.547L68.3869 204.595L68.3691 204.644L68.3513 204.693L68.3336 204.741L68.3158 204.79L68.298 204.839L68.2803 204.887L68.2625 204.936L68.2448 204.985L68.227 205.033L68.2093 205.082L68.1915 205.131L68.1737 205.179L68.156 205.228L68.1382 205.277L68.1205 205.325L68.1027 205.374L68.085 205.422L68.0673 205.471L68.0495 205.52L68.0318 205.568L68.014 205.617L67.9963 205.666L67.9785 205.714L67.9608 205.763L67.9431 205.811L67.9253 205.86L67.9076 205.909L67.8899 205.957L67.8721 206.006L67.8544 206.054L67.8367 206.103L67.8189 206.151L67.8012 206.2L67.7835 206.249L67.7658 206.297L67.748 206.346L67.7303 206.394L67.7126 206.443L67.6949 206.491L67.6772 206.54L67.6595 206.588L67.6417 206.637L67.624 206.686L67.6063 206.734L67.5886 206.783L67.5709 206.831L67.5532 206.88L67.5355 206.928L67.5178 206.977L67.5001 207.025L67.4824 207.074L67.4647 207.122L67.447 207.171L67.4293 207.219L67.4116 207.268L67.3939 207.316L67.3762 207.365L67.3585 207.413L67.3408 207.462L67.3231 207.51L67.3054 207.559L67.2877 207.607L67.27 207.655L67.2524 207.704L67.2347 207.752L67.217 207.801L67.1993 207.849L67.1816 207.898L67.164 207.946L67.1463 207.995L67.1286 208.043L67.1109 208.091L67.0933 208.14L67.0756 208.188L67.0579 208.237L67.0403 208.285L67.0226 208.333L67.005 208.382L66.9873 208.43L66.9696 208.479L66.952 208.527L66.9343 208.575L66.9167 208.624L66.899 208.672L66.8814 208.72L66.8637 208.769L66.8461 208.817L66.8284 208.866L66.8108 208.914L66.7931 208.962L66.7755 209.011L66.7578 209.059L66.7402 209.107L66.7226 209.156L66.7049 209.204L66.6873 209.252L66.6697 209.301L66.652 209.349L66.6344 209.397L66.6168 209.445L66.5992 209.494L66.5815 209.542L66.5639 209.59L66.5463 209.639L66.5287 209.687L66.511 209.735L66.4934 209.783L66.4758 209.832L66.4582 209.88L66.4406 209.928L66.423 209.976L66.4054 210.025L66.3878 210.073L66.3702 210.121L66.3526 210.169L66.335 210.218L66.3174 210.266L66.2998 210.314L66.2822 210.362L66.2646 210.41L66.247 210.459L66.2294 210.507L66.2118 210.555L66.1942 210.603L66.1767 210.651L66.1591 210.7L66.1415 210.748L66.1239 210.796L66.1063 210.844L66.0888 210.892L66.0712 210.94L66.0536 210.989L66.0361 211.037L66.0185 211.085L66.0009 211.133L65.9834 211.181L65.9658 211.229L65.9482 211.277L65.9307 211.325L65.9131 211.373L65.8956 211.422L65.878 211.47L65.8605 211.518L65.8429 211.566L65.8254 211.614L65.8078 211.662L65.7903 211.71L65.7728 211.758L65.7552 211.806L65.7377 211.854L65.7202 211.902L65.7026 211.95L65.6851 211.998L65.6676 212.046L65.65 212.094L65.6325 212.142L65.615 212.19L65.5975 212.238L65.58 212.286L65.5624 212.334L65.5449 212.382L65.5274 212.43L65.5099 212.478L65.4924 212.526L65.4749 212.574L65.4574 212.622L65.4399 212.67L65.4224 212.718L65.4049 212.766L65.3874 212.814L65.3699 212.862L65.3524 212.91L65.3349 212.958L65.3174 213.006L65.2999 213.054L65.2825 213.102L65.265 213.149L65.2475 213.197L65.23 213.245L65.2125 213.293L65.1951 213.341L65.1776 213.389L65.1601 213.437L65.1427 213.485L65.1252 213.532L65.1077 213.58L65.0903 213.628L65.0728 213.676L65.0554 213.724L65.0379 213.772L65.0205 213.819L65.003 213.867L64.9856 213.915L64.9681 213.963L64.9507 214.011L64.9332 214.058L64.9158 214.106L64.8984 214.154L64.8809 214.202L64.8635 214.25L64.8461 214.297L64.8287 214.345L64.8112 214.393L64.7938 214.44L64.7764 214.488L64.759 214.536L64.7416 214.584L64.7241 214.631L64.7067 214.679L64.6893 214.727L64.6719 214.774L64.6545 214.822L64.6371 214.87L64.6197 214.918L64.6023 214.965L64.5849 215.013L64.5675 215.06L64.5502 215.108L64.5328 215.156L64.5154 215.203L64.498 215.251L64.4806 215.299L64.4632 215.346L64.4459 215.394L64.4285 215.442L64.4111 215.489L64.3938 215.537L64.3764 215.584L64.359 215.632L64.3417 215.679L64.3243 215.727L64.307 215.775L64.2896 215.822L64.2722 215.87L64.2549 215.917L64.2375 215.965L64.2202 216.012L64.2029 216.06L64.1855 216.107L64.1682 216.155L64.1509 216.202L64.1335 216.25L64.1162 216.297L64.0989 216.345L64.0815 216.392L64.0642 216.44L64.0469 216.487L64.0296 216.535L64.0123 216.582L63.995 216.629L63.9777 216.677L63.9603 216.724L63.943 216.772L63.9257 216.819L63.9084 216.866L63.8911 216.914L63.8739 216.961L63.8566 217.009L63.8393 217.056L63.822 217.103L63.8047 217.151L63.7874 217.198L63.7701 217.245L63.7529 217.293L63.7356 217.34L63.7183 217.387L63.7011 217.435L63.6838 217.482L63.6665 217.529L63.6493 217.577L63.632 217.624L63.6148 217.671L63.5975 217.718L63.5803 217.766L63.563 217.813L63.5458 217.86L63.5285 217.907L63.5113 217.955L63.4941 218.002L63.4768 218.049L63.4596 218.096L63.4424 218.144L63.4251 218.191L63.4079 218.238L63.3907 218.285L63.3735 218.332L63.3563 218.379L63.3391 218.427L63.3219 218.474L63.3047 218.521L63.2874 218.568L63.2702 218.615L63.2531 218.662L63.2359 218.709L63.2187 218.756L63.2015 218.804L63.1843 218.851L63.1671 218.898L63.1499 218.945L63.1327 218.992L63.1156 219.039L63.0984 219.086L63.0812 219.133L63.0641 219.18L63.0469 219.227L63.0297 219.274L63.0126 219.321L62.9954 219.368L62.9783 219.415L62.9611 219.462L62.944 219.509L62.9268 219.556L62.9097 219.603L62.8926 219.65L62.8754 219.697L62.8583 219.744C62.41 220.972 61.8774 221.611 61.1629 221.825C60.4595 222.036 59.6106 221.822 58.5638 221.441C56.6586 220.877 54.7372 220.35 52.8147 219.824C48.9633 218.769 45.1072 217.714 41.3675 216.349L41.3611 216.346C38.9149 215.454 37.0938 214.789 35.7908 214.146C34.4873 213.504 33.6819 212.873 33.2905 212.038C32.8992 211.203 32.932 210.186 33.2461 208.796C33.517 207.598 34.0016 206.106 34.6231 204.193C34.7225 203.886 34.8255 203.569 34.9316 203.241L34.9329 203.237C37.1043 197.287 38.6445 191.106 40.2634 184.609C40.3487 184.267 40.4342 183.924 40.52 183.58ZM67.4335 226.44L67.5366 226.458L67.5141 226.56C66.9079 229.314 65.7181 231.753 64.5218 234.08C64.4064 234.304 64.291 234.527 64.176 234.75C63.0971 236.837 62.0589 238.845 61.4735 240.938L61.4738 240.938L61.4712 240.945C61.3075 241.394 61.0844 241.725 60.8134 241.965C60.5424 242.205 60.2284 242.349 59.8894 242.43C59.22 242.591 58.4417 242.508 57.6859 242.427L57.6763 242.426C57.6762 242.426 57.676 242.426 57.6758 242.426C51.9097 241.902 46.2678 241.028 40.5286 239.329L40.5271 239.328C39.5988 239.039 38.6682 238.754 37.7366 238.469C31.1655 236.46 24.5455 234.436 18.341 230.44L18.2815 230.401L18.2978 230.333C18.9362 227.633 19.5076 224.908 20.0922 222.121C20.176 221.722 20.26 221.321 20.3445 220.919C21.019 217.711 21.7255 214.415 22.5833 210.977L22.6171 210.841L22.7345 210.917C29.793 215.463 37.1381 218.145 44.2673 220.352C51.7507 222.688 59.2269 225.022 67.4335 226.44ZM81.5535 194.615L81.5117 194.688L81.4322 194.659C75.7005 192.568 69.8714 190.748 64.053 188.933C61.1623 188.03 58.2744 187.129 55.4022 186.196C46.7519 183.384 38.2516 180.282 30.2824 175.991L30.2223 175.959L30.2306 175.891C30.8327 170.976 31.5308 166.887 32.4832 162.102L32.5125 161.954L32.6372 162.038C49.1853 173.205 67.2576 180.195 87.0786 183.484L87.2221 183.508L87.1484 183.634C86.1016 185.417 85.2609 187.178 84.4024 188.987L84.3376 189.123C83.5 190.888 82.6404 192.699 81.5535 194.615ZM38.2109 182.62L38.2925 182.662L38.2579 182.747C36.37 187.377 35.2127 192.176 34.0536 196.984L34.0528 196.988C32.8945 201.792 31.7341 206.605 29.8401 211.25L29.8038 211.339L29.7132 211.306C26.9007 210.28 25.2672 209.287 23.412 207.817L23.362 207.777L23.3768 207.715C24.4399 203.264 25.3968 198.861 26.3613 194.424L26.5348 193.625C27.5584 188.917 28.5982 184.165 29.7892 179.27L29.8156 179.161L29.9206 179.199L29.9229 179.2C33.0733 180.35 35.5303 181.247 38.2109 182.62Z" fill="#E6E8EB" stroke="white" stroke-width="0.2"/>
<path d="M43.0142 228.936C41.8765 227.796 40.8555 226.336 39.7178 225.196C38.0112 223.486 35.9545 222.736 33.6569 223.709C31.8189 224.488 31.2352 226.087 31.7967 227.742C32.1248 230.036 34.0574 232.191 36.4643 231.982C40.9353 231.439 44.5893 233.135 48.5861 234.957C50.3 235.582 52.0214 235.123 53.2905 233.774C54.5597 232.425 54.341 230.896 53.6628 229.561C52.6418 228.101 50.9279 227.475 48.9805 227.49C46.9164 227.824 45.195 228.283 43.0142 228.936Z" fill="#FECB00"/>
<path d="M-23.4656 273.129C-27.5816 270.65 -30.8546 268.065 -34.9706 265.585C-36.3733 264.477 -38.1515 263.845 -39.7455 264.902C-41.3396 265.958 -41.1554 267.648 -41.3468 269.812C-40.8865 274.036 -40.0506 277.784 -38.7472 281.901C-42.3108 284.49 -45.4989 286.604 -48.595 289.562C-49.346 290.513 -50.9401 291.57 -50.2884 293.628C-49.6367 295.687 -47.9505 295.475 -46.2644 295.263C-43.2676 295.314 -39.4279 295.259 -36.0557 294.835C-35.4112 300.748 -33.456 306.924 -31.9685 312.731C-31.4089 313.945 -31.2248 315.635 -29.9141 315.898C-28.136 316.531 -27.477 314.735 -26.726 313.785C-23.3465 309.506 -23.0559 304.332 -20.9871 299.79C-20.3281 297.995 -20.0447 296.675 -19.3858 294.88C-15.1705 294.349 -10.771 295.509 -6.46366 295.823C-4.30997 295.98 -2.5318 296.613 -1.49738 294.342C-0.838446 292.547 -1.8656 290.964 -2.42523 289.75C-3.91999 287.797 -5.03922 285.369 -6.90948 283.891C-10.1824 281.306 -9.99111 279.141 -8.67326 275.55C-7.63883 273.28 -6.60439 271.009 -6.88059 268.475C-6.87336 264.621 -9.11916 263.619 -12.3993 264.887C-15.4954 267.846 -19.0589 270.434 -23.4656 273.129ZM-4.77031 291.757C-10.2962 292.024 -13.7605 291.603 -17.1328 292.027C-20.5971 291.607 -22.0991 293.508 -23.4169 297.099C-24.2672 301.059 -25.493 305.495 -28.0294 309.667C-29.4249 304.705 -29.8852 300.481 -29.878 296.627C-29.8708 292.773 -31.741 291.296 -35.5808 291.351C-38.11 291.669 -41.1068 291.617 -44.479 292.041C-42.5095 290.509 -40.9154 289.453 -39.3213 288.396C-35.2902 286.176 -33.9723 282.585 -35.2757 278.468C-36.0195 275.565 -36.2957 273.03 -36.1964 270.021C-31.3294 271.55 -28.7153 275.93 -23.9404 276.614C-18.7899 276.823 -15.8781 272.175 -10.0687 270.588C-15.6091 278.563 -13.562 285.584 -4.77031 291.757Z" fill="#FECB00"/>
<path d="M151.371 273.825C153.438 277.003 152.921 279.652 153.438 282.3C153.954 287.068 156.021 288.657 160.672 288.657C165.84 288.128 171.524 288.657 173.591 282.3C175.141 278.063 172.041 276.473 168.423 277.003C165.323 277.003 162.222 279.122 159.122 280.711C157.055 275.414 157.572 270.117 157.572 264.819C157.055 256.343 154.471 254.224 146.72 257.403C136.385 261.641 126.05 266.938 115.715 271.706C113.648 272.765 112.615 273.825 113.132 276.473C114.165 283.36 114.682 290.246 114.682 297.133C114.682 300.841 116.232 302.43 119.333 301.901C122.95 301.901 126.05 301.901 129.667 300.311C132.251 298.722 134.835 296.603 133.285 293.425C131.734 290.246 128.634 290.776 126.05 292.365C123.983 293.425 122.433 294.484 120.366 295.544C119.333 289.187 118.816 288.657 123.983 286.538C133.285 281.241 142.586 278.592 151.371 273.825ZM118.816 276.473C129.667 271.176 140.519 266.408 150.854 261.641C152.404 266.938 150.854 269.057 146.203 271.176C137.419 274.884 128.634 279.652 119.333 283.89C119.333 280.711 119.333 278.592 118.816 276.473Z" fill="#FECB00"/>
<g clip-path="url(#clip0)">
<path d="M-1.82321 313.329C-1.82321 313.329 18.6222 360.15 58.5349 332.906C98.4476 305.662 62.4975 284.333 47.8023 309.358C33.431 334.198 66.5508 383.209 123.706 350.363" stroke="#E6E8EB" stroke-width="1.8199" stroke-miterlimit="10" stroke-linecap="round" stroke-linejoin="round" stroke-dasharray="3.75 3.75"/>
</g>
<path d="M186 146.866C189.942 144.859 193.391 142.851 196.841 145.862C199.797 148.372 202.754 150.881 206.696 151.383C203.246 157.907 199.797 163.929 196.841 169.952C195.362 172.963 195.855 174.97 198.319 176.978C202.261 180.491 206.203 183 211.13 183C216.551 183 220 179.989 220 175.472C220 169.952 216.058 168.948 211.623 168.446C209.159 168.446 206.696 168.446 203.739 169.45C204.725 165.435 207.188 163.427 208.667 160.918C211.623 156.401 214.087 151.383 216.551 146.364C218.029 142.851 216.551 140.844 213.101 141.847C208.667 143.353 205.217 141.847 201.768 140.342C194.87 137.331 189.449 139.338 186 146.866Z" fill="#E6E8EB"/>
<path d="M152.385 234C150.071 234.547 148.336 235.642 148.336 237.832C148.336 240.022 150.071 241.664 152.385 241.664C155.277 241.664 155.855 240.022 155.855 237.832C156.434 235.642 155.277 234 152.385 234Z" fill="#FECB00"/>
<defs>
<clipPath id="clip0">
</clipPath>
</defs>
</svg>
