<svg width="22" height="23" viewBox="0 0 22 23" fill="none" xmlns="http://www.w3.org/2000/svg">
<path fill-rule="evenodd" clip-rule="evenodd" d="M11.7187 1C11.7771 1 11.8355 1 11.8939 1C11.8647 1.11646 11.8647 1.2038 11.8355 1.32025C11.6895 1.66962 11.8063 1.93165 12.1276 2.07722C12.2736 2.13544 12.4197 2.19367 12.5657 2.2519C12.9746 2.36835 13.4127 2.4557 13.8216 2.63038C14.7562 2.97975 15.3403 3.62025 15.4279 4.63924C15.4863 5.10506 15.4571 5.57089 15.4571 6.03671C15.4571 6.67722 15.4571 7.31772 15.4571 7.95823C15.4571 8.13291 15.4863 8.27848 15.6616 8.36582C15.7784 8.42405 15.8368 8.56962 15.8076 8.68608C15.6908 9.3557 15.5447 10.0253 15.3987 10.6949C15.3695 10.8987 13.6755 13.4025 13.7047 13.5481C13.7339 13.9557 13.9676 14.3051 14.026 14.7127C14.0552 14.8582 14.5809 14.9747 14.727 15.0329C14.9022 15.1203 15.019 15.2658 15.0774 15.4405C15.165 15.6734 15.2235 15.9354 15.3111 16.1684C15.3403 16.2557 15.4279 16.343 15.5155 16.4013C16.1289 16.7506 16.7714 17.0709 17.3847 17.3911C18.3777 17.9152 19.3708 18.4392 20.3638 18.9633C20.6266 19.0797 20.7143 19.2544 20.7143 19.5456C20.7143 20.0696 20.7143 20.6228 20.7143 21.1468C20.7143 21.3797 20.6558 21.5835 20.4222 21.7C16.859 21.7 13.2958 21.7 9.70346 21.7C6.89965 21.7 4.09584 21.7 1.29203 21.7C1.05838 21.5835 0.999969 21.3797 0.999969 21.1468C0.999969 20.5937 0.999969 20.0696 0.999969 19.5165C0.999969 19.2544 1.08759 19.0797 1.32124 18.9633C2.0514 18.5848 2.78156 18.2063 3.54092 17.7987C4.41711 17.3329 5.32251 16.8671 6.1987 16.4013C6.28632 16.3722 6.34473 16.2557 6.40314 16.1684C6.49076 15.9354 6.54918 15.6734 6.666 15.4114C6.72441 15.2658 7.27933 15.1203 7.42537 15.0329C7.5714 14.9165 7.83425 14.8291 7.86346 14.6544C7.89267 14.3051 8.12632 14.043 8.18473 13.6937C8.24314 13.4025 6.54918 11.3646 6.46156 11.0443C6.34473 10.6658 6.22791 10.2582 6.14029 9.87975C6.05267 9.50127 5.99425 9.09367 5.93584 8.68608C5.90664 8.54051 5.90664 8.39494 6.05267 8.33671C6.25711 8.24937 6.28632 8.07468 6.28632 7.87089C6.28632 6.8519 6.28632 5.86203 6.28632 4.84304C6.28632 4.58101 6.34473 4.31899 6.43235 4.05696C6.666 3.38734 7.1333 2.92152 7.77584 2.65949C8.65203 2.2519 9.52822 1.90253 10.4044 1.52405C10.7841 1.34937 11.2514 1.17468 11.7187 1Z" stroke="white" stroke-width="2"/>
<path d="M7.40656 14.8L11.3494 17.7572L14.7994 14.8" stroke="white" stroke-width="2"/>
</svg>
