<svg width="320" height="162" viewBox="0 0 320 162" fill="none" xmlns="http://www.w3.org/2000/svg">
<mask id="mask0" mask-type="alpha" maskUnits="userSpaceOnUse" x="0" y="0" width="320" height="162">
<rect width="320" height="162" fill="#C4C4C4"/>
</mask>
<g mask="url(#mask0)">
<path d="M281.259 27.324C282.328 29.0589 282.461 31.0606 282.862 33.0623C284.866 33.1957 286.737 33.3292 288.741 33.4626C289.542 33.4626 290.478 33.5961 290.745 34.5302C291.146 35.5978 290.077 36.1316 289.409 36.5319C288.206 37.1992 287.004 37.733 285.668 38.4002C286.469 40.135 287.538 41.603 288.073 43.4712C288.607 45.6064 287.939 46.5405 286.069 45.7399C281.927 43.7381 278.587 44.4054 275.647 47.6081C274.979 48.2754 274.044 48.6757 272.975 48.0085C272.04 47.3412 272.574 46.4071 272.708 45.6064C273.242 43.8716 273.91 42.1368 274.578 40.2685C273.109 39.3344 271.773 38.2668 270.303 37.3326C269.769 36.9323 269.101 36.3985 269.368 35.4644C269.635 34.6637 270.303 34.5302 270.971 34.3968C272.975 34.1299 275.113 33.9964 277.251 33.7295C277.785 31.3275 278.453 28.9254 280.19 27.0571C280.457 27.1906 280.858 27.324 281.259 27.324ZM287.939 35.1975C286.336 35.1975 285.133 35.1975 284.065 35.3309C282.461 35.4644 281.526 34.9306 281.259 33.1957C281.125 32.2616 280.992 31.194 279.923 29.8595C279.522 34.6637 276.583 35.9981 272.307 36.1316C276.85 38.2668 277.651 41.2026 274.712 45.473C277.251 44.8057 278.453 42.6706 280.591 42.6706C282.595 42.5371 284.332 44.1385 286.469 43.8716C285.935 42.4037 285 41.4695 284.198 40.4019C282.728 38.2668 282.862 37.5995 285.133 36.5319C285.801 36.1316 286.603 35.7313 287.939 35.1975Z" fill="#E6E8EB"/>
<path d="M285.401 53.3473C285.668 54.5483 285.534 55.7493 285.401 56.9504C286.469 57.3507 287.672 57.7511 288.741 58.1514C289.275 58.2848 289.81 58.5517 289.81 59.0855C289.81 59.7528 289.142 59.8862 288.607 60.0197C287.806 60.1531 287.004 60.2866 286.069 60.5535C286.336 61.7545 286.603 62.8221 286.603 63.8897C286.603 65.2241 285.935 65.7579 285 64.8238C282.862 62.9555 280.858 62.8221 278.453 64.1566C277.919 64.4235 277.251 64.5569 276.85 64.0231C276.315 63.4893 276.85 62.9555 277.117 62.5552C277.785 61.621 278.453 60.6869 279.121 59.6193C278.453 58.8186 277.785 58.018 277.117 57.0838C276.85 56.6835 276.583 56.2831 276.85 55.8828C277.117 55.4824 277.518 55.4824 277.919 55.6159C279.121 55.8828 280.457 56.0162 281.793 56.2831C282.595 54.9486 283.263 53.6142 284.599 52.8135C285 53.0804 285.267 53.2138 285.401 53.3473ZM288.073 59.0855C287.138 58.8186 286.47 58.5517 285.668 58.4183C284.599 58.2848 284.198 57.7511 284.332 56.6835C284.465 56.1497 284.465 55.4824 284.065 54.5483C282.996 57.3507 280.992 57.6176 278.453 56.9504C280.858 58.9521 280.724 60.9538 278.32 62.8221C279.923 62.8221 280.992 61.7545 282.328 62.1548C283.53 62.4217 284.332 63.6228 285.534 63.8897C285.401 62.9555 285.133 62.1548 284.733 61.3542C284.198 59.8862 284.465 59.4859 285.935 59.219C286.603 59.219 287.138 59.219 288.073 59.0855Z" fill="#E6E8EB"/>
<path d="M228.618 120.472C227.682 121.139 227.282 120.338 226.747 120.071C225.01 119.004 223.407 117.803 221.937 116.335C220.735 115.134 219.399 114.734 217.796 115.534C213.387 117.536 208.577 117.803 203.767 117.936C192.41 118.47 182.523 109.129 181.855 97.7856C181.588 93.2484 181.855 88.7112 180.787 84.1739C180.386 82.5725 179.985 81.1046 179.183 79.6367C178.916 79.2363 178.515 78.7025 179.05 78.1688C179.451 77.7684 179.985 77.9019 180.386 78.0353C188.402 81.3715 197.087 80.9712 205.237 83.2398C206.038 83.5067 206.973 83.6401 207.775 83.7736C215.123 85.2415 218.196 90.5794 219.532 97.2518C220.334 101.522 219.933 105.793 219.933 110.063C219.933 111.798 220.334 113.132 221.67 114.2C223.407 115.668 225.144 117.269 226.881 118.737C227.682 119.271 228.35 119.671 228.618 120.472ZM183.325 91.3801C183.592 95.1167 183.592 98.8532 184.928 102.456C186.131 105.392 186.398 105.659 189.738 105.659C193.88 105.659 197.888 106.059 201.896 106.46C205.504 106.86 208.978 107.928 212.318 108.862C205.103 99.2536 195.35 93.6487 183.325 91.3801ZM187.333 106.727C189.605 110.463 192.41 112.732 195.751 114.2C200.026 116.068 204.569 115.534 208.978 115.267C212.05 115 215.123 114.467 218.597 113.266C208.844 106.593 197.888 108.195 187.333 106.727ZM210.581 103.524C212.585 99.5205 213.52 95.7839 214.322 91.9139C215.123 88.5777 214.322 88.5777 211.917 87.1098C208.443 84.9746 204.435 84.8412 200.16 83.907C205.504 89.6453 208.443 96.0508 210.581 103.524ZM209.245 103.124C207.107 96.4511 204.301 90.3125 199.759 85.1081C199.091 84.3074 198.289 83.3732 197.22 83.2398C193.479 82.8394 189.738 82.4391 185.997 81.7719C194.949 87.3767 202.431 94.9832 209.245 103.124ZM201.228 96.5846C195.751 89.9122 188.937 85.375 181.455 80.7043C182.39 83.6401 182.924 86.0422 183.058 88.5777C183.192 89.9122 183.726 90.3125 184.795 90.5794C189.738 91.7805 194.548 93.3818 198.957 95.9173C199.625 96.1842 200.293 96.718 201.228 96.5846ZM215.658 91.2467C214.455 95.9173 213.52 100.455 211.516 104.591C211.382 104.992 211.382 105.392 211.65 105.659C213.787 107.661 215.791 109.929 218.464 111.798C218.464 104.858 219.132 97.9191 215.658 91.2467Z" fill="#E6E8EB"/>
<path d="M222.205 86.8422C222.472 81.6377 219.666 77.6343 218.731 72.9636C216.593 61.4871 222.605 52.2792 234.095 49.7437C236.768 49.2099 239.44 48.8095 242.245 48.943C247.991 49.0764 253.602 48.6761 259.213 47.3416C260.95 46.9412 261.752 47.7419 261.351 49.4768C259.347 57.2167 257.61 65.0902 254.27 72.4298C251.999 77.234 248.792 81.104 243.181 81.9046C239.841 82.4384 236.5 81.9046 233.16 81.3708C230.755 80.9705 228.484 80.8371 226.079 81.5043C224.609 81.9046 223.674 82.5719 223.808 84.3067C223.941 85.2408 223.674 86.175 222.205 86.8422ZM253.201 69.7609C245.853 67.7591 238.772 65.8909 231.29 66.0243C230.355 66.0243 229.954 66.5581 229.419 67.0919C225.812 70.8285 224.342 75.4991 223.674 80.7036C226.747 79.3691 229.82 78.9688 233.027 79.5026C235.966 80.0364 238.772 80.1698 241.711 80.0364C244.517 80.0364 246.788 78.8353 248.792 76.9671C250.663 74.9653 252.132 72.5633 253.201 69.7609ZM231.958 64.6898C239.707 64.8233 246.655 66.5581 253.602 68.5598C254.938 65.3571 255.873 62.2878 256.675 58.9516C253.201 57.4836 249.594 55.7488 246.254 56.8164C241.31 58.5512 236.5 60.6864 231.958 64.6898ZM242.245 51.0781C237.97 50.6778 231.557 52.1457 227.95 54.1474C226.881 54.8147 226.213 55.7488 226.079 56.8164C225.678 60.2861 225.945 63.7557 226.614 67.4922C228.35 65.2236 230.221 63.6223 232.359 62.0209C234.363 60.553 236.634 59.3519 238.905 58.2843C239.306 58.1509 239.841 58.0174 239.974 57.3502C239.974 55.215 241.31 53.3468 242.245 51.0781ZM224.209 57.6171C219.532 61.2202 218.998 72.6967 222.338 77.5009C223.006 74.6984 223.808 72.0295 225.144 69.6274C225.277 69.3605 225.411 68.9602 225.411 68.6933C224.342 65.0902 224.342 61.4871 224.209 57.6171ZM257.477 49.7437C253.201 50.5443 249.059 51.0781 244.65 50.9447C244.25 50.9447 243.849 51.0781 243.582 51.4785C242.646 53.2133 241.577 54.9481 241.177 57.3502C246.788 54.5478 252.533 53.2133 257.477 49.7437ZM248.659 55.6154C251.865 55.8823 254.404 56.9499 256.942 57.884C257.61 55.3485 258.278 53.0799 259.08 50.4109C255.74 52.4126 252.533 54.1474 248.659 55.6154Z" fill="#E6E8EB"/>
<path d="M310.758 63.4888C307.952 58.6846 307.952 55.8822 312.896 51.0781C316.77 47.3415 321.446 45.8736 326.791 46.8078C328.528 47.0746 329.463 46.6743 330.398 45.2064C336.811 36.2654 348.569 34.5305 357.253 41.2029C361.261 44.2722 363.265 47.3415 364.2 52.546C371.682 52.6795 376.492 58.6846 374.622 65.6239C373.82 68.8267 371.549 70.5615 368.209 70.4281C361.395 70.2946 354.447 70.2946 347.633 70.1612C339.75 69.8943 332.001 70.0277 324.119 70.695C320.244 70.9618 316.369 71.6291 312.495 71.896C310.892 72.0294 309.155 71.896 307.551 71.6291C305.948 71.3622 304.612 70.695 304.345 68.9601C304.078 67.3588 304.879 66.2912 306.082 65.357C307.418 64.2894 309.021 63.8891 310.758 63.4888ZM373.018 62.955C373.152 57.7505 369.277 54.1474 364.2 54.8146C362.864 54.9481 362.33 54.5477 362.196 53.2133C362.063 50.8112 361.128 48.5426 359.658 46.6743C352.443 37.3329 339.617 37.066 332.269 46.274C330.532 48.5426 328.928 49.4767 326.123 48.676C324.386 48.1422 322.649 48.5426 320.912 48.9429C316.904 50.0105 313.964 52.546 311.827 56.0157C310.223 58.5512 311.56 60.8198 312.628 63.0884C313.163 64.2894 312.896 64.9567 311.426 65.2236C309.823 65.4905 308.353 66.0243 307.284 67.2253C306.349 68.1594 306.483 68.8267 307.819 69.3605C309.021 69.8943 310.09 69.6274 311.292 69.6274C320.11 68.8267 328.928 68.1594 337.746 68.1594C347.099 68.1594 356.451 68.6932 365.67 69.3605C370.614 69.4939 373.018 67.4922 373.018 62.955Z" fill="#E6E8EB"/>
<path d="M256.141 157.703C254.27 159.971 252.4 162.374 250.529 164.642C249.594 165.71 248.792 167.311 247.189 166.777C245.452 166.243 245.987 164.375 245.987 163.041C245.853 160.372 246.521 157.703 246.922 155.034C247.055 153.966 246.788 153.432 245.987 152.899C244.116 151.564 242.112 150.096 240.642 148.228C239.306 146.76 239.574 145.959 241.578 145.426C244.25 144.758 247.055 145.159 249.728 145.025C251.064 145.025 251.598 144.625 251.732 143.157C251.999 140.621 252.4 137.953 254.27 135.417C257.21 138.219 258.813 141.422 260.55 144.491C263.355 143.958 265.894 143.424 268.566 143.024C269.368 142.89 270.303 142.623 270.837 143.557C271.238 144.491 270.57 145.159 270.036 145.692C268.432 147.427 266.829 149.162 265.092 150.897C264.291 151.698 264.157 152.365 264.691 153.432C265.627 155.968 266.562 158.504 267.497 161.039C267.764 161.706 268.032 162.507 267.364 163.174C266.829 163.708 266.028 163.308 265.493 163.041C262.153 161.573 259.347 159.438 256.141 157.703ZM268.7 144.358C266.028 144.892 264.023 145.292 262.019 145.959C260.149 146.627 259.08 146.093 258.145 144.225C257.21 142.49 256.007 140.888 254.671 139.02C254.404 139.554 254.27 139.821 254.27 140.088C252.667 146.627 254.137 146.093 246.254 146.627C245.586 146.627 244.918 146.627 244.25 146.627C243.448 146.76 242.646 146.36 241.978 147.16C243.715 149.029 245.719 150.497 247.723 151.831C248.926 152.765 249.46 153.566 249.193 155.167C248.792 158.237 247.991 161.172 248.258 164.509C249.193 164.108 249.46 163.441 249.995 162.907C251.598 161.039 253.335 159.171 254.938 157.169C256.007 155.835 257.21 155.701 258.679 156.769C261.084 158.37 263.623 159.838 266.028 161.439C265.359 158.904 264.424 156.635 263.355 154.5C262.287 152.498 262.687 150.897 264.291 149.429C265.36 147.828 266.829 146.226 268.7 144.358Z" fill="#E6E8EB"/>
<path d="M235.298 132.348C236.233 131.681 237.035 130.88 237.97 130.213C239.44 129.412 240.509 130.079 240.375 131.814C240.241 132.882 239.841 133.816 239.306 134.617C237.97 137.019 236.1 139.154 234.095 141.156C232.759 142.49 231.557 142.223 230.755 140.488C229.419 137.286 228.751 133.949 229.152 130.48C229.286 129.412 229.686 128.478 230.889 128.211C231.958 127.944 232.759 128.611 233.294 129.412C234.095 130.346 234.63 131.414 235.298 132.348Z" fill="#D24C44"/>
<path d="M269.234 81.7711C269.234 80.9704 269.234 80.4366 269.234 79.9029C269.234 78.9687 269.635 78.3015 270.57 78.0346C271.372 77.7677 272.174 77.9011 272.842 78.7018C274.311 80.5701 275.514 82.4384 276.048 84.707C276.449 86.5753 275.514 87.7763 273.643 87.3759C270.036 86.7087 266.562 85.5077 263.489 83.3725C262.554 82.7053 262.019 81.7711 262.42 80.7035C262.955 79.5025 264.024 79.7694 265.092 79.9029C266.562 80.1698 267.631 80.9704 269.234 81.7711Z" fill="#D24C44"/>
<path d="M319.84 21C320.374 21.4003 320.508 21.6672 320.508 22.0676C319.706 25.5372 319.172 29.1403 316.366 31.8093C315.03 33.0103 313.427 33.9445 311.556 32.7434C310.087 31.8093 309.686 29.5407 310.755 27.539C312.625 23.669 316.099 22.201 319.84 21ZM318.771 23.0017C316.233 23.9359 314.362 25.2703 313.026 27.1386C311.69 28.8734 311.556 30.8752 312.492 31.5424C313.427 32.2096 315.431 31.2755 316.5 29.5407C317.702 27.6724 318.103 25.4038 318.771 23.0017Z" fill="#E6E8EB"/>
<path d="M245.586 114.599C244.25 114.333 243.448 113.665 243.448 112.331C243.448 111.13 244.25 110.329 245.452 110.329C246.788 110.329 247.59 111.13 247.724 112.464C247.857 113.799 246.922 114.466 245.586 114.599Z" fill="#E6E8EB"/>
<path d="M267.898 71.3618C269.101 71.3618 269.902 71.8956 269.902 72.9632C269.902 74.2977 268.967 74.9649 267.765 74.9649C266.696 74.9649 265.894 74.2977 266.028 73.2301C266.028 71.8956 266.829 71.3618 267.898 71.3618Z" fill="#E6E8EB"/>
<path d="M243.982 101.655C245.051 101.788 245.586 102.322 245.586 103.39C245.586 104.324 245.051 104.991 244.116 104.991C243.181 104.991 242.513 104.591 242.513 103.523C242.513 102.455 242.914 101.788 243.982 101.655Z" fill="#E6E8EB"/>
<path d="M236.901 74.9652C236.634 76.0328 235.565 76.1662 234.897 76.5666C234.363 76.8335 233.695 77.3673 233.027 76.8335C232.492 76.2997 232.76 75.6324 233.027 75.2321C233.695 74.1645 234.496 73.6307 235.699 73.8976C236.367 73.8976 236.768 74.298 236.901 74.9652Z" fill="#E6E8EB"/>
<g clip-path="url(#clip0)">
<path d="M282.143 119.147C282.143 121.976 282.578 124.805 283.23 127.489C283.882 130.173 284.752 132.784 285.839 135.25C288.012 140.255 290.694 144.898 293.737 149.25C295.259 151.426 296.853 153.602 298.519 155.633C300.186 157.664 301.925 159.695 303.664 161.653C307.215 165.57 310.983 169.27 314.968 172.679L315.33 173.042L315.693 172.679C318.084 170.285 320.33 167.819 322.504 165.353C324.678 162.814 326.852 160.275 328.881 157.664C333.011 152.369 336.779 146.856 340.112 140.981C341.779 138.079 343.228 135.033 344.46 131.841C345.836 128.722 346.778 125.458 347.213 121.976C347.358 121.106 347.358 120.235 347.431 119.365C347.431 118.495 347.358 117.624 347.358 116.754C347.358 115.883 347.213 115.013 347.068 114.142L346.923 112.837C346.851 112.547 346.706 112.111 346.633 111.676C346.416 110.806 346.271 110.008 345.981 109.137L345.112 106.671C344.749 105.873 344.387 105.075 344.025 104.278L343.807 103.77L343.445 103.19L342.793 102.029C340.982 99.055 338.735 96.3711 336.127 94.05C333.446 91.8014 330.402 89.9154 327.141 88.6098L325.91 88.102C325.475 87.957 325.113 87.7394 324.678 87.6668L322.142 86.9415C320.403 86.6513 318.663 86.2886 316.924 86.2161C313.374 86.1436 309.751 86.4337 306.345 87.4492C302.939 88.3922 299.606 89.8429 296.635 91.8739C293.664 93.8324 291.056 96.3711 288.882 99.2C286.708 102.029 284.969 105.221 283.882 108.63C282.795 111.966 282.216 115.593 282.143 119.147ZM286.853 119.147C286.926 116.028 287.36 112.982 288.302 110.08C289.244 107.179 290.766 104.423 292.578 101.956C294.389 99.4902 296.635 97.2416 299.171 95.5007C301.708 93.7598 304.534 92.3817 307.504 91.4387C310.475 90.4957 313.591 90.133 316.707 90.2056C318.301 90.2056 319.823 90.4232 321.345 90.6408L323.663 91.1486C324.026 91.2211 324.388 91.3662 324.823 91.5112L325.91 91.8739C328.881 92.962 331.634 94.4852 334.17 96.4437C336.634 98.4021 338.808 100.796 340.547 103.48L341.199 104.495L341.489 105.003L341.779 105.511C342.141 106.236 342.503 106.961 342.865 107.687L343.735 109.935C344.025 110.661 344.17 111.459 344.387 112.257C344.46 112.619 344.605 113.054 344.677 113.417L344.822 114.578C344.967 115.376 345.112 116.173 345.112 116.971C345.112 117.769 345.257 118.567 345.257 119.365C345.184 120.163 345.257 120.961 345.112 121.759C344.822 124.95 343.952 128.142 342.865 131.188C341.779 134.235 340.329 137.281 338.735 140.183C335.619 145.986 331.851 151.498 327.866 156.794C323.808 162.089 319.605 167.166 315.04 172.026H315.765C312.287 168.109 308.954 164.12 305.838 159.985C302.65 155.851 299.679 151.644 296.998 147.219C294.317 142.794 291.853 138.297 290.041 133.582C288.157 128.867 286.853 123.935 286.853 119.147Z" fill="#D24C44"/>
<path d="M313.954 134.814C318.011 134.814 322.069 133.218 324.968 130.389C327.939 127.56 329.75 123.498 329.823 119.364C329.967 115.229 328.373 110.95 325.475 107.831C322.576 104.712 318.301 102.753 313.954 102.681C309.606 102.753 305.331 104.712 302.432 107.831C299.461 110.95 297.94 115.229 298.085 119.364C298.23 123.498 300.041 127.56 302.939 130.389C305.91 133.218 309.896 134.814 313.954 134.814ZM313.954 132.493C312.214 132.493 310.475 132.13 308.881 131.477C307.287 130.825 305.838 129.809 304.679 128.576C303.519 127.343 302.577 125.82 301.997 124.296C301.418 122.701 301.128 121.032 301.2 119.364C301.345 116.027 302.867 112.836 305.258 110.66C307.649 108.411 310.838 107.25 313.954 107.396C317.069 107.25 320.33 108.411 322.649 110.66C325.04 112.836 326.562 116.027 326.707 119.364C326.779 121.032 326.489 122.701 325.91 124.296C325.33 125.892 324.388 127.343 323.229 128.576C322.069 129.809 320.62 130.825 319.026 131.477C317.432 132.13 315.693 132.493 313.954 132.493Z" fill="#D24C44"/>
</g>
<path d="M34.8639 30.7156C33.795 32.4505 33.6614 34.4522 33.2606 36.4539C31.2565 36.5873 29.386 36.7208 27.3819 36.8542C26.5803 36.8542 25.645 36.9877 25.3778 37.9218C24.977 38.9894 26.0458 39.5232 26.7139 39.9235C27.9163 40.5908 29.1188 41.1246 30.4548 41.7918C29.6532 43.5266 28.5844 44.9946 28.0499 46.8628C27.5155 48.998 28.1835 49.9321 30.054 49.1315C34.1958 47.1297 37.536 47.797 40.4753 50.9997C41.1434 51.667 42.0786 52.0673 43.1475 51.4001C44.0827 50.7328 43.5483 49.7987 43.4147 48.998C42.8803 47.2632 42.2122 45.5284 41.5442 43.6601C43.0139 42.726 44.3499 41.6584 45.8196 40.7242C46.354 40.3239 47.0221 39.7901 46.7548 38.856C46.4876 38.0553 45.8196 37.9218 45.1515 37.7884C43.1475 37.5215 41.0098 37.388 38.8721 37.1211C38.3376 34.7191 37.6696 32.317 35.9327 30.4487C35.6655 30.5822 35.2647 30.7156 34.8639 30.7156ZM28.1836 38.5891C29.7868 38.5891 30.9893 38.5891 32.0581 38.7225C33.6614 38.856 34.5967 38.3222 34.8639 36.5873C34.9975 35.6532 35.1311 34.5856 36.1999 33.2511C36.6008 38.0553 39.5401 39.3897 43.8155 39.5232C39.2729 41.6584 38.4712 44.5942 41.4106 48.8646C38.8721 48.1973 37.6696 46.0622 35.5319 46.0622C33.5278 45.9287 31.7909 47.5301 29.6532 47.2632C30.1877 45.7953 31.1229 44.8611 31.9245 43.7935C33.3942 41.6584 33.2606 40.9911 30.9893 39.9235C30.3213 39.5232 29.5196 39.1229 28.1836 38.5891Z" fill="#E6E8EB"/>
<path d="M30.722 56.7389C30.4548 57.9399 30.5884 59.1409 30.722 60.342C29.6532 60.7423 28.4507 61.1427 27.3819 61.543C26.8474 61.6764 26.313 61.9433 26.313 62.4771C26.313 63.1444 26.9811 63.2778 27.5155 63.4113C28.3171 63.5447 29.1188 63.6782 30.054 63.9451C29.7868 65.1461 29.5196 66.2137 29.5196 67.2813C29.5196 68.6157 30.1876 69.1495 31.1228 68.2154C33.2605 66.3471 35.2647 66.2137 37.6696 67.5482C38.204 67.8151 38.872 67.9485 39.2729 67.4147C39.8073 66.8809 39.2729 66.3471 39.0057 65.9468C38.3376 65.0126 37.6696 64.0785 37.0016 63.0109C37.6696 62.2102 38.3376 61.4096 39.0057 60.4754C39.2729 60.0751 39.5401 59.6747 39.2729 59.2744C39.0056 58.874 38.6048 58.874 38.204 59.0075C37.0016 59.2744 35.6655 59.4078 34.3294 59.6747C33.5278 58.3403 32.8598 57.0058 31.5237 56.2051C31.1229 56.472 30.8556 56.6054 30.722 56.7389ZM28.0499 62.4771C28.9852 62.2102 29.6532 61.9433 30.4548 61.8099C31.5237 61.6764 31.9245 61.1427 31.7909 60.0751C31.6573 59.5413 31.6573 58.874 32.0581 57.9399C33.127 60.7423 35.1311 61.0092 37.6696 60.342C35.2647 62.3437 35.3983 64.3454 37.8032 66.2137C36.1999 66.2137 35.131 65.1461 33.795 65.5464C32.5925 65.8133 31.7909 67.0144 30.5884 67.2813C30.722 66.3471 30.9893 65.5464 31.3901 64.7458C31.9245 63.2778 31.6573 62.8775 30.1876 62.6106C29.5196 62.6106 28.9852 62.6106 28.0499 62.4771Z" fill="#E6E8EB"/>
<path d="M87.505 123.864C88.4402 124.531 88.841 123.73 89.3754 123.464C91.1123 122.396 92.7156 121.195 94.1853 119.727C95.3877 118.526 96.7238 118.126 98.3271 118.926C102.736 120.928 107.546 121.195 112.356 121.328C123.712 121.862 133.599 112.521 134.267 101.178C134.534 96.6405 134.267 92.1032 135.336 87.566C135.737 85.9646 136.138 84.4967 136.939 83.0288C137.207 82.6284 137.607 82.0946 137.073 81.5608C136.672 81.1605 136.138 81.2939 135.737 81.4274C127.72 84.7636 119.036 84.3632 110.886 86.6319C110.084 86.8988 109.149 87.0322 108.348 87.1657C100.999 88.6336 97.9262 93.9715 96.5902 100.644C95.7885 104.914 96.1894 109.185 96.1894 113.455C96.1894 115.19 95.7886 116.524 94.4525 117.592C92.7156 119.06 90.9787 120.661 89.2418 122.129C88.4402 122.663 87.7722 123.063 87.505 123.864ZM132.798 94.7722C132.53 98.5087 132.53 102.245 131.194 105.848C129.992 108.784 129.725 109.051 126.384 109.051C122.243 109.051 118.234 109.451 114.226 109.852C110.619 110.252 107.145 111.32 103.805 112.254C111.02 102.646 120.773 97.0408 132.798 94.7722ZM128.789 110.119C126.518 113.855 123.712 116.124 120.372 117.592C116.097 119.46 111.554 118.926 107.145 118.659C104.072 118.393 100.999 117.859 97.5254 116.658C107.279 109.985 118.234 111.587 128.789 110.119ZM105.542 106.916C103.538 102.913 102.603 99.176 101.801 95.306C100.999 91.9698 101.801 91.9698 104.206 90.5019C107.68 88.3667 111.688 88.2332 115.963 87.2991C110.619 93.0374 107.68 99.4429 105.542 106.916ZM106.878 106.516C109.016 99.8432 111.821 93.7046 116.364 88.5001C117.032 87.6995 117.834 86.7653 118.902 86.6319C122.643 86.2315 126.384 85.8312 130.125 85.1639C121.174 90.7688 113.692 98.3753 106.878 106.516ZM114.894 99.9767C120.372 93.3043 127.186 88.767 134.668 84.0964C133.733 87.0322 133.198 89.4343 133.065 91.9698C132.931 93.3043 132.397 93.7046 131.328 93.9715C126.384 95.1725 121.575 96.7739 117.166 99.3094C116.498 99.5763 115.83 100.11 114.894 99.9767ZM100.465 94.6388C101.667 99.3094 102.602 103.847 104.607 107.984C104.74 108.384 104.74 108.784 104.473 109.051C102.335 111.053 100.331 113.321 97.6591 115.19C97.6591 108.25 96.991 101.311 100.465 94.6388Z" fill="#E6E8EB"/>
<path d="M93.9182 90.2338C93.6509 85.0294 96.4567 81.0259 97.3919 76.3552C99.5296 64.8787 93.5173 55.6708 82.0272 53.1353C79.3551 52.6015 76.6829 52.2011 73.8772 52.3346C68.1321 52.468 62.5207 52.0677 56.9092 50.7332C55.1723 50.3328 54.3707 51.1335 54.7715 52.8684C56.7756 60.6083 58.5124 68.4818 61.8526 75.8214C64.1239 80.6256 67.3305 84.4956 72.942 85.2962C76.2821 85.83 79.6223 85.2962 82.9625 84.7624C85.3674 84.3621 87.6387 84.2287 90.0436 84.8959C91.5132 85.2962 92.4485 85.9635 92.3149 87.6983C92.1813 88.6324 92.4485 89.5666 93.9182 90.2338ZM62.9215 73.1525C70.2698 71.1507 77.351 69.2825 84.8329 69.4159C85.7682 69.4159 86.169 69.9497 86.7034 70.4835C90.3108 74.2201 91.7805 78.8907 92.4485 84.0952C89.3756 82.7607 86.3026 82.3604 83.0961 82.8942C80.1567 83.428 77.351 83.5614 74.4116 83.428C71.6059 83.428 69.3346 82.2269 67.3305 80.3587C65.46 78.3569 63.9903 75.9549 62.9215 73.1525ZM84.1649 68.0814C76.4157 68.2149 69.4682 69.9497 62.5206 71.9514C61.1846 68.7487 60.2493 65.6794 59.4477 62.3432C62.9215 60.8752 66.5288 59.1404 69.869 60.208C74.8124 61.9428 79.6223 64.078 84.1649 68.0814ZM73.8772 54.4697C78.1526 54.0694 84.5657 55.5373 88.1731 57.539C89.2419 58.2063 89.91 59.1404 90.0436 60.208C90.4444 63.6777 90.1772 67.1473 89.5092 70.8839C87.7723 68.6152 85.9018 67.0139 83.7641 65.4125C81.76 63.9446 79.4887 62.7435 77.2174 61.6759C76.8165 61.5425 76.2821 61.409 76.1485 60.7418C76.1485 58.6066 74.8124 56.7384 73.8772 54.4697ZM91.9141 61.0087C96.5903 64.6118 97.1247 76.0883 93.7846 80.8925C93.1166 78.09 92.3149 75.4211 90.9788 73.019C90.8452 72.7521 90.7116 72.3518 90.7116 72.0849C91.7805 68.4818 91.7805 64.8787 91.9141 61.0087ZM58.6461 53.1353C62.9215 53.9359 67.0633 54.4697 71.4723 54.3363C71.8731 54.3363 72.2739 54.4697 72.5411 54.8701C73.4764 56.6049 74.5452 58.3397 74.9461 60.7418C69.3346 57.9394 63.5895 56.6049 58.6461 53.1353ZM67.4641 59.007C64.2575 59.2739 61.719 60.3415 59.1805 61.2756C58.5124 58.7401 57.8444 56.4715 57.0428 53.8025C60.383 55.8042 63.5895 57.539 67.4641 59.007Z" fill="#E6E8EB"/>
<path d="M5.36482 66.8804C8.17055 62.0762 8.17054 59.2738 3.22711 54.4697C-0.647479 50.7331 -5.3237 49.2652 -10.668 50.1994C-12.4048 50.4663 -13.3401 50.0659 -14.2753 48.598C-20.6884 39.657 -32.4458 37.9221 -41.1302 44.5945C-45.1384 47.6638 -47.1425 50.7331 -48.0777 55.9376C-55.5597 56.0711 -60.3696 62.0762 -58.4991 69.0155C-57.6974 72.2183 -55.4261 73.9531 -52.0859 73.8197C-45.272 73.6862 -38.3245 73.6862 -31.5106 73.5528C-23.6278 73.2859 -15.8786 73.4193 -7.99582 74.0866C-4.12124 74.3535 -0.246676 75.0207 3.62791 75.2876C5.23119 75.421 6.96809 75.2876 8.57136 75.0207C10.1746 74.7538 11.5107 74.0866 11.7779 72.3517C12.0451 70.7504 11.2435 69.6828 10.041 68.7486C8.70498 67.681 7.1017 67.2807 5.36482 66.8804ZM-56.8958 66.3466C-57.0294 61.1421 -53.1548 57.539 -48.0777 58.2062C-46.7417 58.3397 -46.2073 57.9393 -46.0736 56.6049C-45.94 54.2028 -45.0048 51.9342 -43.5351 50.0659C-36.3204 40.7245 -23.4942 40.4577 -16.1458 49.6656C-14.4089 51.9342 -12.8057 52.8683 -9.99992 52.0676C-8.26304 51.5338 -6.52616 51.9342 -4.78928 52.3345C-0.781085 53.4021 2.15824 55.9376 4.29594 59.4073C5.89922 61.9428 4.56319 64.2114 3.49434 66.48C2.95991 67.681 3.22711 68.3483 4.69678 68.6152C6.30006 68.8821 7.76974 69.4159 8.83859 70.6169C9.77384 71.551 9.6402 72.2183 8.30413 72.7521C7.10168 73.2859 6.03286 73.019 4.8304 73.019C-3.98762 72.2183 -12.8057 71.551 -21.6237 71.551C-30.9761 71.551 -40.3286 72.0848 -49.5474 72.7521C-54.4909 72.8855 -56.8958 70.8838 -56.8958 66.3466Z" fill="#E6E8EB"/>
<path d="M59.982 161.094C61.8525 163.363 63.723 165.765 65.5935 168.034C66.5287 169.101 67.3304 170.703 68.9336 170.169C70.6705 169.635 70.1361 167.767 70.1361 166.432C70.2697 163.763 69.6017 161.094 69.2008 158.425C69.0672 157.358 69.3345 156.824 70.1361 156.29C72.0066 154.956 74.0107 153.488 75.4803 151.62C76.8164 150.152 76.5492 149.351 74.5451 148.817C71.873 148.15 69.0673 148.55 66.3951 148.417C65.0591 148.417 64.5246 148.017 64.391 146.549C64.1238 144.013 63.723 141.344 61.8525 138.809C58.9132 141.611 57.3099 144.814 55.573 147.883C52.7673 147.349 50.2288 146.815 47.5567 146.415C46.755 146.282 45.8198 146.015 45.2853 146.949C44.8845 147.883 45.5526 148.55 46.087 149.084C47.6903 150.819 49.2935 152.554 51.0304 154.289C51.8321 155.089 51.9656 155.756 51.4312 156.824C50.496 159.36 49.5607 161.895 48.6255 164.431C48.3583 165.098 48.0911 165.899 48.7591 166.566C49.2935 167.1 50.0952 166.699 50.6296 166.432C53.9697 164.964 56.7755 162.829 59.982 161.094ZM47.423 147.75C50.0952 148.283 52.0993 148.684 54.1033 149.351C55.9738 150.018 57.0427 149.484 57.9779 147.616C58.9132 145.881 60.1156 144.28 61.4517 142.412C61.7189 142.945 61.8525 143.212 61.8525 143.479C63.4558 150.018 61.9861 149.484 69.8689 150.018C70.5369 150.018 71.2049 150.018 71.873 150.018C72.6746 150.152 73.4762 149.751 74.1443 150.552C72.4074 152.42 70.4033 153.888 68.3992 155.223C67.1968 156.157 66.6623 156.958 66.9296 158.559C67.3304 161.628 68.132 164.564 67.8648 167.9C66.9295 167.5 66.6623 166.833 66.1279 166.299C64.5246 164.431 62.7877 162.562 61.1845 160.561C60.1156 159.226 58.9132 159.093 57.4435 160.16C55.0386 161.762 52.5001 163.23 50.0952 164.831C50.7632 162.295 51.6984 160.027 52.7673 157.892C53.8361 155.89 53.4353 154.289 51.832 152.821C50.7632 151.219 49.2935 149.618 47.423 147.75Z" fill="#E6E8EB"/>
<path d="M80.8247 135.74C79.8895 135.072 79.0878 134.272 78.1526 133.604C76.6829 132.804 75.6141 133.471 75.7477 135.206C75.8813 136.273 76.2821 137.208 76.8165 138.008C78.1526 140.41 80.0231 142.545 82.0272 144.547C83.3633 145.882 84.5657 145.615 85.3674 143.88C86.7034 140.677 87.3715 137.341 86.9707 133.871C86.8371 132.804 86.4362 131.87 85.2338 131.603C84.1649 131.336 83.3633 132.003 82.8288 132.804C82.0272 133.738 81.4928 134.805 80.8247 135.74Z" fill="#D24C44"/>
<path d="M46.8885 85.1627C46.8885 84.362 46.8885 83.8282 46.8885 83.2945C46.8885 82.3603 46.4876 81.6931 45.5524 81.4262C44.7508 81.1593 43.9491 81.2927 43.2811 82.0934C41.8114 83.9617 40.6089 85.83 40.0745 88.0986C39.6737 89.9669 40.6089 91.1679 42.4794 90.7675C46.0868 90.1003 49.5606 88.8993 52.6335 86.7641C53.5688 86.0969 54.1032 85.1627 53.7024 84.0951C53.168 82.8941 52.0991 83.161 51.0303 83.2945C49.5606 83.5614 48.4917 84.362 46.8885 85.1627Z" fill="#D24C44"/>
<path d="M-3.71724 24.3916C-4.25167 24.7919 -4.38527 25.0588 -4.38527 25.4592C-3.58364 28.9288 -3.04924 32.5319 -0.243505 35.2009C1.09256 36.4019 2.69585 37.3361 4.56634 36.135C6.03601 35.2009 6.43684 32.9323 5.36799 30.9306C3.4975 27.0606 0.0237412 25.5926 -3.71724 24.3916ZM-2.64841 26.3933C-0.109881 27.3275 1.76059 28.6619 3.09666 30.5302C4.43273 32.265 4.56636 34.2668 3.63112 34.934C2.69587 35.6012 0.691774 34.6671 -0.377079 32.9323C-1.57954 31.064 -1.98037 28.7954 -2.64841 26.3933Z" fill="#E6E8EB"/>
<path d="M70.5368 117.991C71.8729 117.724 72.6745 117.057 72.6745 115.722C72.6745 114.521 71.8729 113.721 70.6704 113.721C69.3344 113.721 68.5327 114.521 68.3991 115.856C68.2655 117.19 69.2007 117.858 70.5368 117.991Z" fill="#E6E8EB"/>
<path d="M48.2244 74.7539C47.022 74.7539 46.2204 75.2877 46.2204 76.3553C46.2204 77.6898 47.1556 78.357 48.3581 78.357C49.4269 78.357 50.2285 77.6898 50.0949 76.6222C50.0949 75.2877 49.2933 74.7539 48.2244 74.7539Z" fill="#E6E8EB"/>
<path d="M72.1402 105.047C71.0713 105.18 70.5369 105.714 70.5369 106.782C70.5369 107.716 71.0713 108.383 72.0065 108.383C72.9418 108.383 73.6098 107.983 73.6098 106.915C73.6098 105.848 73.209 105.18 72.1402 105.047Z" fill="#E6E8EB"/>
<path d="M79.2212 78.3568C79.4885 79.4244 80.5573 79.5578 81.2254 79.9582C81.7598 80.2251 82.4279 80.7589 83.0959 80.2251C83.6303 79.6913 83.3631 79.024 83.0959 78.6237C82.4279 77.5561 81.6262 77.0223 80.4237 77.2892C79.7557 77.2892 79.3549 77.6896 79.2212 78.3568Z" fill="#E6E8EB"/>
<path d="M-72.5656 125.296C-72.6946 124.051 -72.8236 122.807 -71.5331 122.189C-70.3937 121.607 -69.66 122.711 -68.8451 123.478C-65.5857 126.546 -62.4425 129.8 -58.2999 131.867C-55.0534 133.504 -51.5284 134.28 -48.1103 132.532C-43.8202 130.423 -40.3801 127.396 -38.0109 123.184C-35.3634 118.11 -32.7159 113.037 -29.8822 108.079C-23.4717 96.5587 -13.4977 90.1063 -0.6349 88.5598C10.8323 87.1774 20.2696 92.159 27.9536 100.573C30.7244 103.595 33.3791 106.803 34.2087 111.071C34.3488 111.676 34.7212 111.908 35.3609 111.919C38.4784 112.312 41.5959 112.705 44.6305 111.364C45.5025 111.003 46.3396 110.49 47.1544 111.257C47.8181 112.059 47.3885 112.955 46.7727 113.735C44.9954 116.377 42.7757 118.484 40.1135 120.057C39.2765 120.569 38.893 120.977 38.8359 122.105C37.8806 133.795 32.934 143.384 24.2173 151.138C12.8273 161.104 -0.544368 165.954 -15.7356 165.014C-27.6932 164.28 -39.0829 161.184 -50.0319 156.553C-56.7573 153.651 -62.4724 148.922 -69.3139 146.206C-70.5473 145.695 -71.6183 144.51 -72.6194 143.627C-73.8067 142.627 -75.029 141.477 -74.6233 139.79C-74.2177 138.103 -72.4147 138.323 -71.0541 138.007C-70.9029 137.972 -70.9379 137.821 -70.8218 137.635C-73.2792 133.903 -73.0358 132.891 -68.7218 131.573C-70.8751 129.842 -72.4587 127.82 -72.5656 125.296ZM31.6626 112.457C31.976 111.747 31.6147 110.875 31.3234 110.306C24.707 98.9361 15.8137 90.802 2.11203 90.7906C-8.57716 90.7185 -17.0984 95.8786 -24.0121 103.852C-26.3941 106.634 -28.0663 109.729 -29.5523 112.941C-31.4679 117.048 -33.7559 120.924 -36.0439 124.799C-38.7964 129.419 -42.8413 132.586 -47.585 134.8C-51.1892 136.431 -54.9465 136.028 -58.4954 134.461C-62.7191 132.731 -66.1296 129.698 -69.0056 126.223C-69.2618 125.805 -69.8205 125.456 -70.4491 124.805C-70.2961 126.841 -69.3762 128.061 -68.4563 129.282C-66.6865 131.42 -64.6843 133.186 -62.2987 134.545C-61.7401 134.894 -60.8442 135.323 -61.2738 136.219C-61.8195 137.301 -62.7505 136.721 -63.4603 136.407C-65.5896 135.467 -67.4866 134.154 -70.2778 134.482C-69.2639 136.796 -67.5881 137.841 -65.7261 139.003C-64.8301 139.433 -63.4456 139.908 -64.1075 141.177C-64.7693 142.445 -65.8865 141.748 -66.9337 141.354C-68.8068 140.832 -70.7149 140.159 -73.0987 140.87C-71.1888 143.614 -68.7331 145.275 -65.6617 146.156C-62.2879 146.967 -59.2276 148.488 -56.2484 150.347C-49.7664 154.261 -42.5303 155.93 -35.7699 158.983C-27.2525 162.744 -18.5397 163.911 -9.45628 163.24C0.906613 162.591 10.2667 158.989 18.5077 152.62C27.9342 145.179 33.1481 135.37 35.569 123.818C36.0557 121.793 34.0296 119.236 31.8892 118.936C30.3885 118.646 28.7717 118.543 27.3171 117.765C26.7585 117.416 26.0488 117.103 26.3272 116.242C26.7567 115.346 27.5015 115.811 28.0601 116.159C29.1073 116.554 30.0383 117.134 31.4339 116.97C31.6183 115.016 31.1519 113.691 31.6626 112.457ZM33.2684 113.2C33.2813 114.631 33.2941 116.062 34.3763 116.607C36.6218 117.361 38.5631 116.115 40.3533 114.904C37.9456 114.825 35.654 114.559 33.2684 113.2Z" fill="#D24C44"/>
<path d="M-34.5381 144.361C-35.047 147.665 -34.1972 148.583 -29.4038 150.021C-29.4352 154.01 -28.0728 155.765 -24.2917 156.96C-20.8478 158.074 -17.1606 158.175 -13.6136 157.672C-8.06615 156.865 -2.47264 155.569 2.21201 152.413C8.57068 148.231 10.6707 142.17 8.79219 135.437C7.26396 130.216 -3.57072 123.328 -8.91905 125.682C-10.5119 126.37 -12.1398 126.906 -12.8589 129.303C-9.58093 126.95 -6.48737 126.552 -3.24082 128.189C0.564322 130.175 4.40449 132.312 5.90877 136.742C7.23793 140.416 6.2755 143.825 4.30094 146.991C1.79172 150.598 -1.63742 152.986 -5.83532 154.118C-10.1844 155.285 -14.6146 156.789 -19.349 156.293C-21.6405 156.027 -23.9321 155.762 -26.0154 154.333C-27.1326 153.636 -27.9825 152.718 -27.693 151.217C-27.3685 149.868 -26.3102 149.623 -25.1008 149.342C-24.0426 149.097 -22.9844 148.852 -22.0312 148.153C-21.2292 147.49 -20.7646 146.745 -21.2771 145.908C-21.8247 144.92 -22.7317 145.13 -23.6038 145.491C-25.3128 146.365 -27.0679 147.727 -29.2083 147.427C-30.5228 147.253 -32.1046 147.301 -32.7572 145.86C-32.7111 145.371 -32.4438 145.15 -32.0253 144.894C-31.6068 144.637 -30.886 144.311 -31.0611 143.555C-31.2712 142.648 -31.911 142.637 -32.5857 142.475C-33.9352 142.15 -35.6221 141.745 -35.4027 139.942C-35.3344 138.174 -34.184 136.951 -32.4049 136.38C-30.6258 135.808 -28.9629 135.423 -27.0437 135.456C-25.9154 135.514 -25.0083 135.303 -24.8 134.14C-24.4533 131.511 -22.5692 131.393 -20.5339 131.24C-19.2894 131.111 -17.8699 131.738 -16.6844 130.667C-17.6744 129.144 -19.5124 128.773 -22.7572 129.207C-25.0949 129.43 -26.2803 130.501 -27.499 133.491C-30.0229 133.598 -32.3256 133.972 -34.5693 135.288C-38.4409 137.141 -38.8779 142.818 -34.5381 144.361Z" fill="#D24C44"/>
<path d="M9.27567 116.211C8.12523 117.434 6.68352 118.086 4.90443 118.658C6.80147 119.97 8.1381 118.864 9.24244 118.131C10.3468 117.397 11.2888 117.338 12.4872 117.697C16.4546 119.008 20.7318 115.469 20.4259 111.398C20.3669 110.456 20.2378 109.211 18.9584 109.189C17.6789 109.167 17.7729 110.26 17.6457 111.086C16.7773 115.588 14.1612 116.672 10.4482 113.71C9.66841 113.094 8.94575 111.35 7.76029 112.421C6.57484 113.492 8.21562 114.386 8.72812 115.223C8.98437 115.642 9.01941 115.793 9.27567 116.211Z" fill="#D24C44"/>
</g>
<defs>
<clipPath id="clip0">
</clipPath>
</defs>
</svg>
