<svg width="233" height="226" viewBox="0 0 233 226" fill="none" xmlns="http://www.w3.org/2000/svg">
<path d="M80.3139 9.39654C78.7259 11.974 78.5274 14.9481 77.9319 17.9221C74.9543 18.1204 72.1752 18.3186 69.1977 18.5169C68.0067 18.5169 66.6171 18.7152 66.2201 20.1031C65.6246 21.6892 67.2126 22.4823 68.2052 23.0771C69.9917 24.0684 71.7782 24.8615 73.7633 25.8528C72.5722 28.4303 70.9842 30.6113 70.1902 33.3871C69.3962 36.5594 70.3887 37.9472 73.1678 36.7576C79.3214 33.7836 84.284 34.7749 88.6511 39.5334C89.6436 40.5247 91.0331 41.1195 92.6211 40.1282C94.0107 39.1369 93.2167 37.749 93.0182 36.5594C92.2242 33.9819 91.2317 31.4044 90.2391 28.6286C92.4227 27.2407 94.4077 25.6546 96.5912 24.2667C97.3852 23.6719 98.3778 22.8788 97.9808 21.4909C97.5838 20.3013 96.5912 20.1031 95.5987 19.9048C92.6211 19.5082 89.4451 19.31 86.2691 18.9134C85.475 15.3446 84.4825 11.7758 81.9019 9C81.5049 9.19827 80.9094 9.39654 80.3139 9.39654ZM70.3887 21.0944C72.7708 21.0944 74.5573 21.0944 76.1453 21.2927C78.5274 21.4909 79.9169 20.6979 80.3139 18.1204C80.5124 16.7325 80.7109 15.1463 82.299 13.1636C82.8945 20.3013 87.2615 22.284 93.6137 22.4823C86.8645 25.6546 85.6735 30.0165 90.0406 36.3611C86.269 35.3697 84.4825 32.1975 81.3064 32.1975C78.3289 31.9992 75.7483 34.3784 72.5723 33.9819C73.3663 31.8009 74.7558 30.413 75.9468 28.8269C78.1304 25.6546 77.9319 24.6632 74.5573 23.0771C73.5648 22.4823 72.3738 21.8875 70.3887 21.0944Z" fill="#E6E8EB"/>
<path d="M74.1602 48.0589C73.7632 49.8434 73.9617 51.6278 74.1602 53.4122C72.5722 54.007 70.7856 54.6018 69.1976 55.1966C68.4036 55.3949 67.6096 55.7914 67.6096 56.5845C67.6096 57.5758 68.6021 57.7741 69.3961 57.9724C70.5871 58.1707 71.7782 58.3689 73.1677 58.7655C72.7707 60.5499 72.3737 62.136 72.3737 63.7222C72.3737 65.7049 73.3662 66.4979 74.7557 65.1101C77.9318 62.3343 80.9094 62.136 84.4825 64.1187C85.2765 64.5153 86.269 64.7135 86.8645 63.9205C87.6585 63.1274 86.8645 62.3343 86.4675 61.7395C85.475 60.3516 84.4825 58.9637 83.4899 57.3776C84.4825 56.188 85.475 54.9984 86.4675 53.6105C86.8645 53.0157 87.2615 52.4209 86.8645 51.8261C86.4675 51.2312 85.872 51.2313 85.2765 51.4295C83.4899 51.8261 81.5049 52.0243 79.5199 52.4209C78.3288 50.4382 77.3363 48.4555 75.3512 47.2659C74.7557 47.6624 74.3587 47.8607 74.1602 48.0589ZM70.1901 56.5845C71.5797 56.188 72.5722 55.7914 73.7632 55.5932C75.3512 55.3949 75.9467 54.6018 75.7482 53.0157C75.5497 52.2226 75.5497 51.2312 76.1453 49.8434C77.7333 54.007 80.7109 54.4036 84.4825 53.4122C80.9094 56.3862 81.1078 59.3603 84.6809 62.136C82.2989 62.136 80.7108 60.5499 78.7258 61.1447C76.9392 61.5412 75.7482 63.3256 73.9617 63.7222C74.1602 62.3343 74.5572 61.1447 75.1527 59.9551C75.9467 57.7741 75.5498 57.1793 73.3662 56.7828C72.3737 56.7828 71.5797 56.7828 70.1901 56.5845Z" fill="#E6E8EB"/>
<path d="M158.525 147.788C159.914 148.78 160.51 147.59 161.304 147.193C163.884 145.607 166.266 143.823 168.45 141.642C170.236 139.858 172.222 139.263 174.604 140.452C181.154 143.426 188.3 143.823 195.447 144.021C212.319 144.814 227.009 130.935 228.001 114.083C228.398 107.341 228.001 100.6 229.589 93.8592C230.185 91.4799 230.78 89.299 231.971 87.118C232.368 86.5232 232.964 85.7301 232.17 84.9371C231.574 84.3423 230.78 84.5405 230.185 84.7388C218.274 89.6955 205.372 89.1007 193.263 92.4713C192.072 92.8678 190.682 93.0661 189.491 93.2644C178.574 95.4453 174.008 103.376 172.023 113.29C170.832 119.634 171.428 125.979 171.428 132.323C171.428 134.901 170.832 136.884 168.847 138.47C166.266 140.651 163.686 143.03 161.105 145.211C159.914 146.004 158.922 146.599 158.525 147.788ZM225.818 104.566C225.421 110.117 225.421 115.669 223.436 121.022C221.649 125.384 221.252 125.78 216.289 125.78C210.136 125.78 204.181 126.375 198.226 126.97C192.866 127.565 187.705 129.151 182.742 130.539C193.461 116.264 207.952 107.936 225.818 104.566ZM219.863 127.367C216.488 132.918 212.319 136.289 207.357 138.47C201.005 141.245 194.256 140.452 187.705 140.056C183.139 139.659 178.574 138.866 173.413 137.082C187.903 127.168 204.181 129.548 219.863 127.367ZM185.323 122.608C182.345 116.66 180.956 111.109 179.765 105.359C178.574 100.402 179.765 100.402 183.338 98.2211C188.499 95.0488 194.454 94.8505 200.806 93.4626C192.866 101.988 188.499 111.505 185.323 122.608ZM187.308 122.013C190.484 112.1 194.653 102.98 201.402 95.247C202.394 94.0574 203.585 92.6695 205.173 92.4713C210.731 91.8765 216.289 91.2817 221.848 90.2903C208.548 98.6176 197.432 109.919 187.308 122.013ZM199.218 112.298C207.357 102.385 217.48 95.6436 228.597 88.7042C227.207 93.0661 226.413 96.6349 226.215 100.402C226.016 102.385 225.222 102.98 223.634 103.376C216.289 105.16 209.143 107.54 202.593 111.307C201.6 111.703 200.608 112.496 199.218 112.298ZM177.78 104.367C179.566 111.307 180.956 118.048 183.933 124.194C184.132 124.789 184.132 125.384 183.735 125.78C180.559 128.754 177.581 132.125 173.611 134.901C173.611 124.591 172.619 114.281 177.78 104.367Z" fill="#E6E8EB"/>
<path d="M168.053 97.8245C167.656 90.092 171.825 84.144 173.214 77.2045C176.39 60.1534 167.458 46.4729 150.386 42.7058C146.416 41.9127 142.446 41.3179 138.277 41.5161C129.742 41.7144 121.405 41.1196 113.067 39.1369C110.487 38.5421 109.296 39.7317 109.891 42.3092C112.869 53.8088 115.449 65.5067 120.412 76.4115C123.787 83.5491 128.551 89.2989 136.888 90.4885C141.851 91.2816 146.813 90.4885 151.776 89.6955C155.349 89.1007 158.723 88.9024 162.296 89.8937C164.48 90.4886 165.87 91.4799 165.671 94.0574C165.473 95.4453 165.87 96.8332 168.053 97.8245ZM122 72.4461C132.918 69.4721 143.439 66.6963 154.555 66.8946C155.944 66.8946 156.54 67.6876 157.334 68.4807C162.693 74.0322 164.877 80.9716 165.87 88.7041C161.304 86.7214 156.738 86.1266 151.974 86.9197C147.607 87.7128 143.439 87.9111 139.072 87.7128C134.903 87.7128 131.528 85.9284 128.551 83.1526C125.772 80.1786 123.588 76.6097 122 72.4461ZM153.562 64.9119C142.049 65.1101 131.727 67.6876 121.405 70.6617C119.42 65.9032 118.03 61.343 116.839 56.3863C122 54.2054 127.36 51.6279 132.322 53.214C139.667 55.7915 146.813 58.9638 153.562 64.9119ZM138.277 44.6884C144.63 44.0936 154.158 46.2746 159.517 49.2486C161.105 50.24 162.098 51.6279 162.296 53.214C162.892 58.369 162.495 63.524 161.502 69.0755C158.922 65.7049 156.143 63.3257 152.967 60.9465C149.989 58.7655 146.615 56.9811 143.24 55.395C142.645 55.1967 141.851 54.9984 141.652 54.0071C141.652 50.8348 139.667 48.059 138.277 44.6884ZM165.076 54.4036C172.023 59.7569 172.817 76.808 167.855 83.9457C166.862 79.782 165.671 75.8167 163.686 72.2478C163.488 71.8513 163.289 71.2565 163.289 70.8599C164.877 65.5067 164.877 60.1534 165.076 54.4036ZM115.648 42.7058C122 43.8954 128.154 44.6884 134.704 44.4902C135.3 44.4902 135.895 44.6884 136.292 45.2833C137.682 47.8607 139.27 50.4382 139.866 54.0071C131.528 49.8434 122.993 47.8607 115.648 42.7058ZM128.749 51.4296C123.985 51.8261 120.214 53.4123 116.442 54.8002C115.449 51.033 114.457 47.6625 113.266 43.6971C118.229 46.6711 122.993 49.2486 128.749 51.4296Z" fill="#E6E8EB"/>
<path d="M36.486 63.1273C40.6546 55.9896 40.6546 51.826 33.3099 44.6883C27.5533 39.1368 20.6057 36.9558 12.6655 38.3437C10.085 38.7402 8.69543 38.1454 7.3059 35.9645C-2.2223 22.6805 -19.6907 20.103 -32.5934 30.0164C-38.5486 34.5766 -41.5261 39.1368 -42.9156 46.8693C-54.0318 47.0675 -61.178 55.9896 -58.399 66.2996C-57.2079 71.0581 -53.8333 73.6356 -48.8707 73.4373C-38.747 73.239 -28.4248 73.239 -18.3011 73.0407C-6.58937 72.6442 4.92388 72.8425 16.6356 73.8338C22.3922 74.2304 28.1488 75.2217 33.9054 75.6182C36.2875 75.8165 38.8681 75.6182 41.2501 75.2217C43.6322 74.8252 45.6172 73.8338 46.0142 71.2563C46.4112 68.8771 45.2202 67.291 43.4337 65.9031C41.4486 64.3169 39.0666 63.7221 36.486 63.1273ZM-56.0169 62.3342C-56.2154 54.6018 -50.4588 49.2485 -42.9156 50.2398C-40.9306 50.4381 -40.1366 49.8433 -39.938 47.8606C-39.7395 44.2918 -38.35 40.9212 -36.1665 38.1454C-25.4473 24.2666 -6.39087 23.8701 4.52686 37.5506C7.10741 40.9212 9.48947 42.3091 13.6581 41.1195C16.2386 40.3264 18.8192 40.9212 21.3997 41.516C27.3548 43.1022 31.7219 46.8693 34.898 52.0243C37.28 55.7914 35.295 59.1619 33.707 62.5325C32.913 64.3169 33.31 65.3083 35.4935 65.7048C37.8756 66.1013 40.0591 66.8944 41.6471 68.6788C43.0367 70.0667 42.8381 71.0581 40.8531 71.8511C39.0665 72.6442 37.4786 72.2477 35.692 72.2477C22.5908 71.0581 9.48944 70.0667 -3.61182 70.0667C-17.5071 70.0667 -31.4024 70.8598 -45.0992 71.8511C-52.4438 72.0494 -56.0169 69.0754 -56.0169 62.3342Z" fill="#E6E8EB"/>
<path d="M117.633 203.105C120.412 206.476 123.191 210.044 125.97 213.415C127.36 215.001 128.551 217.38 130.933 216.587C133.513 215.794 132.719 213.018 132.719 211.036C132.918 207.07 131.925 203.105 131.33 199.14C131.131 197.554 131.528 196.76 132.719 195.967C135.498 193.985 138.476 191.804 140.659 189.028C142.644 186.847 142.247 185.657 139.27 184.864C135.3 183.873 131.131 184.468 127.161 184.27C125.176 184.27 124.382 183.675 124.184 181.494C123.787 177.727 123.191 173.761 120.412 169.994C116.045 174.158 113.663 178.916 111.082 183.476C106.914 182.683 103.142 181.89 99.1721 181.295C97.981 181.097 96.5915 180.701 95.7975 182.089C95.202 183.476 96.1945 184.468 96.9885 185.261C99.3706 187.838 101.753 190.416 104.333 192.993C105.524 194.183 105.723 195.174 104.929 196.76C103.539 200.528 102.15 204.295 100.76 208.062C100.363 209.053 99.9661 210.243 100.959 211.234C101.753 212.027 102.944 211.432 103.738 211.036C108.7 208.855 112.869 205.683 117.633 203.105ZM98.9735 183.278C102.944 184.071 105.921 184.666 108.899 185.657C111.678 186.649 113.266 185.856 114.655 183.08C116.045 180.502 117.831 178.123 119.816 175.347C120.213 176.14 120.412 176.537 120.412 176.934C122.794 186.649 120.61 185.856 132.322 186.649C133.315 186.649 134.307 186.649 135.3 186.649C136.491 186.847 137.682 186.252 138.674 187.442C136.094 190.218 133.116 192.399 130.139 194.381C128.352 195.769 127.558 196.959 127.955 199.338C128.551 203.898 129.742 208.26 129.345 213.217C127.955 212.622 127.558 211.631 126.764 210.838C124.382 208.062 121.801 205.286 119.419 202.312C117.831 200.329 116.045 200.131 113.861 201.717C110.288 204.096 106.517 206.277 102.944 208.657C103.936 204.889 105.326 201.519 106.914 198.347C108.502 195.373 107.906 192.993 105.524 190.812C103.936 188.433 101.753 186.054 98.9735 183.278Z" fill="#E6E8EB"/>
<path d="M148.6 165.434C147.21 164.443 146.019 163.253 144.63 162.262C142.446 161.072 140.858 162.063 141.057 164.641C141.255 166.227 141.851 167.615 142.645 168.804C144.63 172.373 147.409 175.546 150.386 178.52C152.371 180.502 154.158 180.106 155.349 177.528C157.334 172.77 158.326 167.813 157.731 162.658C157.532 161.072 156.937 159.684 155.15 159.288C153.562 158.891 152.371 159.882 151.577 161.072C150.386 162.46 149.592 164.046 148.6 165.434Z" fill="#D24C44"/>
<path d="M98.1793 90.2901C98.1793 89.1005 98.1793 88.3074 98.1793 87.5143C98.1793 86.1265 97.5838 85.1351 96.1942 84.7386C95.0032 84.342 93.8122 84.5403 92.8196 85.7299C90.6361 88.5057 88.8496 91.2814 88.0556 94.652C87.46 97.4278 88.8496 99.2122 91.6286 98.6174C96.9882 97.626 102.149 95.8416 106.715 92.6693C108.104 91.678 108.899 90.2901 108.303 88.7039C107.509 86.9195 105.921 87.3161 104.333 87.5143C102.149 87.9109 100.561 89.1005 98.1793 90.2901Z" fill="#D24C44"/>
<path d="M22.9925 0C22.1985 0.594806 21.9999 0.991343 21.9999 1.58615C23.191 6.74114 23.9849 12.0944 28.1535 16.0598C30.1386 17.8442 32.5206 19.2321 35.2997 17.4477C37.4832 16.0598 38.0788 12.6892 36.4907 9.71517C33.7117 3.96538 28.5506 1.78442 22.9925 0ZM24.5805 2.97403C28.3521 4.36191 31.1311 6.3446 33.1161 9.12036C35.1012 11.6979 35.2997 14.6719 33.9102 15.6632C32.5207 16.6546 29.5431 15.2667 27.9551 12.6892C26.1685 9.91344 25.573 6.54287 24.5805 2.97403Z" fill="#E6E8EB"/>
<path d="M133.315 139.064C135.3 138.668 136.491 137.676 136.491 135.694C136.491 133.909 135.3 132.72 133.513 132.72C131.528 132.72 130.337 133.909 130.139 135.892C129.94 137.875 131.329 138.866 133.315 139.064Z" fill="#E6E8EB"/>
<path d="M100.164 74.8252C98.3777 74.8252 97.1867 75.6183 97.1867 77.2044C97.1867 79.1871 98.5762 80.1784 100.363 80.1784C101.951 80.1784 103.142 79.1871 102.943 77.6009C102.943 75.6183 101.752 74.8252 100.164 74.8252Z" fill="#E6E8EB"/>
<path d="M135.697 119.832C134.109 120.031 133.315 120.824 133.315 122.41C133.315 123.798 134.109 124.789 135.498 124.789C136.888 124.789 137.88 124.194 137.88 122.608C137.88 121.022 137.285 120.031 135.697 119.832Z" fill="#E6E8EB"/>
<path d="M146.217 80.1787C146.614 81.7648 148.202 81.9631 149.195 82.5579C149.989 82.9544 150.982 83.7475 151.974 82.9544C152.768 82.1614 152.371 81.17 151.974 80.5752C150.982 78.989 149.791 78.196 148.004 78.5925C147.011 78.5925 146.416 79.1873 146.217 80.1787Z" fill="#E6E8EB"/>
<g clip-path="url(#clip0)">
<path d="M79 145.82C79 150.023 78.354 154.226 77.3851 158.213C76.4162 162.201 75.1243 166.08 73.5094 169.744C70.2797 177.18 66.2963 184.078 61.7747 190.544C59.5139 193.777 57.1454 197.01 54.6693 200.028C52.1931 203.045 49.6093 206.063 47.0255 208.972C41.7503 214.792 36.1521 220.288 30.2309 225.353L29.6926 225.892L29.1543 225.353C25.6016 221.797 22.2642 218.133 19.0344 214.469C15.8047 210.697 12.5749 206.925 9.56049 203.045C3.42397 195.178 -2.17425 186.987 -7.12653 178.258C-9.60266 173.947 -11.7558 169.421 -13.586 164.679C-15.6315 160.045 -17.0311 155.196 -17.677 150.023C-17.8923 148.729 -17.8923 147.436 -18 146.143C-18 144.85 -17.8923 143.556 -17.8923 142.263C-17.8923 140.97 -17.677 139.677 -17.4617 138.383L-17.2464 136.444C-17.1387 136.013 -16.9234 135.366 -16.8158 134.719C-16.4928 133.426 -16.2775 132.241 -15.8468 130.947L-14.5549 127.283C-14.0166 126.098 -13.4784 124.912 -12.9401 123.727L-12.6171 122.972L-12.0788 122.11L-11.1099 120.386C-8.41842 115.967 -5.08102 111.98 -1.20533 108.531C2.77802 105.19 7.29967 102.388 12.1443 100.449L13.9745 99.6943C14.6204 99.4787 15.1587 99.1554 15.8047 99.0476L19.5727 97.9699C22.1565 97.5389 24.7403 97 27.3241 96.8923C32.5993 96.7845 37.9822 97.2156 43.0422 98.7243C48.1021 100.125 53.0544 102.281 57.4684 105.298C61.8824 108.208 65.758 111.98 68.9878 116.183C72.2175 120.386 74.8013 125.128 76.4162 130.193C78.0311 135.15 78.8923 140.539 79 145.82ZM72.0022 145.82C71.8946 141.185 71.2486 136.659 69.8491 132.348C68.4495 128.038 66.1887 123.942 63.4972 120.278C60.8058 116.614 57.4684 113.273 53.7003 110.687C49.9323 108.1 45.7336 106.053 41.3196 104.652C36.9057 103.251 32.2764 102.712 27.6471 102.82C25.2786 102.82 23.0178 103.143 20.7569 103.466L17.3119 104.221C16.7736 104.328 16.2353 104.544 15.5893 104.759L13.9745 105.298C9.56049 106.915 5.46948 109.178 1.70144 112.088C-1.95893 114.998 -5.18868 118.554 -7.77248 122.541L-8.7414 124.05L-9.17203 124.805L-9.60266 125.559C-10.141 126.637 -10.6792 127.714 -11.2175 128.792L-12.5094 132.133C-12.9401 133.211 -13.1554 134.396 -13.4784 135.581C-13.586 136.12 -13.8013 136.767 -13.909 137.306L-14.1243 139.03C-14.3396 140.216 -14.5549 141.401 -14.5549 142.586C-14.5549 143.772 -14.7703 144.957 -14.7703 146.143C-14.6626 147.328 -14.7703 148.514 -14.5549 149.699C-14.1243 154.441 -12.8324 159.183 -11.2175 163.709C-9.60266 168.236 -7.4495 172.762 -5.08102 177.073C-0.451719 185.694 5.1465 193.885 11.0677 201.752C17.0966 209.619 23.3407 217.163 30.1232 224.383H29.0466C34.2142 218.564 39.1665 212.637 43.7958 206.494C48.5327 200.351 52.9467 194.1 56.9301 187.526C60.9134 180.952 64.5738 174.271 67.2653 167.266C70.0644 160.261 72.0022 152.932 72.0022 145.82Z" fill="#D24C44"/>
<path d="M31.738 169.098C25.7092 169.098 19.6803 166.727 15.374 162.524C10.96 158.321 8.26856 152.286 8.1609 146.143C7.94559 140 10.3141 133.642 14.6204 129.008C18.9267 124.374 25.2786 121.464 31.738 121.356C38.1975 121.464 44.5494 124.374 48.8557 129.008C53.2697 133.642 55.5305 140 55.3152 146.143C55.0999 152.286 52.4084 158.321 48.1021 162.524C43.6881 166.727 37.7669 169.098 31.738 169.098ZM31.738 165.649C34.3218 165.649 36.9056 165.11 39.2741 164.14C41.6426 163.17 43.7958 161.662 45.5183 159.83C47.2408 157.998 48.6404 155.734 49.5016 153.471C50.3629 151.1 50.7935 148.622 50.6859 146.143C50.4706 141.186 48.2097 136.444 44.657 133.211C41.1043 129.87 36.3673 128.145 31.738 128.361C27.1087 128.145 22.2641 129.87 18.8191 133.211C15.2663 136.444 13.0055 141.186 12.7902 146.143C12.6825 148.622 13.1132 151.1 13.9744 153.471C14.8357 155.842 16.2353 157.998 17.9578 159.83C19.6803 161.662 21.8335 163.17 24.202 164.14C26.5705 165.11 29.1543 165.649 31.738 165.649Z" fill="#D24C44"/>
</g>
<defs>
<clipPath id="clip0">
</clipPath>
</defs>
</svg>
