<svg width="138" height="138" viewBox="0 0 138 138" fill="none" xmlns="http://www.w3.org/2000/svg">
<path d="M34.8639 6.71563C33.795 8.45045 33.6614 10.4522 33.2606 12.4539C31.2565 12.5873 29.386 12.7208 27.3819 12.8542C26.5803 12.8542 25.645 12.9877 25.3778 13.9218C24.977 14.9894 26.0458 15.5232 26.7139 15.9235C27.9163 16.5908 29.1188 17.1246 30.4548 17.7918C29.6532 19.5266 28.5844 20.9946 28.0499 22.8628C27.5155 24.998 28.1835 25.9321 30.054 25.1315C34.1958 23.1297 37.536 23.797 40.4753 26.9997C41.1434 27.667 42.0786 28.0673 43.1475 27.4001C44.0827 26.7328 43.5483 25.7987 43.4147 24.998C42.8803 23.2632 42.2122 21.5284 41.5442 19.6601C43.0139 18.726 44.3499 17.6584 45.8196 16.7242C46.354 16.3239 47.0221 15.7901 46.7548 14.856C46.4876 14.0553 45.8196 13.9218 45.1515 13.7884C43.1475 13.5215 41.0098 13.388 38.8721 13.1211C38.3376 10.7191 37.6696 8.317 35.9327 6.44873C35.6655 6.58218 35.2647 6.71563 34.8639 6.71563ZM28.1836 14.5891C29.7868 14.5891 30.9893 14.5891 32.0581 14.7225C33.6614 14.856 34.5967 14.3222 34.8639 12.5873C34.9975 11.6532 35.1311 10.5856 36.1999 9.25114C36.6008 14.0553 39.5401 15.3897 43.8155 15.5232C39.2729 17.6584 38.4712 20.5942 41.4106 24.8646C38.8721 24.1973 37.6696 22.0622 35.5319 22.0622C33.5278 21.9287 31.7909 23.5301 29.6532 23.2632C30.1877 21.7953 31.1229 20.8611 31.9245 19.7935C33.3942 17.6584 33.2606 16.9911 30.9893 15.9235C30.3213 15.5232 29.5196 15.1229 28.1836 14.5891Z" fill="#E6E8EB"/>
<path d="M30.722 32.7389C30.4548 33.9399 30.5884 35.1409 30.722 36.342C29.6532 36.7423 28.4507 37.1427 27.3819 37.543C26.8474 37.6764 26.313 37.9433 26.313 38.4771C26.313 39.1444 26.9811 39.2778 27.5155 39.4113C28.3171 39.5447 29.1188 39.6782 30.054 39.9451C29.7868 41.1461 29.5196 42.2137 29.5196 43.2813C29.5196 44.6157 30.1876 45.1495 31.1228 44.2154C33.2605 42.3471 35.2647 42.2137 37.6696 43.5482C38.204 43.8151 38.872 43.9485 39.2729 43.4147C39.8073 42.8809 39.2729 42.3471 39.0057 41.9468C38.3376 41.0126 37.6696 40.0785 37.0016 39.0109C37.6696 38.2102 38.3376 37.4096 39.0057 36.4754C39.2729 36.0751 39.5401 35.6747 39.2729 35.2744C39.0056 34.874 38.6048 34.874 38.204 35.0075C37.0016 35.2744 35.6655 35.4078 34.3294 35.6747C33.5278 34.3403 32.8598 33.0058 31.5237 32.2051C31.1229 32.472 30.8556 32.6054 30.722 32.7389ZM28.0499 38.4771C28.9852 38.2102 29.6532 37.9433 30.4548 37.8099C31.5237 37.6764 31.9245 37.1427 31.7909 36.0751C31.6573 35.5413 31.6573 34.874 32.0581 33.9399C33.127 36.7423 35.1311 37.0092 37.6696 36.342C35.2647 38.3437 35.3983 40.3454 37.8032 42.2137C36.1999 42.2137 35.131 41.1461 33.795 41.5464C32.5925 41.8133 31.7909 43.0144 30.5884 43.2813C30.722 42.3471 30.9893 41.5464 31.3901 40.7458C31.9245 39.2778 31.6573 38.8775 30.1876 38.6106C29.5196 38.6106 28.9852 38.6106 28.0499 38.4771Z" fill="#E6E8EB"/>
<path d="M87.505 99.8639C88.4402 100.531 88.841 99.7304 89.3754 99.4635C91.1123 98.396 92.7156 97.1949 94.1853 95.727C95.3877 94.526 96.7238 94.1256 98.3271 94.9263C102.736 96.928 107.546 97.1949 112.356 97.3284C123.712 97.8622 133.599 88.5208 134.267 77.1777C134.534 72.6405 134.267 68.1032 135.336 63.566C135.737 61.9646 136.138 60.4967 136.939 59.0288C137.207 58.6284 137.607 58.0946 137.073 57.5608C136.672 57.1605 136.138 57.2939 135.737 57.4274C127.72 60.7636 119.036 60.3632 110.886 62.6319C110.084 62.8988 109.149 63.0322 108.348 63.1657C100.999 64.6336 97.9262 69.9715 96.5902 76.6439C95.7885 80.9143 96.1894 85.1846 96.1894 89.4549C96.1894 91.1898 95.7886 92.5242 94.4525 93.5918C92.7156 95.0598 90.9787 96.6611 89.2418 98.1291C88.4402 98.6629 87.7722 99.0632 87.505 99.8639ZM132.798 70.7722C132.53 74.5087 132.53 78.2453 131.194 81.8484C129.992 84.7843 129.725 85.0512 126.384 85.0512C122.243 85.0512 118.234 85.4515 114.226 85.8518C110.619 86.2522 107.145 87.3198 103.805 88.2539C111.02 78.6456 120.773 73.0408 132.798 70.7722ZM128.789 86.1187C126.518 89.8553 123.712 92.1239 120.372 93.5918C116.097 95.4601 111.554 94.9263 107.145 94.6594C104.072 94.3925 100.999 93.8587 97.5254 92.6577C107.279 85.9853 118.234 87.5867 128.789 86.1187ZM105.542 82.916C103.538 78.9125 102.603 75.176 101.801 71.306C100.999 67.9698 101.801 67.9698 104.206 66.5019C107.68 64.3667 111.688 64.2332 115.963 63.2991C110.619 69.0374 107.68 75.4429 105.542 82.916ZM106.878 82.5156C109.016 75.8432 111.821 69.7046 116.364 64.5001C117.032 63.6995 117.834 62.7653 118.902 62.6319C122.643 62.2315 126.384 61.8312 130.125 61.1639C121.174 66.7688 113.692 74.3753 106.878 82.5156ZM114.894 75.9767C120.372 69.3043 127.186 64.767 134.668 60.0964C133.733 63.0322 133.198 65.4343 133.065 67.9698C132.931 69.3043 132.397 69.7046 131.328 69.9715C126.384 71.1725 121.575 72.7739 117.166 75.3094C116.498 75.5763 115.83 76.1101 114.894 75.9767ZM100.465 70.6388C101.667 75.3094 102.602 79.8467 104.607 83.9836C104.74 84.3839 104.74 84.7843 104.473 85.0512C102.335 87.0529 100.331 89.3215 97.6591 91.1898C97.6591 84.2505 96.991 77.3112 100.465 70.6388Z" fill="#E6E8EB"/>
<path d="M93.9182 66.2338C93.6509 61.0294 96.4567 57.0259 97.3919 52.3552C99.5296 40.8787 93.5173 31.6708 82.0272 29.1353C79.3551 28.6015 76.6829 28.2011 73.8772 28.3346C68.1321 28.468 62.5207 28.0677 56.9092 26.7332C55.1723 26.3328 54.3707 27.1335 54.7715 28.8684C56.7756 36.6083 58.5124 44.4818 61.8526 51.8214C64.1239 56.6256 67.3305 60.4956 72.942 61.2962C76.2821 61.83 79.6223 61.2962 82.9625 60.7624C85.3674 60.3621 87.6387 60.2287 90.0436 60.8959C91.5132 61.2962 92.4485 61.9635 92.3149 63.6983C92.1813 64.6324 92.4485 65.5666 93.9182 66.2338ZM62.9215 49.1525C70.2698 47.1507 77.351 45.2825 84.8329 45.4159C85.7682 45.4159 86.169 45.9497 86.7034 46.4835C90.3108 50.2201 91.7805 54.8907 92.4485 60.0952C89.3756 58.7607 86.3026 58.3604 83.0961 58.8942C80.1567 59.428 77.351 59.5614 74.4116 59.428C71.6059 59.428 69.3346 58.2269 67.3305 56.3587C65.46 54.3569 63.9903 51.9549 62.9215 49.1525ZM84.1649 44.0814C76.4157 44.2149 69.4682 45.9497 62.5206 47.9514C61.1846 44.7487 60.2493 41.6794 59.4477 38.3432C62.9215 36.8752 66.5288 35.1404 69.869 36.208C74.8124 37.9428 79.6223 40.078 84.1649 44.0814ZM73.8772 30.4697C78.1526 30.0694 84.5657 31.5373 88.1731 33.539C89.2419 34.2063 89.91 35.1404 90.0436 36.208C90.4444 39.6777 90.1772 43.1473 89.5092 46.8839C87.7723 44.6152 85.9018 43.0139 83.7641 41.4125C81.76 39.9446 79.4887 38.7435 77.2174 37.6759C76.8165 37.5425 76.2821 37.409 76.1485 36.7418C76.1485 34.6066 74.8124 32.7384 73.8772 30.4697ZM91.9141 37.0087C96.5903 40.6118 97.1247 52.0883 93.7846 56.8925C93.1166 54.09 92.3149 51.4211 90.9788 49.019C90.8452 48.7521 90.7116 48.3518 90.7116 48.0849C91.7805 44.4818 91.7805 40.8787 91.9141 37.0087ZM58.6461 29.1353C62.9215 29.9359 67.0633 30.4697 71.4723 30.3363C71.8731 30.3363 72.2739 30.4697 72.5411 30.8701C73.4764 32.6049 74.5452 34.3397 74.9461 36.7418C69.3346 33.9394 63.5895 32.6049 58.6461 29.1353ZM67.4641 35.007C64.2575 35.2739 61.719 36.3415 59.1805 37.2756C58.5124 34.7401 57.8444 32.4715 57.0428 29.8025C60.383 31.8042 63.5895 33.539 67.4641 35.007Z" fill="#E6E8EB"/>
<path d="M5.36482 42.8804C8.17055 38.0762 8.17054 35.2738 3.22711 30.4697C-0.647479 26.7331 -5.3237 25.2652 -10.668 26.1994C-12.4048 26.4663 -13.3401 26.0659 -14.2753 24.598C-20.6884 15.657 -32.4458 13.9221 -41.1302 20.5945C-45.1384 23.6638 -47.1425 26.7331 -48.0777 31.9376C-55.5597 32.0711 -60.3696 38.0762 -58.4991 45.0155C-57.6974 48.2183 -55.4261 49.9531 -52.0859 49.8197C-45.272 49.6862 -38.3245 49.6862 -31.5106 49.5528C-23.6278 49.2859 -15.8786 49.4193 -7.99582 50.0866C-4.12124 50.3535 -0.246676 51.0207 3.62791 51.2876C5.23119 51.421 6.96809 51.2876 8.57136 51.0207C10.1746 50.7538 11.5107 50.0866 11.7779 48.3517C12.0451 46.7504 11.2435 45.6828 10.041 44.7486C8.70498 43.681 7.1017 43.2807 5.36482 42.8804ZM-56.8958 42.3466C-57.0294 37.1421 -53.1548 33.539 -48.0777 34.2062C-46.7417 34.3397 -46.2073 33.9393 -46.0736 32.6049C-45.94 30.2028 -45.0048 27.9342 -43.5351 26.0659C-36.3204 16.7245 -23.4942 16.4577 -16.1458 25.6656C-14.4089 27.9342 -12.8057 28.8683 -9.99992 28.0676C-8.26304 27.5338 -6.52616 27.9342 -4.78928 28.3345C-0.781085 29.4021 2.15824 31.9376 4.29594 35.4073C5.89922 37.9428 4.56319 40.2114 3.49434 42.48C2.95991 43.681 3.22711 44.3483 4.69678 44.6152C6.30006 44.8821 7.76974 45.4159 8.83859 46.6169C9.77384 47.551 9.6402 48.2183 8.30413 48.7521C7.10168 49.2859 6.03286 49.019 4.8304 49.019C-3.98762 48.2183 -12.8057 47.551 -21.6237 47.551C-30.9761 47.551 -40.3286 48.0848 -49.5474 48.7521C-54.4909 48.8855 -56.8958 46.8838 -56.8958 42.3466Z" fill="#E6E8EB"/>
<path d="M59.982 137.094C61.8525 139.363 63.723 141.765 65.5935 144.034C66.5287 145.101 67.3304 146.703 68.9336 146.169C70.6705 145.635 70.1361 143.767 70.1361 142.432C70.2697 139.763 69.6017 137.094 69.2008 134.425C69.0672 133.358 69.3345 132.824 70.1361 132.29C72.0066 130.956 74.0107 129.488 75.4803 127.62C76.8164 126.152 76.5492 125.351 74.5451 124.817C71.873 124.15 69.0673 124.55 66.3951 124.417C65.0591 124.417 64.5246 124.017 64.391 122.549C64.1238 120.013 63.723 117.344 61.8525 114.809C58.9132 117.611 57.3099 120.814 55.573 123.883C52.7673 123.349 50.2288 122.815 47.5567 122.415C46.755 122.282 45.8198 122.015 45.2853 122.949C44.8845 123.883 45.5526 124.55 46.087 125.084C47.6903 126.819 49.2935 128.554 51.0304 130.289C51.8321 131.089 51.9656 131.756 51.4312 132.824C50.496 135.36 49.5607 137.895 48.6255 140.431C48.3583 141.098 48.0911 141.899 48.7591 142.566C49.2935 143.1 50.0952 142.699 50.6296 142.432C53.9697 140.964 56.7755 138.829 59.982 137.094ZM47.423 123.75C50.0952 124.283 52.0993 124.684 54.1033 125.351C55.9738 126.018 57.0427 125.484 57.9779 123.616C58.9132 121.881 60.1156 120.28 61.4517 118.412C61.7189 118.945 61.8525 119.212 61.8525 119.479C63.4558 126.018 61.9861 125.484 69.8689 126.018C70.5369 126.018 71.2049 126.018 71.873 126.018C72.6746 126.152 73.4762 125.751 74.1443 126.552C72.4074 128.42 70.4033 129.888 68.3992 131.223C67.1968 132.157 66.6623 132.958 66.9296 134.559C67.3304 137.628 68.132 140.564 67.8648 143.9C66.9295 143.5 66.6623 142.833 66.1279 142.299C64.5246 140.431 62.7877 138.562 61.1845 136.561C60.1156 135.226 58.9132 135.093 57.4435 136.16C55.0386 137.762 52.5001 139.23 50.0952 140.831C50.7632 138.295 51.6984 136.027 52.7673 133.892C53.8361 131.89 53.4353 130.289 51.832 128.821C50.7632 127.219 49.2935 125.618 47.423 123.75Z" fill="#E6E8EB"/>
<path d="M80.8247 111.74C79.8895 111.072 79.0878 110.272 78.1526 109.604C76.6829 108.804 75.6141 109.471 75.7477 111.206C75.8813 112.273 76.2821 113.208 76.8165 114.008C78.1526 116.41 80.0231 118.545 82.0272 120.547C83.3633 121.882 84.5657 121.615 85.3674 119.88C86.7034 116.677 87.3715 113.341 86.9707 109.871C86.8371 108.804 86.4362 107.87 85.2338 107.603C84.1649 107.336 83.3633 108.003 82.8288 108.804C82.0272 109.738 81.4928 110.805 80.8247 111.74Z" fill="#D24C44"/>
<path d="M46.8885 61.1627C46.8885 60.362 46.8885 59.8282 46.8885 59.2945C46.8885 58.3603 46.4876 57.6931 45.5524 57.4262C44.7508 57.1593 43.9491 57.2927 43.2811 58.0934C41.8114 59.9617 40.6089 61.83 40.0745 64.0986C39.6737 65.9669 40.6089 67.1679 42.4794 66.7675C46.0868 66.1003 49.5606 64.8993 52.6335 62.7641C53.5688 62.0969 54.1032 61.1627 53.7024 60.0951C53.168 58.8941 52.0991 59.161 51.0303 59.2945C49.5606 59.5614 48.4917 60.362 46.8885 61.1627Z" fill="#D24C44"/>
<path d="M-3.71724 0.391602C-4.25167 0.791946 -4.38527 1.05884 -4.38527 1.45919C-3.58364 4.92883 -3.04924 8.53193 -0.243505 11.2009C1.09256 12.4019 2.69585 13.3361 4.56634 12.135C6.03601 11.2009 6.43684 8.93228 5.36799 6.93056C3.4975 3.06056 0.0237412 1.59263 -3.71724 0.391602ZM-2.64841 2.39332C-0.109881 3.32746 1.76059 4.66194 3.09666 6.53021C4.43273 8.26503 4.56636 10.2668 3.63112 10.934C2.69587 11.6012 0.691774 10.6671 -0.377079 8.93228C-1.57954 7.064 -1.98037 4.79539 -2.64841 2.39332Z" fill="#E6E8EB"/>
<path d="M70.5368 93.9911C71.8729 93.7242 72.6745 93.0569 72.6745 91.7224C72.6745 90.5214 71.8729 89.7207 70.6704 89.7207C69.3344 89.7207 68.5327 90.5214 68.3991 91.8559C68.2655 93.1904 69.2007 93.8576 70.5368 93.9911Z" fill="#E6E8EB"/>
<path d="M48.2244 50.7539C47.022 50.7539 46.2204 51.2877 46.2204 52.3553C46.2204 53.6898 47.1556 54.357 48.3581 54.357C49.4269 54.357 50.2285 53.6898 50.0949 52.6222C50.0949 51.2877 49.2933 50.7539 48.2244 50.7539Z" fill="#E6E8EB"/>
<path d="M72.1402 81.0469C71.0713 81.1803 70.5369 81.7141 70.5369 82.7817C70.5369 83.7158 71.0713 84.3831 72.0065 84.3831C72.9418 84.3831 73.6098 83.9827 73.6098 82.9151C73.6098 81.8476 73.209 81.1803 72.1402 81.0469Z" fill="#E6E8EB"/>
<path d="M79.2212 54.3568C79.4885 55.4244 80.5573 55.5578 81.2254 55.9582C81.7598 56.2251 82.4279 56.7589 83.0959 56.2251C83.6303 55.6913 83.3631 55.024 83.0959 54.6237C82.4279 53.5561 81.6262 53.0223 80.4237 53.2892C79.7557 53.2892 79.3549 53.6896 79.2212 54.3568Z" fill="#E6E8EB"/>
<path d="M-72.5656 101.296C-72.6946 100.051 -72.8236 98.8068 -71.5331 98.1892C-70.3937 97.6067 -69.66 98.711 -68.8451 99.478C-65.5857 102.546 -62.4425 105.8 -58.2999 107.867C-55.0534 109.504 -51.5284 110.28 -48.1103 108.532C-43.8202 106.423 -40.3801 103.396 -38.0109 99.1837C-35.3634 94.1101 -32.7159 89.0366 -29.8822 84.0792C-23.4717 72.5587 -13.4977 66.1063 -0.6349 64.5598C10.8323 63.1774 20.2696 68.159 27.9536 76.5733C30.7244 79.5951 33.3791 82.803 34.2087 87.0709C34.3488 87.6756 34.7212 87.9079 35.3609 87.919C38.4784 88.3118 41.5959 88.7045 44.6305 87.3643C45.5025 87.003 46.3396 86.4904 47.1544 87.2574C47.8181 88.0594 47.3885 88.9554 46.7727 89.7352C44.9954 92.377 42.7757 94.4842 40.1135 96.0568C39.2765 96.5693 38.893 96.9767 38.8359 98.105C37.8806 109.795 32.934 119.384 24.2173 127.138C12.8273 137.104 -0.544368 141.954 -15.7356 141.014C-27.6932 140.28 -39.0829 137.184 -50.0319 132.553C-56.7573 129.651 -62.4724 124.922 -69.3139 122.206C-70.5473 121.695 -71.6183 120.51 -72.6194 119.627C-73.8067 118.627 -75.029 117.477 -74.6233 115.79C-74.2177 114.103 -72.4147 114.323 -71.0541 114.007C-70.9029 113.972 -70.9379 113.821 -70.8218 113.635C-73.2792 109.903 -73.0358 108.891 -68.7218 107.573C-70.8751 105.842 -72.4587 103.82 -72.5656 101.296ZM31.6626 88.4573C31.976 87.7475 31.6147 86.8754 31.3234 86.3058C24.707 74.9361 15.8137 66.802 2.11203 66.7906C-8.57716 66.7185 -17.0984 71.8786 -24.0121 79.852C-26.3941 82.6339 -28.0663 85.7293 -29.5523 88.9408C-31.4679 93.0483 -33.7559 96.9235 -36.0439 100.799C-38.7964 105.419 -42.8413 108.586 -47.585 110.8C-51.1892 112.431 -54.9465 112.028 -58.4954 110.461C-62.7191 108.731 -66.1296 105.698 -69.0056 102.223C-69.2618 101.805 -69.8205 101.456 -70.4491 100.805C-70.2961 102.841 -69.3762 104.061 -68.4563 105.282C-66.6865 107.42 -64.6843 109.186 -62.2987 110.545C-61.7401 110.894 -60.8442 111.323 -61.2738 112.219C-61.8195 113.301 -62.7505 112.721 -63.4603 112.407C-65.5896 111.467 -67.4866 110.154 -70.2778 110.482C-69.2639 112.796 -67.5881 113.841 -65.7261 115.003C-64.8301 115.433 -63.4456 115.908 -64.1075 117.177C-64.7693 118.445 -65.8865 117.748 -66.9337 117.354C-68.8068 116.832 -70.7149 116.159 -73.0987 116.87C-71.1888 119.614 -68.7331 121.275 -65.6617 122.156C-62.2879 122.967 -59.2276 124.488 -56.2484 126.347C-49.7664 130.261 -42.5303 131.93 -35.7699 134.983C-27.2525 138.744 -18.5397 139.911 -9.45628 139.24C0.906613 138.591 10.2667 134.989 18.5077 128.62C27.9342 121.179 33.1481 111.37 35.569 99.8176C36.0557 97.7933 34.0296 95.2362 31.8892 94.9357C30.3885 94.6462 28.7717 94.5429 27.3171 93.7649C26.7585 93.4164 26.0488 93.103 26.3272 92.2421C26.7567 91.3461 27.5015 91.8107 28.0601 92.1591C29.1073 92.5537 30.0383 93.1344 31.4339 92.9704C31.6183 91.0162 31.1519 89.6906 31.6626 88.4573ZM33.2684 89.2003C33.2813 90.6309 33.2941 92.0615 34.3763 92.6073C36.6218 93.3613 38.5631 92.1151 40.3533 90.9039C37.9456 90.8246 35.654 90.559 33.2684 89.2003Z" fill="#D24C44"/>
<path d="M-34.5381 120.361C-35.047 123.665 -34.1972 124.583 -29.4038 126.021C-29.4352 130.01 -28.0728 131.765 -24.2917 132.96C-20.8478 134.074 -17.1606 134.175 -13.6136 133.672C-8.06615 132.865 -2.47264 131.569 2.21201 128.413C8.57068 124.231 10.6707 118.17 8.79219 111.437C7.26396 106.216 -3.57072 99.3278 -8.91905 101.682C-10.5119 102.37 -12.1398 102.906 -12.8589 105.303C-9.58093 102.95 -6.48737 102.552 -3.24082 104.189C0.564322 106.175 4.40449 108.312 5.90877 112.742C7.23793 116.416 6.2755 119.825 4.30094 122.991C1.79172 126.598 -1.63742 128.986 -5.83532 130.118C-10.1844 131.285 -14.6146 132.789 -19.349 132.293C-21.6405 132.027 -23.9321 131.762 -26.0154 130.333C-27.1326 129.636 -27.9825 128.718 -27.693 127.217C-27.3685 125.868 -26.3102 125.623 -25.1008 125.342C-24.0426 125.097 -22.9844 124.852 -22.0312 124.153C-21.2292 123.49 -20.7646 122.745 -21.2771 121.908C-21.8247 120.92 -22.7317 121.13 -23.6038 121.491C-25.3128 122.365 -27.0679 123.727 -29.2083 123.427C-30.5228 123.253 -32.1046 123.301 -32.7572 121.86C-32.7111 121.371 -32.4438 121.15 -32.0253 120.894C-31.6068 120.637 -30.886 120.311 -31.0611 119.555C-31.2712 118.648 -31.911 118.637 -32.5857 118.475C-33.9352 118.15 -35.6221 117.745 -35.4027 115.942C-35.3344 114.174 -34.184 112.951 -32.4049 112.38C-30.6258 111.808 -28.9629 111.423 -27.0437 111.456C-25.9154 111.514 -25.0083 111.303 -24.8 110.14C-24.4533 107.511 -22.5692 107.393 -20.5339 107.24C-19.2894 107.111 -17.8699 107.738 -16.6844 106.667C-17.6744 105.144 -19.5124 104.773 -22.7572 105.207C-25.0949 105.43 -26.2803 106.501 -27.499 109.491C-30.0229 109.598 -32.3256 109.972 -34.5693 111.288C-38.4409 113.141 -38.8779 118.818 -34.5381 120.361Z" fill="#D24C44"/>
<path d="M9.27567 92.2113C8.12523 93.4336 6.68352 94.0862 4.90443 94.6577C6.80147 95.9704 8.1381 94.8643 9.24244 94.1305C10.3468 93.3968 11.2888 93.3378 12.4872 93.6973C16.4546 95.0082 20.7318 91.4686 20.4259 87.3979C20.3669 86.4559 20.2378 85.2114 18.9584 85.1893C17.6789 85.1671 17.7729 86.2604 17.6457 87.0863C16.7773 91.5884 14.1612 92.6723 10.4482 89.7096C9.66841 89.0938 8.94575 87.3498 7.76029 88.4209C6.57484 89.492 8.21562 90.3862 8.72812 91.2232C8.98437 91.6417 9.01941 91.7928 9.27567 92.2113Z" fill="#D24C44"/>
</svg>
