<svg width="234" height="230" viewBox="0 0 234 230" fill="none" xmlns="http://www.w3.org/2000/svg">
<path d="M152.247 9.39654C153.835 11.974 154.034 14.9481 154.629 17.9221C157.607 18.1204 160.386 18.3186 163.363 18.5169C164.554 18.5169 165.944 18.7152 166.341 20.1031C166.936 21.6892 165.348 22.4823 164.356 23.0771C162.569 24.0684 160.783 24.8615 158.798 25.8528C159.989 28.4303 161.577 30.6113 162.371 33.3871C163.165 36.5594 162.172 37.9472 159.393 36.7576C153.24 33.7836 148.277 34.7749 143.91 39.5334C142.917 40.5247 141.528 41.1195 139.94 40.1282C138.55 39.1369 139.344 37.749 139.543 36.5594C140.337 33.9819 141.329 31.4044 142.322 28.6286C140.138 27.2407 138.153 25.6546 135.97 24.2667C135.176 23.6719 134.183 22.8788 134.58 21.4909C134.977 20.3013 135.97 20.1031 136.962 19.9048C139.94 19.5082 143.116 19.31 146.292 18.9134C147.086 15.3446 148.079 11.7758 150.659 9C151.056 9.19827 151.652 9.39654 152.247 9.39654ZM162.172 21.0944C159.79 21.0944 158.004 21.0944 156.416 21.2927C154.034 21.4909 152.644 20.6979 152.247 18.1204C152.049 16.7325 151.85 15.1463 150.262 13.1636C149.667 20.3013 145.299 22.284 138.947 22.4823C145.697 25.6546 146.888 30.0165 142.52 36.3611C146.292 35.3697 148.079 32.1975 151.255 32.1975C154.232 31.9992 156.813 34.3784 159.989 33.9819C159.195 31.8009 157.805 30.413 156.614 28.8269C154.431 25.6546 154.629 24.6632 158.004 23.0771C158.996 22.4823 160.187 21.8875 162.172 21.0944Z" fill="#E6E8EB"/>
<path d="M158.401 48.0589C158.798 49.8434 158.599 51.6278 158.401 53.4122C159.989 54.007 161.775 54.6018 163.363 55.1966C164.157 55.3949 164.951 55.7914 164.951 56.5845C164.951 57.5758 163.959 57.7741 163.165 57.9724C161.974 58.1707 160.783 58.3689 159.393 58.7655C159.79 60.5499 160.187 62.136 160.187 63.7222C160.187 65.7049 159.195 66.4979 157.805 65.1101C154.629 62.3343 151.652 62.136 148.079 64.1187C147.285 64.5153 146.292 64.7135 145.697 63.9205C144.903 63.1274 145.697 62.3343 146.094 61.7395C147.086 60.3516 148.079 58.9637 149.071 57.3776C148.079 56.188 147.086 54.9984 146.094 53.6105C145.697 53.0157 145.3 52.4209 145.697 51.8261C146.094 51.2312 146.689 51.2313 147.285 51.4295C149.071 51.8261 151.056 52.0243 153.041 52.4209C154.232 50.4382 155.225 48.4555 157.21 47.2659C157.805 47.6624 158.202 47.8607 158.401 48.0589ZM162.371 56.5845C160.981 56.188 159.989 55.7914 158.798 55.5932C157.21 55.3949 156.614 54.6018 156.813 53.0157C157.011 52.2226 157.011 51.2312 156.416 49.8434C154.828 54.007 151.85 54.4036 148.079 53.4122C151.652 56.3862 151.453 59.3603 147.88 62.136C150.262 62.136 151.85 60.5499 153.835 61.1447C155.622 61.5412 156.813 63.3256 158.599 63.7222C158.401 62.3343 158.004 61.1447 157.408 59.9551C156.614 57.7741 157.011 57.1793 159.195 56.7828C160.187 56.7828 160.981 56.7828 162.371 56.5845Z" fill="#E6E8EB"/>
<path d="M74.0363 147.788C72.6468 148.78 72.0513 147.59 71.2572 147.193C68.6767 145.607 66.2946 143.823 64.1111 141.642C62.3245 139.858 60.3395 139.263 57.9574 140.452C51.4068 143.426 44.2607 143.823 37.1145 144.021C20.2417 144.814 5.55237 130.935 4.55985 114.083C4.16284 107.341 4.55985 100.6 2.97181 93.8592C2.3763 91.4799 1.7808 89.299 0.589771 87.118C0.192763 86.5232 -0.402761 85.7301 0.391255 84.9371C0.986767 84.3423 1.78078 84.5405 2.3763 84.7388C14.2865 89.6955 27.1893 89.1007 39.2981 92.4713C40.4891 92.8678 41.8786 93.0661 43.0696 93.2644C53.9874 95.4453 58.553 103.376 60.538 113.29C61.7291 119.634 61.1335 125.979 61.1335 132.323C61.1335 134.901 61.729 136.884 63.714 138.47C66.2946 140.651 68.8752 143.03 71.4558 145.211C72.6468 146.004 73.6393 146.599 74.0363 147.788ZM6.74341 104.566C7.14042 110.117 7.14038 115.669 9.12542 121.022C10.912 125.384 11.309 125.78 16.2716 125.78C22.4252 125.78 28.3803 126.375 34.3355 126.97C39.6951 127.565 44.8562 129.151 49.8188 130.539C39.0995 116.264 24.6088 107.936 6.74341 104.566ZM12.6985 127.367C16.0731 132.918 20.2417 136.289 25.2043 138.47C31.5564 141.245 38.3055 140.452 44.8562 140.056C49.4218 139.659 53.9874 138.866 59.1485 137.082C44.6577 127.168 28.3804 129.548 12.6985 127.367ZM47.2382 122.608C50.2158 116.66 51.6053 111.109 52.7963 105.359C53.9873 100.402 52.7963 100.402 49.2233 98.2211C44.0622 95.0488 38.1071 94.8505 31.7549 93.4626C39.6951 101.988 44.0622 111.505 47.2382 122.608ZM45.2532 122.013C42.0771 112.1 37.9085 102.98 31.1594 95.247C30.1669 94.0574 28.9759 92.6695 27.3878 92.4713C21.8297 91.8765 16.2716 91.2817 10.7135 90.2903C24.0133 98.6176 35.1295 109.919 45.2532 122.013ZM33.3429 112.298C25.2043 102.385 15.0806 95.6436 3.96437 88.7042C5.35389 93.0661 6.14787 96.6349 6.34638 100.402C6.54488 102.385 7.33893 102.98 8.92697 103.376C16.2716 105.16 23.4177 107.54 29.9684 111.307C30.9609 111.703 31.9534 112.496 33.3429 112.298ZM54.7814 104.367C52.9948 111.307 51.6053 118.048 48.6278 124.194C48.4293 124.789 48.4292 125.384 48.8262 125.78C52.0023 128.754 54.9799 132.125 58.95 134.901C58.95 124.591 59.9425 114.281 54.7814 104.367Z" fill="#E6E8EB"/>
<path d="M64.5079 97.8245C64.905 90.092 60.7364 84.144 59.3468 77.2045C56.1708 60.1534 65.1034 46.4729 82.1748 42.7058C86.1449 41.9127 90.115 41.3179 94.2836 41.5161C102.819 41.7144 111.156 41.1196 119.494 39.1369C122.074 38.5421 123.265 39.7317 122.67 42.3092C119.692 53.8088 117.112 65.5067 112.149 76.4115C108.774 83.5491 104.01 89.2989 95.6731 90.4885C90.7105 91.2816 85.7479 90.4885 80.7853 89.6955C77.2122 89.1007 73.8376 88.9024 70.2646 89.8937C68.081 90.4886 66.6915 91.4799 66.89 94.0574C67.0885 95.4453 66.6915 96.8332 64.5079 97.8245ZM110.561 72.4461C99.6431 69.4721 89.1224 66.6963 78.0062 66.8946C76.6167 66.8946 76.0212 67.6876 75.2272 68.4807C69.8675 74.0322 67.684 80.9716 66.6914 88.7041C71.257 86.7214 75.8226 86.1266 80.5867 86.9197C84.9538 87.7128 89.1224 87.9111 93.4895 87.7128C97.6581 87.7128 101.033 85.9284 104.01 83.1526C106.789 80.1786 108.973 76.6097 110.561 72.4461ZM78.9987 64.9119C90.512 65.1101 100.834 67.6876 111.156 70.6617C113.141 65.9032 114.531 61.343 115.722 56.3863C110.561 54.2054 105.201 51.6279 100.239 53.214C92.894 55.7915 85.7479 58.9638 78.9987 64.9119ZM94.2836 44.6884C87.9314 44.0936 78.4032 46.2746 73.0436 49.2486C71.4556 50.24 70.4631 51.6279 70.2646 53.214C69.669 58.369 70.066 63.524 71.0586 69.0755C73.6391 65.7049 76.4181 63.3257 79.5942 60.9465C82.5718 58.7655 85.9464 56.9811 89.321 55.395C89.9165 55.1967 90.7105 54.9984 90.909 54.0071C90.909 50.8348 92.894 48.059 94.2836 44.6884ZM67.4855 54.4036C60.5379 59.7569 59.7438 76.808 64.7064 83.9457C65.6989 79.782 66.89 75.8167 68.875 72.2478C69.0735 71.8513 69.272 71.2565 69.272 70.8599C67.684 65.5067 67.684 60.1534 67.4855 54.4036ZM116.913 42.7058C110.561 43.8954 104.407 44.6884 97.8566 44.4902C97.2611 44.4902 96.6656 44.6884 96.2686 45.2833C94.8791 47.8607 93.291 50.4382 92.6955 54.0071C101.033 49.8434 109.568 47.8607 116.913 42.7058ZM103.812 51.4296C108.576 51.8261 112.347 53.4123 116.119 54.8002C117.112 51.033 118.104 47.6625 119.295 43.6971C114.332 46.6711 109.568 49.2486 103.812 51.4296Z" fill="#E6E8EB"/>
<path d="M196.075 63.1273C191.906 55.9896 191.906 51.826 199.251 44.6883C205.008 39.1368 211.955 36.9558 219.896 38.3437C222.476 38.7402 223.866 38.1454 225.255 35.9645C234.783 22.6805 252.252 20.103 265.154 30.0164C271.11 34.5766 274.087 39.1368 275.477 46.8693C286.593 47.0675 293.739 55.9896 290.96 66.2996C289.769 71.0581 286.394 73.6356 281.432 73.4373C271.308 73.239 260.986 73.239 250.862 73.0407C239.15 72.6442 227.637 72.8425 215.925 73.8338C210.169 74.2304 204.412 75.2217 198.656 75.6182C196.274 75.8165 193.693 75.6182 191.311 75.2217C188.929 74.8252 186.944 73.8338 186.547 71.2563C186.15 68.8771 187.341 67.291 189.127 65.9031C191.112 64.3169 193.494 63.7221 196.075 63.1273ZM288.578 62.3342C288.776 54.6018 283.02 49.2485 275.477 50.2398C273.492 50.4381 272.698 49.8433 272.499 47.8606C272.301 44.2918 270.911 40.9212 268.728 38.1454C258.008 24.2666 238.952 23.8701 228.034 37.5506C225.454 40.9212 223.072 42.3091 218.903 41.1195C216.322 40.3264 213.742 40.9212 211.161 41.516C205.206 43.1022 200.839 46.8693 197.663 52.0243C195.281 55.7914 197.266 59.1619 198.854 62.5325C199.648 64.3169 199.251 65.3083 197.068 65.7048C194.685 66.1013 192.502 66.8944 190.914 68.6788C189.524 70.0667 189.723 71.0581 191.708 71.8511C193.494 72.6442 195.082 72.2477 196.869 72.2477C209.97 71.0581 223.072 70.0667 236.173 70.0667C250.068 70.0667 263.963 70.8598 277.66 71.8511C285.005 72.0494 288.578 69.0754 288.578 62.3342Z" fill="#E6E8EB"/>
<path d="M114.928 203.105C112.149 206.476 109.37 210.044 106.591 213.415C105.201 215.001 104.01 217.38 101.628 216.587C99.0478 215.794 99.8418 213.018 99.8418 211.036C99.6433 207.07 100.636 203.105 101.231 199.14C101.43 197.554 101.033 196.76 99.8418 195.967C97.0628 193.985 94.0852 191.804 91.9017 189.028C89.9167 186.847 90.3137 185.657 93.2912 184.864C97.2613 183.873 101.43 184.468 105.4 184.27C107.385 184.27 108.179 183.675 108.377 181.494C108.774 177.727 109.37 173.761 112.149 169.994C116.516 174.158 118.898 178.916 121.479 183.476C125.647 182.683 129.419 181.89 133.389 181.295C134.58 181.097 135.97 180.701 136.764 182.089C137.359 183.476 136.367 184.468 135.573 185.261C133.19 187.838 130.808 190.416 128.228 192.993C127.037 194.183 126.838 195.174 127.632 196.76C129.022 200.528 130.411 204.295 131.801 208.062C132.198 209.053 132.595 210.243 131.602 211.234C130.808 212.027 129.617 211.432 128.823 211.036C123.861 208.855 119.692 205.683 114.928 203.105ZM133.587 183.278C129.617 184.071 126.64 184.666 123.662 185.657C120.883 186.649 119.295 185.856 117.906 183.08C116.516 180.502 114.73 178.123 112.745 175.347C112.348 176.14 112.149 176.537 112.149 176.934C109.767 186.649 111.951 185.856 100.239 186.649C99.2464 186.649 98.2538 186.649 97.2613 186.649C96.0703 186.847 94.8792 186.252 93.8867 187.442C96.4673 190.218 99.4448 192.399 102.422 194.381C104.209 195.769 105.003 196.959 104.606 199.338C104.01 203.898 102.819 208.26 103.216 213.217C104.606 212.622 105.003 211.631 105.797 210.838C108.179 208.062 110.76 205.286 113.142 202.312C114.73 200.329 116.516 200.131 118.7 201.717C122.273 204.096 126.044 206.277 129.617 208.657C128.625 204.889 127.235 201.519 125.647 198.347C124.059 195.373 124.655 192.993 127.037 190.812C128.625 188.433 130.808 186.054 133.587 183.278Z" fill="#E6E8EB"/>
<path d="M83.9613 165.434C85.3509 164.443 86.5419 163.253 87.9315 162.262C90.115 161.072 91.703 162.063 91.5045 164.641C91.306 166.227 90.7105 167.615 89.9165 168.804C87.9315 172.373 85.1524 175.546 82.1748 178.52C80.1898 180.502 78.4032 180.106 77.2122 177.528C75.2271 172.77 74.2346 167.813 74.8301 162.658C75.0286 161.072 75.6241 159.684 77.4107 159.288C78.9987 158.891 80.1897 159.882 80.9838 161.072C82.1748 162.46 82.9688 164.046 83.9613 165.434Z" fill="#D24C44"/>
<path d="M134.382 90.2901C134.382 89.1005 134.382 88.3074 134.382 87.5143C134.382 86.1265 134.977 85.1351 136.367 84.7386C137.558 84.342 138.749 84.5403 139.741 85.7299C141.925 88.5057 143.711 91.2814 144.505 94.652C145.101 97.4278 143.711 99.2122 140.932 98.6174C135.573 97.626 130.412 95.8416 125.846 92.6693C124.457 91.678 123.663 90.2901 124.258 88.7039C125.052 86.9195 126.64 87.3161 128.228 87.5143C130.412 87.9109 132 89.1005 134.382 90.2901Z" fill="#D24C44"/>
<path d="M209.569 0C210.363 0.594806 210.561 0.991343 210.561 1.58615C209.37 6.74114 208.576 12.0944 204.408 16.0598C202.422 17.8442 200.04 19.2321 197.261 17.4477C195.078 16.0598 194.482 12.6892 196.07 9.71517C198.849 3.96538 204.01 1.78442 209.569 0ZM207.981 2.97403C204.209 4.36191 201.43 6.3446 199.445 9.12036C197.46 11.6979 197.261 14.6719 198.651 15.6632C200.04 16.6546 203.018 15.2667 204.606 12.6892C206.392 9.91344 206.988 6.54287 207.981 2.97403Z" fill="#E6E8EB"/>
<path d="M99.2465 139.064C97.2615 138.668 96.0704 137.676 96.0704 135.694C96.0704 133.909 97.2615 132.72 99.048 132.72C101.033 132.72 102.224 133.909 102.423 135.892C102.621 137.875 101.232 138.866 99.2465 139.064Z" fill="#E6E8EB"/>
<path d="M132.397 74.8252C134.183 74.8252 135.374 75.6183 135.374 77.2044C135.374 79.1871 133.985 80.1784 132.198 80.1784C130.61 80.1784 129.419 79.1871 129.618 77.6009C129.618 75.6183 130.809 74.8252 132.397 74.8252Z" fill="#E6E8EB"/>
<path d="M96.8643 119.832C98.4523 120.031 99.2464 120.824 99.2464 122.41C99.2464 123.798 98.4524 124.789 97.0628 124.789C95.6733 124.789 94.6808 124.194 94.6808 122.608C94.6808 121.022 95.2763 120.031 96.8643 119.832Z" fill="#E6E8EB"/>
<path d="M86.3437 80.1787C85.9467 81.7648 84.3586 81.9631 83.3661 82.5579C82.5721 82.9544 81.5795 83.7475 80.587 82.9544C79.7929 82.1614 80.19 81.17 80.587 80.5752C81.5795 78.989 82.7705 78.196 84.5571 78.5925C85.5496 78.5925 86.1452 79.1873 86.3437 80.1787Z" fill="#E6E8EB"/>
<path d="M311.859 149.917C312.051 148.068 312.242 146.219 310.325 145.301C308.632 144.436 307.542 146.077 306.332 147.216C301.489 151.774 296.819 156.609 290.664 159.679C285.841 162.112 280.603 163.265 275.525 160.669C269.151 157.535 264.04 153.038 260.52 146.779C256.586 139.241 252.653 131.703 248.443 124.338C238.919 107.221 224.1 97.6346 204.989 95.3369C187.952 93.2829 173.93 100.684 162.514 113.186C158.397 117.675 154.453 122.441 153.221 128.782C153.012 129.681 152.459 130.026 151.509 130.042C146.877 130.626 142.245 131.21 137.736 129.218C136.441 128.681 135.197 127.92 133.987 129.06C133.001 130.251 133.639 131.582 134.554 132.741C137.194 136.666 140.492 139.797 144.448 142.133C145.691 142.895 146.261 143.5 146.346 145.176C147.765 162.545 155.114 176.791 168.065 188.311C184.988 203.118 204.855 210.325 227.425 208.927C245.191 207.837 262.113 203.237 278.38 196.356C288.372 192.045 296.863 185.019 307.028 180.984C308.86 180.225 310.452 178.464 311.939 177.152C313.703 175.667 315.519 173.958 314.916 171.452C314.314 168.945 311.635 169.271 309.613 168.803C309.389 168.751 309.441 168.526 309.268 168.25C312.919 162.706 312.558 161.202 306.148 159.244C309.347 156.671 311.7 153.667 311.859 149.917ZM157.003 130.842C156.538 129.788 157.075 128.492 157.507 127.646C167.338 110.753 180.551 98.6682 200.908 98.6513C216.789 98.5441 229.449 106.211 239.721 118.057C243.26 122.19 245.745 126.789 247.953 131.561C250.799 137.663 254.198 143.421 257.597 149.178C261.687 156.042 267.697 160.748 274.745 164.038C280.1 166.462 285.682 165.862 290.955 163.533C297.23 160.964 302.297 156.458 306.57 151.295C306.951 150.673 307.781 150.155 308.715 149.188C308.487 152.212 307.121 154.026 305.754 155.839C303.124 159.016 300.15 161.64 296.605 163.659C295.775 164.177 294.444 164.815 295.082 166.146C295.893 167.754 297.276 166.891 298.331 166.426C301.495 165.029 304.313 163.078 308.46 163.566C306.954 167.003 304.464 168.557 301.697 170.282C300.366 170.92 298.309 171.627 299.293 173.512C300.276 175.396 301.936 174.361 303.492 173.775C306.275 172.999 309.11 171.999 312.651 173.057C309.814 177.133 306.165 179.601 301.602 180.91C296.589 182.115 292.042 184.375 287.616 187.136C277.986 192.952 267.235 195.431 257.19 199.967C244.536 205.555 231.591 207.289 218.095 206.292C202.699 205.328 188.792 199.977 176.548 190.513C162.543 179.458 154.796 164.884 151.2 147.721C150.476 144.713 153.487 140.914 156.667 140.467C158.896 140.037 161.298 139.884 163.46 138.728C164.29 138.21 165.344 137.745 164.93 136.465C164.292 135.134 163.186 135.825 162.356 136.342C160.8 136.928 159.417 137.791 157.343 137.548C157.069 134.644 157.762 132.675 157.003 130.842ZM154.618 131.946C154.598 134.072 154.579 136.197 152.972 137.008C149.635 138.128 146.751 136.277 144.091 134.477C147.669 134.359 151.073 133.965 154.618 131.946Z" fill="#D24C44"/>
<path d="M255.36 178.243C256.116 183.151 254.854 184.516 247.732 186.652C247.779 192.58 245.755 195.187 240.137 196.962C235.02 198.617 229.542 198.768 224.272 198.02C216.03 196.82 207.719 194.895 200.759 190.206C191.312 183.994 188.192 174.988 190.983 164.984C193.253 157.227 209.351 146.994 217.297 150.491C219.664 151.513 222.082 152.31 223.151 155.871C218.28 152.376 213.684 151.784 208.861 154.217C203.207 157.167 197.502 160.341 195.267 166.924C193.292 172.383 194.722 177.447 197.656 182.15C201.384 187.511 206.478 191.058 212.715 192.739C219.177 194.473 225.759 196.708 232.793 195.971C236.198 195.576 239.603 195.182 242.698 193.059C244.358 192.024 245.62 190.66 245.19 188.43C244.708 186.425 243.136 186.061 241.339 185.644C239.767 185.28 238.194 184.916 236.778 183.878C235.587 182.892 234.896 181.785 235.658 180.542C236.471 179.073 237.819 179.386 239.115 179.922C241.654 181.221 244.261 183.245 247.442 182.798C249.395 182.541 251.745 182.612 252.714 180.47C252.646 179.744 252.249 179.415 251.627 179.035C251.005 178.654 249.934 178.169 250.194 177.046C250.507 175.698 251.457 175.682 252.459 175.441C254.464 174.959 256.971 174.356 256.645 171.677C256.543 169.051 254.834 167.235 252.191 166.385C249.548 165.536 247.077 164.964 244.225 165.013C242.549 165.098 241.201 164.786 240.892 163.058C240.377 159.152 237.578 158.976 234.554 158.749C232.705 158.558 230.596 159.489 228.834 157.897C230.305 155.635 233.036 155.084 237.857 155.728C241.33 156.059 243.091 157.651 244.902 162.093C248.652 162.252 252.073 162.808 255.407 164.764C261.159 167.517 261.808 175.95 255.36 178.243Z" fill="#D24C44"/>
<path d="M190.264 136.418C191.974 138.234 194.116 139.204 196.759 140.053C193.94 142.003 191.955 140.36 190.314 139.27C188.673 138.18 187.273 138.092 185.493 138.626C179.598 140.574 173.244 135.315 173.698 129.267C173.786 127.867 173.978 126.018 175.878 125.986C177.779 125.953 177.64 127.577 177.829 128.804C179.119 135.493 183.006 137.103 188.522 132.702C189.681 131.787 190.755 129.195 192.516 130.787C194.277 132.378 191.839 133.707 191.078 134.95C190.697 135.572 190.645 135.797 190.264 136.418Z" fill="#D24C44"/>
</svg>
