<svg width="222" height="298" viewBox="0 0 222 298" fill="none" xmlns="http://www.w3.org/2000/svg">
<g clip-path="url(#clip0)">
<path d="M114.901 123.435C127.335 124.688 141.591 119.992 153.655 114.817C154.833 120.54 154.74 126.192 152.878 132.384C152.055 135.275 156.337 137.755 158.184 135.24C163.83 127.664 168.163 118.766 169.263 109.708C176.839 106.592 183.278 101.987 186.258 93.5021C189.935 83.1984 187.889 71.6574 185.821 61.1565C181.843 40.6796 174.933 9.85082 149.057 9.25745C136.359 9.00224 123.792 15.1341 112.232 19.3517C101.68 23.1468 87.2953 25.9315 80.0262 35.2662C73.7488 43.38 74.6094 54.0202 77.2218 63.3223C80.8119 76.5722 86.4664 89.8806 91.8966 102.454C96.3096 112.813 102.915 122.159 114.901 123.435Z" stroke="#D24C44" stroke-width="3" stroke-miterlimit="10"/>
</g>
<path d="M64.1219 36.4758L61.5131 37.5269L58.9043 38.5779C57.1651 39.2787 55.4325 39.7328 53.6933 40.4335C51.9606 40.8877 50.1019 41.4624 48.4888 42.0426L45.8931 42.6006C45.3952 42.836 44.9039 42.8249 44.2865 42.9343C43.7952 42.9232 43.0647 42.66 42.706 42.2819C42.706 42.2819 42.8321 42.1614 42.8386 41.9149C42.9647 41.7944 43.0908 41.6739 43.0908 41.6739C43.7017 41.8111 44.4517 41.3347 45.2017 40.8583L47.5714 39.5551C49.3106 38.8544 51.0497 38.1537 52.7889 37.453C54.6477 36.8783 56.3803 36.4242 58.2326 36.096L60.9479 35.6641L63.7828 35.3581C63.7828 35.3581 63.7762 35.6046 64.0154 35.8567C64.1284 36.2293 64.248 36.3553 64.1219 36.4758Z" fill="#D24C44"/>
<path d="M66.6001 26.996L64.216 25.9873L61.9385 24.7565C60.3846 24.0101 58.9374 23.0416 57.5478 22.2374C56.1006 21.269 54.5957 20.1362 53.4195 18.8881C52.8026 18.1819 52.1856 17.4757 51.733 16.7118C51.2804 15.9479 50.9345 14.9621 50.6462 14.1406C50.6462 14.1406 50.8105 14.0829 50.9172 13.8609C51.0815 13.8033 51.2458 13.7456 51.2458 13.7456C51.8051 14.2875 52.422 14.9937 53.1456 15.4779C53.7049 16.0198 54.4285 16.5041 55.1521 16.9883C56.435 18.0144 57.8246 18.8186 59.2718 19.7871C60.719 20.7555 62.1086 21.5597 63.4491 22.7501L65.5133 24.4248L67.4131 26.1571C67.4131 26.1571 67.3065 26.3791 67.1998 26.6011C66.7068 26.7741 66.6001 26.996 66.6001 26.996Z" fill="#D24C44"/>
<path d="M75.0421 21.4874L74.2791 19.0787L73.6854 16.4917C73.2896 14.767 73.0727 13.211 72.6769 11.4863C72.4551 9.7569 72.4075 8.02268 72.5292 6.11026C72.6795 5.23837 72.8297 4.36648 73.1541 3.4898C73.4784 2.61313 73.9769 1.73168 74.306 1.02843C74.306 1.02843 74.4801 1.02365 74.6589 1.19229C74.833 1.18751 75.0118 1.35614 75.0118 1.35614C74.8616 2.22804 74.8854 3.09515 74.9044 3.78883C74.9283 4.65594 74.9473 5.34963 74.9711 6.21674C75.014 7.77754 75.2357 9.50698 75.6268 11.0582C75.6744 12.7924 76.0702 14.5171 76.1131 16.0779L76.1845 18.6792L76.0819 21.2853C76.0819 21.2853 75.9078 21.2901 75.5644 21.4731C75.3903 21.4779 75.0421 21.4874 75.0421 21.4874Z" fill="#D24C44"/>
<g clip-path="url(#clip1)">
<mask id="path-5-inside-1" fill="white">
<path d="M98.787 158.843C98.472 158.843 98.2621 158.738 97.9471 158.738C98.0521 158.738 98.2621 158.738 98.3671 158.738C98.577 158.843 98.682 158.843 98.787 158.843Z"/>
</mask>
<path d="M98.3671 158.738L98.8147 157.844L98.6034 157.738H98.3671V158.738ZM98.787 157.843C98.7407 157.843 98.6992 157.837 98.5634 157.81C98.4367 157.785 98.2158 157.738 97.9471 157.738V159.738C97.9934 159.738 98.0349 159.744 98.1707 159.771C98.2974 159.797 98.5183 159.843 98.787 159.843V157.843ZM97.9471 159.738C97.9473 159.738 97.9476 159.738 97.9478 159.738C97.948 159.738 97.9482 159.738 97.9484 159.738C97.9486 159.738 97.9488 159.738 97.949 159.738C97.9492 159.738 97.9494 159.738 97.9496 159.738C97.9498 159.738 97.95 159.738 97.9502 159.738C97.9505 159.738 97.9507 159.738 97.9509 159.738C97.9511 159.738 97.9513 159.738 97.9515 159.738C97.9517 159.738 97.9519 159.738 97.9521 159.738C97.9524 159.738 97.9526 159.738 97.9528 159.738C97.953 159.738 97.9532 159.738 97.9534 159.738C97.9536 159.738 97.9538 159.738 97.9541 159.738C97.9543 159.738 97.9545 159.738 97.9547 159.738C97.9549 159.738 97.9551 159.738 97.9553 159.738C97.9556 159.738 97.9558 159.738 97.956 159.738C97.9562 159.738 97.9564 159.738 97.9566 159.738C97.9569 159.738 97.9571 159.738 97.9573 159.738C97.9575 159.738 97.9577 159.738 97.9579 159.738C97.9582 159.738 97.9584 159.738 97.9586 159.738C97.9588 159.738 97.959 159.738 97.9593 159.738C97.9595 159.738 97.9597 159.738 97.9599 159.738C97.9601 159.738 97.9604 159.738 97.9606 159.738C97.9608 159.738 97.961 159.738 97.9612 159.738C97.9615 159.738 97.9617 159.738 97.9619 159.738C97.9621 159.738 97.9624 159.738 97.9626 159.738C97.9628 159.738 97.963 159.738 97.9632 159.738C97.9635 159.738 97.9637 159.738 97.9639 159.738C97.9641 159.738 97.9644 159.738 97.9646 159.738C97.9648 159.738 97.965 159.738 97.9653 159.738C97.9655 159.738 97.9657 159.738 97.966 159.738C97.9662 159.738 97.9664 159.738 97.9666 159.738C97.9669 159.738 97.9671 159.738 97.9673 159.738C97.9675 159.738 97.9678 159.738 97.968 159.738C97.9682 159.738 97.9685 159.738 97.9687 159.738C97.9689 159.738 97.9692 159.738 97.9694 159.738C97.9696 159.738 97.9698 159.738 97.9701 159.738C97.9703 159.738 97.9705 159.738 97.9708 159.738C97.971 159.738 97.9712 159.738 97.9715 159.738C97.9717 159.738 97.9719 159.738 97.9722 159.738C97.9724 159.738 97.9726 159.738 97.9729 159.738C97.9731 159.738 97.9733 159.738 97.9736 159.738C97.9738 159.738 97.974 159.738 97.9743 159.738C97.9745 159.738 97.9747 159.738 97.975 159.738C97.9752 159.738 97.9755 159.738 97.9757 159.738C97.9759 159.738 97.9762 159.738 97.9764 159.738C97.9766 159.738 97.9769 159.738 97.9771 159.738C97.9774 159.738 97.9776 159.738 97.9778 159.738C97.9781 159.738 97.9783 159.738 97.9785 159.738C97.9788 159.738 97.979 159.738 97.9793 159.738C97.9795 159.738 97.9797 159.738 97.98 159.738C97.9802 159.738 97.9805 159.738 97.9807 159.738C97.9809 159.738 97.9812 159.738 97.9814 159.738C97.9817 159.738 97.9819 159.738 97.9822 159.738C97.9824 159.738 97.9826 159.738 97.9829 159.738C97.9831 159.738 97.9834 159.738 97.9836 159.738C97.9839 159.738 97.9841 159.738 97.9843 159.738C97.9846 159.738 97.9848 159.738 97.9851 159.738C97.9853 159.738 97.9856 159.738 97.9858 159.738C97.9861 159.738 97.9863 159.738 97.9866 159.738C97.9868 159.738 97.987 159.738 97.9873 159.738C97.9875 159.738 97.9878 159.738 97.988 159.738C97.9883 159.738 97.9885 159.738 97.9888 159.738C97.989 159.738 97.9893 159.738 97.9895 159.738C97.9898 159.738 97.99 159.738 97.9903 159.738C97.9905 159.738 97.9908 159.738 97.991 159.738C97.9913 159.738 97.9915 159.738 97.9918 159.738C97.992 159.738 97.9923 159.738 97.9925 159.738C97.9928 159.738 97.993 159.738 97.9933 159.738C97.9935 159.738 97.9938 159.738 97.994 159.738C97.9943 159.738 97.9945 159.738 97.9948 159.738C97.995 159.738 97.9953 159.738 97.9956 159.738C97.9958 159.738 97.9961 159.738 97.9963 159.738C97.9966 159.738 97.9968 159.738 97.9971 159.738C97.9973 159.738 97.9976 159.738 97.9978 159.738C97.9981 159.738 97.9984 159.738 97.9986 159.738C97.9989 159.738 97.9991 159.738 97.9994 159.738C97.9996 159.738 97.9999 159.738 98.0001 159.738C98.0004 159.738 98.0007 159.738 98.0009 159.738C98.0012 159.738 98.0014 159.738 98.0017 159.738C98.0019 159.738 98.0022 159.738 98.0025 159.738C98.0027 159.738 98.003 159.738 98.0032 159.738C98.0035 159.738 98.0038 159.738 98.004 159.738C98.0043 159.738 98.0045 159.738 98.0048 159.738C98.0051 159.738 98.0053 159.738 98.0056 159.738C98.0058 159.738 98.0061 159.738 98.0064 159.738C98.0066 159.738 98.0069 159.738 98.0071 159.738C98.0074 159.738 98.0077 159.738 98.0079 159.738C98.0082 159.738 98.0085 159.738 98.0087 159.738C98.009 159.738 98.0092 159.738 98.0095 159.738C98.0098 159.738 98.01 159.738 98.0103 159.738C98.0106 159.738 98.0108 159.738 98.0111 159.738C98.0114 159.738 98.0116 159.738 98.0119 159.738C98.0122 159.738 98.0124 159.738 98.0127 159.738C98.0129 159.738 98.0132 159.738 98.0135 159.738C98.0137 159.738 98.014 159.738 98.0143 159.738C98.0145 159.738 98.0148 159.738 98.0151 159.738C98.0153 159.738 98.0156 159.738 98.0159 159.738C98.0161 159.738 98.0164 159.738 98.0167 159.738C98.017 159.738 98.0172 159.738 98.0175 159.738C98.0178 159.738 98.018 159.738 98.0183 159.738C98.0186 159.738 98.0188 159.738 98.0191 159.738C98.0194 159.738 98.0196 159.738 98.0199 159.738C98.0202 159.738 98.0205 159.738 98.0207 159.738C98.021 159.738 98.0213 159.738 98.0215 159.738C98.0218 159.738 98.0221 159.738 98.0223 159.738C98.0226 159.738 98.0229 159.738 98.0232 159.738C98.0234 159.738 98.0237 159.738 98.024 159.738C98.0243 159.738 98.0245 159.738 98.0248 159.738C98.0251 159.738 98.0253 159.738 98.0256 159.738C98.0259 159.738 98.0262 159.738 98.0264 159.738C98.0267 159.738 98.027 159.738 98.0273 159.738C98.0275 159.738 98.0278 159.738 98.0281 159.738C98.0284 159.738 98.0286 159.738 98.0289 159.738C98.0292 159.738 98.0295 159.738 98.0297 159.738C98.03 159.738 98.0303 159.738 98.0306 159.738C98.0308 159.738 98.0311 159.738 98.0314 159.738C98.0317 159.738 98.0319 159.738 98.0322 159.738C98.0325 159.738 98.0328 159.738 98.0331 159.738C98.0333 159.738 98.0336 159.738 98.0339 159.738C98.0342 159.738 98.0344 159.738 98.0347 159.738C98.035 159.738 98.0353 159.738 98.0356 159.738C98.0358 159.738 98.0361 159.738 98.0364 159.738C98.0367 159.738 98.0369 159.738 98.0372 159.738C98.0375 159.738 98.0378 159.738 98.0381 159.738C98.0383 159.738 98.0386 159.738 98.0389 159.738C98.0392 159.738 98.0395 159.738 98.0397 159.738C98.04 159.738 98.0403 159.738 98.0406 159.738C98.0409 159.738 98.0412 159.738 98.0414 159.738C98.0417 159.738 98.042 159.738 98.0423 159.738C98.0426 159.738 98.0428 159.738 98.0431 159.738C98.0434 159.738 98.0437 159.738 98.044 159.738C98.0443 159.738 98.0445 159.738 98.0448 159.738C98.0451 159.738 98.0454 159.738 98.0457 159.738C98.046 159.738 98.0462 159.738 98.0465 159.738C98.0468 159.738 98.0471 159.738 98.0474 159.738C98.0477 159.738 98.0479 159.738 98.0482 159.738C98.0485 159.738 98.0488 159.738 98.0491 159.738C98.0494 159.738 98.0497 159.738 98.0499 159.738C98.0502 159.738 98.0505 159.738 98.0508 159.738C98.0511 159.738 98.0514 159.738 98.0517 159.738C98.0519 159.738 98.0522 159.738 98.0525 159.738C98.0528 159.738 98.0531 159.738 98.0534 159.738C98.0537 159.738 98.0539 159.738 98.0542 159.738C98.0545 159.738 98.0548 159.738 98.0551 159.738C98.0554 159.738 98.0557 159.738 98.056 159.738C98.0562 159.738 98.0565 159.738 98.0568 159.738C98.0571 159.738 98.0574 159.738 98.0577 159.738C98.058 159.738 98.0583 159.738 98.0586 159.738C98.0588 159.738 98.0591 159.738 98.0594 159.738C98.0597 159.738 98.06 159.738 98.0603 159.738C98.0606 159.738 98.0609 159.738 98.0612 159.738C98.0615 159.738 98.0617 159.738 98.062 159.738C98.0623 159.738 98.0626 159.738 98.0629 159.738C98.0632 159.738 98.0635 159.738 98.0638 159.738C98.0641 159.738 98.0644 159.738 98.0646 159.738C98.0649 159.738 98.0652 159.738 98.0655 159.738C98.0658 159.738 98.0661 159.738 98.0664 159.738C98.0667 159.738 98.067 159.738 98.0673 159.738C98.0676 159.738 98.0679 159.738 98.0682 159.738C98.0684 159.738 98.0687 159.738 98.069 159.738C98.0693 159.738 98.0696 159.738 98.0699 159.738C98.0702 159.738 98.0705 159.738 98.0708 159.738C98.0711 159.738 98.0714 159.738 98.0717 159.738C98.072 159.738 98.0723 159.738 98.0726 159.738C98.0728 159.738 98.0731 159.738 98.0734 159.738C98.0737 159.738 98.074 159.738 98.0743 159.738C98.0746 159.738 98.0749 159.738 98.0752 159.738C98.0755 159.738 98.0758 159.738 98.0761 159.738C98.0764 159.738 98.0767 159.738 98.077 159.738C98.0773 159.738 98.0776 159.738 98.0779 159.738C98.0782 159.738 98.0785 159.738 98.0787 159.738C98.079 159.738 98.0793 159.738 98.0796 159.738C98.0799 159.738 98.0802 159.738 98.0805 159.738C98.0808 159.738 98.0811 159.738 98.0814 159.738C98.0817 159.738 98.082 159.738 98.0823 159.738C98.0826 159.738 98.0829 159.738 98.0832 159.738C98.0835 159.738 98.0838 159.738 98.0841 159.738C98.0844 159.738 98.0847 159.738 98.085 159.738C98.0853 159.738 98.0856 159.738 98.0859 159.738C98.0862 159.738 98.0865 159.738 98.0868 159.738C98.0871 159.738 98.0874 159.738 98.0877 159.738C98.088 159.738 98.0883 159.738 98.0886 159.738C98.0889 159.738 98.0892 159.738 98.0895 159.738C98.0898 159.738 98.0901 159.738 98.0904 159.738C98.0907 159.738 98.091 159.738 98.0913 159.738C98.0916 159.738 98.0919 159.738 98.0922 159.738C98.0925 159.738 98.0928 159.738 98.0931 159.738C98.0934 159.738 98.0937 159.738 98.094 159.738C98.0943 159.738 98.0946 159.738 98.0949 159.738C98.0952 159.738 98.0955 159.738 98.0958 159.738C98.0961 159.738 98.0964 159.738 98.0967 159.738C98.097 159.738 98.0973 159.738 98.0976 159.738C98.0979 159.738 98.0982 159.738 98.0985 159.738C98.0988 159.738 98.0991 159.738 98.0994 159.738C98.0997 159.738 98.1 159.738 98.1003 159.738C98.1006 159.738 98.1009 159.738 98.1012 159.738C98.1015 159.738 98.1018 159.738 98.1021 159.738C98.1024 159.738 98.1027 159.738 98.103 159.738C98.1033 159.738 98.1036 159.738 98.1039 159.738C98.1042 159.738 98.1045 159.738 98.1048 159.738C98.1051 159.738 98.1054 159.738 98.1057 159.738C98.106 159.738 98.1063 159.738 98.1066 159.738C98.1069 159.738 98.1072 159.738 98.1075 159.738C98.1078 159.738 98.1081 159.738 98.1084 159.738C98.1087 159.738 98.109 159.738 98.1093 159.738C98.1096 159.738 98.1099 159.738 98.1103 159.738C98.1106 159.738 98.1109 159.738 98.1112 159.738C98.1115 159.738 98.1118 159.738 98.1121 159.738C98.1124 159.738 98.1127 159.738 98.113 159.738C98.1133 159.738 98.1136 159.738 98.1139 159.738C98.1142 159.738 98.1145 159.738 98.1148 159.738C98.1151 159.738 98.1154 159.738 98.1157 159.738C98.116 159.738 98.1163 159.738 98.1166 159.738C98.1169 159.738 98.1172 159.738 98.1176 159.738C98.1179 159.738 98.1182 159.738 98.1185 159.738C98.1188 159.738 98.1191 159.738 98.1194 159.738C98.1197 159.738 98.12 159.738 98.1203 159.738C98.1206 159.738 98.1209 159.738 98.1212 159.738C98.1215 159.738 98.1218 159.738 98.1221 159.738C98.1224 159.738 98.1227 159.738 98.123 159.738C98.1233 159.738 98.1237 159.738 98.124 159.738C98.1243 159.738 98.1246 159.738 98.1249 159.738C98.1252 159.738 98.1255 159.738 98.1258 159.738C98.1261 159.738 98.1264 159.738 98.1267 159.738C98.127 159.738 98.1273 159.738 98.1276 159.738C98.1279 159.738 98.1282 159.738 98.1285 159.738C98.1289 159.738 98.1292 159.738 98.1295 159.738C98.1298 159.738 98.1301 159.738 98.1304 159.738C98.1307 159.738 98.131 159.738 98.1313 159.738C98.1316 159.738 98.1319 159.738 98.1322 159.738C98.1325 159.738 98.1328 159.738 98.1331 159.738C98.1334 159.738 98.1338 159.738 98.1341 159.738C98.1344 159.738 98.1347 159.738 98.135 159.738C98.1353 159.738 98.1356 159.738 98.1359 159.738C98.1362 159.738 98.1365 159.738 98.1368 159.738C98.1371 159.738 98.1374 159.738 98.1377 159.738C98.138 159.738 98.1384 159.738 98.1387 159.738C98.139 159.738 98.1393 159.738 98.1396 159.738C98.1399 159.738 98.1402 159.738 98.1405 159.738C98.1408 159.738 98.1411 159.738 98.1414 159.738C98.1417 159.738 98.142 159.738 98.1423 159.738C98.1427 159.738 98.143 159.738 98.1433 159.738C98.1436 159.738 98.1439 159.738 98.1442 159.738C98.1445 159.738 98.1448 159.738 98.1451 159.738C98.1454 159.738 98.1457 159.738 98.146 159.738C98.1463 159.738 98.1466 159.738 98.147 159.738C98.1473 159.738 98.1476 159.738 98.1479 159.738C98.1482 159.738 98.1485 159.738 98.1488 159.738C98.1491 159.738 98.1494 159.738 98.1497 159.738C98.15 159.738 98.1503 159.738 98.1506 159.738C98.1509 159.738 98.1513 159.738 98.1516 159.738C98.1519 159.738 98.1522 159.738 98.1525 159.738C98.1528 159.738 98.1531 159.738 98.1534 159.738C98.1537 159.738 98.154 159.738 98.1543 159.738C98.1546 159.738 98.1549 159.738 98.1553 159.738C98.1556 159.738 98.1559 159.738 98.1562 159.738C98.1565 159.738 98.1568 159.738 98.1571 159.738C98.1574 159.738 98.1577 159.738 98.158 159.738C98.1583 159.738 98.1586 159.738 98.1589 159.738C98.1593 159.738 98.1596 159.738 98.1599 159.738C98.1602 159.738 98.1605 159.738 98.1608 159.738C98.1611 159.738 98.1614 159.738 98.1617 159.738C98.162 159.738 98.1623 159.738 98.1626 159.738C98.1629 159.738 98.1633 159.738 98.1636 159.738C98.1639 159.738 98.1642 159.738 98.1645 159.738C98.1648 159.738 98.1651 159.738 98.1654 159.738C98.1657 159.738 98.166 159.738 98.1663 159.738C98.1666 159.738 98.1669 159.738 98.1672 159.738C98.1676 159.738 98.1679 159.738 98.1682 159.738C98.1685 159.738 98.1688 159.738 98.1691 159.738C98.1694 159.738 98.1697 159.738 98.17 159.738C98.1703 159.738 98.1706 159.738 98.1709 159.738C98.1712 159.738 98.1715 159.738 98.1719 159.738C98.1722 159.738 98.1725 159.738 98.1728 159.738C98.1731 159.738 98.1734 159.738 98.1737 159.738C98.174 159.738 98.1743 159.738 98.1746 159.738C98.1749 159.738 98.1752 159.738 98.1755 159.738C98.1758 159.738 98.1762 159.738 98.1765 159.738C98.1768 159.738 98.1771 159.738 98.1774 159.738C98.1777 159.738 98.178 159.738 98.1783 159.738C98.1786 159.738 98.1789 159.738 98.1792 159.738C98.1795 159.738 98.1798 159.738 98.1801 159.738C98.1804 159.738 98.1808 159.738 98.1811 159.738C98.1814 159.738 98.1817 159.738 98.182 159.738C98.1823 159.738 98.1826 159.738 98.1829 159.738C98.1832 159.738 98.1835 159.738 98.1838 159.738C98.1841 159.738 98.1844 159.738 98.1847 159.738C98.185 159.738 98.1854 159.738 98.1857 159.738C98.186 159.738 98.1863 159.738 98.1866 159.738C98.1869 159.738 98.1872 159.738 98.1875 159.738C98.1878 159.738 98.1881 159.738 98.1884 159.738C98.1887 159.738 98.189 159.738 98.1893 159.738C98.1896 159.738 98.1899 159.738 98.1902 159.738C98.1905 159.738 98.1909 159.738 98.1912 159.738C98.1915 159.738 98.1918 159.738 98.1921 159.738C98.1924 159.738 98.1927 159.738 98.193 159.738C98.1933 159.738 98.1936 159.738 98.1939 159.738C98.1942 159.738 98.1945 159.738 98.1948 159.738C98.1951 159.738 98.1954 159.738 98.1957 159.738C98.196 159.738 98.1963 159.738 98.1967 159.738C98.197 159.738 98.1973 159.738 98.1976 159.738C98.1979 159.738 98.1982 159.738 98.1985 159.738C98.1988 159.738 98.1991 159.738 98.1994 159.738C98.1997 159.738 98.2 159.738 98.2003 159.738C98.2006 159.738 98.2009 159.738 98.2012 159.738C98.2015 159.738 98.2018 159.738 98.2021 159.738C98.2024 159.738 98.2027 159.738 98.203 159.738C98.2033 159.738 98.2036 159.738 98.2039 159.738C98.2043 159.738 98.2046 159.738 98.2049 159.738C98.2052 159.738 98.2055 159.738 98.2058 159.738C98.2061 159.738 98.2064 159.738 98.2067 159.738C98.207 159.738 98.2073 159.738 98.2076 159.738C98.2079 159.738 98.2082 159.738 98.2085 159.738C98.2088 159.738 98.2091 159.738 98.2094 159.738C98.2097 159.738 98.21 159.738 98.2103 159.738C98.2106 159.738 98.2109 159.738 98.2112 159.738C98.2115 159.738 98.2118 159.738 98.2121 159.738C98.2124 159.738 98.2127 159.738 98.213 159.738C98.2133 159.738 98.2136 159.738 98.2139 159.738C98.2142 159.738 98.2145 159.738 98.2148 159.738C98.2151 159.738 98.2154 159.738 98.2157 159.738C98.216 159.738 98.2163 159.738 98.2166 159.738C98.2169 159.738 98.2172 159.738 98.2175 159.738C98.2178 159.738 98.2181 159.738 98.2184 159.738C98.2187 159.738 98.219 159.738 98.2193 159.738C98.2196 159.738 98.2199 159.738 98.2203 159.738C98.2206 159.738 98.2209 159.738 98.2212 159.738C98.2215 159.738 98.2217 159.738 98.222 159.738C98.2223 159.738 98.2226 159.738 98.2229 159.738C98.2232 159.738 98.2235 159.738 98.2238 159.738C98.2241 159.738 98.2244 159.738 98.2247 159.738C98.225 159.738 98.2253 159.738 98.2256 159.738C98.2259 159.738 98.2262 159.738 98.2265 159.738C98.2268 159.738 98.2271 159.738 98.2274 159.738C98.2277 159.738 98.228 159.738 98.2283 159.738C98.2286 159.738 98.2289 159.738 98.2292 159.738C98.2295 159.738 98.2298 159.738 98.2301 159.738C98.2304 159.738 98.2307 159.738 98.231 159.738C98.2313 159.738 98.2316 159.738 98.2319 159.738C98.2322 159.738 98.2325 159.738 98.2328 159.738C98.2331 159.738 98.2334 159.738 98.2337 159.738C98.234 159.738 98.2343 159.738 98.2346 159.738C98.2349 159.738 98.2352 159.738 98.2355 159.738C98.2358 159.738 98.236 159.738 98.2363 159.738C98.2366 159.738 98.2369 159.738 98.2372 159.738C98.2375 159.738 98.2378 159.738 98.2381 159.738C98.2384 159.738 98.2387 159.738 98.239 159.738C98.2393 159.738 98.2396 159.738 98.2399 159.738C98.2402 159.738 98.2405 159.738 98.2408 159.738C98.2411 159.738 98.2414 159.738 98.2416 159.738C98.2419 159.738 98.2422 159.738 98.2425 159.738C98.2428 159.738 98.2431 159.738 98.2434 159.738C98.2437 159.738 98.244 159.738 98.2443 159.738C98.2446 159.738 98.2449 159.738 98.2452 159.738C98.2455 159.738 98.2458 159.738 98.246 159.738C98.2463 159.738 98.2466 159.738 98.2469 159.738C98.2472 159.738 98.2475 159.738 98.2478 159.738C98.2481 159.738 98.2484 159.738 98.2487 159.738C98.249 159.738 98.2493 159.738 98.2496 159.738C98.2498 159.738 98.2501 159.738 98.2504 159.738C98.2507 159.738 98.251 159.738 98.2513 159.738C98.2516 159.738 98.2519 159.738 98.2522 159.738C98.2525 159.738 98.2527 159.738 98.253 159.738C98.2533 159.738 98.2536 159.738 98.2539 159.738C98.2542 159.738 98.2545 159.738 98.2548 159.738C98.2551 159.738 98.2554 159.738 98.2556 159.738C98.2559 159.738 98.2562 159.738 98.2565 159.738C98.2568 159.738 98.2571 159.738 98.2574 159.738C98.2577 159.738 98.258 159.738 98.2582 159.738C98.2585 159.738 98.2588 159.738 98.2591 159.738C98.2594 159.738 98.2597 159.738 98.26 159.738C98.2603 159.738 98.2605 159.738 98.2608 159.738C98.2611 159.738 98.2614 159.738 98.2617 159.738C98.262 159.738 98.2623 159.738 98.2625 159.738C98.2628 159.738 98.2631 159.738 98.2634 159.738C98.2637 159.738 98.264 159.738 98.2643 159.738C98.2645 159.738 98.2648 159.738 98.2651 159.738C98.2654 159.738 98.2657 159.738 98.266 159.738C98.2663 159.738 98.2665 159.738 98.2668 159.738C98.2671 159.738 98.2674 159.738 98.2677 159.738C98.268 159.738 98.2682 159.738 98.2685 159.738C98.2688 159.738 98.2691 159.738 98.2694 159.738C98.2697 159.738 98.2699 159.738 98.2702 159.738C98.2705 159.738 98.2708 159.738 98.2711 159.738C98.2714 159.738 98.2716 159.738 98.2719 159.738C98.2722 159.738 98.2725 159.738 98.2728 159.738C98.273 159.738 98.2733 159.738 98.2736 159.738C98.2739 159.738 98.2742 159.738 98.2745 159.738C98.2747 159.738 98.275 159.738 98.2753 159.738C98.2756 159.738 98.2759 159.738 98.2761 159.738C98.2764 159.738 98.2767 159.738 98.277 159.738C98.2773 159.738 98.2775 159.738 98.2778 159.738C98.2781 159.738 98.2784 159.738 98.2786 159.738C98.2789 159.738 98.2792 159.738 98.2795 159.738C98.2798 159.738 98.28 159.738 98.2803 159.738C98.2806 159.738 98.2809 159.738 98.2811 159.738C98.2814 159.738 98.2817 159.738 98.282 159.738C98.2823 159.738 98.2825 159.738 98.2828 159.738C98.2831 159.738 98.2834 159.738 98.2836 159.738C98.2839 159.738 98.2842 159.738 98.2845 159.738C98.2847 159.738 98.285 159.738 98.2853 159.738C98.2856 159.738 98.2858 159.738 98.2861 159.738C98.2864 159.738 98.2867 159.738 98.2869 159.738C98.2872 159.738 98.2875 159.738 98.2878 159.738C98.288 159.738 98.2883 159.738 98.2886 159.738C98.2889 159.738 98.2891 159.738 98.2894 159.738C98.2897 159.738 98.2899 159.738 98.2902 159.738C98.2905 159.738 98.2908 159.738 98.291 159.738C98.2913 159.738 98.2916 159.738 98.2919 159.738C98.2921 159.738 98.2924 159.738 98.2927 159.738C98.2929 159.738 98.2932 159.738 98.2935 159.738C98.2937 159.738 98.294 159.738 98.2943 159.738C98.2946 159.738 98.2948 159.738 98.2951 159.738C98.2954 159.738 98.2956 159.738 98.2959 159.738C98.2962 159.738 98.2964 159.738 98.2967 159.738C98.297 159.738 98.2972 159.738 98.2975 159.738C98.2978 159.738 98.2981 159.738 98.2983 159.738C98.2986 159.738 98.2989 159.738 98.2991 159.738C98.2994 159.738 98.2997 159.738 98.2999 159.738C98.3002 159.738 98.3005 159.738 98.3007 159.738C98.301 159.738 98.3013 159.738 98.3015 159.738C98.3018 159.738 98.302 159.738 98.3023 159.738C98.3026 159.738 98.3028 159.738 98.3031 159.738C98.3034 159.738 98.3036 159.738 98.3039 159.738C98.3042 159.738 98.3044 159.738 98.3047 159.738C98.305 159.738 98.3052 159.738 98.3055 159.738C98.3057 159.738 98.306 159.738 98.3063 159.738C98.3065 159.738 98.3068 159.738 98.3071 159.738C98.3073 159.738 98.3076 159.738 98.3078 159.738C98.3081 159.738 98.3084 159.738 98.3086 159.738C98.3089 159.738 98.3091 159.738 98.3094 159.738C98.3097 159.738 98.3099 159.738 98.3102 159.738C98.3104 159.738 98.3107 159.738 98.311 159.738C98.3112 159.738 98.3115 159.738 98.3117 159.738C98.312 159.738 98.3123 159.738 98.3125 159.738C98.3128 159.738 98.313 159.738 98.3133 159.738C98.3135 159.738 98.3138 159.738 98.3141 159.738C98.3143 159.738 98.3146 159.738 98.3148 159.738C98.3151 159.738 98.3153 159.738 98.3156 159.738C98.3158 159.738 98.3161 159.738 98.3164 159.738C98.3166 159.738 98.3169 159.738 98.3171 159.738C98.3174 159.738 98.3176 159.738 98.3179 159.738C98.3181 159.738 98.3184 159.738 98.3186 159.738C98.3189 159.738 98.3192 159.738 98.3194 159.738C98.3197 159.738 98.3199 159.738 98.3202 159.738C98.3204 159.738 98.3207 159.738 98.3209 159.738C98.3212 159.738 98.3214 159.738 98.3217 159.738C98.3219 159.738 98.3222 159.738 98.3224 159.738C98.3227 159.738 98.3229 159.738 98.3232 159.738C98.3234 159.738 98.3237 159.738 98.3239 159.738C98.3242 159.738 98.3244 159.738 98.3247 159.738C98.3249 159.738 98.3252 159.738 98.3254 159.738C98.3257 159.738 98.3259 159.738 98.3262 159.738C98.3264 159.738 98.3267 159.738 98.3269 159.738C98.3272 159.738 98.3274 159.738 98.3276 159.738C98.3279 159.738 98.3281 159.738 98.3284 159.738C98.3286 159.738 98.3289 159.738 98.3291 159.738C98.3294 159.738 98.3296 159.738 98.3299 159.738C98.3301 159.738 98.3303 159.738 98.3306 159.738C98.3308 159.738 98.3311 159.738 98.3313 159.738C98.3316 159.738 98.3318 159.738 98.332 159.738C98.3323 159.738 98.3325 159.738 98.3328 159.738C98.333 159.738 98.3333 159.738 98.3335 159.738C98.3337 159.738 98.334 159.738 98.3342 159.738C98.3345 159.738 98.3347 159.738 98.3349 159.738C98.3352 159.738 98.3354 159.738 98.3357 159.738C98.3359 159.738 98.3361 159.738 98.3364 159.738C98.3366 159.738 98.3368 159.738 98.3371 159.738C98.3373 159.738 98.3376 159.738 98.3378 159.738C98.338 159.738 98.3383 159.738 98.3385 159.738C98.3387 159.738 98.339 159.738 98.3392 159.738C98.3395 159.738 98.3397 159.738 98.3399 159.738C98.3402 159.738 98.3404 159.738 98.3406 159.738C98.3409 159.738 98.3411 159.738 98.3413 159.738C98.3416 159.738 98.3418 159.738 98.342 159.738C98.3423 159.738 98.3425 159.738 98.3427 159.738C98.343 159.738 98.3432 159.738 98.3434 159.738C98.3437 159.738 98.3439 159.738 98.3441 159.738C98.3444 159.738 98.3446 159.738 98.3448 159.738C98.345 159.738 98.3453 159.738 98.3455 159.738C98.3457 159.738 98.346 159.738 98.3462 159.738C98.3464 159.738 98.3467 159.738 98.3469 159.738C98.3471 159.738 98.3473 159.738 98.3476 159.738C98.3478 159.738 98.348 159.738 98.3482 159.738C98.3485 159.738 98.3487 159.738 98.3489 159.738C98.3492 159.738 98.3494 159.738 98.3496 159.738C98.3498 159.738 98.3501 159.738 98.3503 159.738C98.3505 159.738 98.3507 159.738 98.351 159.738C98.3512 159.738 98.3514 159.738 98.3516 159.738C98.3518 159.738 98.3521 159.738 98.3523 159.738C98.3525 159.738 98.3527 159.738 98.353 159.738C98.3532 159.738 98.3534 159.738 98.3536 159.738C98.3538 159.738 98.3541 159.738 98.3543 159.738C98.3545 159.738 98.3547 159.738 98.3549 159.738C98.3552 159.738 98.3554 159.738 98.3556 159.738C98.3558 159.738 98.356 159.738 98.3563 159.738C98.3565 159.738 98.3567 159.738 98.3569 159.738C98.3571 159.738 98.3573 159.738 98.3576 159.738C98.3578 159.738 98.358 159.738 98.3582 159.738C98.3584 159.738 98.3586 159.738 98.3589 159.738C98.3591 159.738 98.3593 159.738 98.3595 159.738C98.3597 159.738 98.3599 159.738 98.3601 159.738C98.3604 159.738 98.3606 159.738 98.3608 159.738C98.361 159.738 98.3612 159.738 98.3614 159.738C98.3616 159.738 98.3618 159.738 98.3621 159.738C98.3623 159.738 98.3625 159.738 98.3627 159.738C98.3629 159.738 98.3631 159.738 98.3633 159.738C98.3635 159.738 98.3637 159.738 98.364 159.738C98.3642 159.738 98.3644 159.738 98.3646 159.738C98.3648 159.738 98.365 159.738 98.3652 159.738C98.3654 159.738 98.3656 159.738 98.3658 159.738C98.366 159.738 98.3662 159.738 98.3664 159.738C98.3666 159.738 98.3669 159.738 98.3671 159.738V157.738C98.3669 157.738 98.3666 157.738 98.3664 157.738C98.3662 157.738 98.366 157.738 98.3658 157.738C98.3656 157.738 98.3654 157.738 98.3652 157.738C98.365 157.738 98.3648 157.738 98.3646 157.738C98.3644 157.738 98.3642 157.738 98.364 157.738C98.3637 157.738 98.3635 157.738 98.3633 157.738C98.3631 157.738 98.3629 157.738 98.3627 157.738C98.3625 157.738 98.3623 157.738 98.3621 157.738C98.3618 157.738 98.3616 157.738 98.3614 157.738C98.3612 157.738 98.361 157.738 98.3608 157.738C98.3606 157.738 98.3604 157.738 98.3601 157.738C98.3599 157.738 98.3597 157.738 98.3595 157.738C98.3593 157.738 98.3591 157.738 98.3589 157.738C98.3586 157.738 98.3584 157.738 98.3582 157.738C98.358 157.738 98.3578 157.738 98.3576 157.738C98.3573 157.738 98.3571 157.738 98.3569 157.738C98.3567 157.738 98.3565 157.738 98.3563 157.738C98.356 157.738 98.3558 157.738 98.3556 157.738C98.3554 157.738 98.3552 157.738 98.3549 157.738C98.3547 157.738 98.3545 157.738 98.3543 157.738C98.3541 157.738 98.3538 157.738 98.3536 157.738C98.3534 157.738 98.3532 157.738 98.353 157.738C98.3527 157.738 98.3525 157.738 98.3523 157.738C98.3521 157.738 98.3518 157.738 98.3516 157.738C98.3514 157.738 98.3512 157.738 98.351 157.738C98.3507 157.738 98.3505 157.738 98.3503 157.738C98.3501 157.738 98.3498 157.738 98.3496 157.738C98.3494 157.738 98.3492 157.738 98.3489 157.738C98.3487 157.738 98.3485 157.738 98.3482 157.738C98.348 157.738 98.3478 157.738 98.3476 157.738C98.3473 157.738 98.3471 157.738 98.3469 157.738C98.3467 157.738 98.3464 157.738 98.3462 157.738C98.346 157.738 98.3457 157.738 98.3455 157.738C98.3453 157.738 98.345 157.738 98.3448 157.738C98.3446 157.738 98.3444 157.738 98.3441 157.738C98.3439 157.738 98.3437 157.738 98.3434 157.738C98.3432 157.738 98.343 157.738 98.3427 157.738C98.3425 157.738 98.3423 157.738 98.342 157.738C98.3418 157.738 98.3416 157.738 98.3413 157.738C98.3411 157.738 98.3409 157.738 98.3406 157.738C98.3404 157.738 98.3402 157.738 98.3399 157.738C98.3397 157.738 98.3395 157.738 98.3392 157.738C98.339 157.738 98.3387 157.738 98.3385 157.738C98.3383 157.738 98.338 157.738 98.3378 157.738C98.3376 157.738 98.3373 157.738 98.3371 157.738C98.3368 157.738 98.3366 157.738 98.3364 157.738C98.3361 157.738 98.3359 157.738 98.3357 157.738C98.3354 157.738 98.3352 157.738 98.3349 157.738C98.3347 157.738 98.3345 157.738 98.3342 157.738C98.334 157.738 98.3337 157.738 98.3335 157.738C98.3333 157.738 98.333 157.738 98.3328 157.738C98.3325 157.738 98.3323 157.738 98.332 157.738C98.3318 157.738 98.3316 157.738 98.3313 157.738C98.3311 157.738 98.3308 157.738 98.3306 157.738C98.3303 157.738 98.3301 157.738 98.3299 157.738C98.3296 157.738 98.3294 157.738 98.3291 157.738C98.3289 157.738 98.3286 157.738 98.3284 157.738C98.3281 157.738 98.3279 157.738 98.3276 157.738C98.3274 157.738 98.3272 157.738 98.3269 157.738C98.3267 157.738 98.3264 157.738 98.3262 157.738C98.3259 157.738 98.3257 157.738 98.3254 157.738C98.3252 157.738 98.3249 157.738 98.3247 157.738C98.3244 157.738 98.3242 157.738 98.3239 157.738C98.3237 157.738 98.3234 157.738 98.3232 157.738C98.3229 157.738 98.3227 157.738 98.3224 157.738C98.3222 157.738 98.3219 157.738 98.3217 157.738C98.3214 157.738 98.3212 157.738 98.3209 157.738C98.3207 157.738 98.3204 157.738 98.3202 157.738C98.3199 157.738 98.3197 157.738 98.3194 157.738C98.3192 157.738 98.3189 157.738 98.3186 157.738C98.3184 157.738 98.3181 157.738 98.3179 157.738C98.3176 157.738 98.3174 157.738 98.3171 157.738C98.3169 157.738 98.3166 157.738 98.3164 157.738C98.3161 157.738 98.3158 157.738 98.3156 157.738C98.3153 157.738 98.3151 157.738 98.3148 157.738C98.3146 157.738 98.3143 157.738 98.3141 157.738C98.3138 157.738 98.3135 157.738 98.3133 157.738C98.313 157.738 98.3128 157.738 98.3125 157.738C98.3123 157.738 98.312 157.738 98.3117 157.738C98.3115 157.738 98.3112 157.738 98.311 157.738C98.3107 157.738 98.3104 157.738 98.3102 157.738C98.3099 157.738 98.3097 157.738 98.3094 157.738C98.3091 157.738 98.3089 157.738 98.3086 157.738C98.3084 157.738 98.3081 157.738 98.3078 157.738C98.3076 157.738 98.3073 157.738 98.3071 157.738C98.3068 157.738 98.3065 157.738 98.3063 157.738C98.306 157.738 98.3057 157.738 98.3055 157.738C98.3052 157.738 98.305 157.738 98.3047 157.738C98.3044 157.738 98.3042 157.738 98.3039 157.738C98.3036 157.738 98.3034 157.738 98.3031 157.738C98.3028 157.738 98.3026 157.738 98.3023 157.738C98.302 157.738 98.3018 157.738 98.3015 157.738C98.3013 157.738 98.301 157.738 98.3007 157.738C98.3005 157.738 98.3002 157.738 98.2999 157.738C98.2997 157.738 98.2994 157.738 98.2991 157.738C98.2989 157.738 98.2986 157.738 98.2983 157.738C98.2981 157.738 98.2978 157.738 98.2975 157.738C98.2972 157.738 98.297 157.738 98.2967 157.738C98.2964 157.738 98.2962 157.738 98.2959 157.738C98.2956 157.738 98.2954 157.738 98.2951 157.738C98.2948 157.738 98.2946 157.738 98.2943 157.738C98.294 157.738 98.2937 157.738 98.2935 157.738C98.2932 157.738 98.2929 157.738 98.2927 157.738C98.2924 157.738 98.2921 157.738 98.2919 157.738C98.2916 157.738 98.2913 157.738 98.291 157.738C98.2908 157.738 98.2905 157.738 98.2902 157.738C98.2899 157.738 98.2897 157.738 98.2894 157.738C98.2891 157.738 98.2889 157.738 98.2886 157.738C98.2883 157.738 98.288 157.738 98.2878 157.738C98.2875 157.738 98.2872 157.738 98.2869 157.738C98.2867 157.738 98.2864 157.738 98.2861 157.738C98.2858 157.738 98.2856 157.738 98.2853 157.738C98.285 157.738 98.2847 157.738 98.2845 157.738C98.2842 157.738 98.2839 157.738 98.2836 157.738C98.2834 157.738 98.2831 157.738 98.2828 157.738C98.2825 157.738 98.2823 157.738 98.282 157.738C98.2817 157.738 98.2814 157.738 98.2811 157.738C98.2809 157.738 98.2806 157.738 98.2803 157.738C98.28 157.738 98.2798 157.738 98.2795 157.738C98.2792 157.738 98.2789 157.738 98.2786 157.738C98.2784 157.738 98.2781 157.738 98.2778 157.738C98.2775 157.738 98.2773 157.738 98.277 157.738C98.2767 157.738 98.2764 157.738 98.2761 157.738C98.2759 157.738 98.2756 157.738 98.2753 157.738C98.275 157.738 98.2747 157.738 98.2745 157.738C98.2742 157.738 98.2739 157.738 98.2736 157.738C98.2733 157.738 98.273 157.738 98.2728 157.738C98.2725 157.738 98.2722 157.738 98.2719 157.738C98.2716 157.738 98.2714 157.738 98.2711 157.738C98.2708 157.738 98.2705 157.738 98.2702 157.738C98.2699 157.738 98.2697 157.738 98.2694 157.738C98.2691 157.738 98.2688 157.738 98.2685 157.738C98.2682 157.738 98.268 157.738 98.2677 157.738C98.2674 157.738 98.2671 157.738 98.2668 157.738C98.2665 157.738 98.2663 157.738 98.266 157.738C98.2657 157.738 98.2654 157.738 98.2651 157.738C98.2648 157.738 98.2645 157.738 98.2643 157.738C98.264 157.738 98.2637 157.738 98.2634 157.738C98.2631 157.738 98.2628 157.738 98.2625 157.738C98.2623 157.738 98.262 157.738 98.2617 157.738C98.2614 157.738 98.2611 157.738 98.2608 157.738C98.2605 157.738 98.2603 157.738 98.26 157.738C98.2597 157.738 98.2594 157.738 98.2591 157.738C98.2588 157.738 98.2585 157.738 98.2582 157.738C98.258 157.738 98.2577 157.738 98.2574 157.738C98.2571 157.738 98.2568 157.738 98.2565 157.738C98.2562 157.738 98.2559 157.738 98.2556 157.738C98.2554 157.738 98.2551 157.738 98.2548 157.738C98.2545 157.738 98.2542 157.738 98.2539 157.738C98.2536 157.738 98.2533 157.738 98.253 157.738C98.2527 157.738 98.2525 157.738 98.2522 157.738C98.2519 157.738 98.2516 157.738 98.2513 157.738C98.251 157.738 98.2507 157.738 98.2504 157.738C98.2501 157.738 98.2498 157.738 98.2496 157.738C98.2493 157.738 98.249 157.738 98.2487 157.738C98.2484 157.738 98.2481 157.738 98.2478 157.738C98.2475 157.738 98.2472 157.738 98.2469 157.738C98.2466 157.738 98.2463 157.738 98.246 157.738C98.2458 157.738 98.2455 157.738 98.2452 157.738C98.2449 157.738 98.2446 157.738 98.2443 157.738C98.244 157.738 98.2437 157.738 98.2434 157.738C98.2431 157.738 98.2428 157.738 98.2425 157.738C98.2422 157.738 98.2419 157.738 98.2416 157.738C98.2414 157.738 98.2411 157.738 98.2408 157.738C98.2405 157.738 98.2402 157.738 98.2399 157.738C98.2396 157.738 98.2393 157.738 98.239 157.738C98.2387 157.738 98.2384 157.738 98.2381 157.738C98.2378 157.738 98.2375 157.738 98.2372 157.738C98.2369 157.738 98.2366 157.738 98.2363 157.738C98.236 157.738 98.2358 157.738 98.2355 157.738C98.2352 157.738 98.2349 157.738 98.2346 157.738C98.2343 157.738 98.234 157.738 98.2337 157.738C98.2334 157.738 98.2331 157.738 98.2328 157.738C98.2325 157.738 98.2322 157.738 98.2319 157.738C98.2316 157.738 98.2313 157.738 98.231 157.738C98.2307 157.738 98.2304 157.738 98.2301 157.738C98.2298 157.738 98.2295 157.738 98.2292 157.738C98.2289 157.738 98.2286 157.738 98.2283 157.738C98.228 157.738 98.2277 157.738 98.2274 157.738C98.2271 157.738 98.2268 157.738 98.2265 157.738C98.2262 157.738 98.2259 157.738 98.2256 157.738C98.2253 157.738 98.225 157.738 98.2247 157.738C98.2244 157.738 98.2241 157.738 98.2238 157.738C98.2235 157.738 98.2232 157.738 98.2229 157.738C98.2226 157.738 98.2223 157.738 98.222 157.738C98.2217 157.738 98.2215 157.738 98.2212 157.738C98.2209 157.738 98.2206 157.738 98.2203 157.738C98.2199 157.738 98.2196 157.738 98.2193 157.738C98.219 157.738 98.2187 157.738 98.2184 157.738C98.2181 157.738 98.2178 157.738 98.2175 157.738C98.2172 157.738 98.2169 157.738 98.2166 157.738C98.2163 157.738 98.216 157.738 98.2157 157.738C98.2154 157.738 98.2151 157.738 98.2148 157.738C98.2145 157.738 98.2142 157.738 98.2139 157.738C98.2136 157.738 98.2133 157.738 98.213 157.738C98.2127 157.738 98.2124 157.738 98.2121 157.738C98.2118 157.738 98.2115 157.738 98.2112 157.738C98.2109 157.738 98.2106 157.738 98.2103 157.738C98.21 157.738 98.2097 157.738 98.2094 157.738C98.2091 157.738 98.2088 157.738 98.2085 157.738C98.2082 157.738 98.2079 157.738 98.2076 157.738C98.2073 157.738 98.207 157.738 98.2067 157.738C98.2064 157.738 98.2061 157.738 98.2058 157.738C98.2055 157.738 98.2052 157.738 98.2049 157.738C98.2046 157.738 98.2043 157.738 98.2039 157.738C98.2036 157.738 98.2033 157.738 98.203 157.738C98.2027 157.738 98.2024 157.738 98.2021 157.738C98.2018 157.738 98.2015 157.738 98.2012 157.738C98.2009 157.738 98.2006 157.738 98.2003 157.738C98.2 157.738 98.1997 157.738 98.1994 157.738C98.1991 157.738 98.1988 157.738 98.1985 157.738C98.1982 157.738 98.1979 157.738 98.1976 157.738C98.1973 157.738 98.197 157.738 98.1967 157.738C98.1963 157.738 98.196 157.738 98.1957 157.738C98.1954 157.738 98.1951 157.738 98.1948 157.738C98.1945 157.738 98.1942 157.738 98.1939 157.738C98.1936 157.738 98.1933 157.738 98.193 157.738C98.1927 157.738 98.1924 157.738 98.1921 157.738C98.1918 157.738 98.1915 157.738 98.1912 157.738C98.1909 157.738 98.1905 157.738 98.1902 157.738C98.1899 157.738 98.1896 157.738 98.1893 157.738C98.189 157.738 98.1887 157.738 98.1884 157.738C98.1881 157.738 98.1878 157.738 98.1875 157.738C98.1872 157.738 98.1869 157.738 98.1866 157.738C98.1863 157.738 98.186 157.738 98.1857 157.738C98.1854 157.738 98.185 157.738 98.1847 157.738C98.1844 157.738 98.1841 157.738 98.1838 157.738C98.1835 157.738 98.1832 157.738 98.1829 157.738C98.1826 157.738 98.1823 157.738 98.182 157.738C98.1817 157.738 98.1814 157.738 98.1811 157.738C98.1808 157.738 98.1804 157.738 98.1801 157.738C98.1798 157.738 98.1795 157.738 98.1792 157.738C98.1789 157.738 98.1786 157.738 98.1783 157.738C98.178 157.738 98.1777 157.738 98.1774 157.738C98.1771 157.738 98.1768 157.738 98.1765 157.738C98.1762 157.738 98.1758 157.738 98.1755 157.738C98.1752 157.738 98.1749 157.738 98.1746 157.738C98.1743 157.738 98.174 157.738 98.1737 157.738C98.1734 157.738 98.1731 157.738 98.1728 157.738C98.1725 157.738 98.1722 157.738 98.1719 157.738C98.1715 157.738 98.1712 157.738 98.1709 157.738C98.1706 157.738 98.1703 157.738 98.17 157.738C98.1697 157.738 98.1694 157.738 98.1691 157.738C98.1688 157.738 98.1685 157.738 98.1682 157.738C98.1679 157.738 98.1676 157.738 98.1672 157.738C98.1669 157.738 98.1666 157.738 98.1663 157.738C98.166 157.738 98.1657 157.738 98.1654 157.738C98.1651 157.738 98.1648 157.738 98.1645 157.738C98.1642 157.738 98.1639 157.738 98.1636 157.738C98.1633 157.738 98.1629 157.738 98.1626 157.738C98.1623 157.738 98.162 157.738 98.1617 157.738C98.1614 157.738 98.1611 157.738 98.1608 157.738C98.1605 157.738 98.1602 157.738 98.1599 157.738C98.1596 157.738 98.1593 157.738 98.1589 157.738C98.1586 157.738 98.1583 157.738 98.158 157.738C98.1577 157.738 98.1574 157.738 98.1571 157.738C98.1568 157.738 98.1565 157.738 98.1562 157.738C98.1559 157.738 98.1556 157.738 98.1553 157.738C98.1549 157.738 98.1546 157.738 98.1543 157.738C98.154 157.738 98.1537 157.738 98.1534 157.738C98.1531 157.738 98.1528 157.738 98.1525 157.738C98.1522 157.738 98.1519 157.738 98.1516 157.738C98.1513 157.738 98.1509 157.738 98.1506 157.738C98.1503 157.738 98.15 157.738 98.1497 157.738C98.1494 157.738 98.1491 157.738 98.1488 157.738C98.1485 157.738 98.1482 157.738 98.1479 157.738C98.1476 157.738 98.1473 157.738 98.147 157.738C98.1466 157.738 98.1463 157.738 98.146 157.738C98.1457 157.738 98.1454 157.738 98.1451 157.738C98.1448 157.738 98.1445 157.738 98.1442 157.738C98.1439 157.738 98.1436 157.738 98.1433 157.738C98.143 157.738 98.1427 157.738 98.1423 157.738C98.142 157.738 98.1417 157.738 98.1414 157.738C98.1411 157.738 98.1408 157.738 98.1405 157.738C98.1402 157.738 98.1399 157.738 98.1396 157.738C98.1393 157.738 98.139 157.738 98.1387 157.738C98.1384 157.738 98.138 157.738 98.1377 157.738C98.1374 157.738 98.1371 157.738 98.1368 157.738C98.1365 157.738 98.1362 157.738 98.1359 157.738C98.1356 157.738 98.1353 157.738 98.135 157.738C98.1347 157.738 98.1344 157.738 98.1341 157.738C98.1338 157.738 98.1334 157.738 98.1331 157.738C98.1328 157.738 98.1325 157.738 98.1322 157.738C98.1319 157.738 98.1316 157.738 98.1313 157.738C98.131 157.738 98.1307 157.738 98.1304 157.738C98.1301 157.738 98.1298 157.738 98.1295 157.738C98.1292 157.738 98.1289 157.738 98.1285 157.738C98.1282 157.738 98.1279 157.738 98.1276 157.738C98.1273 157.738 98.127 157.738 98.1267 157.738C98.1264 157.738 98.1261 157.738 98.1258 157.738C98.1255 157.738 98.1252 157.738 98.1249 157.738C98.1246 157.738 98.1243 157.738 98.124 157.738C98.1237 157.738 98.1233 157.738 98.123 157.738C98.1227 157.738 98.1224 157.738 98.1221 157.738C98.1218 157.738 98.1215 157.738 98.1212 157.738C98.1209 157.738 98.1206 157.738 98.1203 157.738C98.12 157.738 98.1197 157.738 98.1194 157.738C98.1191 157.738 98.1188 157.738 98.1185 157.738C98.1182 157.738 98.1179 157.738 98.1176 157.738C98.1172 157.738 98.1169 157.738 98.1166 157.738C98.1163 157.738 98.116 157.738 98.1157 157.738C98.1154 157.738 98.1151 157.738 98.1148 157.738C98.1145 157.738 98.1142 157.738 98.1139 157.738C98.1136 157.738 98.1133 157.738 98.113 157.738C98.1127 157.738 98.1124 157.738 98.1121 157.738C98.1118 157.738 98.1115 157.738 98.1112 157.738C98.1109 157.738 98.1106 157.738 98.1103 157.738C98.1099 157.738 98.1096 157.738 98.1093 157.738C98.109 157.738 98.1087 157.738 98.1084 157.738C98.1081 157.738 98.1078 157.738 98.1075 157.738C98.1072 157.738 98.1069 157.738 98.1066 157.738C98.1063 157.738 98.106 157.738 98.1057 157.738C98.1054 157.738 98.1051 157.738 98.1048 157.738C98.1045 157.738 98.1042 157.738 98.1039 157.738C98.1036 157.738 98.1033 157.738 98.103 157.738C98.1027 157.738 98.1024 157.738 98.1021 157.738C98.1018 157.738 98.1015 157.738 98.1012 157.738C98.1009 157.738 98.1006 157.738 98.1003 157.738C98.1 157.738 98.0997 157.738 98.0994 157.738C98.0991 157.738 98.0988 157.738 98.0985 157.738C98.0982 157.738 98.0979 157.738 98.0976 157.738C98.0973 157.738 98.097 157.738 98.0967 157.738C98.0964 157.738 98.0961 157.738 98.0958 157.738C98.0955 157.738 98.0952 157.738 98.0949 157.738C98.0946 157.738 98.0943 157.738 98.094 157.738C98.0937 157.738 98.0934 157.738 98.0931 157.738C98.0928 157.738 98.0925 157.738 98.0922 157.738C98.0919 157.738 98.0916 157.738 98.0913 157.738C98.091 157.738 98.0907 157.738 98.0904 157.738C98.0901 157.738 98.0898 157.738 98.0895 157.738C98.0892 157.738 98.0889 157.738 98.0886 157.738C98.0883 157.738 98.088 157.738 98.0877 157.738C98.0874 157.738 98.0871 157.738 98.0868 157.738C98.0865 157.738 98.0862 157.738 98.0859 157.738C98.0856 157.738 98.0853 157.738 98.085 157.738C98.0847 157.738 98.0844 157.738 98.0841 157.738C98.0838 157.738 98.0835 157.738 98.0832 157.738C98.0829 157.738 98.0826 157.738 98.0823 157.738C98.082 157.738 98.0817 157.738 98.0814 157.738C98.0811 157.738 98.0808 157.738 98.0805 157.738C98.0802 157.738 98.0799 157.738 98.0796 157.738C98.0793 157.738 98.079 157.738 98.0787 157.738C98.0785 157.738 98.0782 157.738 98.0779 157.738C98.0776 157.738 98.0773 157.738 98.077 157.738C98.0767 157.738 98.0764 157.738 98.0761 157.738C98.0758 157.738 98.0755 157.738 98.0752 157.738C98.0749 157.738 98.0746 157.738 98.0743 157.738C98.074 157.738 98.0737 157.738 98.0734 157.738C98.0731 157.738 98.0728 157.738 98.0726 157.738C98.0723 157.738 98.072 157.738 98.0717 157.738C98.0714 157.738 98.0711 157.738 98.0708 157.738C98.0705 157.738 98.0702 157.738 98.0699 157.738C98.0696 157.738 98.0693 157.738 98.069 157.738C98.0687 157.738 98.0684 157.738 98.0682 157.738C98.0679 157.738 98.0676 157.738 98.0673 157.738C98.067 157.738 98.0667 157.738 98.0664 157.738C98.0661 157.738 98.0658 157.738 98.0655 157.738C98.0652 157.738 98.0649 157.738 98.0646 157.738C98.0644 157.738 98.0641 157.738 98.0638 157.738C98.0635 157.738 98.0632 157.738 98.0629 157.738C98.0626 157.738 98.0623 157.738 98.062 157.738C98.0617 157.738 98.0615 157.738 98.0612 157.738C98.0609 157.738 98.0606 157.738 98.0603 157.738C98.06 157.738 98.0597 157.738 98.0594 157.738C98.0591 157.738 98.0588 157.738 98.0586 157.738C98.0583 157.738 98.058 157.738 98.0577 157.738C98.0574 157.738 98.0571 157.738 98.0568 157.738C98.0565 157.738 98.0562 157.738 98.056 157.738C98.0557 157.738 98.0554 157.738 98.0551 157.738C98.0548 157.738 98.0545 157.738 98.0542 157.738C98.0539 157.738 98.0537 157.738 98.0534 157.738C98.0531 157.738 98.0528 157.738 98.0525 157.738C98.0522 157.738 98.0519 157.738 98.0517 157.738C98.0514 157.738 98.0511 157.738 98.0508 157.738C98.0505 157.738 98.0502 157.738 98.0499 157.738C98.0497 157.738 98.0494 157.738 98.0491 157.738C98.0488 157.738 98.0485 157.738 98.0482 157.738C98.0479 157.738 98.0477 157.738 98.0474 157.738C98.0471 157.738 98.0468 157.738 98.0465 157.738C98.0462 157.738 98.046 157.738 98.0457 157.738C98.0454 157.738 98.0451 157.738 98.0448 157.738C98.0445 157.738 98.0443 157.738 98.044 157.738C98.0437 157.738 98.0434 157.738 98.0431 157.738C98.0428 157.738 98.0426 157.738 98.0423 157.738C98.042 157.738 98.0417 157.738 98.0414 157.738C98.0412 157.738 98.0409 157.738 98.0406 157.738C98.0403 157.738 98.04 157.738 98.0397 157.738C98.0395 157.738 98.0392 157.738 98.0389 157.738C98.0386 157.738 98.0383 157.738 98.0381 157.738C98.0378 157.738 98.0375 157.738 98.0372 157.738C98.0369 157.738 98.0367 157.738 98.0364 157.738C98.0361 157.738 98.0358 157.738 98.0356 157.738C98.0353 157.738 98.035 157.738 98.0347 157.738C98.0344 157.738 98.0342 157.738 98.0339 157.738C98.0336 157.738 98.0333 157.738 98.0331 157.738C98.0328 157.738 98.0325 157.738 98.0322 157.738C98.0319 157.738 98.0317 157.738 98.0314 157.738C98.0311 157.738 98.0308 157.738 98.0306 157.738C98.0303 157.738 98.03 157.738 98.0297 157.738C98.0295 157.738 98.0292 157.738 98.0289 157.738C98.0286 157.738 98.0284 157.738 98.0281 157.738C98.0278 157.738 98.0275 157.738 98.0273 157.738C98.027 157.738 98.0267 157.738 98.0264 157.738C98.0262 157.738 98.0259 157.738 98.0256 157.738C98.0253 157.738 98.0251 157.738 98.0248 157.738C98.0245 157.738 98.0243 157.738 98.024 157.738C98.0237 157.738 98.0234 157.738 98.0232 157.738C98.0229 157.738 98.0226 157.738 98.0223 157.738C98.0221 157.738 98.0218 157.738 98.0215 157.738C98.0213 157.738 98.021 157.738 98.0207 157.738C98.0205 157.738 98.0202 157.738 98.0199 157.738C98.0196 157.738 98.0194 157.738 98.0191 157.738C98.0188 157.738 98.0186 157.738 98.0183 157.738C98.018 157.738 98.0178 157.738 98.0175 157.738C98.0172 157.738 98.017 157.738 98.0167 157.738C98.0164 157.738 98.0161 157.738 98.0159 157.738C98.0156 157.738 98.0153 157.738 98.0151 157.738C98.0148 157.738 98.0145 157.738 98.0143 157.738C98.014 157.738 98.0137 157.738 98.0135 157.738C98.0132 157.738 98.0129 157.738 98.0127 157.738C98.0124 157.738 98.0122 157.738 98.0119 157.738C98.0116 157.738 98.0114 157.738 98.0111 157.738C98.0108 157.738 98.0106 157.738 98.0103 157.738C98.01 157.738 98.0098 157.738 98.0095 157.738C98.0092 157.738 98.009 157.738 98.0087 157.738C98.0085 157.738 98.0082 157.738 98.0079 157.738C98.0077 157.738 98.0074 157.738 98.0071 157.738C98.0069 157.738 98.0066 157.738 98.0064 157.738C98.0061 157.738 98.0058 157.738 98.0056 157.738C98.0053 157.738 98.0051 157.738 98.0048 157.738C98.0045 157.738 98.0043 157.738 98.004 157.738C98.0038 157.738 98.0035 157.738 98.0032 157.738C98.003 157.738 98.0027 157.738 98.0025 157.738C98.0022 157.738 98.0019 157.738 98.0017 157.738C98.0014 157.738 98.0012 157.738 98.0009 157.738C98.0007 157.738 98.0004 157.738 98.0001 157.738C97.9999 157.738 97.9996 157.738 97.9994 157.738C97.9991 157.738 97.9989 157.738 97.9986 157.738C97.9984 157.738 97.9981 157.738 97.9978 157.738C97.9976 157.738 97.9973 157.738 97.9971 157.738C97.9968 157.738 97.9966 157.738 97.9963 157.738C97.9961 157.738 97.9958 157.738 97.9956 157.738C97.9953 157.738 97.995 157.738 97.9948 157.738C97.9945 157.738 97.9943 157.738 97.994 157.738C97.9938 157.738 97.9935 157.738 97.9933 157.738C97.993 157.738 97.9928 157.738 97.9925 157.738C97.9923 157.738 97.992 157.738 97.9918 157.738C97.9915 157.738 97.9913 157.738 97.991 157.738C97.9908 157.738 97.9905 157.738 97.9903 157.738C97.99 157.738 97.9898 157.738 97.9895 157.738C97.9893 157.738 97.989 157.738 97.9888 157.738C97.9885 157.738 97.9883 157.738 97.988 157.738C97.9878 157.738 97.9875 157.738 97.9873 157.738C97.987 157.738 97.9868 157.738 97.9866 157.738C97.9863 157.738 97.9861 157.738 97.9858 157.738C97.9856 157.738 97.9853 157.738 97.9851 157.738C97.9848 157.738 97.9846 157.738 97.9843 157.738C97.9841 157.738 97.9839 157.738 97.9836 157.738C97.9834 157.738 97.9831 157.738 97.9829 157.738C97.9826 157.738 97.9824 157.738 97.9822 157.738C97.9819 157.738 97.9817 157.738 97.9814 157.738C97.9812 157.738 97.9809 157.738 97.9807 157.738C97.9805 157.738 97.9802 157.738 97.98 157.738C97.9797 157.738 97.9795 157.738 97.9793 157.738C97.979 157.738 97.9788 157.738 97.9785 157.738C97.9783 157.738 97.9781 157.738 97.9778 157.738C97.9776 157.738 97.9774 157.738 97.9771 157.738C97.9769 157.738 97.9766 157.738 97.9764 157.738C97.9762 157.738 97.9759 157.738 97.9757 157.738C97.9755 157.738 97.9752 157.738 97.975 157.738C97.9747 157.738 97.9745 157.738 97.9743 157.738C97.974 157.738 97.9738 157.738 97.9736 157.738C97.9733 157.738 97.9731 157.738 97.9729 157.738C97.9726 157.738 97.9724 157.738 97.9722 157.738C97.9719 157.738 97.9717 157.738 97.9715 157.738C97.9712 157.738 97.971 157.738 97.9708 157.738C97.9705 157.738 97.9703 157.738 97.9701 157.738C97.9698 157.738 97.9696 157.738 97.9694 157.738C97.9692 157.738 97.9689 157.738 97.9687 157.738C97.9685 157.738 97.9682 157.738 97.968 157.738C97.9678 157.738 97.9675 157.738 97.9673 157.738C97.9671 157.738 97.9669 157.738 97.9666 157.738C97.9664 157.738 97.9662 157.738 97.966 157.738C97.9657 157.738 97.9655 157.738 97.9653 157.738C97.965 157.738 97.9648 157.738 97.9646 157.738C97.9644 157.738 97.9641 157.738 97.9639 157.738C97.9637 157.738 97.9635 157.738 97.9632 157.738C97.963 157.738 97.9628 157.738 97.9626 157.738C97.9624 157.738 97.9621 157.738 97.9619 157.738C97.9617 157.738 97.9615 157.738 97.9612 157.738C97.961 157.738 97.9608 157.738 97.9606 157.738C97.9604 157.738 97.9601 157.738 97.9599 157.738C97.9597 157.738 97.9595 157.738 97.9593 157.738C97.959 157.738 97.9588 157.738 97.9586 157.738C97.9584 157.738 97.9582 157.738 97.9579 157.738C97.9577 157.738 97.9575 157.738 97.9573 157.738C97.9571 157.738 97.9569 157.738 97.9566 157.738C97.9564 157.738 97.9562 157.738 97.956 157.738C97.9558 157.738 97.9556 157.738 97.9553 157.738C97.9551 157.738 97.9549 157.738 97.9547 157.738C97.9545 157.738 97.9543 157.738 97.9541 157.738C97.9538 157.738 97.9536 157.738 97.9534 157.738C97.9532 157.738 97.953 157.738 97.9528 157.738C97.9526 157.738 97.9524 157.738 97.9521 157.738C97.9519 157.738 97.9517 157.738 97.9515 157.738C97.9513 157.738 97.9511 157.738 97.9509 157.738C97.9507 157.738 97.9505 157.738 97.9502 157.738C97.95 157.738 97.9498 157.738 97.9496 157.738C97.9494 157.738 97.9492 157.738 97.949 157.738C97.9488 157.738 97.9486 157.738 97.9484 157.738C97.9482 157.738 97.948 157.738 97.9478 157.738C97.9476 157.738 97.9473 157.738 97.9471 157.738V159.738ZM97.9194 159.632C98.0848 159.715 98.2485 159.776 98.42 159.811C98.5922 159.845 98.7329 159.843 98.787 159.843V157.843C98.7801 157.843 98.7755 157.843 98.7712 157.843C98.7671 157.843 98.7645 157.843 98.7628 157.843C98.7595 157.843 98.761 157.843 98.7654 157.843C98.77 157.844 98.7771 157.844 98.7858 157.845C98.7946 157.846 98.8037 157.848 98.8127 157.85C98.8315 157.853 98.8431 157.857 98.8456 157.858C98.8471 157.859 98.8376 157.855 98.8147 157.844L97.9194 159.632Z" fill="#E6E8EB" mask="url(#path-5-inside-1)"/>
<path d="M104.917 160.019C106.231 159.975 107.496 159.713 108.611 159.112C108.687 159.093 108.752 159.063 108.804 159.033L110.077 159.797C110.604 160.114 111.208 160.502 111.868 160.926C109.79 160.402 107.688 160.195 105.729 160.522C105.466 160.34 105.195 160.173 104.917 160.019Z" stroke="#E6E8EB"/>
<mask id="path-8-inside-2" fill="white">
<path d="M96.4774 196.996C94.7977 198.572 94.0628 201.2 93.9578 203.407V203.302C94.0628 201.095 94.7977 198.572 96.4774 196.996Z"/>
</mask>
<path d="M93.9578 203.407H92.9578L94.9567 203.455L93.9578 203.407ZM93.9578 203.302L92.959 203.254L92.9578 203.278V203.302H93.9578ZM95.793 196.267C93.8428 198.097 93.0697 201.031 92.959 203.36L94.9567 203.455C95.0559 201.369 95.7525 199.048 97.1617 197.725L95.793 196.267ZM94.9578 203.407V203.302H92.9578V203.407H94.9578ZM94.9567 203.349C95.0553 201.277 95.7462 199.053 97.1617 197.725L95.793 196.267C93.8491 198.091 93.0703 200.913 92.959 203.254L94.9567 203.349Z" fill="#E6E8EB" mask="url(#path-8-inside-2)"/>
<path d="M20.5763 161.576C18.3717 165.78 17.0069 170.3 16.1671 174.924C15.9571 176.08 15.7471 177.236 15.6422 178.392C15.4322 179.549 15.4322 180.705 15.3272 181.861C15.1172 184.173 15.1172 186.485 15.1172 188.798C15.2222 193.422 15.6422 198.047 16.587 202.461C17.4268 206.875 19.5264 210.869 21.731 214.863C26.4552 222.641 32.649 229.578 40.4176 234.413C42.3073 235.569 44.4069 236.62 46.4015 237.46C48.5012 238.301 50.7058 239.037 52.9104 239.563C57.3195 240.614 61.9387 240.824 66.5579 240.508C67.1877 240.508 67.8176 240.824 68.1326 241.349C69.4973 243.556 70.6521 245.869 72.1218 247.34C72.8567 248.076 73.6966 248.601 74.7464 248.917C75.6912 249.232 76.846 249.442 78.0008 249.547C80.2054 249.758 82.305 249.127 84.0897 247.866C85.7693 246.604 87.1341 244.818 87.869 242.716C88.0789 241.98 88.8138 241.56 89.5487 241.454H89.6536C97.9471 241.349 106.136 238.827 113.274 234.728C120.413 230.629 126.712 224.953 131.436 218.121C136.16 211.185 140.149 203.617 141.829 195.419C142.669 191.32 142.879 187.116 142.459 182.912C142.039 178.708 140.779 174.504 139.205 170.51C141.409 174.188 143.194 178.287 144.139 182.597C145.084 186.906 145.293 191.425 144.769 195.84C144.244 200.254 142.984 204.563 141.304 208.662C139.625 212.761 137.63 216.65 135.11 220.434C130.281 228.001 123.457 234.307 115.584 238.617C107.71 242.926 98.682 245.133 89.6536 245.028L91.4383 243.767C90.3885 246.394 88.6038 248.812 86.1893 250.493C83.7747 252.175 80.7303 252.911 77.8958 252.595C76.531 252.49 75.1663 252.28 73.6966 251.755C72.3318 251.229 70.9671 250.388 69.9172 249.442C68.8674 248.391 68.0276 247.235 67.2927 246.184L65.2981 242.926L66.9778 243.767C62.0437 244.292 57.1096 244.187 52.1755 243.241C49.7609 242.821 47.3464 242.085 44.9318 241.244C42.6222 240.403 40.3127 239.352 38.1081 238.091C29.2897 233.256 22.2559 225.689 17.3218 217.07C16.0621 214.863 15.0123 212.656 14.0674 210.344C13.6475 209.188 13.2276 207.926 12.8077 206.77C12.4927 205.509 12.1778 204.248 11.9678 203.092C11.5479 200.674 11.3379 198.152 11.233 195.734C11.128 193.317 11.128 190.795 11.3379 188.377C11.5479 185.96 11.8628 183.543 12.2828 181.125C12.4927 179.969 12.7027 178.708 13.0176 177.552C13.3326 176.395 13.6475 175.239 13.9625 173.978C15.4322 169.879 17.5318 165.36 20.5763 161.576Z" fill="#E6E8EB"/>
<path d="M45.0368 184.804C43.567 184.804 42.0973 186.17 42.2023 187.642C42.3073 189.218 43.462 190.479 45.0368 190.479C46.5065 190.479 47.9762 189.113 47.8712 187.642C47.7663 186.065 46.6115 184.804 45.0368 184.804Z" fill="#E6E8EB"/>
<path d="M103.826 185.96C100.467 185.96 100.467 192.687 103.826 192.687C108.34 192.687 108.34 185.96 103.826 185.96Z" fill="#E6E8EB"/>
<path d="M67.1877 202.356C69.1824 204.038 72.2268 204.353 74.5364 203.197" stroke="#E6E8EB" stroke-width="3.1929" stroke-miterlimit="10" stroke-linecap="round" stroke-linejoin="round"/>
<path d="M39.6827 215.809C42.3073 217.911 45.0368 220.013 47.9762 221.59C50.9157 223.272 53.8552 224.743 56.8996 225.899L58.0544 226.32L59.2092 226.74L61.5188 227.476C63.0935 227.896 64.6682 228.317 66.3479 228.527C69.6023 229.157 72.8567 229.473 76.1111 229.578C79.3655 229.683 82.6199 229.368 85.8743 228.842C87.449 228.527 89.1287 228.317 90.7034 227.791C92.2781 227.371 93.8528 226.845 95.4276 226.32C98.472 225.163 101.411 223.587 104.036 221.59C106.661 219.593 108.76 216.965 110.335 213.917C109.6 217.281 107.605 220.329 105.191 222.851C102.671 225.269 99.7318 227.266 96.5823 228.737C95.0076 229.473 93.3279 230.103 91.7532 230.629C90.0735 231.259 88.3938 231.575 86.7141 231.995C85.8743 232.205 85.0345 232.31 84.0896 232.416L82.8299 232.626L81.5701 232.731C80.7302 232.836 79.7854 232.836 78.9456 232.941H76.321C72.8567 232.836 69.3923 232.521 65.9279 231.68C64.2483 231.365 62.5686 230.734 60.8889 230.313C59.3142 229.683 57.6345 229.157 56.0598 228.317C52.9103 226.95 49.9709 225.058 47.1364 222.956C44.3019 220.854 41.8873 218.437 39.6827 215.809Z" fill="#E6E8EB"/>
<path d="M139.73 190.164C132.696 169.354 109.39 155.585 87.764 159.474C79.3655 161.05 71.597 164.834 63.4085 167.357C55.22 169.879 46.4016 171.245 38.0031 169.459C29.6046 167.672 21.6261 162.627 17.8468 154.849C14.0675 147.177 15.2223 136.877 21.6261 131.201C22.4659 140.555 31.7042 147.597 41.0475 148.438" stroke="#E6E8EB" stroke-width="3.1929" stroke-miterlimit="10" stroke-linecap="round" stroke-linejoin="round"/>
<path d="M30.2345 142.657C36.4284 137.823 43.5671 134.039 50.9157 131.201C54.695 129.835 58.4743 128.574 62.3586 127.733C66.2429 126.787 70.1272 126.051 74.1165 125.631C78.1058 125.21 82.095 124.79 86.1893 125.21C90.2835 125.631 94.2728 126.471 98.1571 127.628C105.926 130.045 113.274 134.039 118.838 139.925L116.844 140.345C117.579 138.453 118.733 136.772 119.993 135.405C121.253 134.039 122.723 132.883 124.087 131.622C124.402 131.306 124.927 131.411 125.242 131.727C125.347 131.937 125.452 132.147 125.452 132.357L123.982 144.654L123.457 144.234L128.077 142.973C128.182 142.973 128.287 142.973 128.287 143.078V143.183C127.972 145.075 127.237 146.756 126.187 148.333C127.132 146.756 127.762 144.97 127.867 143.183L128.182 143.393L123.667 144.97C123.457 145.075 123.248 144.97 123.143 144.759V144.654L123.877 132.357L125.242 132.988C123.982 134.249 122.618 135.51 121.568 136.877C120.518 138.243 119.573 139.714 119.153 141.186C118.943 141.817 118.313 142.132 117.684 142.027C117.474 141.922 117.369 141.922 117.264 141.711L117.159 141.606C111.595 136.456 104.561 132.988 97.2123 131.201C89.7586 129.309 82.2 130.045 74.5364 130.045C66.8728 130.36 59.2092 131.727 51.7556 133.724C44.3019 135.826 37.0583 138.769 30.2345 142.657Z" fill="#E6E8EB"/>
<path d="M127.342 148.858C131.961 152.327 135.215 157.162 136.79 162.417C134.27 157.687 130.176 153.903 125.557 151.801C124.717 151.381 124.402 150.435 124.717 149.594C125.032 148.753 126.082 148.438 126.922 148.753C127.132 148.753 127.237 148.753 127.342 148.858Z" fill="#E6E8EB"/>
<path d="M13.1226 190.374C11.8629 188.588 9.65827 187.536 7.45367 187.747C5.24907 187.957 3.25444 189.428 2.30961 191.425C1.88969 192.266 1.7847 193.107 1.67972 194.053C1.46976 196.996 2.83451 200.044 5.24907 201.725C7.66363 203.407 11.128 203.617 13.6475 202.041" stroke="#E6E8EB" stroke-width="3.1929" stroke-miterlimit="10" stroke-linecap="round" stroke-linejoin="round"/>
<path d="M25.5104 165.99C26.2452 165.99 26.3502 167.041 26.0353 167.777C23.6207 175.344 19.3165 182.176 13.5425 187.536" stroke="#E6E8EB" stroke-width="3.1929" stroke-miterlimit="10" stroke-linecap="round" stroke-linejoin="round"/>
<path d="M141.934 190.164C144.034 187.747 148.233 187.852 150.438 190.164C152.642 192.476 152.852 196.26 151.067 198.993C149.283 201.62 146.028 203.092 142.879 202.882C142.669 202.251 142.879 201.515 143.404 201.095" stroke="#E6E8EB" stroke-width="3.1929" stroke-miterlimit="10" stroke-linecap="round" stroke-linejoin="round"/>
<path d="M115.899 237.145C119.468 237.461 122.933 238.091 126.397 238.617C129.861 239.142 133.326 239.878 136.79 240.614C140.254 241.349 143.719 242.085 147.078 242.926C150.543 243.767 153.902 244.713 157.261 245.869L157.471 245.974C157.891 246.079 158.101 246.499 158.101 246.92C158.311 253.962 158.416 261.109 158.521 268.151C158.626 275.193 158.731 282.34 158.836 289.382C158.836 290.222 158.311 290.853 157.471 290.958C151.487 292.219 145.503 293.06 139.52 293.691C133.536 294.321 127.447 294.742 121.358 294.637C115.269 294.532 109.18 294.111 103.091 292.85C100.047 292.219 97.1073 291.379 94.1678 290.222C91.2283 289.066 88.3938 287.595 85.7693 285.598L87.554 285.913L76.2161 288.961L64.8781 291.904L42.0973 297.79C41.1525 298 40.2076 297.58 39.7877 296.634L29.9195 274.247L20.2613 251.755C19.9463 250.914 20.2613 250.073 21.1011 249.652L36.7433 242.4C37.4781 242.085 38.318 242.4 38.6329 243.031C42.8322 252.28 47.1364 261.529 51.3356 270.883L50.2858 270.463C53.4352 269.097 56.5846 267.835 59.7341 266.574C62.8835 265.313 66.0329 264.052 69.0774 262.58C72.1218 261.214 75.1663 259.637 77.8958 257.745C79.2605 256.8 80.6253 255.748 81.6751 254.592C82.7249 253.331 83.6697 251.86 83.8797 250.178C84.1946 251.965 83.5647 253.752 82.7249 255.328C81.7801 256.905 80.5203 258.271 79.2605 259.427C77.8958 260.688 76.531 261.739 75.0613 262.685C73.5915 263.631 72.0168 264.577 70.5471 265.313C67.3977 266.995 64.2482 268.361 60.8889 269.517C57.6345 270.673 54.2751 271.619 50.8107 272.145C50.3908 272.25 49.9709 272.04 49.8659 271.724C45.2467 262.685 40.7325 253.541 36.2184 244.397L38.108 245.028L22.5709 252.595L23.3057 250.493L33.4889 272.775L43.462 295.162L41.1525 294.006L63.9333 287.91L75.2712 284.862L86.6092 281.919C87.2391 281.709 87.8689 281.919 88.3938 282.235C92.803 285.598 98.367 287.595 104.036 288.751C109.705 289.907 115.584 290.433 121.568 290.538C127.447 290.643 133.431 290.433 139.31 289.802C145.188 289.276 151.172 288.541 156.946 287.385L155.582 288.961C155.582 281.919 155.687 274.772 155.897 267.73C156.002 260.688 156.106 253.541 156.316 246.499L157.051 247.445C153.587 246.92 150.123 246.289 146.658 245.553C143.194 244.818 139.834 243.977 136.37 243.031C133.011 242.085 129.546 241.139 126.187 240.193C122.618 239.457 119.258 238.301 115.899 237.145Z" fill="#E6E8EB"/>
<path d="M22.3609 247.55C22.3609 247.55 10.0782 229.998 23.6207 223.902" stroke="#E6E8EB" stroke-width="3.1929" stroke-miterlimit="10" stroke-linecap="round" stroke-linejoin="round"/>
<path d="M37.0582 243.767C37.0582 243.767 39.0529 243.767 39.2628 237.776" stroke="#E6E8EB" stroke-width="3.1929" stroke-miterlimit="10" stroke-linecap="round" stroke-linejoin="round"/>
<path d="M54.2751 242.085C54.3801 243.767 64.3532 263.947 64.3532 263.947" stroke="#E6E8EB" stroke-width="3.1929" stroke-miterlimit="10" stroke-linecap="round" stroke-linejoin="round"/>
<path d="M156.946 289.276C168.494 289.592 179.832 290.117 191.065 289.802C196.734 289.697 202.298 289.171 207.652 288.015C210.277 287.385 212.901 286.544 215.106 285.283C215.421 285.177 215.631 284.967 215.841 284.757C216.051 284.547 216.366 284.442 216.575 284.231C216.995 283.811 217.415 283.601 217.73 283.075L218.255 282.445L218.675 281.604C218.78 281.289 218.99 281.078 219.095 280.763L219.515 279.922C220.565 277.61 221.09 274.877 221.615 272.25C222.139 269.517 222.349 266.784 222.559 263.947C222.874 258.376 222.769 252.7 222.559 247.025C222.244 241.349 221.825 235.674 221.195 229.998C220.565 224.323 219.83 218.647 218.99 213.077L220.985 214.653L208.492 215.389L210.172 213.917L206.812 232.731C205.657 238.932 204.503 245.238 203.348 251.439V251.544C203.243 252.07 202.718 252.49 202.088 252.385H201.983C194.634 250.283 187.076 248.391 179.622 247.025C177.733 246.71 175.843 246.394 173.953 246.184C172.064 245.869 170.174 245.659 168.284 245.553C166.395 245.448 164.505 245.343 162.615 245.448C160.726 245.553 158.836 245.869 157.156 246.815C158.626 245.448 160.621 244.818 162.51 244.397C164.4 243.977 166.395 243.872 168.389 243.872C172.274 243.872 176.263 244.292 180.042 244.923C183.926 245.553 187.706 246.394 191.485 247.235C195.264 248.181 199.044 249.127 202.718 250.283L201.353 251.124C202.193 244.818 203.138 238.512 203.978 232.205L206.812 213.392C206.917 212.551 207.652 211.92 208.387 211.92L220.88 211.08C221.825 210.974 222.664 211.71 222.874 212.656C224.869 224.007 226.339 235.464 227.074 247.025C227.388 252.806 227.598 258.586 227.284 264.472C226.969 270.253 226.444 276.244 224.029 282.024L223.504 283.075C223.294 283.391 223.084 283.811 222.874 284.126L222.244 285.177L221.405 286.228C220.88 286.964 220.145 287.49 219.515 288.12C219.2 288.436 218.78 288.646 218.465 288.856C218.15 289.066 217.73 289.276 217.415 289.487C214.581 291.063 211.641 291.904 208.702 292.535C202.823 293.691 196.944 294.006 191.17 294.006C185.396 294.006 179.622 293.586 173.848 292.745C168.179 291.904 162.51 290.853 156.946 289.276Z" fill="#E6E8EB"/>
<path d="M208.387 213.602C208.387 213.602 199.988 208.347 205.238 203.197C210.487 197.942 218.675 204.353 227.598 200.044C236.522 195.734 231.273 209.713 220.88 212.866" stroke="#E6E8EB" stroke-width="3.1929" stroke-miterlimit="10" stroke-linecap="round" stroke-linejoin="round"/>
</g>
<defs>
<clipPath id="clip0">
</clipPath>
<clipPath id="clip1">
</clipPath>
</defs>
</svg>
