<svg width="213" height="414" viewBox="0 0 213 414" fill="none" xmlns="http://www.w3.org/2000/svg">
<path d="M18.7149 162.986L18.7166 162.982C20.9215 158.038 25.5227 152.196 31.1 148.196L31.1103 148.188L31.1196 148.18C35.5477 144.06 41.5842 141.264 47.5905 139.033L47.5906 139.033L47.5973 139.03C60.8945 133.537 72.8924 126.448 84.9368 118.79C86.1585 118.061 87.2449 117.54 88.1962 117.237C89.1492 116.934 89.9534 116.855 90.6171 116.997C91.9123 117.274 92.7775 118.423 93.1247 120.756L93.1246 120.756L93.1256 120.761C95.2887 132.953 101.806 142.694 108.379 152.518C109.815 154.664 111.254 156.815 112.651 158.995L112.651 158.996C114.18 161.368 115.783 163.707 117.388 166.049C122.148 172.995 126.923 179.964 129.834 187.865L129.836 187.869C135.625 202.689 135.324 217.676 125.954 231.074L125.954 231.074L125.951 231.079C123.751 234.445 121.651 236.259 119.246 236.8C116.836 237.342 114.064 236.62 110.487 234.775C95.0443 226.671 79.6569 217.993 64.2664 209.313L64.2664 209.313L64.2622 209.311C60.5831 207.351 56.8181 205.575 53.0583 203.801C51.1808 202.915 49.3046 202.029 47.441 201.122C41.8397 198.396 36.3399 195.466 31.2119 191.711L31.212 191.711L31.2069 191.708C27.6707 189.28 24.154 186.866 21.2656 183.946L21.264 183.944C16.0463 178.783 15.0988 170.647 18.7149 162.986ZM108.012 162.895L108.636 163.21L108.273 162.612C106.969 160.465 105.647 158.35 104.333 156.248C97.8241 145.836 91.5127 135.74 88.5964 123.614L88.5296 123.337L88.2915 123.494C81.1706 128.215 74.6872 132.42 67.6889 135.987C65.3848 137.054 64.1295 138.331 63.5626 139.895C62.9999 141.448 63.1299 143.249 63.5099 145.328L63.5097 145.328L63.5117 145.336L63.5181 145.365C64.1236 148.023 64.7428 150.742 66.326 152.693L66.331 152.699C74.3557 162.586 82.651 172.807 92.2632 181.433C92.9553 182.056 93.6496 182.676 94.3439 183.297C101.415 189.615 108.479 195.926 113.16 204.609L113.16 204.609L113.163 204.614C117.123 211.413 119.264 219.171 120.983 228.353L121.084 228.896L121.354 228.414C127.33 217.723 129.174 207.719 126.98 197.263L126.98 197.263L126.979 197.257C123.659 183.499 117.177 172.275 103.907 164.965L103.907 164.965L103.903 164.963C93.975 159.797 84.7009 154.132 77.4766 145.231C76.3075 143.79 75.1026 142.302 74.5009 140.46C73.9299 138.713 73.8979 136.629 75.0091 133.95C82.6368 148.26 94.8503 156.245 108.012 162.895ZM74.7699 196.549L74.7684 196.549C65.6916 191.775 57.923 185.409 51.1488 177.704C46.8757 172.758 44.8005 167.488 44.5942 161.818C44.3878 156.143 46.0534 150.051 49.2912 143.464L49.5078 143.024L49.0449 143.188C40.9281 146.064 35.088 149.203 30.2302 154.21C24.7675 159.704 21.3074 165.034 21.3097 170.343C21.312 175.669 24.7948 180.891 33.0019 186.17L33.0055 186.172C38.2116 189.368 43.5369 192.068 48.8222 194.725C49.0564 194.842 49.2906 194.96 49.5247 195.078C54.5742 197.615 59.5803 200.13 64.417 203.022L64.4172 203.023L64.4185 203.023C77.5691 210.872 90.7223 218.723 104.19 226.319C104.666 226.601 105.143 226.899 105.625 227.201C108.166 228.791 110.859 230.475 114.341 230.366L114.646 230.357L114.516 230.081C113.798 228.557 113.338 227.351 112.875 226.139L112.864 226.109L112.844 226.084L112.839 226.078L112.835 226.073L112.83 226.067L112.826 226.062L112.821 226.056L112.816 226.05L112.812 226.045L112.807 226.039L112.803 226.033L112.798 226.028L112.793 226.022L112.789 226.016L112.784 226.01L112.779 226.005L112.775 225.999L112.77 225.993L112.766 225.988L112.761 225.982L112.756 225.976L112.752 225.97L112.747 225.965L112.742 225.959L112.738 225.953L112.733 225.947L112.728 225.942L112.724 225.936L112.719 225.93L112.714 225.924L112.709 225.918L112.705 225.913L112.7 225.907L112.695 225.901L112.69 225.895L112.686 225.889L112.681 225.883L112.676 225.878L112.672 225.872L112.667 225.866L112.662 225.86L112.657 225.854L112.652 225.848L112.648 225.842L112.643 225.836L112.638 225.831L112.633 225.825L112.629 225.819L112.624 225.813L112.619 225.807L112.614 225.801L112.609 225.795L112.604 225.789L112.6 225.783L112.595 225.777L112.59 225.771L112.585 225.765L112.58 225.759L112.575 225.753L112.571 225.747L112.566 225.741L112.561 225.735L112.556 225.729L112.551 225.723L112.546 225.717L112.541 225.711L112.536 225.705L112.532 225.699L112.527 225.693L112.522 225.687L112.517 225.681L112.512 225.675L112.507 225.669L112.502 225.663L112.497 225.657L112.492 225.651L112.487 225.645L112.482 225.639L112.477 225.633L112.473 225.627L112.468 225.62L112.463 225.614L112.458 225.608L112.453 225.602L112.448 225.596L112.443 225.59L112.438 225.584L112.433 225.578L112.428 225.572L112.423 225.565L112.418 225.559L112.413 225.553L112.408 225.547L112.403 225.541L112.398 225.535L112.393 225.528L112.388 225.522L112.383 225.516L112.378 225.51L112.373 225.504L112.368 225.498L112.363 225.491L112.358 225.485L112.353 225.479L112.348 225.473L112.343 225.467L112.338 225.46L112.333 225.454L112.328 225.448L112.322 225.442L112.317 225.435L112.312 225.429L112.307 225.423L112.302 225.417L112.297 225.41L112.292 225.404L112.287 225.398L112.282 225.392L112.277 225.385L112.272 225.379L112.267 225.373L112.262 225.367L112.256 225.36L112.251 225.354L112.246 225.348L112.241 225.341L112.236 225.335L112.231 225.329L112.226 225.323L112.221 225.316L112.216 225.31L112.21 225.304L112.205 225.297L112.2 225.291L112.195 225.285L112.19 225.278L112.185 225.272L112.18 225.266L112.174 225.259L112.169 225.253L112.164 225.247L112.159 225.24L112.154 225.234L112.149 225.228L112.144 225.221L112.138 225.215L112.133 225.208L112.128 225.202L112.123 225.196L112.118 225.189L112.112 225.183L112.107 225.177L112.102 225.17L112.097 225.164L112.092 225.157L112.087 225.151L112.081 225.145L112.076 225.138L112.071 225.132L112.066 225.125L112.061 225.119L112.055 225.113L112.05 225.106L112.045 225.1L112.04 225.093L112.035 225.087L112.029 225.08L112.024 225.074L112.019 225.068L112.014 225.061L112.008 225.055L112.003 225.048L111.998 225.042L111.993 225.035L111.988 225.029L111.982 225.023L111.977 225.016L111.972 225.01L111.967 225.003L111.961 224.997L111.956 224.99L111.951 224.984L111.946 224.977L111.94 224.971L111.935 224.964L111.93 224.958L111.925 224.951L111.919 224.945L111.914 224.939L111.909 224.932L111.904 224.926L111.898 224.919L111.893 224.913L111.888 224.906L111.883 224.9L111.877 224.893L111.872 224.887L111.867 224.88L111.862 224.874L111.856 224.867L111.851 224.861L111.846 224.854L111.84 224.848L111.835 224.841L111.83 224.835L111.825 224.828L111.819 224.822L111.814 224.815L111.809 224.809L111.803 224.802L111.798 224.796L111.793 224.789L111.788 224.783L111.782 224.776L111.777 224.77L111.772 224.763L111.766 224.757L111.761 224.75L111.756 224.744L111.751 224.737L111.745 224.73L111.74 224.724L111.735 224.717L111.729 224.711L111.724 224.704L111.719 224.698L111.713 224.691L111.708 224.685L111.703 224.678L111.698 224.672L111.692 224.665L111.687 224.659L111.682 224.652L111.676 224.646L111.671 224.639L111.666 224.632L111.66 224.626L111.655 224.619L111.65 224.613L111.645 224.606L111.639 224.6L111.634 224.593L111.629 224.587L111.623 224.58L111.618 224.574L111.613 224.567L111.607 224.561L111.602 224.554L111.597 224.547L111.591 224.541L111.586 224.534L111.581 224.528L111.576 224.521L111.57 224.515L111.565 224.508L111.56 224.502L111.554 224.495L111.549 224.489L111.544 224.482L111.538 224.475L111.533 224.469L111.528 224.462L111.522 224.456L111.517 224.449L111.512 224.443L111.506 224.436L111.501 224.43L111.496 224.423L111.491 224.417L111.485 224.41L111.48 224.404L111.475 224.397L111.469 224.39L111.464 224.384L111.459 224.377L111.453 224.371L111.448 224.364L111.443 224.358L111.437 224.351L111.432 224.345L111.427 224.338L111.422 224.332L111.416 224.325L111.411 224.319L111.406 224.312L111.4 224.305L111.395 224.299L111.39 224.292L111.384 224.286L111.379 224.279L111.374 224.273L111.369 224.266L111.363 224.26L111.358 224.253L111.353 224.247L111.347 224.24L111.342 224.234L111.337 224.227L111.331 224.221L111.326 224.214L111.321 224.208L111.316 224.201L111.31 224.195L111.305 224.188L111.3 224.182L111.294 224.175L111.289 224.168L111.284 224.162L111.279 224.155L111.273 224.149L111.268 224.142L111.263 224.136L111.257 224.129L111.252 224.123L111.247 224.116L111.242 224.11L111.236 224.103L111.231 224.097L111.226 224.09L111.221 224.084L111.215 224.078L111.21 224.071L111.205 224.065L111.2 224.058L111.194 224.052L111.189 224.045L111.184 224.039L111.179 224.032L111.173 224.026L111.168 224.019L111.163 224.013L111.158 224.006L111.152 224L111.147 223.993L111.142 223.987L111.137 223.98L111.131 223.974L111.126 223.968L111.121 223.961L111.116 223.955L111.11 223.948L111.105 223.942L111.1 223.935L111.095 223.929L111.089 223.922L111.084 223.916L111.079 223.91L111.074 223.903L111.069 223.897L111.063 223.89L111.058 223.884L111.053 223.877L111.048 223.871L111.043 223.865L111.037 223.858L111.032 223.852L111.027 223.845L111.022 223.839L111.017 223.833L111.011 223.826L111.006 223.82L111.001 223.813L110.996 223.807L110.991 223.801L110.985 223.794L110.98 223.788L110.975 223.781L110.97 223.775L110.965 223.769L110.96 223.762L110.954 223.756L110.949 223.75L110.944 223.743L110.939 223.737L110.934 223.731L110.929 223.724L110.923 223.718L110.918 223.712L110.913 223.705L110.908 223.699L110.903 223.693L110.898 223.686L110.893 223.68L110.887 223.674L110.882 223.667L110.877 223.661L110.872 223.655L110.867 223.648L110.862 223.642L110.857 223.636L110.852 223.629L110.847 223.623L110.841 223.617L110.836 223.611L110.831 223.604L110.826 223.598L110.821 223.592L110.816 223.586L110.811 223.579L110.806 223.573L110.801 223.567L110.796 223.56L110.791 223.554L110.786 223.548L110.781 223.542L110.775 223.536L110.77 223.529L110.765 223.523L110.76 223.517L110.755 223.511L110.75 223.504L110.745 223.498L110.74 223.492L110.735 223.486L110.73 223.48L110.725 223.473L110.72 223.467L110.715 223.461L110.71 223.455L110.705 223.449L110.7 223.443L110.695 223.436L110.69 223.43L110.685 223.424L110.68 223.418L110.675 223.412L110.67 223.406L110.665 223.4L110.66 223.393L110.655 223.387L110.65 223.381L110.645 223.375L110.64 223.369L110.635 223.363L110.63 223.357L110.625 223.351L110.62 223.345L110.615 223.338L110.611 223.332L110.606 223.326L110.601 223.32L110.596 223.314L110.591 223.308L110.586 223.302L110.581 223.296L110.576 223.29L110.571 223.284L110.566 223.278L110.561 223.272L110.557 223.266L110.552 223.26L110.547 223.254L110.542 223.248L110.537 223.242L110.532 223.236L110.527 223.23L110.522 223.224L110.518 223.218L110.513 223.212L110.508 223.206L110.503 223.2L110.498 223.194L110.493 223.188L110.489 223.182L110.484 223.176L110.479 223.17L110.474 223.164L110.469 223.158L110.465 223.153L110.46 223.147L110.455 223.141L110.45 223.135L110.445 223.129L110.441 223.123L110.436 223.117L110.431 223.111L110.426 223.105L110.422 223.1L110.417 223.094L110.412 223.088L110.407 223.082L110.403 223.076L110.398 223.07L110.393 223.065L110.389 223.059L110.384 223.053L110.379 223.047L110.374 223.041L110.37 223.036L110.365 223.03L110.36 223.024L110.356 223.018L110.351 223.013L110.346 223.007L110.342 223.001L110.337 222.995L110.332 222.99L110.328 222.984L110.323 222.978L110.318 222.972L110.314 222.967L110.309 222.961L110.305 222.955L110.3 222.95L110.295 222.944L110.291 222.938L110.286 222.933L110.282 222.927L110.277 222.921L110.272 222.916L110.268 222.91L110.263 222.904L110.259 222.899L110.254 222.893L110.251 222.889C100.589 211.628 87.7242 203.509 74.7699 196.549ZM68.4711 160.485L68.4712 160.485L68.4678 160.481C63.5458 154.417 59.5087 148.792 59.9663 141.092L59.9824 140.82L59.7183 140.886C56.9036 141.586 55.3034 142.071 54.1917 142.769C53.0666 143.475 52.454 144.392 51.584 145.892C45.6377 156.052 46.9473 166.735 54.2464 175.728C57.3667 179.573 61.3751 183.221 65.4352 186.292L65.4351 186.292L65.4424 186.297C69.5905 189.156 73.8824 191.831 78.1902 194.487C78.6848 194.792 79.1795 195.097 79.6743 195.402C83.4904 197.752 87.3075 200.103 91.0421 202.573C99.4791 208.152 107.483 214.33 114.069 222.444L114.483 222.954L114.423 222.299C113.289 209.921 107.208 200.497 98.6741 192.561C87.7804 182.351 77.4689 172.214 68.4711 160.485Z" fill="#E6E8EB" stroke="white" stroke-width="0.4"/>
<path d="M-8.92842 253.665C-10.1565 257.281 -9.30311 260.257 -6.68199 262.845C9.55755 279.007 29.164 290.34 50.5113 298.689C55.2139 300.636 58.8641 298.721 62.6291 295.666C67.0032 292.116 71.1082 288.234 75.2303 284.336C81.7522 278.169 88.3169 271.961 96.0582 266.963C103.199 262.424 109.684 257.077 116.169 251.73C117.79 250.394 119.412 249.057 121.043 247.733C121.984 246.969 123.239 245.95 122.841 244.178M-8.92842 253.665L-8.7414 253.736C-8.74098 253.735 -8.74056 253.734 -8.74013 253.732M-8.92842 253.665C-3.67498 239.798 -0.0927308 225.466 3.48552 211.149C4.98353 205.155 6.48083 199.165 8.09976 193.212M-8.92842 253.665L-8.73904 253.729C-8.73941 253.73 -8.73977 253.731 -8.74013 253.732M-8.74013 253.732C-9.34291 255.509 -9.43098 257.116 -9.05486 258.591C-8.6783 260.068 -7.83236 261.428 -6.54146 262.703L-6.5409 262.703C9.6743 278.841 29.2551 290.161 50.5842 298.503L50.5879 298.504C52.8956 299.46 54.9356 299.466 56.862 298.862C58.7964 298.257 60.6264 297.034 62.503 295.51C66.8707 291.966 70.9682 288.091 75.0893 284.194C76.2901 283.059 77.4929 281.921 78.7049 280.79C84.0729 275.778 89.6171 270.884 95.9497 266.795L95.9509 266.794C103.081 262.263 109.554 256.926 116.038 251.58C117.66 250.242 119.283 248.904 120.917 247.578C121.872 246.803 123.01 245.862 122.648 244.229M-8.74013 253.732C-3.48301 239.855 0.103538 225.506 3.68276 211.185C5.17985 205.195 6.67566 199.21 8.29191 193.268M122.648 244.229C122.649 244.232 122.65 244.235 122.65 244.237L122.841 244.178M122.648 244.229C122.647 244.227 122.647 244.224 122.646 244.221L122.841 244.178M122.648 244.229C122.493 243.739 122.277 243.405 122.028 243.169C121.776 242.931 121.48 242.783 121.15 242.679C120.818 242.575 120.461 242.519 120.086 242.46L120.078 242.459C119.714 242.403 119.333 242.343 118.973 242.231M122.841 244.178C122.351 242.611 121.233 242.437 120.116 242.263C119.744 242.205 119.372 242.147 119.023 242.037M119.023 242.037L118.983 242.233C118.98 242.233 118.976 242.232 118.973 242.231M119.023 242.037C118.309 241.894 117.532 241.775 116.734 241.652C114.054 241.241 111.127 240.792 109.503 239.284C105.087 234.485 100.013 233.363 94.0824 235.033C89.6971 227.064 83.4563 223.222 74.476 223.699C72.4518 223.77 70.7415 223.586 69.517 221.436C64.8753 213.152 57.1231 210.013 47.9707 212.201C45.3191 212.781 43.9798 211.772 42.7553 209.622C39.4529 202.347 33.7822 198.566 25.1156 198.789C24.7453 195.87 23.6689 193.217 22.5705 190.509C22.2385 189.69 21.9044 188.866 21.5873 188.029M119.023 242.037L118.963 242.228C118.966 242.229 118.97 242.23 118.973 242.231M118.973 242.231C118.267 242.09 117.498 241.972 116.702 241.85C116.632 241.839 116.561 241.828 116.49 241.817C115.617 241.683 114.717 241.541 113.847 241.357C112.114 240.99 110.463 240.449 109.367 239.431L109.361 239.426L109.355 239.42C107.169 237.043 104.829 235.586 102.31 234.926C99.7903 234.265 97.0763 234.397 94.1366 235.225L93.9838 235.268L93.9072 235.129C91.7273 231.168 89.0936 228.246 85.9011 226.371C82.7096 224.498 78.9446 223.662 74.4866 223.899L74.483 223.899C73.4676 223.934 72.5004 223.908 71.6277 223.588C70.7455 223.265 69.9765 222.647 69.3432 221.535L69.3425 221.534C67.0402 217.425 63.9733 214.603 60.3575 213.076C56.7412 211.548 52.5595 211.309 48.0172 212.396L48.0134 212.396L48.0134 212.396C46.6562 212.693 45.6057 212.589 44.7318 212.111C43.8641 211.636 43.2004 210.808 42.5815 209.721L42.577 209.713L42.5732 209.705C40.9346 206.095 38.7147 203.365 35.8408 201.563C32.9669 199.762 29.4233 198.878 25.1207 198.988L24.94 198.993L24.9172 198.814C24.5505 195.924 23.4874 193.303 22.3914 190.6C22.0591 189.78 21.7238 188.954 21.4039 188.11M21.4039 188.11C21.4054 188.113 21.4069 188.116 21.4085 188.119L21.5873 188.029M21.4039 188.11C21.4027 188.106 21.4015 188.103 21.4002 188.1L21.5873 188.029M21.4039 188.11C19.7616 184.841 16.5312 183.362 13.7294 183.061C13.0657 182.989 12.5797 183.153 12.1977 183.463C11.808 183.779 11.5108 184.261 11.2572 184.852C11.0144 185.418 10.8196 186.064 10.6186 186.73L10.5924 186.817C10.3848 187.505 10.1685 188.211 9.88649 188.841M21.5873 188.029C19.9074 184.677 16.6014 183.168 13.7508 182.862C11.6442 182.636 11.0464 184.619 10.4285 186.668C10.2103 187.392 9.98954 188.124 9.69896 188.77M9.69896 188.77L9.89016 188.829C9.88894 188.833 9.88771 188.837 9.88649 188.841M9.69896 188.77L9.88137 188.852C9.88308 188.848 9.88478 188.845 9.88649 188.841M9.69896 188.77C9.48472 189.468 9.19204 190.23 8.89936 190.991C8.60668 191.753 8.314 192.514 8.09976 193.212M9.88649 188.841C9.67056 189.542 9.37752 190.304 9.08762 191.059L9.08605 191.063C8.79319 191.825 8.50365 192.578 8.29191 193.268M8.09976 193.212L8.29275 193.264C8.29247 193.265 8.29219 193.267 8.29191 193.268M8.09976 193.212L8.29095 193.271C8.29127 193.27 8.29159 193.269 8.29191 193.268M100.543 255.196L100.543 255.197L100.553 255.189C101.663 254.288 102.903 253.498 104.19 252.679C104.896 252.229 105.616 251.771 106.337 251.28C108.356 249.904 110.341 248.295 111.888 245.977L112.009 245.798L111.82 245.692C111.001 245.233 110.159 244.978 109.402 244.749C109.255 244.704 109.111 244.661 108.971 244.617C108.097 244.342 107.39 244.058 106.918 243.477C105.236 241.405 103.468 240.036 101.469 239.378C99.4679 238.72 97.2584 238.781 94.7076 239.527L94.7048 239.528C93.7134 239.834 92.7734 239.73 91.9733 239.271C91.1706 238.811 90.4919 237.984 90.0491 236.815L90.0459 236.807L90.042 236.798C88.4747 233.572 86.3037 231.217 83.5971 229.755C80.8912 228.293 77.6648 227.731 73.9989 228.064L73.9989 228.064L73.993 228.065C72.1123 228.292 70.6532 228.198 69.4315 227.617C68.2128 227.037 67.1997 225.957 66.2431 224.145C64.4157 220.598 61.8106 218.195 58.7513 216.95C55.6927 215.706 52.1959 215.626 48.595 216.696L48.5931 216.697C46.5348 217.331 44.9315 217.356 43.6205 216.734C42.3077 216.111 41.2442 214.819 40.3135 212.719L40.313 212.718C39.0087 209.82 37.2876 207.369 34.962 205.726C32.6325 204.08 29.7123 203.258 26.0351 203.592L26.0351 203.591L26.0214 203.594C24.4388 203.849 23.2991 203.644 22.4911 203.021C21.6799 202.395 21.1597 201.316 20.8935 199.722L20.8938 199.722L20.8914 199.712C20.4923 197.934 20.035 196.722 19.3268 195.209C19.3207 195.145 19.3146 195.079 19.3084 195.012C19.2458 194.339 19.1716 193.541 18.9062 192.84C18.6041 192.043 18.0482 191.354 16.9877 191.084L16.7933 191.035L16.7445 191.229C16.122 193.709 15.5119 196.184 14.9031 198.655C10.3382 217.181 5.84668 235.409 -3.23166 252.472L-3.23205 252.472L-3.2375 252.484C-3.798 253.73 -4.2277 255.018 -4.17307 256.332C-4.11805 257.656 -3.57307 258.983 -2.23109 260.309L-2.22811 260.312C13.5775 275.292 32.123 285.944 52.0895 293.861C52.9396 294.248 53.7554 294.415 54.6084 294.277C55.46 294.14 56.3258 293.704 57.2834 292.926L57.2836 292.927L57.2931 292.918C60.0301 290.389 62.7586 287.827 65.4933 285.258C76.732 274.704 88.0754 264.052 100.543 255.196Z" fill="#E6E8EB" stroke="white" stroke-width="0.4"/>
<path d="M36.9381 101.559C36.9381 103.844 36.3717 106.7 33.5398 106.129C30.1416 105.558 27.8761 103.844 27.8761 100.416C27.8761 97.56 29.5753 95.8462 32.9735 95.8462C36.3718 95.8462 36.9381 98.1312 36.9381 101.559Z" fill="#E6E8EB"/>
<path d="M201.055 243.018C201.865 241.425 202.676 240.629 203.486 239.435C205.108 237.046 206.729 233.861 210.376 235.453C213.213 236.648 213.213 239.833 212.808 242.62C211.592 253.369 206.729 262.924 201.865 272.081C200.244 275.665 196.191 275.665 194.975 271.683C192.138 264.119 187.68 257.351 183.627 250.184C183.627 249.786 183.222 249.388 183.222 248.99C179.574 241.027 179.979 235.453 183.222 233.065C187.275 230.278 193.354 233.065 199.028 240.231C199.433 240.629 200.244 241.425 201.055 243.018Z" fill="#D24C44"/>
<g clip-path="url(#clip0)">
<path d="M195.286 299.167C195.286 299.167 192.019 347.641 147.545 336.072C103.071 324.502 128.401 293.866 149.59 311.548C170.43 329.167 156.523 383.672 94.8163 372.624" stroke="#E6E8EB" stroke-width="1.8199" stroke-miterlimit="10" stroke-linecap="round" stroke-linejoin="round" stroke-dasharray="3.75 3.75"/>
</g>
<path d="M171.408 116.701C171.743 112.653 171.743 108.942 172.078 104.893C172.078 103.543 172.413 101.856 174.088 101.182C175.763 100.507 176.768 101.856 178.108 102.869C180.788 105.23 182.798 108.267 185.143 111.303C188.493 110.291 191.843 109.279 195.193 108.942C196.533 108.942 197.873 108.604 198.543 109.954C199.548 111.303 198.543 112.653 197.873 113.665C196.198 116.027 194.523 118.051 192.513 120.75C196.198 124.461 199.548 128.847 202.563 132.896C203.233 133.908 204.238 134.583 203.568 135.932C202.898 137.282 201.558 137.282 200.218 136.945C195.863 136.945 191.843 134.583 187.823 133.233C186.483 132.896 185.143 132.221 183.803 131.546C181.123 134.246 179.783 137.957 177.773 140.993C176.768 142.343 176.098 144.03 174.088 143.692C172.413 143.355 171.743 141.668 171.408 140.319C170.738 138.294 170.068 136.27 170.068 134.246C170.403 130.534 168.393 129.522 165.378 128.847C163.368 128.51 161.358 127.498 159.683 126.148C157.338 124.124 157.338 121.762 160.353 120.75C163.703 119.063 167.388 118.051 171.408 116.701ZM174.088 139.644C176.768 135.932 178.778 133.571 180.788 131.209C182.463 128.847 184.473 128.51 187.153 129.522C190.503 130.872 193.853 132.559 197.873 133.233C195.528 129.86 192.848 127.16 190.168 124.799C187.823 122.774 187.488 120.413 189.498 118.051C190.838 116.364 192.513 114.677 194.523 112.315C192.178 112.99 190.838 113.328 189.498 113.665C185.813 115.014 183.133 114.34 180.788 111.303C179.448 109.279 177.438 107.592 175.763 105.905C174.088 109.954 175.763 114.34 173.753 118.051C171.408 121.762 166.383 121.087 162.363 124.124C171.408 124.799 174.758 130.197 174.088 139.644Z" fill="#E6E8EB"/>
<path d="M43.6477 371.534C46.8064 368.982 49.4922 366.422 52.6508 363.87C53.6274 362.94 55.0769 362.016 56.7087 362.751C58.3404 363.485 58.0499 365.136 58.2321 366.794C58.3525 370.343 57.5272 373.877 56.9305 377.65C59.9499 379.352 62.9693 381.054 65.5003 383.221C66.4151 384.181 67.574 384.908 67.0547 386.319C66.7641 387.97 65.1014 388.18 63.9116 388.399C61.059 388.827 58.4506 389.023 55.1252 389.445C54.955 394.644 54.0677 400.069 53.196 405.02C52.9209 406.198 53.1186 407.384 51.6846 407.834C50.2506 408.285 49.3358 407.325 48.6652 406.133C45.6923 403.013 44.6572 398.504 42.8896 394.694C42.219 393.501 41.7926 392.076 41.3661 390.651C37.5833 390.592 33.9828 392.192 30.4132 392.846C28.7505 393.056 27.0723 393.74 25.9443 392.067C25.0451 390.635 25.8085 388.991 26.5565 387.821C27.564 385.945 28.5717 384.069 30.0366 382.673C32.9511 380.353 32.3115 378.215 30.7416 375.59C29.6136 373.918 28.9739 371.78 28.8071 369.649C28.6713 366.573 30.3805 364.944 33.1711 366.406C36.6788 367.643 39.9268 369.585 43.6477 371.534ZM28.8743 389.275C33.3896 388.636 36.4708 388.447 39.5521 388.258C42.4046 387.829 44.021 389.037 45.118 391.654C46.4282 394.985 47.4943 398.548 49.7502 401.893C50.591 397.887 50.7148 394.105 50.5944 390.557C50.4586 387.481 51.939 385.612 55.0203 385.424C57.1558 385.22 59.5201 385.257 62.6013 385.068C60.5122 383.853 59.3533 383.126 58.1944 382.399C54.7022 380.69 53.361 378.305 53.9576 374.531C54.5078 372.175 54.3565 369.571 54.4339 367.208C50.3605 368.8 48.3298 373.025 44.2719 374.144C39.9854 375.024 37.0433 370.959 32.1016 370.173C37.7879 377.118 36.1682 383.24 28.8743 389.275Z" fill="#D24C44"/>
<path d="M97.0622 10.9249C97.0622 8.65961 97.0622 7.14939 97.0622 5.63918C97.0622 2.9963 98.2194 1.10853 100.92 0.353421C103.234 -0.401685 105.549 -0.0241321 107.478 2.24119C111.721 7.52694 115.193 12.8127 116.736 19.2311C117.893 24.5168 115.193 27.9148 109.792 26.7822C99.3767 24.8944 89.3471 21.4964 80.4748 15.4556C77.7745 13.5678 76.2315 10.9249 77.3888 7.90449C78.9318 4.50651 82.0178 5.26162 85.1038 5.63918C89.3471 6.39428 92.8189 9.03716 97.0622 10.9249Z" fill="#D24C44"/>
<defs>
<clipPath id="clip0">
</clipPath>
</defs>
</svg>
