<svg width="264" height="398" viewBox="0 0 264 398" fill="none" xmlns="http://www.w3.org/2000/svg">
<path d="M139.779 197.193L139.839 197.146L139.779 197.193ZM139.779 197.193L139.808 197.262M139.779 197.193L139.808 197.262M139.808 197.262C141.509 201.379 143.266 205.377 145.006 209.33L145.169 209.7C146.854 213.526 148.521 217.313 150.106 221.13C150.617 222.528 151.242 223.424 152.101 223.783C152.963 224.143 154.024 223.949 155.369 223.259L155.448 223.219M139.808 197.262L155.448 223.219M155.448 223.219L155.417 223.136M155.448 223.219L155.417 223.136M155.417 223.136L155.398 223.083M155.417 223.136L155.398 223.083M145.578 196.261L145.615 196.278L145.63 196.317L145.578 196.261ZM145.578 196.261L145.536 196.352L145.578 196.261ZM155.398 223.083L155.379 223.03M155.398 223.083L155.379 223.03M155.379 223.03L155.359 222.977M155.379 223.03L155.359 222.977M155.359 222.977L155.34 222.924M155.359 222.977L155.34 222.924M155.34 222.924L155.321 222.871M155.34 222.924L155.321 222.871M155.321 222.871L155.301 222.818M155.321 222.871L155.301 222.818M155.301 222.818L155.282 222.765M155.301 222.818L155.282 222.765M155.282 222.765L155.263 222.712M155.282 222.765L155.263 222.712M155.263 222.712L155.243 222.659M155.263 222.712L155.243 222.659M155.243 222.659L155.224 222.606M155.243 222.659L155.224 222.606M155.224 222.606L155.205 222.553M155.224 222.606L155.205 222.553M155.205 222.553L155.185 222.5M155.205 222.553L155.185 222.5M155.185 222.5L155.166 222.447M155.185 222.5L155.166 222.447M155.166 222.447L155.147 222.394M155.166 222.447L155.147 222.394M155.147 222.394L155.127 222.341M155.147 222.394L155.127 222.341M155.127 222.341L155.108 222.288M155.127 222.341L155.108 222.288M155.108 222.288L155.089 222.235M155.108 222.288L155.089 222.235M155.089 222.235L155.069 222.182M155.089 222.235L155.069 222.182M155.069 222.182L155.05 222.129M155.069 222.182L155.05 222.129M155.05 222.129L155.031 222.076M155.05 222.129L155.031 222.076M155.031 222.076L155.011 222.024M155.031 222.076L155.011 222.024M155.011 222.024L154.992 221.971M155.011 222.024L154.992 221.971M154.992 221.971L154.973 221.918M154.992 221.971L154.973 221.918M154.973 221.918L154.953 221.865M154.973 221.918L154.953 221.865M154.953 221.865L154.934 221.812M154.953 221.865L154.934 221.812M154.934 221.812L154.915 221.759M154.934 221.812L154.915 221.759M154.915 221.759L154.896 221.706M154.915 221.759L154.896 221.706M154.896 221.706L154.876 221.653M154.896 221.706L154.876 221.653M154.876 221.653L154.857 221.601M154.876 221.653L154.857 221.601M154.857 221.601L154.838 221.548M154.857 221.601L154.838 221.548M154.838 221.548L154.818 221.495M154.838 221.548L154.818 221.495M154.818 221.495L154.799 221.442M154.818 221.495L154.799 221.442M154.799 221.442L154.78 221.389M154.799 221.442L154.78 221.389M154.78 221.389L154.761 221.336M154.78 221.389L154.761 221.336M154.761 221.336L154.741 221.284M154.761 221.336L154.741 221.284M154.741 221.284L154.722 221.231M154.741 221.284L154.722 221.231M154.722 221.231L154.703 221.178M154.722 221.231L154.703 221.178M154.703 221.178L154.683 221.125M154.703 221.178L154.683 221.125M154.683 221.125L154.664 221.072M154.683 221.125L154.664 221.072M154.664 221.072L154.645 221.02M154.664 221.072L154.645 221.02M154.645 221.02L154.626 220.967M154.645 221.02L154.626 220.967M154.626 220.967L154.606 220.914M154.626 220.967L154.606 220.914M154.606 220.914L154.587 220.861M154.606 220.914L154.587 220.861M154.587 220.861L154.568 220.809M154.587 220.861L154.568 220.809M154.568 220.809L154.549 220.756M154.568 220.809L154.549 220.756M154.549 220.756L154.529 220.703M154.549 220.756L154.529 220.703M154.529 220.703L154.51 220.651M154.529 220.703L154.51 220.651M154.51 220.651L154.491 220.598M154.51 220.651L154.491 220.598M154.491 220.598L154.472 220.545M154.491 220.598L154.472 220.545M154.472 220.545L154.453 220.492M154.472 220.545L154.453 220.492M154.453 220.492L154.433 220.44M154.453 220.492L154.433 220.44M154.433 220.44L154.414 220.387M154.433 220.44L154.414 220.387M154.414 220.387L154.395 220.334M154.414 220.387L154.395 220.334M154.395 220.334L154.376 220.282M154.395 220.334L154.376 220.282M154.376 220.282L154.356 220.229M154.376 220.282L154.356 220.229M154.356 220.229L154.337 220.176M154.356 220.229L154.337 220.176M154.337 220.176L154.318 220.124M154.337 220.176L154.318 220.124M154.318 220.124L154.299 220.071M154.318 220.124L154.299 220.071M154.299 220.071L154.28 220.018M154.299 220.071L154.28 220.018M154.28 220.018L154.26 219.966M154.28 220.018L154.26 219.966M154.26 219.966L154.241 219.913M154.26 219.966L154.241 219.913M154.241 219.913L154.222 219.86M154.241 219.913L154.222 219.86M154.222 219.86L154.203 219.808M154.222 219.86L154.203 219.808M154.203 219.808L154.183 219.755M154.203 219.808L154.183 219.755M154.183 219.755L154.164 219.703M154.183 219.755L154.164 219.703M154.164 219.703L154.145 219.65M154.164 219.703L154.145 219.65M154.145 219.65L154.126 219.597M154.145 219.65L154.126 219.597M154.126 219.597L154.107 219.545M154.126 219.597L154.107 219.545M154.107 219.545L154.087 219.492M154.107 219.545L154.087 219.492M154.087 219.492L154.068 219.44M154.087 219.492L154.068 219.44M154.068 219.44L154.049 219.387M154.068 219.44L154.049 219.387M154.049 219.387L154.03 219.334M154.049 219.387L154.03 219.334M154.03 219.334L154.011 219.282M154.03 219.334L154.011 219.282M154.011 219.282L153.992 219.229M154.011 219.282L153.992 219.229M153.992 219.229L153.972 219.177M153.992 219.229L153.972 219.177M153.972 219.177L153.953 219.124M153.972 219.177L153.953 219.124M153.953 219.124L153.934 219.072M153.953 219.124L153.934 219.072M153.934 219.072L153.915 219.019M153.934 219.072L153.915 219.019M153.915 219.019L153.896 218.967M153.915 219.019L153.896 218.967M153.896 218.967L153.877 218.914M153.896 218.967L153.877 218.914M153.877 218.914L153.857 218.862M153.877 218.914L153.857 218.862M153.857 218.862L153.838 218.809M153.857 218.862L153.838 218.809M153.838 218.809L153.819 218.757M153.838 218.809L153.819 218.757M153.819 218.757L153.8 218.704M153.819 218.757L153.8 218.704M153.8 218.704L153.781 218.652M153.8 218.704L153.781 218.652M153.781 218.652L153.762 218.599M153.781 218.652L153.762 218.599M153.762 218.599L153.742 218.547M153.762 218.599L153.742 218.547M153.742 218.547L153.723 218.494M153.742 218.547L153.723 218.494M153.723 218.494L153.704 218.442M153.723 218.494L153.704 218.442M153.704 218.442L153.685 218.389M153.704 218.442L153.685 218.389M153.685 218.389L153.666 218.337M153.685 218.389L153.666 218.337M153.666 218.337L153.647 218.284M153.666 218.337L153.647 218.284M153.647 218.284L153.627 218.232M153.647 218.284L153.627 218.232M153.627 218.232L153.608 218.179M153.627 218.232L153.608 218.179M153.608 218.179L153.589 218.127M153.608 218.179L153.589 218.127M153.589 218.127L153.57 218.074M153.589 218.127L153.57 218.074M153.57 218.074L153.551 218.022M153.57 218.074L153.551 218.022M153.551 218.022L153.532 217.97M153.551 218.022L153.532 217.97M153.532 217.97L153.513 217.917M153.532 217.97L153.513 217.917M153.513 217.917L153.494 217.865M153.513 217.917L153.494 217.865M153.494 217.865L153.474 217.812M153.494 217.865L153.474 217.812M153.474 217.812L153.455 217.76M153.474 217.812L153.455 217.76M153.455 217.76L153.436 217.707M153.455 217.76L153.436 217.707M153.436 217.707L153.417 217.655M153.436 217.707L153.417 217.655M153.417 217.655L153.398 217.603M153.417 217.655L153.398 217.603M153.398 217.603L153.379 217.55M153.398 217.603L153.379 217.55M153.379 217.55L153.36 217.498M153.379 217.55L153.36 217.498M153.36 217.498L153.341 217.445M153.36 217.498L153.341 217.445M153.341 217.445L153.321 217.393M153.341 217.445L153.321 217.393M153.321 217.393L153.302 217.341M153.321 217.393L153.302 217.341M153.302 217.341L153.283 217.288M153.302 217.341L153.283 217.288M153.283 217.288L153.264 217.236M153.283 217.288L153.264 217.236M153.264 217.236L153.245 217.184M153.264 217.236L153.245 217.184M153.245 217.184L153.226 217.131M153.245 217.184L153.226 217.131M153.226 217.131L153.207 217.079M153.226 217.131L153.207 217.079M153.207 217.079L153.188 217.027M153.207 217.079L153.188 217.027M153.188 217.027L153.169 216.974M153.188 217.027L153.169 216.974M153.169 216.974L153.149 216.922M153.169 216.974L153.149 216.922M153.149 216.922L153.13 216.87M153.149 216.922L153.13 216.87M153.13 216.87L153.111 216.817M153.13 216.87L153.111 216.817M153.111 216.817L153.092 216.765M153.111 216.817L153.092 216.765M153.092 216.765L153.073 216.713M153.092 216.765L153.073 216.713M153.073 216.713L153.054 216.66M153.073 216.713L153.054 216.66M153.054 216.66L153.035 216.608M153.054 216.66L153.035 216.608M153.035 216.608L153.016 216.556M153.035 216.608L153.016 216.556M153.016 216.556L152.997 216.503M153.016 216.556L152.997 216.503M152.997 216.503L152.978 216.451M152.997 216.503L152.978 216.451M152.978 216.451L152.959 216.399M152.978 216.451L152.959 216.399M152.959 216.399L152.939 216.346M152.959 216.399L152.939 216.346M152.939 216.346L152.92 216.294M152.939 216.346L152.92 216.294M152.92 216.294L152.901 216.242M152.92 216.294L152.901 216.242M152.901 216.242L152.882 216.19M152.901 216.242L152.882 216.19M152.882 216.19L152.863 216.137M152.882 216.19L152.863 216.137M152.863 216.137L152.844 216.085M152.863 216.137L152.844 216.085M152.844 216.085L152.825 216.033M152.844 216.085L152.825 216.033M152.825 216.033L152.806 215.981M152.825 216.033L152.806 215.981M152.806 215.981L152.787 215.928M152.806 215.981L152.787 215.928M152.787 215.928L152.768 215.876M152.787 215.928L152.768 215.876M152.768 215.876L152.749 215.824M152.768 215.876L152.749 215.824M152.749 215.824L152.73 215.771M152.749 215.824L152.73 215.771M152.73 215.771L152.711 215.719M152.73 215.771L152.711 215.719M152.711 215.719L152.691 215.667M152.711 215.719L152.691 215.667M152.691 215.667L152.672 215.615M152.691 215.667L152.672 215.615M152.672 215.615L152.653 215.563M152.672 215.615L152.653 215.563M152.653 215.563L152.634 215.51M152.653 215.563L152.634 215.51M152.634 215.51L152.615 215.458M152.634 215.51L152.615 215.458M152.615 215.458L152.596 215.406M152.615 215.458L152.596 215.406M152.596 215.406L152.577 215.354M152.596 215.406L152.577 215.354M152.577 215.354L152.558 215.301M152.577 215.354L152.558 215.301M152.558 215.301L152.539 215.249M152.558 215.301L152.539 215.249M152.539 215.249L152.52 215.197M152.539 215.249L152.52 215.197M152.52 215.197L152.501 215.145M152.52 215.197L152.501 215.145M152.501 215.145L152.482 215.093M152.501 215.145L152.482 215.093M152.482 215.093L152.463 215.04M152.482 215.093L152.463 215.04M152.463 215.04L152.444 214.988M152.463 215.04L152.444 214.988M152.444 214.988L152.425 214.936M152.444 214.988L152.425 214.936M152.425 214.936L152.406 214.884M152.425 214.936L152.406 214.884M152.406 214.884L152.387 214.832M152.406 214.884L152.387 214.832M152.387 214.832L152.368 214.779M152.387 214.832L152.368 214.779M152.368 214.779L152.348 214.727M152.368 214.779L152.348 214.727M152.348 214.727L152.329 214.675M152.348 214.727L152.329 214.675M152.329 214.675L152.31 214.623M152.329 214.675L152.31 214.623M152.31 214.623L152.291 214.571M152.31 214.623L152.291 214.571M152.291 214.571L152.272 214.518M152.291 214.571L152.272 214.518M152.272 214.518L152.253 214.466M152.272 214.518L152.253 214.466M152.253 214.466L152.234 214.414M152.253 214.466L152.234 214.414M152.234 214.414L152.215 214.362M152.234 214.414L152.215 214.362M152.215 214.362L152.196 214.31M152.215 214.362L152.196 214.31M152.196 214.31L152.177 214.258M152.196 214.31L152.177 214.258M152.177 214.258L152.158 214.205M152.177 214.258L152.158 214.205M152.158 214.205L152.139 214.153M152.158 214.205L152.139 214.153M152.139 214.153L152.12 214.101M152.139 214.153L152.12 214.101M152.12 214.101L152.101 214.049M152.12 214.101L152.101 214.049M152.101 214.049L152.082 213.997M152.101 214.049L152.082 213.997M152.082 213.997L152.063 213.945M152.082 213.997L152.063 213.945M152.063 213.945L152.044 213.893M152.063 213.945L152.044 213.893M152.044 213.893L152.025 213.84M152.044 213.893L152.025 213.84M152.025 213.84L152.006 213.788M152.025 213.84L152.006 213.788M152.006 213.788L151.987 213.736M152.006 213.788L151.987 213.736M151.987 213.736L151.968 213.684M151.987 213.736L151.968 213.684M151.968 213.684L151.949 213.632M151.968 213.684L151.949 213.632M151.949 213.632L151.93 213.58M151.949 213.632L151.93 213.58M151.93 213.58L151.911 213.528M151.93 213.58L151.911 213.528M151.911 213.528L151.892 213.476M151.911 213.528L151.892 213.476M151.892 213.476L151.873 213.423M151.892 213.476L151.873 213.423M151.873 213.423L151.854 213.371M151.873 213.423L151.854 213.371M151.854 213.371L151.835 213.319M151.854 213.371L151.835 213.319M151.835 213.319L151.816 213.267M151.835 213.319L151.816 213.267M151.816 213.267L151.797 213.215M151.816 213.267L151.797 213.215M151.797 213.215L151.778 213.163M151.797 213.215L151.778 213.163M151.778 213.163L151.759 213.111M151.778 213.163L151.759 213.111M151.759 213.111L151.74 213.059M151.759 213.111L151.74 213.059M151.74 213.059L151.721 213.007M151.74 213.059L151.721 213.007M151.721 213.007L151.702 212.954M151.721 213.007L151.702 212.954M151.702 212.954L151.682 212.902M151.702 212.954L151.682 212.902M151.682 212.902L151.663 212.85M151.682 212.902L151.663 212.85M151.663 212.85L151.644 212.798M151.663 212.85L151.644 212.798M151.644 212.798L151.625 212.746M151.644 212.798L151.625 212.746M151.625 212.746L151.606 212.694M151.625 212.746L151.606 212.694M151.606 212.694L151.587 212.642M151.606 212.694L151.587 212.642M151.587 212.642L151.568 212.59M151.587 212.642L151.568 212.59M151.568 212.59L151.549 212.538M151.568 212.59L151.549 212.538M151.549 212.538L151.53 212.486M151.549 212.538L151.53 212.486M151.53 212.486L151.511 212.434M151.53 212.486L151.511 212.434M151.511 212.434L151.492 212.381M151.511 212.434L151.492 212.381M151.492 212.381L151.473 212.329M151.492 212.381L151.473 212.329M151.473 212.329L151.454 212.277M151.473 212.329L151.454 212.277M151.454 212.277L151.435 212.225M151.454 212.277L151.435 212.225M151.435 212.225L151.416 212.173M151.435 212.225L151.416 212.173M151.416 212.173L151.397 212.121M151.416 212.173L151.397 212.121M151.397 212.121L151.378 212.069M151.397 212.121L151.378 212.069M151.378 212.069L151.359 212.017M151.378 212.069L151.359 212.017M151.359 212.017L151.34 211.965M151.359 212.017L151.34 211.965M151.34 211.965L151.321 211.913M151.34 211.965L151.321 211.913M151.321 211.913L151.302 211.861M151.321 211.913L151.302 211.861M151.302 211.861L151.283 211.809M151.302 211.861L151.283 211.809M151.283 211.809L151.264 211.757M151.283 211.809L151.264 211.757M151.264 211.757L151.245 211.704M151.264 211.757L151.245 211.704M151.245 211.704L151.226 211.652M151.245 211.704L151.226 211.652M151.226 211.652L151.207 211.6M151.226 211.652L151.207 211.6M151.207 211.6L151.188 211.548M151.207 211.6L151.188 211.548M151.188 211.548L151.169 211.496M151.188 211.548L151.169 211.496M151.169 211.496L151.15 211.444M151.169 211.496L151.15 211.444M151.15 211.444L151.131 211.392M151.15 211.444L151.131 211.392M151.131 211.392L151.112 211.34M151.131 211.392L151.112 211.34M151.112 211.34L151.093 211.288M151.112 211.34L151.093 211.288M151.093 211.288L151.074 211.236M151.093 211.288L151.074 211.236M151.074 211.236L151.055 211.184M151.074 211.236L151.055 211.184M151.055 211.184L151.036 211.132M151.055 211.184L151.036 211.132M151.036 211.132L151.017 211.08M151.036 211.132L151.017 211.08M151.017 211.08L150.998 211.028M151.017 211.08L150.998 211.028M150.998 211.028L150.979 210.976M150.998 211.028L150.979 210.976M150.979 210.976L150.96 210.924M150.979 210.976L150.96 210.924M150.96 210.924L150.941 210.872M150.96 210.924L150.941 210.872M150.941 210.872L150.922 210.82M150.941 210.872L150.922 210.82M150.922 210.82L150.903 210.768M150.922 210.82L150.903 210.768M150.903 210.768L150.884 210.715M150.903 210.768L150.884 210.715M150.884 210.715L150.865 210.663M150.884 210.715L150.865 210.663M150.865 210.663L150.846 210.611M150.865 210.663L150.846 210.611M150.846 210.611L150.827 210.559M150.846 210.611L150.827 210.559M150.827 210.559L150.808 210.507M150.827 210.559L150.808 210.507M150.808 210.507L150.789 210.455M150.808 210.507L150.789 210.455M150.789 210.455L150.77 210.403M150.789 210.455L150.77 210.403M150.77 210.403L150.751 210.351M150.77 210.403L150.751 210.351M150.751 210.351L150.732 210.299M150.751 210.351L150.732 210.299M150.732 210.299L150.713 210.247M150.732 210.299L150.713 210.247M150.713 210.247L150.694 210.195M150.713 210.247L150.694 210.195M150.694 210.195L150.675 210.143M150.694 210.195L150.675 210.143M150.675 210.143L150.656 210.091M150.675 210.143L150.656 210.091M150.656 210.091L150.637 210.039M150.656 210.091L150.637 210.039M150.637 210.039L150.618 209.987M150.637 210.039L150.618 209.987M150.618 209.987L150.6 209.935M150.618 209.987L150.6 209.935M150.6 209.935L150.581 209.883M150.6 209.935L150.581 209.883M150.581 209.883L150.562 209.831M150.581 209.883L150.562 209.831M150.562 209.831L150.543 209.779M150.562 209.831L150.543 209.779M150.543 209.779L150.524 209.727M150.543 209.779L150.524 209.727M150.524 209.727L150.505 209.675M150.524 209.727L150.505 209.675M150.505 209.675L150.486 209.623M150.505 209.675L150.486 209.623M150.486 209.623L150.467 209.571M150.486 209.623L150.467 209.571M150.467 209.571L150.448 209.519M150.467 209.571L150.448 209.519M150.448 209.519L150.429 209.466M150.448 209.519L150.429 209.466M150.429 209.466L150.41 209.414M150.429 209.466L150.41 209.414M150.41 209.414L150.391 209.362M150.41 209.414L150.391 209.362M150.391 209.362L150.372 209.31M150.391 209.362L150.372 209.31M150.372 209.31L150.353 209.258M150.372 209.31L150.353 209.258M150.353 209.258L150.334 209.206M150.353 209.258L150.334 209.206M150.334 209.206L150.315 209.154M150.334 209.206L150.315 209.154M150.315 209.154L150.296 209.102M150.315 209.154L150.296 209.102M150.296 209.102L150.277 209.05M150.296 209.102L150.277 209.05M150.277 209.05L150.258 208.998M150.277 209.05L150.258 208.998M150.258 208.998L150.239 208.946M150.258 208.998L150.239 208.946M150.239 208.946L150.22 208.894M150.239 208.946L150.22 208.894M150.22 208.894L150.201 208.842M150.22 208.894L150.201 208.842M150.201 208.842L150.182 208.79M150.201 208.842L150.182 208.79M150.182 208.79L150.163 208.738M150.182 208.79L150.163 208.738M150.163 208.738L150.144 208.686M150.163 208.738L150.144 208.686M150.144 208.686L150.125 208.634M150.144 208.686L150.125 208.634M150.125 208.634L150.106 208.582M150.125 208.634L150.106 208.582M150.106 208.582L150.087 208.53M150.106 208.582L150.087 208.53M150.087 208.53L150.068 208.478M150.087 208.53L150.068 208.478M150.068 208.478L150.049 208.426M150.068 208.478L150.049 208.426M150.049 208.426L150.03 208.374M150.049 208.426L150.03 208.374M150.03 208.374L150.011 208.321M150.03 208.374L150.011 208.321M150.011 208.321L149.992 208.269M150.011 208.321L149.992 208.269M149.992 208.269L149.973 208.217M149.992 208.269L149.973 208.217M149.973 208.217L149.954 208.165M149.973 208.217L149.954 208.165M149.954 208.165L149.935 208.113M149.954 208.165L149.935 208.113M149.935 208.113L149.916 208.061M149.935 208.113L149.916 208.061M149.916 208.061L149.897 208.009M149.916 208.061L149.897 208.009M149.897 208.009L149.878 207.957M149.897 208.009L149.878 207.957M149.878 207.957L149.859 207.905M149.878 207.957L149.859 207.905M149.859 207.905L149.84 207.853M149.859 207.905L149.84 207.853M149.84 207.853L149.821 207.801M149.84 207.853L149.821 207.801M149.821 207.801L149.802 207.749M149.821 207.801L149.802 207.749M149.802 207.749L149.783 207.697M149.802 207.749L149.783 207.697M149.783 207.697L149.764 207.645M149.783 207.697L149.764 207.645M149.764 207.645L149.745 207.593M149.764 207.645L149.745 207.593M149.745 207.593L149.726 207.541M149.745 207.593L149.726 207.541M149.726 207.541L149.707 207.489M149.726 207.541L149.707 207.489M149.707 207.489L149.688 207.436M149.707 207.489L149.688 207.436M149.688 207.436L149.669 207.384M149.688 207.436L149.669 207.384M149.669 207.384L149.65 207.332M149.669 207.384L149.65 207.332M149.65 207.332L149.631 207.28M149.65 207.332L149.631 207.28M149.631 207.28L149.612 207.228M149.631 207.28L149.612 207.228M149.612 207.228L149.593 207.176M149.612 207.228L149.593 207.176M149.593 207.176L149.574 207.124M149.593 207.176L149.574 207.124M149.574 207.124L149.555 207.072M149.574 207.124L149.555 207.072M149.555 207.072L149.536 207.02M149.555 207.072L149.536 207.02M149.536 207.02L149.517 206.968M149.536 207.02L149.517 206.968M149.517 206.968L149.498 206.916M149.517 206.968L149.498 206.916M149.498 206.916L149.479 206.864M149.498 206.916L149.479 206.864M149.479 206.864L149.46 206.812M149.479 206.864L149.46 206.812M149.46 206.812L149.441 206.759M149.46 206.812L149.441 206.759M149.441 206.759L149.422 206.707M149.441 206.759L149.422 206.707M149.422 206.707L149.403 206.655M149.422 206.707L149.403 206.655M149.403 206.655L149.384 206.603M149.403 206.655L149.384 206.603M149.384 206.603L149.365 206.551M149.384 206.603L149.365 206.551M149.365 206.551L149.346 206.499M149.365 206.551L149.346 206.499M149.346 206.499L149.327 206.447M149.346 206.499L149.327 206.447M149.327 206.447L149.308 206.395M149.327 206.447L149.308 206.395M149.308 206.395L149.289 206.343M149.308 206.395L149.289 206.343M149.289 206.343L149.269 206.291M149.289 206.343L149.269 206.291M149.269 206.291L149.25 206.238M149.269 206.291L149.25 206.238M149.25 206.238L149.231 206.186M149.25 206.238L149.231 206.186M149.231 206.186L149.212 206.134M149.231 206.186L149.212 206.134M149.212 206.134L149.193 206.082M149.212 206.134L149.193 206.082M149.193 206.082L149.174 206.03M149.193 206.082L149.174 206.03M149.174 206.03L149.155 205.978M149.174 206.03L149.155 205.978M149.155 205.978L149.136 205.926M149.155 205.978L149.136 205.926M149.136 205.926L149.117 205.874M149.136 205.926L149.117 205.874M149.117 205.874L149.098 205.821M149.117 205.874L149.098 205.821M149.098 205.821L149.079 205.769M149.098 205.821L149.079 205.769M149.079 205.769L149.06 205.717M149.079 205.769L149.06 205.717M149.06 205.717L149.041 205.665M149.06 205.717L149.041 205.665M149.041 205.665L149.022 205.613M149.041 205.665L149.022 205.613M149.022 205.613L149.003 205.561M149.022 205.613L149.003 205.561M149.003 205.561L148.984 205.509M149.003 205.561L148.984 205.509M148.984 205.509L148.965 205.456M148.984 205.509L148.965 205.456M148.965 205.456L148.946 205.404M148.965 205.456L148.946 205.404M148.946 205.404L148.927 205.352M148.946 205.404L148.927 205.352M148.927 205.352L148.908 205.3M148.927 205.352L148.908 205.3M148.908 205.3L148.889 205.248M148.908 205.3L148.889 205.248M148.889 205.248L148.87 205.196M148.889 205.248L148.87 205.196M148.87 205.196L148.851 205.144M148.87 205.196L148.851 205.144M148.851 205.144L148.832 205.091M148.851 205.144L148.832 205.091M148.832 205.091L148.813 205.039M148.832 205.091L148.813 205.039M148.813 205.039L148.794 204.987M148.813 205.039L148.794 204.987M148.794 204.987L148.775 204.935M148.794 204.987L148.775 204.935M148.775 204.935L148.756 204.883M148.775 204.935L148.756 204.883M148.756 204.883L148.737 204.831M148.756 204.883L148.737 204.831M148.737 204.831L148.718 204.778M148.737 204.831L148.718 204.778M148.718 204.778L148.699 204.726M148.718 204.778L148.699 204.726M148.699 204.726L148.68 204.674M148.699 204.726L148.68 204.674M148.68 204.674L148.66 204.622M148.68 204.674L148.66 204.622M148.66 204.622L148.641 204.57M148.66 204.622L148.641 204.57M148.641 204.57L148.622 204.517M148.641 204.57L148.622 204.517M148.622 204.517L148.603 204.465M148.622 204.517L148.603 204.465M148.603 204.465L148.584 204.413M148.603 204.465L148.584 204.413M148.584 204.413L148.565 204.361M148.584 204.413L148.565 204.361M148.565 204.361L148.546 204.309M148.565 204.361L148.546 204.309M148.546 204.309L148.527 204.256M148.546 204.309L148.527 204.256M148.527 204.256L148.508 204.204M148.527 204.256L148.508 204.204M148.508 204.204L148.489 204.152M148.508 204.204L148.489 204.152M148.489 204.152L148.47 204.1M148.489 204.152L148.47 204.1M148.47 204.1L148.451 204.048M148.47 204.1L148.451 204.048M148.451 204.048L148.432 203.995M148.451 204.048L148.432 203.995M148.432 203.995L148.413 203.943M148.432 203.995L148.413 203.943M148.413 203.943L148.394 203.891M148.413 203.943L148.394 203.891M148.394 203.891L148.375 203.839M148.394 203.891L148.375 203.839M148.375 203.839L148.356 203.786M148.375 203.839L148.356 203.786M148.356 203.786L148.337 203.734M148.356 203.786L148.337 203.734M148.337 203.734L148.317 203.682M148.337 203.734L148.317 203.682M148.317 203.682L148.298 203.63M148.317 203.682L148.298 203.63M148.298 203.63L148.279 203.577M148.298 203.63L148.279 203.577M148.279 203.577L148.26 203.525M148.279 203.577L148.26 203.525M148.26 203.525L148.241 203.473M148.26 203.525L148.241 203.473M148.241 203.473L148.222 203.421M148.241 203.473L148.222 203.421M148.222 203.421L148.203 203.368M148.222 203.421L148.203 203.368M148.203 203.368L148.184 203.316M148.203 203.368L148.184 203.316M148.184 203.316L148.165 203.264M148.184 203.316L148.165 203.264M148.165 203.264L148.146 203.211M148.165 203.264L148.146 203.211M148.146 203.211L148.127 203.159M148.146 203.211L148.127 203.159M148.127 203.159L148.108 203.107M148.127 203.159L148.108 203.107M148.108 203.107L148.089 203.055M148.108 203.107L148.089 203.055M148.089 203.055L148.069 203.002M148.089 203.055L148.069 203.002M148.069 203.002L148.05 202.95M148.069 203.002L148.05 202.95M148.05 202.95L148.031 202.898M148.05 202.95L148.031 202.898M148.031 202.898L148.012 202.845M148.031 202.898L148.012 202.845M148.012 202.845L147.993 202.793M148.012 202.845L147.993 202.793M147.993 202.793L147.974 202.741M147.993 202.793L147.974 202.741M147.974 202.741L147.955 202.688M147.974 202.741L147.955 202.688M147.955 202.688L147.936 202.636M147.955 202.688L147.936 202.636M147.936 202.636L147.917 202.584M147.936 202.636L147.917 202.584M147.917 202.584L147.898 202.531M147.917 202.584L147.898 202.531M147.898 202.531L147.879 202.479M147.898 202.531L147.879 202.479M147.879 202.479L147.859 202.427L147.879 202.479ZM72.9514 163.594L72.9507 163.593C63.0419 153.813 57.295 141.328 53.9957 127.942L53.9957 127.942C46.4786 97.5674 53.2993 70.6397 75.414 47.5871C84.9327 37.8021 95.7765 29.513 109.343 26.5311L109.345 26.5308C133.102 21.0145 155.451 24.6842 176.048 37.6682C191.015 47.1836 201.023 60.4811 208.169 76.8018C215.567 93.8146 217.43 110.869 211.666 128.736C208.288 139.037 203.356 148.319 194.841 155.365C192.98 156.839 191.946 158.414 191.529 160.168C191.112 161.919 191.314 163.838 191.903 165.997C192.462 168.868 193.019 171.731 193.575 174.589C197.086 192.642 200.552 210.459 204.278 228.181C204.545 229.452 204.51 230.428 204.147 231.279C203.782 232.132 203.083 232.873 201.991 233.664C195.985 237.825 189.342 240.25 182.914 242.202C176.489 244.152 169.811 245.407 162.878 245.966C160.946 246.082 159.4 245.864 158.123 245.168C156.847 244.472 155.825 243.29 154.957 241.452C154.825 241.147 154.693 240.843 154.562 240.54C152.196 235.085 149.95 229.907 147.905 224.302C145.774 217.375 142.711 210.888 139.492 204.514C138.759 203.063 138.018 201.617 137.278 200.174C134.766 195.277 132.267 190.402 130.133 185.393C129.907 184.775 129.63 184.362 129.311 184.1C128.99 183.836 128.634 183.731 128.263 183.711C127.895 183.691 127.51 183.756 127.129 183.834C127.047 183.851 126.965 183.868 126.884 183.885C126.583 183.948 126.285 184.011 125.989 184.043C105.073 185.37 87.3431 178.049 72.9514 163.594ZM114.733 32.3027L114.649 32.2257L114.584 32.32C112.995 34.626 112.398 37.1713 111.851 39.4989C111.769 39.8513 111.687 40.1988 111.603 40.5396L111.603 40.5396L111.602 40.544C106.715 65.224 104.181 89.8453 110.028 114.573C115.621 138.608 128.994 157.829 148.962 172.269L148.973 172.276C150.047 173.06 151.157 173.87 152.723 173.703L152.723 173.703L152.73 173.702C156.835 172.993 159.352 172.181 160.895 170.464C162.438 168.747 162.988 166.145 163.23 161.913L163.23 161.911C163.846 145.098 161.403 128.612 156.731 112.546L156.731 112.545C150.535 92.3029 142.586 72.697 131.131 54.3684L131.131 54.3679C130.458 53.3069 129.787 52.2283 129.11 51.1399C125.086 44.6727 120.844 37.8564 114.733 32.3027ZM147.844 175.487L148.018 175.423L147.869 175.312C125.042 158.404 110.683 136.439 105.834 109.03C101.651 84.5266 104.179 59.9366 110.145 36.0598L110.146 36.06L110.147 36.0471C110.225 35.3788 110.523 34.7645 110.832 34.1253C110.895 33.996 110.958 33.8657 111.019 33.7337C111.384 32.957 111.698 32.1324 111.551 31.1666L111.537 31.0791L111.449 31.0817C109.065 31.1529 107.071 32.2814 105.447 33.2686C97.881 37.6126 92.2633 44.0146 87.8595 51.55C70.5674 80.3843 71.6985 109.611 86.7504 138.881C96.5871 158.212 112.04 171.149 133.328 177.212L133.328 177.212L133.341 177.214C137.975 177.901 142.576 177.409 147.844 175.487ZM166.146 168.267L166.142 168.404L166.274 168.366C168.971 167.579 171.375 166.505 173.233 164.881C175.094 163.256 176.404 161.084 176.919 158.112C177.174 156.645 177.578 155.318 178.028 153.971C178.135 153.652 178.244 153.331 178.355 153.007C178.71 151.966 179.076 150.891 179.405 149.715L179.406 149.712C186.657 120.601 183.68 92.8484 168.944 66.6226L168.944 66.622C160.155 51.253 146.424 40.8543 131.785 31.1971C127.556 28.3687 121.855 28.0678 117.626 29.6113L117.495 29.6592L117.582 29.768C150.236 70.3226 167.356 116.147 166.146 168.267ZM178.251 162.245L178.191 162.438L178.38 162.369L178.38 162.369L178.381 162.369L178.381 162.369L178.381 162.369L178.381 162.369L178.381 162.368L178.381 162.368L178.382 162.368L178.382 162.368L178.382 162.368L178.382 162.368L178.382 162.368L178.382 162.368L178.382 162.368L178.383 162.368L178.383 162.368L178.383 162.368L178.383 162.368L178.383 162.368L178.384 162.368L178.384 162.368L178.384 162.367L178.384 162.367L178.385 162.367L178.385 162.367L178.385 162.367L178.385 162.367L178.386 162.367L178.386 162.367L178.386 162.367L178.387 162.367L178.387 162.366L178.387 162.366L178.388 162.366L178.388 162.366L178.388 162.366L178.389 162.366L178.389 162.366L178.389 162.366L178.39 162.365L178.39 162.365L178.39 162.365L178.391 162.365L178.391 162.365L178.392 162.365L178.392 162.365L178.392 162.364L178.393 162.364L178.393 162.364L178.394 162.364L178.394 162.364L178.395 162.364L178.395 162.363L178.396 162.363L178.396 162.363L178.397 162.363L178.397 162.363L178.398 162.363L178.398 162.362L178.399 162.362L178.399 162.362L178.4 162.362L178.4 162.362L178.401 162.361L178.401 162.361L178.402 162.361L178.402 162.361L178.403 162.361L178.404 162.36L178.404 162.36L178.405 162.36L178.405 162.36L178.406 162.359L178.406 162.359L178.407 162.359L178.408 162.359L178.408 162.359L178.409 162.358L178.41 162.358L178.41 162.358L178.411 162.358L178.412 162.357L178.412 162.357L178.413 162.357L178.414 162.357L178.414 162.356L178.415 162.356L178.416 162.356L178.416 162.356L178.417 162.355L178.418 162.355L178.419 162.355L178.419 162.355L178.42 162.354L178.421 162.354L178.422 162.354L178.422 162.353L178.423 162.353L178.424 162.353L178.425 162.353L178.425 162.352L178.426 162.352L178.427 162.352L178.428 162.351L178.429 162.351L178.429 162.351L178.43 162.351L178.431 162.35L178.432 162.35L178.433 162.35L178.434 162.349L178.434 162.349L178.435 162.349L178.436 162.348L178.437 162.348L178.438 162.348L178.439 162.347L178.44 162.347L178.441 162.347L178.441 162.346L178.442 162.346L178.443 162.346L178.444 162.345L178.445 162.345L178.446 162.345L178.447 162.344L178.448 162.344L178.449 162.344L178.45 162.343L178.451 162.343L178.452 162.343L178.453 162.342L178.454 162.342L178.455 162.342L178.456 162.341L178.457 162.341L178.458 162.341L178.459 162.34L178.46 162.34L178.461 162.339L178.462 162.339L178.463 162.339L178.464 162.338L178.465 162.338L178.466 162.338L178.467 162.337L178.468 162.337L178.469 162.336L178.47 162.336L178.471 162.336L178.472 162.335L178.473 162.335L178.474 162.334L178.476 162.334L178.477 162.334L178.478 162.333L178.479 162.333L178.48 162.332L178.481 162.332L178.482 162.332L178.483 162.331L178.485 162.331L178.486 162.33L178.487 162.33L178.488 162.33L178.489 162.329L178.49 162.329L178.491 162.328L178.493 162.328L178.494 162.327L178.495 162.327L178.496 162.327L178.497 162.326L178.499 162.326L178.5 162.325L178.501 162.325L178.502 162.324L178.503 162.324L178.505 162.323L178.506 162.323L178.507 162.323L178.508 162.322L178.51 162.322L178.511 162.321L178.512 162.321L178.513 162.32L178.515 162.32L178.516 162.319L178.517 162.319L178.519 162.318L178.52 162.318L178.521 162.317L178.522 162.317L178.524 162.316L178.525 162.316L178.526 162.316L178.528 162.315L178.529 162.315L178.53 162.314L178.532 162.314L178.533 162.313L178.534 162.313L178.536 162.312L178.537 162.312L178.538 162.311L178.54 162.311L178.541 162.31L178.542 162.31L178.544 162.309L178.545 162.309L178.547 162.308L178.548 162.308L178.549 162.307L178.551 162.307L178.552 162.306L178.554 162.306L178.555 162.305L178.556 162.305L178.558 162.304L178.559 162.304L178.561 162.303L178.562 162.302L178.564 162.302L178.565 162.301L178.566 162.301L178.568 162.3L178.569 162.3L178.571 162.299L178.572 162.299L178.574 162.298L178.575 162.298L178.577 162.297L178.578 162.297L178.58 162.296L178.581 162.296L178.583 162.295L178.584 162.294L178.586 162.294L178.587 162.293L178.589 162.293L178.59 162.292L178.592 162.292L178.593 162.291L178.595 162.291L178.596 162.29L178.598 162.289L178.599 162.289L178.601 162.288L178.602 162.288L178.604 162.287L178.605 162.287L178.607 162.286L178.609 162.286L178.61 162.285L178.612 162.284L178.613 162.284L178.615 162.283L178.616 162.283L178.618 162.282L178.62 162.281L178.621 162.281L178.623 162.28L178.624 162.28L178.626 162.279L178.628 162.279L178.629 162.278L178.631 162.277L178.632 162.277L178.634 162.276L178.636 162.276L178.637 162.275L178.639 162.274L178.641 162.274L178.642 162.273L178.644 162.273L178.646 162.272L178.647 162.271L178.649 162.271L178.651 162.27L178.652 162.27L178.654 162.269L178.656 162.268L178.657 162.268L178.659 162.267L178.661 162.267L178.662 162.266L178.664 162.265L178.666 162.265L178.667 162.264L178.669 162.263L178.671 162.263L178.672 162.262L178.674 162.262L178.676 162.261L178.677 162.26L178.679 162.26L178.681 162.259L178.683 162.258L178.684 162.258L178.686 162.257L178.688 162.257L178.69 162.256L178.691 162.255L178.693 162.255L178.695 162.254L178.697 162.253L178.698 162.253L178.7 162.252L178.702 162.251L178.704 162.251L178.705 162.25L178.707 162.25L178.709 162.249L178.711 162.248L178.712 162.248L178.714 162.247L178.716 162.246L178.718 162.246L178.72 162.245L178.721 162.244L178.723 162.244L178.725 162.243L178.727 162.242L178.729 162.242L178.73 162.241L178.732 162.24L178.734 162.24L178.736 162.239L178.738 162.238L178.739 162.238L178.741 162.237L178.743 162.236L178.745 162.236L178.747 162.235L178.748 162.234L178.75 162.234L178.752 162.233L178.754 162.232L178.756 162.232L178.758 162.231L178.76 162.23L178.761 162.23L178.763 162.229L178.765 162.228L178.767 162.228L178.769 162.227L178.771 162.226L178.773 162.226L178.774 162.225L178.776 162.224L178.778 162.224L178.78 162.223L178.782 162.222L178.784 162.222L178.786 162.221L178.787 162.22L178.789 162.22L178.791 162.219L178.793 162.218L178.795 162.217L178.797 162.217L178.799 162.216L178.801 162.215L178.803 162.215L178.805 162.214L178.806 162.213L178.808 162.213L178.81 162.212L178.812 162.211L178.814 162.211L178.816 162.21L178.818 162.209L178.82 162.208L178.822 162.208L178.824 162.207L178.826 162.206L178.828 162.206L178.829 162.205L178.831 162.204L178.833 162.203L178.835 162.203L178.837 162.202L178.839 162.201L178.841 162.201L178.843 162.2L178.845 162.199L178.847 162.199L178.849 162.198L178.851 162.197L178.853 162.196L178.855 162.196L178.857 162.195L178.859 162.194L178.861 162.194L178.863 162.193L178.865 162.192L178.866 162.191L178.868 162.191L178.87 162.19L178.872 162.189L178.874 162.189L178.876 162.188L178.878 162.187L178.88 162.186L178.882 162.186L178.884 162.185L178.886 162.184L178.888 162.183L178.89 162.183L178.892 162.182L178.894 162.181L178.896 162.181L178.898 162.18L178.9 162.179L178.902 162.178L178.904 162.178L178.906 162.177L178.908 162.176L178.91 162.175L178.912 162.175L178.914 162.174L178.916 162.173L178.918 162.173L178.92 162.172L178.922 162.171L178.924 162.17L178.926 162.17L178.928 162.169L178.93 162.168L178.932 162.167L178.934 162.167L178.936 162.166L178.938 162.165L178.94 162.164L178.942 162.164L178.944 162.163L178.946 162.162L178.948 162.162L178.95 162.161L178.952 162.16L178.954 162.159L178.956 162.159L178.958 162.158L178.96 162.157L178.962 162.156L178.964 162.156L178.966 162.155L178.968 162.154L178.97 162.153L178.973 162.153L178.975 162.152L178.977 162.151L178.979 162.15L178.981 162.15L178.983 162.149L178.985 162.148L178.987 162.147L178.989 162.147L178.991 162.146L178.993 162.145L178.995 162.145L178.997 162.144L178.999 162.143L179.001 162.142L179.003 162.142L179.005 162.141L179.007 162.14L179.009 162.139L179.011 162.139L179.013 162.138L179.015 162.137L179.017 162.136L179.019 162.136L179.021 162.135L179.023 162.134L179.026 162.133L179.028 162.133L179.03 162.132L179.032 162.131L179.034 162.13L179.036 162.13L179.038 162.129L179.04 162.128L179.042 162.127L179.044 162.127L179.046 162.126L179.048 162.125L179.05 162.124L179.052 162.124L179.054 162.123L179.056 162.122L179.058 162.121L179.06 162.121L179.062 162.12L179.064 162.119L179.067 162.118L179.069 162.118L179.071 162.117L179.073 162.116L179.075 162.115L179.077 162.115L179.079 162.114L179.081 162.113C179.407 161.994 179.706 161.803 180.022 161.6C180.058 161.577 180.095 161.553 180.131 161.53C180.492 161.3 180.891 161.058 181.406 160.87L181.419 160.865L181.43 160.857C201.237 146.514 209.921 126.74 209.172 102.907C208.956 90.3326 204.403 78.95 198.453 68.0895L198.453 68.088C185.21 44.8673 165.742 31.8149 138.879 28.9732C138.801 28.9547 138.722 28.9352 138.641 28.9154C138.046 28.7696 137.36 28.6015 136.688 28.5823C135.919 28.5602 135.155 28.7327 134.555 29.3644L134.472 29.4519L134.574 29.5173C159.982 45.8825 175.073 65.5117 181.728 87.8199C188.383 110.13 186.605 135.131 178.251 162.245ZM92.0756 39.9214L91.931 39.7849L84.2565 45.843L84.1919 45.7667C84.1919 45.7667 84.1919 45.7667 84.1918 45.7668C69.0144 58.6155 60.6757 73.6134 57.6848 89.3797C54.6941 105.145 57.0512 121.671 63.2539 137.579L63.2542 137.579C72.3587 160.348 90.6536 173.435 114.519 178.949C119.756 180.205 124.833 179.935 131.297 179.154L131.316 178.96C101.149 169.077 83.9935 148.141 75.9337 119.538C68.0981 90.4628 73.8693 63.9151 92.0756 39.9214ZM179.48 183.58L179.453 183.472L179.349 183.51L179.285 183.533L179.221 183.557L179.158 183.58L179.094 183.603L179.031 183.626L178.967 183.649L178.904 183.673L178.84 183.696L178.777 183.719L178.713 183.742L178.65 183.765L178.586 183.788L178.523 183.812L178.46 183.835L178.396 183.858L178.333 183.881L178.269 183.904L178.206 183.927L178.143 183.95L178.079 183.973L178.016 183.997L177.953 184.02L177.89 184.043L177.826 184.066L177.763 184.089L177.7 184.112L177.637 184.135L177.574 184.158L177.51 184.181L177.447 184.204L177.384 184.227L177.321 184.25L177.258 184.273L177.195 184.296L177.132 184.319L177.069 184.342L177.005 184.365L176.942 184.388L176.879 184.411L176.816 184.434L176.753 184.457L176.69 184.48L176.627 184.503L176.565 184.526L176.502 184.549L176.439 184.572L176.376 184.595L176.313 184.618L176.25 184.641L176.187 184.664L176.124 184.687L176.061 184.71L175.999 184.733L175.936 184.756L175.873 184.779L175.81 184.802L175.747 184.825L175.685 184.847L175.622 184.87L175.559 184.893L175.497 184.916L175.434 184.939L175.371 184.962L175.309 184.985L175.246 185.008L175.183 185.03L175.121 185.053L175.058 185.076L174.995 185.099L174.933 185.122L174.87 185.145L174.808 185.168L174.745 185.19L174.683 185.213L174.62 185.236L174.558 185.259L174.495 185.282L174.433 185.304L174.37 185.327L174.308 185.35L174.245 185.373L174.183 185.396L174.121 185.418L174.058 185.441L173.996 185.464L173.933 185.487L173.871 185.509L173.809 185.532L173.746 185.555L173.684 185.578L173.622 185.6L173.559 185.623L173.497 185.646L173.435 185.668L173.373 185.691L173.31 185.714L173.248 185.737L173.186 185.759L173.124 185.782L173.062 185.805L173 185.827L172.937 185.85L172.875 185.873L172.813 185.895L172.751 185.918L172.689 185.941L172.627 185.963L172.565 185.986L172.503 186.009L172.441 186.031L172.379 186.054L172.317 186.077L172.255 186.099L172.193 186.122L172.131 186.145L172.069 186.167L172.007 186.19L171.945 186.212L171.883 186.235L171.821 186.258L171.759 186.28L171.697 186.303L171.635 186.325L171.573 186.348L171.511 186.371L171.449 186.393L171.388 186.416L171.326 186.438L171.264 186.461L171.202 186.483L171.14 186.506L171.079 186.528L171.017 186.551L170.955 186.574L170.893 186.596L170.832 186.619L170.77 186.641L170.708 186.664L170.646 186.686L170.585 186.709L170.523 186.731L170.461 186.754L170.4 186.776L170.338 186.799L170.276 186.821L170.215 186.844L170.153 186.866L170.092 186.889L170.03 186.911L169.969 186.934L169.907 186.956L169.845 186.979L169.784 187.001L169.722 187.023L169.661 187.046L169.599 187.068L169.538 187.091L169.476 187.113L169.415 187.136L169.353 187.158L169.292 187.18L169.231 187.203L169.169 187.225L169.108 187.248L169.046 187.27L168.985 187.293L168.923 187.315L168.862 187.337L168.801 187.36L168.739 187.382L168.678 187.405L168.617 187.427L168.555 187.449L168.494 187.472L168.433 187.494L168.371 187.516L168.31 187.539L168.249 187.561L168.188 187.584L168.126 187.606L168.065 187.628L168.004 187.651L167.943 187.673L167.882 187.695L167.82 187.718L167.759 187.74L167.698 187.762L167.637 187.785L167.576 187.807L167.515 187.829L167.453 187.851L167.392 187.874L167.331 187.896L167.27 187.918L167.209 187.941L167.148 187.963L167.087 187.985L167.026 188.008L166.965 188.03L166.904 188.052L166.843 188.074L166.782 188.097L166.721 188.119L166.66 188.141L166.599 188.163L166.538 188.186L166.477 188.208L166.416 188.23L166.355 188.252L166.294 188.275L166.233 188.297L166.172 188.319L166.111 188.341L166.05 188.364L165.989 188.386L165.928 188.408L165.867 188.43L165.807 188.453L165.746 188.475L165.685 188.497L165.624 188.519L165.563 188.541L165.502 188.564L165.441 188.586L165.381 188.608L165.32 188.63L165.259 188.652L165.198 188.675L165.138 188.697L165.077 188.719L165.016 188.741L164.955 188.763L164.894 188.785L164.834 188.808L164.773 188.83L164.712 188.852L164.652 188.874L164.591 188.896L164.53 188.918L164.47 188.94L164.409 188.963L164.348 188.985L164.288 189.007L164.227 189.029L164.166 189.051L164.106 189.073L164.045 189.095L163.984 189.117L163.924 189.14L163.863 189.162L163.803 189.184L163.742 189.206L163.682 189.228L163.621 189.25L163.56 189.272L163.5 189.294L163.439 189.316L163.379 189.339L163.318 189.361L163.258 189.383L163.197 189.405L163.137 189.427L163.076 189.449L163.016 189.471L162.955 189.493L162.895 189.515L162.834 189.537L162.774 189.559L162.713 189.581L162.653 189.603L162.593 189.625L162.532 189.647L162.472 189.67L162.411 189.692L162.351 189.714L162.291 189.736L162.23 189.758L162.17 189.78L162.109 189.802L162.049 189.824L161.989 189.846L161.928 189.868L161.868 189.89L161.808 189.912L161.747 189.934L161.687 189.956L161.627 189.978L161.566 190L161.506 190.022L161.446 190.044L161.386 190.066L161.325 190.088L161.265 190.11L161.205 190.132L161.145 190.154L161.084 190.176L161.024 190.198L160.964 190.22L160.904 190.242L160.843 190.264L160.783 190.286L160.723 190.308L160.663 190.33L160.603 190.352L160.542 190.374L160.482 190.396L160.422 190.418L160.362 190.44L160.302 190.462L160.241 190.484L160.181 190.505L160.121 190.527L160.061 190.549L160.001 190.571L159.941 190.593L159.881 190.615L159.821 190.637L159.76 190.659L159.7 190.681L159.64 190.703L159.58 190.725L159.52 190.747L159.46 190.769L159.4 190.791L159.34 190.813L159.28 190.834L159.22 190.856L159.16 190.878L159.1 190.9L159.04 190.922L158.98 190.944L158.92 190.966L158.86 190.988L158.8 191.01L158.74 191.032L158.68 191.054L158.62 191.075L158.56 191.097L158.5 191.119L158.44 191.141L158.38 191.163L158.32 191.185L158.26 191.207L158.2 191.229L158.14 191.251L158.08 191.272L158.02 191.294L157.96 191.316L157.9 191.338L157.84 191.36L157.78 191.382L157.72 191.404L157.66 191.426L157.6 191.447L157.54 191.469L157.481 191.491L157.421 191.513L157.361 191.535L157.301 191.557L157.241 191.579L157.181 191.6L157.121 191.622L157.061 191.644L157.002 191.666L156.942 191.688L156.882 191.71L156.822 191.731L156.762 191.753L156.702 191.775L156.643 191.797L156.583 191.819L156.523 191.841L156.463 191.862L156.403 191.884L156.343 191.906L156.284 191.928L156.224 191.95L156.164 191.972L156.104 191.993L156.044 192.015L155.985 192.037L155.925 192.059L155.865 192.081L155.805 192.103L155.746 192.124L155.686 192.146L155.626 192.168L155.566 192.19L155.506 192.212L155.447 192.233L155.387 192.255L155.327 192.277L155.268 192.299L155.208 192.321L155.148 192.342L155.088 192.364L155.029 192.386L154.969 192.408L154.909 192.43L154.849 192.451L154.79 192.473L154.73 192.495L154.67 192.517L154.611 192.539L154.551 192.56L154.491 192.582L154.432 192.604L154.372 192.626L154.312 192.647L154.252 192.669L154.193 192.691L154.133 192.713L154.073 192.735L154.014 192.756L153.954 192.778L153.894 192.8L153.835 192.822L153.775 192.843L153.716 192.865L153.656 192.887L153.596 192.909L153.537 192.93L153.477 192.952L153.417 192.974L153.358 192.996L153.298 193.018L153.238 193.039L153.179 193.061L153.119 193.083L153.06 193.105L153 193.126L152.94 193.148L152.881 193.17L152.821 193.192L152.761 193.213L152.702 193.235L152.642 193.257L152.583 193.279L152.523 193.3L152.463 193.322L152.404 193.344L152.344 193.366L152.285 193.387L152.225 193.409L152.165 193.431L152.106 193.453L152.046 193.474L151.987 193.496L151.927 193.518L151.868 193.54L151.808 193.561L151.748 193.583L151.689 193.605L151.629 193.627L151.57 193.648L151.51 193.67L151.451 193.692L151.391 193.714L151.331 193.735L151.272 193.757L151.212 193.779L151.153 193.8L151.093 193.822L151.034 193.844L150.974 193.866L150.915 193.887L150.855 193.909L150.796 193.931L150.736 193.953L150.676 193.974L150.617 193.996L150.557 194.018L150.498 194.04L150.438 194.061L150.379 194.083L150.319 194.105L150.26 194.126L150.2 194.148L150.141 194.17L150.081 194.192L150.022 194.213L149.962 194.235L149.902 194.257L149.843 194.279L149.783 194.3L149.724 194.322L149.664 194.344L149.605 194.365L149.545 194.387L149.486 194.409L149.426 194.431L149.367 194.452L149.307 194.474L149.248 194.496L149.188 194.517L149.129 194.539L149.069 194.561L149.01 194.583L148.95 194.604L148.891 194.626L148.831 194.648L148.772 194.67L148.712 194.691L148.653 194.713L148.593 194.735L148.533 194.756L148.474 194.778L148.414 194.8L148.355 194.822L148.295 194.843L148.236 194.865L148.176 194.887L148.082 194.921L148.117 195.015L148.135 195.064L148.152 195.113L148.17 195.162L148.188 195.211L148.206 195.26L148.224 195.309L148.242 195.358L148.26 195.407L148.278 195.456L148.295 195.505L148.313 195.554L148.331 195.603L148.349 195.652L148.367 195.701L148.385 195.75L148.403 195.799L148.421 195.848L148.438 195.897L148.456 195.946L148.474 195.995L148.492 196.043L148.51 196.092L148.528 196.141L148.546 196.19L148.564 196.239L148.581 196.288L148.599 196.337L148.617 196.386L148.635 196.435L148.653 196.484L148.671 196.533L148.689 196.582L148.707 196.631L148.724 196.68L148.742 196.729L148.76 196.778L148.778 196.827L148.796 196.876L148.814 196.925L148.832 196.974L148.85 197.023L148.867 197.072L148.885 197.121L148.903 197.17L148.921 197.219L148.939 197.268L148.957 197.317L148.975 197.366L148.993 197.415L149.01 197.464L149.028 197.513L149.046 197.561L149.064 197.61L149.082 197.659L149.1 197.708L149.118 197.757L149.135 197.806L149.153 197.855L149.171 197.904L149.189 197.953L149.207 198.002L149.225 198.051L149.243 198.1L149.261 198.149L149.278 198.198L149.296 198.247L149.314 198.296L149.332 198.345L149.35 198.394L149.368 198.443L149.386 198.492L149.403 198.54L149.421 198.589L149.439 198.638L149.457 198.687L149.475 198.736L149.493 198.785L149.511 198.834L149.528 198.883L149.546 198.932L149.564 198.981L149.582 199.03L149.6 199.079L149.618 199.128L149.636 199.177L149.653 199.225L149.671 199.274L149.689 199.323L149.707 199.372L149.725 199.421L149.743 199.47L149.761 199.519L149.778 199.568L149.796 199.617L149.814 199.666L149.832 199.715L149.85 199.764L149.868 199.812L149.885 199.861L149.903 199.91L149.921 199.959L149.939 200.008L149.957 200.057L149.975 200.106L149.993 200.155L150.01 200.204L150.028 200.253L150.046 200.301L150.064 200.35L150.082 200.399L150.1 200.448L150.117 200.497L150.135 200.546L150.153 200.595L150.171 200.644L150.189 200.692L150.207 200.741L150.224 200.79L150.242 200.839L150.26 200.888L150.278 200.937L150.296 200.986L150.314 201.035L150.331 201.083L150.349 201.132L150.367 201.181L150.385 201.23L150.403 201.279L150.421 201.328L150.438 201.377L150.456 201.425L150.474 201.474L150.492 201.523L150.51 201.572L150.528 201.621L150.545 201.67L150.563 201.718L150.581 201.767L150.599 201.816L150.617 201.865L150.634 201.914L150.652 201.963L150.67 202.011L150.688 202.06L150.706 202.109L150.724 202.158L150.741 202.207L150.759 202.255L150.777 202.304L150.795 202.353L150.813 202.402L150.83 202.451L150.848 202.499L150.866 202.548L150.884 202.597L150.902 202.646L150.919 202.695L150.937 202.743L150.955 202.792L150.973 202.841L150.991 202.89L151.008 202.939L151.026 202.987L151.044 203.036L151.062 203.085L151.08 203.134L151.097 203.182L151.115 203.231L151.133 203.28L151.151 203.329L151.169 203.377L151.186 203.426L151.204 203.475L151.222 203.524L151.24 203.572L151.258 203.621L151.275 203.67L151.293 203.719L151.311 203.767L151.329 203.816L151.347 203.865L151.364 203.913L151.382 203.962L151.4 204.011L151.418 204.06L151.435 204.108L151.453 204.157L151.471 204.206L151.489 204.254L151.507 204.303L151.524 204.352L151.542 204.401L151.56 204.449L151.578 204.498L151.595 204.547L151.613 204.595L151.631 204.644L151.649 204.693L151.666 204.741L151.684 204.79L151.702 204.839L151.72 204.887L151.737 204.936L151.755 204.985L151.773 205.033L151.791 205.082L151.808 205.131L151.826 205.179L151.844 205.228L151.862 205.277L151.88 205.325L151.897 205.374L151.915 205.422L151.933 205.471L151.95 205.52L151.968 205.568L151.986 205.617L152.004 205.666L152.021 205.714L152.039 205.763L152.057 205.811L152.075 205.86L152.092 205.909L152.11 205.957L152.128 206.006L152.146 206.054L152.163 206.103L152.181 206.151L152.199 206.2L152.217 206.249L152.234 206.297L152.252 206.346L152.27 206.394L152.287 206.443L152.305 206.491L152.323 206.54L152.341 206.588L152.358 206.637L152.376 206.686L152.394 206.734L152.411 206.783L152.429 206.831L152.447 206.88L152.465 206.928L152.482 206.977L152.5 207.025L152.518 207.074L152.535 207.122L152.553 207.171L152.571 207.219L152.588 207.268L152.606 207.316L152.624 207.365L152.642 207.413L152.659 207.462L152.677 207.51L152.695 207.559L152.712 207.607L152.73 207.655L152.748 207.704L152.765 207.752L152.783 207.801L152.801 207.849L152.818 207.898L152.836 207.946L152.854 207.995L152.871 208.043L152.889 208.091L152.907 208.14L152.924 208.188L152.942 208.237L152.96 208.285L152.977 208.333L152.995 208.382L153.013 208.43L153.03 208.479L153.048 208.527L153.066 208.575L153.083 208.624L153.101 208.672L153.119 208.72L153.136 208.769L153.154 208.817L153.172 208.866L153.189 208.914L153.207 208.962L153.225 209.011L153.242 209.059L153.26 209.107L153.277 209.156L153.295 209.204L153.313 209.252L153.33 209.301L153.348 209.349L153.366 209.397L153.383 209.445L153.401 209.494L153.418 209.542L153.436 209.59L153.454 209.639L153.471 209.687L153.489 209.735L153.507 209.783L153.524 209.832L153.542 209.88L153.559 209.928L153.577 209.976L153.595 210.025L153.612 210.073L153.63 210.121L153.647 210.169L153.665 210.218L153.683 210.266L153.7 210.314L153.718 210.362L153.735 210.41L153.753 210.459L153.771 210.507L153.788 210.555L153.806 210.603L153.823 210.651L153.841 210.7L153.859 210.748L153.876 210.796L153.894 210.844L153.911 210.892L153.929 210.94L153.946 210.989L153.964 211.037L153.982 211.085L153.999 211.133L154.017 211.181L154.034 211.229L154.052 211.277L154.069 211.325L154.087 211.373L154.104 211.422L154.122 211.47L154.14 211.518L154.157 211.566L154.175 211.614L154.192 211.662L154.21 211.71L154.227 211.758L154.245 211.806L154.262 211.854L154.28 211.902L154.297 211.95L154.315 211.998L154.332 212.046L154.35 212.094L154.367 212.142L154.385 212.19L154.403 212.238L154.42 212.286L154.438 212.334L154.455 212.382L154.473 212.43L154.49 212.478L154.508 212.526L154.525 212.574L154.543 212.622L154.56 212.67L154.578 212.718L154.595 212.766L154.613 212.814L154.63 212.862L154.648 212.91L154.665 212.958L154.683 213.006L154.7 213.054L154.718 213.102L154.735 213.149L154.753 213.197L154.77 213.245L154.787 213.293L154.805 213.341L154.822 213.389L154.84 213.437L154.857 213.485L154.875 213.532L154.892 213.58L154.91 213.628L154.927 213.676L154.945 213.724L154.962 213.772L154.98 213.819L154.997 213.867L155.014 213.915L155.032 213.963L155.049 214.011L155.067 214.058L155.084 214.106L155.102 214.154L155.119 214.202L155.136 214.25L155.154 214.297L155.171 214.345L155.189 214.393L155.206 214.44L155.224 214.488L155.241 214.536L155.258 214.584L155.276 214.631L155.293 214.679L155.311 214.727L155.328 214.774L155.345 214.822L155.363 214.87L155.38 214.918L155.398 214.965L155.415 215.013L155.432 215.06L155.45 215.108L155.467 215.156L155.485 215.203L155.502 215.251L155.519 215.299L155.537 215.346L155.554 215.394L155.572 215.442L155.589 215.489L155.606 215.537L155.624 215.584L155.641 215.632L155.658 215.679L155.676 215.727L155.693 215.775L155.71 215.822L155.728 215.87L155.745 215.917L155.762 215.965L155.78 216.012L155.797 216.06L155.814 216.107L155.832 216.155L155.849 216.202L155.866 216.25L155.884 216.297L155.901 216.345L155.918 216.392L155.936 216.44L155.953 216.487L155.97 216.535L155.988 216.582L156.005 216.629L156.022 216.677L156.04 216.724L156.057 216.772L156.074 216.819L156.092 216.866L156.109 216.914L156.126 216.961L156.143 217.009L156.161 217.056L156.178 217.103L156.195 217.151L156.213 217.198L156.23 217.245L156.247 217.293L156.264 217.34L156.282 217.387L156.299 217.435L156.316 217.482L156.333 217.529L156.351 217.577L156.368 217.624L156.385 217.671L156.402 217.718L156.42 217.766L156.437 217.813L156.454 217.86L156.471 217.907L156.489 217.955L156.506 218.002L156.523 218.049L156.54 218.096L156.558 218.144L156.575 218.191L156.592 218.238L156.609 218.285L156.627 218.332L156.644 218.379L156.661 218.427L156.678 218.474L156.695 218.521L156.713 218.568L156.73 218.615L156.747 218.662L156.764 218.709L156.781 218.756L156.799 218.804L156.816 218.851L156.833 218.898L156.85 218.945L156.867 218.992L156.884 219.039L156.902 219.086L156.919 219.133L156.936 219.18L156.953 219.227L156.97 219.274L156.987 219.321L157.005 219.368L157.022 219.415L157.039 219.462L157.056 219.509L157.073 219.556L157.09 219.603L157.107 219.65L157.125 219.697L157.142 219.744C157.59 220.972 158.123 221.611 158.837 221.825C159.541 222.036 160.389 221.822 161.436 221.441C163.341 220.877 165.263 220.35 167.185 219.824C171.037 218.769 174.893 217.714 178.632 216.349L178.639 216.346C181.085 215.454 182.906 214.789 184.209 214.146C185.513 213.504 186.318 212.873 186.71 212.038C187.101 211.203 187.068 210.186 186.754 208.796C186.483 207.598 185.998 206.106 185.377 204.193C185.277 203.886 185.175 203.569 185.068 203.241L185.067 203.237C182.896 197.287 181.356 191.106 179.737 184.609C179.651 184.267 179.566 183.924 179.48 183.58ZM152.567 226.44L152.463 226.458L152.486 226.56C153.092 229.314 154.282 231.753 155.478 234.08C155.594 234.304 155.709 234.527 155.824 234.75C156.903 236.837 157.941 238.845 158.526 240.938L158.526 240.938L158.529 240.945C158.692 241.394 158.916 241.725 159.187 241.965C159.458 242.205 159.772 242.349 160.111 242.43C160.78 242.591 161.558 242.508 162.314 242.427L162.324 242.426C162.324 242.426 162.324 242.426 162.324 242.426C168.09 241.902 173.732 241.028 179.471 239.329L179.473 239.328C180.401 239.039 181.332 238.754 182.263 238.469C188.834 236.46 195.454 234.436 201.659 230.44L201.718 230.401L201.702 230.333C201.064 227.633 200.492 224.908 199.908 222.121C199.824 221.722 199.74 221.321 199.655 220.919C198.981 217.711 198.274 214.415 197.417 210.977L197.383 210.841L197.266 210.917C190.207 215.463 182.862 218.145 175.733 220.352C168.249 222.688 160.773 225.022 152.567 226.44ZM138.447 194.615L138.488 194.688L138.568 194.659C144.299 192.568 150.129 190.748 155.947 188.933C158.838 188.03 161.726 187.129 164.598 186.196C173.248 183.384 181.748 180.282 189.718 175.991L189.778 175.959L189.769 175.891C189.167 170.976 188.469 166.887 187.517 162.102L187.487 161.954L187.363 162.038C170.815 173.205 152.742 180.195 132.921 183.484L132.778 183.508L132.852 183.634C133.898 185.417 134.739 187.178 135.598 188.987L135.662 189.123C136.5 190.888 137.36 192.699 138.447 194.615ZM181.789 182.62L181.708 182.662L181.742 182.747C183.63 187.377 184.787 192.176 185.946 196.984L185.947 196.988C187.106 201.792 188.266 206.605 190.16 211.25L190.196 211.339L190.287 211.306C193.099 210.28 194.733 209.287 196.588 207.817L196.638 207.777L196.623 207.715C195.56 203.264 194.603 198.861 193.639 194.424L193.465 193.625C192.442 188.917 191.402 184.165 190.211 179.27L190.184 179.161L190.079 179.199L190.077 179.2C186.927 180.35 184.47 181.247 181.789 182.62Z" fill="#E6E8EB" stroke="white" stroke-width="0.2"/>
<path d="M176.986 228.936C178.124 227.796 179.145 226.336 180.282 225.196C181.989 223.486 184.046 222.736 186.343 223.709C188.181 224.488 188.765 226.087 188.203 227.742C187.875 230.036 185.943 232.191 183.536 231.982C179.065 231.439 175.411 233.135 171.414 234.957C169.7 235.582 167.979 235.123 166.709 233.774C165.44 232.425 165.659 230.896 166.337 229.561C167.358 228.101 169.072 227.475 171.019 227.49C173.084 227.824 174.805 228.283 176.986 228.936Z" fill="#FECB00"/>
<path d="M243.466 273.129C247.582 270.65 250.854 268.065 254.971 265.585C256.373 264.477 258.151 263.845 259.745 264.902C261.34 265.958 261.155 267.648 261.347 269.812C260.886 274.036 260.051 277.784 258.747 281.901C262.311 284.49 265.499 286.604 268.595 289.562C269.346 290.513 270.94 291.57 270.288 293.628C269.637 295.687 267.95 295.475 266.264 295.263C263.268 295.314 259.428 295.259 256.056 294.835C255.411 300.748 253.456 306.924 251.968 312.731C251.409 313.945 251.225 315.635 249.914 315.898C248.136 316.531 247.477 314.735 246.726 313.785C243.346 309.506 243.056 304.332 240.987 299.79C240.328 297.995 240.045 296.675 239.386 294.88C235.17 294.349 230.771 295.509 226.464 295.823C224.31 295.98 222.532 296.613 221.497 294.342C220.838 292.547 221.866 290.964 222.425 289.75C223.92 287.797 225.039 285.369 226.909 283.891C230.182 281.306 229.991 279.141 228.673 275.55C227.639 273.28 226.604 271.009 226.881 268.475C226.873 264.621 229.119 263.619 232.399 264.887C235.495 267.846 239.059 270.434 243.466 273.129ZM224.77 291.757C230.296 292.024 233.76 291.603 237.133 292.027C240.597 291.607 242.099 293.508 243.417 297.099C244.267 301.059 245.493 305.495 248.029 309.667C249.425 304.705 249.885 300.481 249.878 296.627C249.871 292.773 251.741 291.296 255.581 291.351C258.11 291.669 261.107 291.617 264.479 292.041C262.509 290.509 260.915 289.453 259.321 288.396C255.29 286.176 253.972 282.585 255.276 278.468C256.019 275.565 256.296 273.03 256.196 270.021C251.329 271.55 248.715 275.93 243.94 276.614C238.79 276.823 235.878 272.175 230.069 270.588C235.609 278.563 233.562 285.584 224.77 291.757Z" fill="#FECB00"/>
<path d="M68.6292 273.825C66.5623 277.003 67.079 279.652 66.5623 282.3C66.0456 287.068 63.9785 288.657 59.3278 288.657C54.1604 288.128 48.4762 288.657 46.4092 282.3C44.859 278.063 47.9594 276.473 51.5767 277.003C54.6771 277.003 57.7776 279.122 60.8781 280.711C62.9451 275.414 62.4283 270.117 62.4283 264.819C62.9451 256.343 65.5287 254.224 73.2799 257.403C83.6148 261.641 93.9497 266.938 104.285 271.706C106.352 272.765 107.385 273.825 106.868 276.473C105.835 283.36 105.318 290.246 105.318 297.133C105.318 300.841 103.768 302.43 100.667 301.901C97.0502 301.901 93.9497 301.901 90.3325 300.311C87.7488 298.722 85.1651 296.603 86.7153 293.425C88.2655 290.246 91.366 290.776 93.9497 292.365C96.0167 293.425 97.5669 294.484 99.6339 295.544C100.667 289.187 101.184 288.657 96.0167 286.538C86.7153 281.241 77.4139 278.592 68.6292 273.825ZM101.184 276.473C90.3325 271.176 79.4809 266.408 69.146 261.641C67.5958 266.938 69.146 269.057 73.7967 271.176C82.5813 274.884 91.366 279.652 100.667 283.89C100.667 280.711 100.667 278.592 101.184 276.473Z" fill="#FECB00"/>
<g clip-path="url(#clip0)">
<path d="M221.823 313.329C221.823 313.329 201.378 360.15 161.465 332.906C121.552 305.662 157.503 284.333 172.198 309.358C186.569 334.198 153.449 383.209 96.2945 350.363" stroke="#E6E8EB" stroke-width="1.8199" stroke-miterlimit="10" stroke-linecap="round" stroke-linejoin="round" stroke-dasharray="3.75 3.75"/>
</g>
<path d="M34 146.866C30.058 144.859 26.6087 142.851 23.1594 145.862C20.2029 148.372 17.2464 150.881 13.3043 151.383C16.7536 157.907 20.2029 163.929 23.1594 169.952C24.6377 172.963 24.1449 174.97 21.6811 176.978C17.7391 180.491 13.7971 183 8.86959 183C3.44929 183 0 179.989 0 175.472C0 169.952 3.94202 168.948 8.3768 168.446C10.8406 168.446 13.3044 168.446 16.2609 169.45C15.2754 165.435 12.8116 163.427 11.3334 160.918C8.37683 156.401 5.91303 151.383 3.44926 146.364C1.971 142.851 3.44925 140.844 6.89853 141.847C11.3333 143.353 14.7826 141.847 18.2319 140.342C25.1304 137.331 30.5507 139.338 34 146.866Z" fill="#E6E8EB"/>
<path d="M235.941 163.636C235.941 165.891 235.382 168.709 232.588 168.146C229.235 167.582 227 165.891 227 162.509C227 159.691 228.677 158 232.029 158C235.382 158 235.941 160.255 235.941 163.636Z" fill="#FECB00"/>
<path d="M67.6151 234C69.9287 234.547 71.6639 235.642 71.6639 237.832C71.6639 240.022 69.9287 241.664 67.6151 241.664C64.723 241.664 64.1446 240.022 64.1446 237.832C63.5662 235.642 64.723 234 67.6151 234Z" fill="#FECB00"/>
<defs>
<clipPath id="clip0">
</clipPath>
</defs>
</svg>
