<svg width="17" height="17" viewBox="0 0 17 17" fill="none" xmlns="http://www.w3.org/2000/svg">
<path d="M11.3001 0.0881348H5.22809C2.43396 0.0881348 0.168091 2.354 0.168091 5.14814V11.2201C0.168091 14.0143 2.43396 16.2801 5.22809 16.2801H11.3001C14.0942 16.2801 16.3601 14.0143 16.3601 11.2201V5.14814C16.3601 2.354 14.0942 0.0881348 11.3001 0.0881348ZM14.8421 11.2201C14.8421 13.1733 13.2533 14.7621 11.3001 14.7621H5.22809C3.27493 14.7621 1.68609 13.1733 1.68609 11.2201V5.14814C1.68609 3.19498 3.27493 1.60613 5.22809 1.60613H11.3001C13.2533 1.60613 14.8421 3.19498 14.8421 5.14814V11.2201Z" fill="white"/>
<path d="M8.264 4.13623C6.0285 4.13623 4.216 5.94872 4.216 8.18423C4.216 10.4197 6.0285 12.2322 8.264 12.2322C10.4995 12.2322 12.312 10.4197 12.312 8.18423C12.312 5.94872 10.4995 4.13623 8.264 4.13623ZM8.264 10.7142C6.86947 10.7142 5.734 9.57877 5.734 8.18423C5.734 6.78868 6.86947 5.65423 8.264 5.65423C9.65854 5.65423 10.794 6.78868 10.794 8.18423C10.794 9.57877 9.65854 10.7142 8.264 10.7142Z" fill="white"/>
<path d="M12.6156 4.37225C12.9135 4.37225 13.155 4.13075 13.155 3.83285C13.155 3.53495 12.9135 3.29346 12.6156 3.29346C12.3177 3.29346 12.0762 3.53495 12.0762 3.83285C12.0762 4.13075 12.3177 4.37225 12.6156 4.37225Z" fill="white"/>
</svg>
