<svg width="21" height="25" viewBox="0 0 21 25" fill="none" xmlns="http://www.w3.org/2000/svg">
<path fill-rule="evenodd" clip-rule="evenodd" d="M10.6723 12.7842C9.23135 12.7842 8.05832 11.6111 8.05832 10.1702C8.05832 8.72921 9.23135 7.55618 10.6723 7.55618C12.1133 7.55618 13.2863 8.72921 13.2863 10.1702C13.2863 11.6111 12.1133 12.7842 10.6723 12.7842ZM10.6716 6.24917C8.51075 6.24917 6.75066 8.00817 6.75066 10.1702C6.75066 12.3321 8.51075 14.0911 10.6716 14.0911C12.8325 14.0911 14.5926 12.3321 14.5926 10.1702C14.5926 8.00817 12.8325 6.24917 10.6716 6.24917ZM16.5911 16.3969L10.6726 22.3154L4.754 16.3969C1.49084 13.1338 1.49084 7.82413 4.754 4.561C6.38558 2.92834 8.52798 2.11256 10.6726 2.11256C12.8161 2.11256 14.9595 2.92943 16.5911 4.561C19.8543 7.82413 19.8543 13.1338 16.5911 16.3969ZM17.5152 3.63629C13.7413 -0.136574 7.60278 -0.136574 3.82883 3.63629C0.0570574 7.40915 0.0570574 13.5488 3.82883 17.3216L10.2102 23.7019C10.3377 23.8305 10.5054 23.8936 10.672 23.8936C10.8387 23.8936 11.0064 23.8305 11.1338 23.7019L17.5152 17.3216C21.287 13.5488 21.287 7.40915 17.5152 3.63629Z" fill="#323232"/>
<path d="M10.6726 22.3154L10.4958 22.4922L10.6726 22.669L10.8493 22.4922L10.6726 22.3154ZM4.754 16.3969L4.57723 16.5737L4.754 16.3969ZM4.754 4.561L4.93078 4.73777L4.93084 4.73772L4.754 4.561ZM3.82883 3.63629L3.65208 3.45948L3.65203 3.45953L3.82883 3.63629ZM3.82883 17.3216L3.65203 17.4984L3.65207 17.4984L3.82883 17.3216ZM10.2102 23.7019L10.3878 23.5259L10.387 23.5251L10.2102 23.7019ZM11.1338 23.7019L10.9571 23.5251L10.9563 23.5259L11.1338 23.7019ZM17.5152 17.3216L17.692 17.4984L17.692 17.4984L17.5152 17.3216ZM10.6723 12.5342C9.36942 12.5342 8.30832 11.4731 8.30832 10.1702H7.80832C7.80832 11.7492 9.09328 13.0342 10.6723 13.0342V12.5342ZM8.30832 10.1702C8.30832 8.86728 9.36942 7.80618 10.6723 7.80618V7.30618C9.09328 7.30618 7.80832 8.59113 7.80832 10.1702H8.30832ZM10.6723 7.80618C11.9752 7.80618 13.0363 8.86728 13.0363 10.1702H13.5363C13.5363 8.59113 12.2513 7.30618 10.6723 7.30618V7.80618ZM13.0363 10.1702C13.0363 11.4731 11.9752 12.5342 10.6723 12.5342V13.0342C12.2513 13.0342 13.5363 11.7492 13.5363 10.1702H13.0363ZM10.6716 5.99917C8.37272 5.99917 6.50066 7.87005 6.50066 10.1702H7.00066C7.00066 8.14628 8.64878 6.49917 10.6716 6.49917V5.99917ZM6.50066 10.1702C6.50066 12.4703 8.37272 14.3411 10.6716 14.3411V13.8411C8.64878 13.8411 7.00066 12.194 7.00066 10.1702H6.50066ZM10.6716 14.3411C12.9706 14.3411 14.8426 12.4703 14.8426 10.1702H14.3426C14.3426 12.194 12.6945 13.8411 10.6716 13.8411V14.3411ZM14.8426 10.1702C14.8426 7.87005 12.9706 5.99917 10.6716 5.99917V6.49917C12.6945 6.49917 14.3426 8.14628 14.3426 10.1702H14.8426ZM16.4143 16.2202L10.4958 22.1387L10.8493 22.4922L16.7679 16.5737L16.4143 16.2202ZM10.8493 22.1387L4.93078 16.2202L4.57723 16.5737L10.4958 22.4922L10.8493 22.1387ZM4.93078 16.2202C1.76525 13.0547 1.76525 7.90328 4.93078 4.73777L4.57723 4.38422C1.21644 7.74498 1.21644 13.2129 4.57723 16.5737L4.93078 16.2202ZM4.93084 4.73772C6.51348 3.15403 8.59136 2.36256 10.6726 2.36256V1.86256C8.4646 1.86256 6.25768 2.70266 4.57717 4.38428L4.93084 4.73772ZM10.6726 2.36256C12.7526 2.36256 14.8316 3.15508 16.4143 4.73777L16.7679 4.38422C15.0874 2.70378 12.8795 1.86256 10.6726 1.86256V2.36256ZM16.4143 4.73777C19.5799 7.90328 19.5799 13.0547 16.4143 16.2202L16.7679 16.5737C20.1287 13.2129 20.1287 7.74498 16.7679 4.38422L16.4143 4.73777ZM17.692 3.45948C13.8204 -0.410974 7.52365 -0.410974 3.65208 3.45948L4.00558 3.81309C7.6819 0.137825 13.6622 0.137825 17.3385 3.81309L17.692 3.45948ZM3.65203 3.45953C-0.217342 7.33002 -0.217342 13.6279 3.65203 17.4984L4.00563 17.1449C0.331457 13.4696 0.331457 7.48827 4.00563 3.81304L3.65203 3.45953ZM3.65207 17.4984L10.0335 23.8787L10.387 23.5251L4.00559 17.1448L3.65207 17.4984ZM10.0327 23.878C10.2096 24.0564 10.4424 24.1436 10.672 24.1436V23.6436C10.5684 23.6436 10.4657 23.6045 10.3878 23.5259L10.0327 23.878ZM10.672 24.1436C10.9016 24.1436 11.1344 24.0564 11.3114 23.878L10.9563 23.5259C10.8784 23.6045 10.7757 23.6436 10.672 23.6436V24.1436ZM11.3106 23.8787L17.692 17.4984L17.3385 17.1448L10.9571 23.5251L11.3106 23.8787ZM17.692 17.4984C21.5614 13.6279 21.5614 7.33002 17.692 3.45953L17.3384 3.81304C21.0126 7.48827 21.0126 13.4696 17.3384 17.1449L17.692 17.4984Z" fill="#323232"/>
</svg>
