<svg width="19" height="23" viewBox="0 0 19 23" fill="none" xmlns="http://www.w3.org/2000/svg">
<path fill-rule="evenodd" clip-rule="evenodd" d="M9.67229 11.7392C8.38031 11.7392 7.32856 10.6874 7.32856 9.39543C7.32856 8.10345 8.38031 7.0517 9.67229 7.0517C10.9643 7.0517 12.016 8.10345 12.016 9.39543C12.016 10.6874 10.9643 11.7392 9.67229 11.7392ZM9.6717 5.87984C7.73421 5.87984 6.1561 7.45697 6.1561 9.39543C6.1561 11.3339 7.73421 12.911 9.6717 12.911C11.6092 12.911 13.1873 11.3339 13.1873 9.39543C13.1873 7.45697 11.6092 5.87984 9.6717 5.87984ZM14.9791 14.9784L9.6725 20.285L4.36587 14.9784C1.44009 12.0526 1.44009 7.29195 4.36587 4.3662C5.82876 2.90234 7.74965 2.17091 9.6725 2.17091C11.5944 2.17091 13.5163 2.90332 14.9791 4.3662C17.9049 7.29195 17.9049 12.0526 14.9791 14.9784ZM15.8077 3.53709C12.424 0.154305 6.92011 0.154305 3.53635 3.53709C0.154549 6.91987 0.154549 12.4247 3.53635 15.8075L9.25798 21.5281C9.37224 21.6434 9.52262 21.7 9.67204 21.7C9.82145 21.7 9.97184 21.6434 10.0861 21.5281L15.8077 15.8075C19.1895 12.4247 19.1895 6.91987 15.8077 3.53709Z" fill="white"/>
<path d="M9.6725 20.285L9.31895 20.6385L9.6725 20.9921L10.0261 20.6385L9.6725 20.285ZM4.36587 14.9784L4.01232 15.332L4.36587 14.9784ZM4.36587 4.3662L4.71942 4.71975L4.71954 4.71963L4.36587 4.3662ZM3.53635 3.53709L3.18285 3.18348L3.18275 3.18358L3.53635 3.53709ZM3.53635 15.8075L3.18275 16.161L3.18283 16.1611L3.53635 15.8075ZM9.25798 21.5281L9.61304 21.1761L9.6115 21.1745L9.25798 21.5281ZM10.0861 21.5281L9.73257 21.1745L9.73104 21.1761L10.0861 21.5281ZM15.8077 15.8075L16.1612 16.1611L16.1613 16.161L15.8077 15.8075ZM9.67229 11.2392C8.65645 11.2392 7.82856 10.4113 7.82856 9.39543H6.82856C6.82856 10.9636 8.10417 12.2392 9.67229 12.2392V11.2392ZM7.82856 9.39543C7.82856 8.37959 8.65645 7.5517 9.67229 7.5517V6.5517C8.10417 6.5517 6.82856 7.82731 6.82856 9.39543H7.82856ZM9.67229 7.5517C10.6881 7.5517 11.516 8.37959 11.516 9.39543H12.516C12.516 7.82731 11.2404 6.5517 9.67229 6.5517V7.5517ZM11.516 9.39543C11.516 10.4113 10.6881 11.2392 9.67229 11.2392V12.2392C11.2404 12.2392 12.516 10.9636 12.516 9.39543H11.516ZM9.6717 5.37984C7.45816 5.37984 5.6561 7.18074 5.6561 9.39543H6.6561C6.6561 7.7332 8.01027 6.37984 9.6717 6.37984V5.37984ZM5.6561 9.39543C5.6561 11.6101 7.45816 13.411 9.6717 13.411V12.411C8.01027 12.411 6.6561 11.0577 6.6561 9.39543H5.6561ZM9.6717 13.411C11.8852 13.411 13.6873 11.6101 13.6873 9.39543H12.6873C12.6873 11.0577 11.3331 12.411 9.6717 12.411V13.411ZM13.6873 9.39543C13.6873 7.18074 11.8852 5.37984 9.6717 5.37984V6.37984C11.3331 6.37984 12.6873 7.7332 12.6873 9.39543H13.6873ZM14.6256 14.6248L9.31895 19.9314L10.0261 20.6385L15.3327 15.332L14.6256 14.6248ZM10.0261 19.9314L4.71942 14.6248L4.01232 15.332L9.31895 20.6385L10.0261 19.9314ZM4.71942 14.6248C1.9889 11.8944 1.9889 7.45024 4.71942 4.71975L4.01232 4.01264C0.891273 7.13366 0.891273 12.2109 4.01232 15.332L4.71942 14.6248ZM4.71954 4.71963C6.08456 3.35372 7.87641 2.67091 9.6725 2.67091V1.67091C7.62289 1.67091 5.57296 2.45097 4.0122 4.01276L4.71954 4.71963ZM9.6725 2.67091C11.4675 2.67091 13.2604 3.35462 14.6256 4.71975L15.3327 4.01264C13.7721 2.45202 11.7213 1.67091 9.6725 1.67091V2.67091ZM14.6256 4.71975C17.3561 7.45024 17.3561 11.8944 14.6256 14.6248L15.3327 15.332C18.4537 12.2109 18.4537 7.13366 15.3327 4.01264L14.6256 4.71975ZM16.1612 3.18348C12.5822 -0.394494 6.76186 -0.394494 3.18285 3.18348L3.88986 3.89069C7.07836 0.703103 12.2657 0.703103 15.4542 3.89069L16.1612 3.18348ZM3.18275 3.18358C-0.39425 6.76161 -0.39425 12.5829 3.18275 16.161L3.88996 15.454C0.703347 12.2664 0.703347 7.07812 3.88996 3.89059L3.18275 3.18358ZM3.18283 16.1611L8.90446 21.8817L9.6115 21.1745L3.88988 15.4539L3.18283 16.1611ZM8.90292 21.8802C9.11617 22.0952 9.3967 22.2 9.67204 22.2V21.2C9.64855 21.2 9.6283 21.1915 9.61303 21.1761L8.90292 21.8802ZM9.67204 22.2C9.94737 22.2 10.2279 22.0952 10.4412 21.8802L9.73104 21.1761C9.71577 21.1915 9.69553 21.2 9.67204 21.2V22.2ZM10.4396 21.8817L16.1612 16.1611L15.4542 15.4539L9.73257 21.1745L10.4396 21.8817ZM16.1613 16.161C19.7383 12.5829 19.7383 6.76161 16.1613 3.18358L15.4541 3.89059C18.6407 7.07812 18.6407 12.2664 15.4541 15.454L16.1613 16.161Z" fill="white"/>
</svg>
