<svg width="294" height="60" viewBox="0 0 294 60" fill="none" xmlns="http://www.w3.org/2000/svg">
<g clip-path="url(#clip0)">
<path fill-rule="evenodd" clip-rule="evenodd" d="M267.257 47.9658H281.829L269.571 29.4452L280.886 11.9487H266.571L261.514 20.9957L256.286 11.9487H241.886L253.2 29.1891L243.257 44.3812L231 11.9487H217.971L204.429 47.9658H217.714L219.343 42.4181H229.371L231 47.9658H255.257L261.257 38.3214L267.257 47.9658ZM221.4 33.4566L224.4 23.5561L227.486 33.4566H221.4Z" fill="#D24C44"/>
<path fill-rule="evenodd" clip-rule="evenodd" d="M190.714 47.9658L189.086 30.7254L184.714 47.9658H175.114L170.743 30.8107L169.114 47.9658H156.514L161.4 11.9487H175.628L179.914 28.7624L184.286 11.9487H198.343L203.314 47.9658H190.714Z" fill="#D24C44"/>
<path fill-rule="evenodd" clip-rule="evenodd" d="M103.543 27.8236V11.9487H115.8V47.9658H104.143L93.4286 32.2617V47.9658H81.1714V11.9487H92.7429L103.543 27.8236Z" fill="#D24C44"/>
<path d="M76.2 11.9487H63.3429V47.9658H76.2V11.9487Z" fill="#D24C44"/>
<path fill-rule="evenodd" clip-rule="evenodd" d="M35.5714 28.7624L39.8572 11.9487H54L58.9715 47.9658H46.3714L44.7429 30.7254L40.3714 47.9658H30.7715L26.4 30.8107L24.7714 47.9658H12.1714L17.0572 11.9487H31.2857L35.5714 28.7624Z" fill="#D24C44"/>
<path d="M133.629 11.9487H120.771V47.9658H133.629V11.9487Z" fill="#D24C44"/>
<path fill-rule="evenodd" clip-rule="evenodd" d="M145.971 36.1876C142.629 36.1876 139.886 33.4565 139.886 30.0426C139.886 26.6286 142.629 23.8975 145.971 23.8975C149.314 23.8975 152.057 26.6286 152.057 30.0426C152.057 33.3711 149.314 36.1876 145.971 36.1876Z" fill="#D24C44"/>
<path fill-rule="evenodd" clip-rule="evenodd" d="M3.17143 3.15789V56.8421H290.914V3.15789H3.17143ZM290.914 0H294.086V3.15789V56.8421V60H290.914H3.17143H1.45714H0V3.15789V0H3.17143H290.914Z" fill="#D24C44"/>
</g>
<defs>
<clipPath id="clip0">
<rect width="294" height="60" fill="white"/>
</clipPath>
</defs>
</svg>
