<svg width="11" height="19" viewBox="0 0 11 19" fill="none" xmlns="http://www.w3.org/2000/svg">
<path fill-rule="evenodd" clip-rule="evenodd" d="M5.60076 3.47568C6.64276 3.47568 7.49009 4.32359 7.49009 5.3661C7.49009 6.40754 6.64276 7.25553 5.60076 7.25553C4.55986 7.25553 3.71146 6.40754 3.71146 5.3661C3.71146 4.32359 4.55986 3.47568 5.60076 3.47568ZM5.60076 9.93009C8.11771 9.93009 10.1638 7.88293 10.1638 5.3661C10.1638 2.84805 8.11771 0.800049 5.60076 0.800049C3.08438 0.800049 1.03777 2.84805 1.03777 5.3661C1.03777 7.88293 3.08438 9.93009 5.60076 9.93009ZM7.4469 13.6544C8.3758 13.4426 9.27168 13.075 10.0966 12.5563C10.7211 12.1626 10.9093 11.3368 10.5157 10.712C10.1227 10.0859 9.29781 9.89753 8.67228 10.2913C6.80324 11.4674 4.3967 11.4669 2.52872 10.2913C1.90323 9.89753 1.07828 10.0859 0.685811 10.712C0.292274 11.3372 0.479978 12.1626 1.10441 12.5563C1.92935 13.0744 2.8252 13.4426 3.75414 13.6544L1.20305 16.2067C0.681552 16.729 0.681552 17.5757 1.2036 18.098C1.46488 18.3589 1.80671 18.4897 2.14851 18.4897C2.49085 18.4897 2.8332 18.3589 3.09451 18.098L5.60024 15.5899L8.1081 18.098C8.62964 18.6204 9.4759 18.6204 9.99795 18.098C10.5205 17.5757 10.5205 16.7286 9.99795 16.2067L7.4469 13.6544Z" fill="white"/>
</svg>
