<svg width="17" height="18" viewBox="0 0 17 18" fill="none" xmlns="http://www.w3.org/2000/svg">
<path d="M2.53809 11.4624C2.93978 12.0659 3.34147 12.6694 3.84358 13.1723C4.44611 13.8763 5.14907 14.4798 5.95245 15.0832C8.26216 16.8936 11.1744 17.8994 14.0866 18C14.0866 18 14.7896 17.8994 14.9904 17.6983L16.2959 16.4913C16.798 16.089 16.9989 15.1838 16.798 14.5804L16.6976 14.2786C16.5972 13.8763 16.2959 13.474 15.8942 13.1723C15.6934 12.9711 15.4925 12.8705 15.2917 12.7699L13.0824 12.0659C12.4799 11.8647 11.5761 12.0659 11.074 12.4682L10.1702 13.2728C7.15751 12.2671 4.94822 9.85319 4.24527 6.83585L5.14907 6.03123C5.65118 5.62892 5.85202 4.72372 5.7516 4.12025L5.34991 1.80696C5.34991 1.70638 5.24949 1.50522 5.14907 1.40465C4.8478 0.901756 4.44611 0.398867 3.944 0.197711L3.74316 0.0971326C3.14063 -0.104023 2.23683 -0.00344521 1.73472 0.499444L0.429229 1.6058C0.228385 1.90753 0.0275407 2.511 0.0275407 2.511C-0.173304 5.7295 0.730495 8.84741 2.53809 11.4624Z" fill="#D24C44"/>
</svg>
