<svg width="1920" height="47" viewBox="0 0 1920 47" fill="none" xmlns="http://www.w3.org/2000/svg">
<path d="M1920 28.1582C1920 28.1582 1870.56 19.8057 1825.18 19.223C1779.13 18.6402 1739.85 19.223 1683.64 22.1366C1607.11 26.0215 1459.47 41.7553 1380.91 33.2086C1302.35 24.6618 1298.96 24.2733 1259.01 18.8345C1214.31 12.6187 1123.56 0.187104 1011.13 0.769847C891.259 1.35259 673.862 33.0144 584.466 31.4604C574.984 31.2662 539.767 29.9065 513.354 27.5756C487.619 25.2446 449.693 20.1943 398.222 18.4461C376.55 17.6691 342.011 16.3094 302.053 16.6979C291.894 16.8922 259.386 17.4749 220.783 19.8058C182.18 22.1368 146.286 25.8274 113.778 26.9929C44.0212 29.1296 -1.83399e-06 26.0217 -1.83399e-06 26.0217L0 47L1920 46.9998L1920 28.1582ZM1766.26 25.0503C1761.52 26.9927 1752.72 25.8273 1737.14 25.8273C1721.57 25.8273 1695.83 28.1582 1697.86 27.9639C1699.89 27.7697 1718.86 25.0503 1738.5 24.2733C1758.81 23.3021 1770.33 23.1078 1766.26 25.0503ZM1641.65 30.2949C1641.65 30.2949 1625.4 30.6834 1603.72 32.0431C1582.05 33.597 1533.97 37.4819 1501.46 38.8416C1445.93 40.9783 1394.45 38.8416 1399.2 38.6474C1404.61 38.4531 1464.21 39.8128 1518.39 36.5107C1540.74 35.151 1581.38 32.2373 1602.37 31.2661C1624.72 30.1006 1641.65 30.2949 1641.65 30.2949ZM1254.26 30.4892C1265.78 31.8489 1164.19 21.3597 1128.97 18.6403C1114.75 17.4748 1086.98 15.5324 1061.25 14.7554C1034.84 13.9784 1000.97 13.9784 1001.65 13.7842C1001.65 13.3957 1040.93 12.2302 1077.5 13.7842C1114.07 15.3381 1112.72 15.9209 1128.97 16.8921C1154.71 18.446 1242.75 29.1294 1254.26 30.4892ZM1348.4 33.597C1349.76 33.597 1342.98 34.374 1315.89 31.4604C1288.8 28.5467 1270.52 24.6618 1269.16 24.2733C1267.81 24.0791 1292.87 27.7697 1313.86 30.1007C1334.18 32.4316 1347.72 33.597 1348.4 33.597ZM1916.61 35.3452C1915.94 35.1509 1903.75 33.2085 1884.11 30.4891C1864.47 27.7697 1837.38 25.0503 1838.73 25.2445C1840.08 25.2445 1862.43 26.41 1888.85 30.1006C1915.26 33.7912 1917.29 35.5394 1916.61 35.3452ZM211.979 24.4677C212.656 24.8562 199.111 24.8562 181.503 26.7986C163.894 28.7411 144.931 29.9065 128.677 30.6835C101.587 32.2374 49.4391 30.4893 52.1481 30.295C54.1799 30.1008 107.683 30.8777 136.804 28.9353C151.704 27.9641 153.058 27.9641 175.407 25.8274C197.757 23.6907 211.302 23.8849 211.979 24.4677ZM494.391 29.1295C497.1 29.3238 518.095 32.2374 551.28 34.1799C584.466 36.3165 611.555 35.1511 611.555 35.7338C611.555 36.3165 604.783 37.482 569.566 36.3165C534.349 35.1511 491.682 28.9353 494.391 29.1295ZM484.91 33.9856C486.264 33.7914 507.936 36.5108 523.513 37.2878C539.09 37.8705 536.381 38.259 536.381 38.4532C536.381 38.6475 528.931 38.8417 518.095 38.0647C506.582 37.0935 483.555 34.1799 484.91 33.9856ZM633.905 38.4532C634.582 38.0647 657.608 36.8993 671.831 34.9568C686.053 33.0144 684.021 33.7913 684.698 33.9856C685.376 34.1798 679.28 35.5395 668.444 36.5108C657.608 37.6762 633.227 38.8417 633.905 38.4532ZM442.921 25.4389C442.243 24.8561 444.952 24.4677 455.788 25.8274C466.624 27.1871 473.397 28.3525 470.688 28.1583C467.979 27.964 464.593 27.3813 453.757 26.6043C442.243 25.8274 443.598 26.0216 442.921 25.4389ZM233.651 22.9137C232.296 22.9137 247.873 21.3598 256 21.1655C264.127 20.9713 269.545 20.9713 269.545 21.554C269.545 22.1367 268.868 22.5252 258.709 22.331C247.873 22.1368 235.005 22.9137 233.651 22.9137ZM1030.77 6.01443C1030.1 5.82018 1014.52 6.59716 979.979 6.59717C946.116 6.59717 887.873 11.259 863.492 13.3957C839.111 15.5324 931.217 5.82019 975.238 5.4317C1019.26 5.04321 1031.45 6.20867 1030.77 6.01443Z" fill="#FAFAFA"/>
</svg>
