<svg width="1920" height="47" viewBox="0 0 1920 47" fill="none" xmlns="http://www.w3.org/2000/svg">
<path d="M0.000367858 28.1582C0.000367858 28.1582 49.4395 19.8057 94.8151 19.223C140.868 18.6402 180.148 19.223 236.36 22.1366C312.889 26.0215 460.529 41.7553 539.09 33.2086C617.651 24.6618 621.037 24.2733 660.995 18.8345C705.693 12.6187 796.445 0.187104 908.868 0.769847C1028.74 1.35259 1246.14 33.0144 1335.53 31.4604C1345.02 31.2662 1380.23 29.9065 1406.65 27.5756C1432.38 25.2446 1470.31 20.1943 1521.78 18.4461C1543.45 17.6691 1577.99 16.3094 1617.95 16.6979C1628.11 16.8922 1660.61 17.4749 1699.22 19.8058C1737.82 22.1368 1773.71 25.8274 1806.22 26.9929C1875.98 29.1296 1920 26.0217 1920 26.0217L1920 47L0.000366211 46.9998L0.000367858 28.1582ZM153.736 25.0503C158.477 26.9927 167.281 25.8273 182.857 25.8273C198.434 25.8273 224.17 28.1582 222.138 27.9639C220.106 27.7697 201.143 25.0503 181.503 24.2733C161.185 23.3021 149.672 23.1078 153.736 25.0503ZM278.349 30.2949C278.349 30.2949 294.603 30.6834 316.275 32.0431C337.947 33.597 386.032 37.4819 418.54 38.8416C474.074 40.9783 525.545 38.8416 520.804 38.6474C515.386 38.4531 455.789 39.8128 401.609 36.5107C379.26 35.151 338.625 32.2373 317.63 31.2661C295.281 30.1006 278.349 30.2949 278.349 30.2949ZM665.736 30.4892C654.222 31.8489 755.81 21.3597 791.027 18.6403C805.249 17.4748 833.016 15.5324 858.752 14.7554C885.164 13.9784 919.027 13.9784 918.349 13.7842C918.349 13.3957 879.069 12.2302 842.497 13.7842C805.926 15.3381 807.281 15.9209 791.027 16.8921C765.291 18.446 677.249 29.1294 665.736 30.4892ZM571.598 33.597C570.244 33.597 577.016 34.374 604.106 31.4604C631.196 28.5467 649.482 24.6618 650.836 24.2733C652.191 24.0791 627.132 27.7697 606.138 30.1007C585.82 32.4316 572.275 33.597 571.598 33.597ZM3.38648 35.3452C4.06372 35.1509 16.2542 33.2085 35.8944 30.4891C55.5345 27.7697 82.6246 25.0503 81.2701 25.2445C79.9157 25.2445 57.5664 26.41 31.1537 30.1006C4.74109 33.7912 2.70923 35.5394 3.38648 35.3452ZM1708.02 24.4677C1707.34 24.8562 1720.89 24.8562 1738.5 26.7986C1756.11 28.7411 1775.07 29.9065 1791.32 30.6835C1818.41 32.2374 1870.56 30.4893 1867.85 30.295C1865.82 30.1008 1812.32 30.8777 1783.2 28.9353C1768.3 27.9641 1766.94 27.9641 1744.59 25.8274C1722.24 23.6907 1708.7 23.8849 1708.02 24.4677ZM1425.61 29.1295C1422.9 29.3238 1401.9 32.2374 1368.72 34.1799C1335.53 36.3165 1308.44 35.1511 1308.44 35.7338C1308.44 36.3165 1315.22 37.482 1350.43 36.3165C1385.65 35.1511 1428.32 28.9353 1425.61 29.1295ZM1435.09 33.9856C1433.74 33.7914 1412.06 36.5108 1396.49 37.2878C1380.91 37.8705 1383.62 38.259 1383.62 38.4532C1383.62 38.6475 1391.07 38.8417 1401.9 38.0647C1413.42 37.0935 1436.44 34.1799 1435.09 33.9856ZM1286.1 38.4532C1285.42 38.0647 1262.39 36.8993 1248.17 34.9568C1233.95 33.0144 1235.98 33.7913 1235.3 33.9856C1234.62 34.1798 1240.72 35.5395 1251.56 36.5108C1262.39 37.6762 1286.77 38.8417 1286.1 38.4532ZM1477.08 25.4389C1477.76 24.8561 1475.05 24.4677 1464.21 25.8274C1453.38 27.1871 1446.6 28.3525 1449.31 28.1583C1452.02 27.964 1455.41 27.3813 1466.24 26.6043C1477.76 25.8274 1476.4 26.0216 1477.08 25.4389ZM1686.35 22.9137C1687.7 22.9137 1672.13 21.3598 1664 21.1655C1655.87 20.9713 1650.46 20.9713 1650.46 21.554C1650.46 22.1367 1651.13 22.5252 1661.29 22.331C1672.13 22.1368 1684.99 22.9137 1686.35 22.9137ZM889.228 6.01443C889.905 5.82018 905.482 6.59716 940.021 6.59717C973.884 6.59717 1032.13 11.259 1056.51 13.3957C1080.89 15.5324 988.783 5.82019 944.762 5.4317C900.741 5.04321 888.55 6.20867 889.228 6.01443Z" fill="#FAFAFA"/>
</svg>
