<svg width="27" height="27" viewBox="0 0 27 27" fill="none" xmlns="http://www.w3.org/2000/svg">
<path d="M5.27122 14.9135L14.5118 5.67292C16.2876 3.89712 19.2218 3.95465 21.0686 5.80148C22.9155 7.64832 22.973 10.5825 21.1972 12.3583L11.1531 22.4024C10.0442 23.5113 8.20828 23.4753 7.05506 22.3221C5.90183 21.1688 5.86583 19.3329 6.9747 18.2241L15.4118 9.787C15.8537 9.34505 16.5914 9.35952 17.051 9.81914C17.5106 10.2788 17.5251 11.0164 17.0831 11.4583L9.44958 19.0919L10.7031 20.3454L18.3366 12.7118C19.4455 11.603 19.4095 9.76707 18.2563 8.61384C17.103 7.46061 15.2671 7.42462 14.1583 8.53349L5.7212 16.9706C3.9454 18.7464 4.00293 21.6805 5.84976 23.5274C7.6966 25.3742 10.6308 25.4317 12.4066 23.6559L22.4507 13.6118C24.8934 11.1691 24.8144 7.13663 22.2739 4.59619C19.7335 2.05575 15.701 1.97668 13.2583 4.41941L4.01771 13.66L5.27122 14.9135Z" fill="black"/>
</svg>
