<svg width="19" height="12" viewBox="0 0 19 12" fill="none" xmlns="http://www.w3.org/2000/svg">
<path d="M18.3811 0.872903C18.5127 0.447863 18.3811 0.124023 17.7537 0.124023H15.7095C15.1832 0.124023 14.9505 0.397264 14.8189 0.700864C14.8189 0.700864 13.7765 3.24098 12.299 4.90066C11.8133 5.3763 11.6007 5.5281 11.3376 5.5281C11.2061 5.5281 10.9935 5.3763 10.9935 4.94114V0.872903C10.9935 0.356783 10.8721 0.124023 10.4369 0.124023H7.20866C6.88482 0.124023 6.69253 0.366903 6.69253 0.599663C6.69253 1.08542 7.45154 1.20686 7.50214 2.5933V5.60906C7.50214 6.27698 7.3807 6.39842 7.1277 6.39842C6.43954 6.39842 4.73937 3.83806 3.73749 0.923503C3.53509 0.356783 3.34281 0.124023 2.81657 0.124023H0.762214C0.185374 0.124023 0.0639344 0.397264 0.0639344 0.700864C0.0639344 1.24734 0.762214 3.93926 3.30233 7.5015C4.99237 9.94042 7.38069 11.256 9.5565 11.256C10.862 11.256 11.0239 10.9625 11.0239 10.4565V8.6147C11.0239 8.03786 11.1453 7.91642 11.5603 7.91642C11.8639 7.91642 12.38 8.06822 13.5944 9.23202C14.9909 10.6286 15.2136 11.256 16.0029 11.256H18.0472C18.6341 11.256 18.9276 10.9625 18.7657 10.3857C18.5835 9.80886 17.9156 8.9689 17.0352 7.97714C16.5595 7.42054 15.841 6.81334 15.6184 6.49962C15.3148 6.11506 15.4059 5.94302 15.6184 5.58882C15.6184 5.58882 18.118 2.07718 18.3811 0.872903Z" fill="white"/>
</svg>
